<?xml version="1.0" encoding="UTF-8"?>
<!DOCTYPE svg PUBLIC "-//W3C//DTD SVG 1.1//EN" "http://www.w3.org/Graphics/SVG/1.1/DTD/svg11.dtd">
<!-- Creator: CorelDRAW 2017 -->
<svg xmlns="http://www.w3.org/2000/svg" xml:space="preserve" width="279.4mm" height="215.9mm" version="1.1" style="shape-rendering:geometricPrecision; text-rendering:geometricPrecision; image-rendering:optimizeQuality; fill-rule:evenodd; clip-rule:evenodd"
viewBox="0 0 27940 21590"
 xmlns:xlink="http://www.w3.org/1999/xlink">
 <defs>
  <style type="text/css">
   <![CDATA[
    .str1 {stroke:#4B4B4D;stroke-width:150}
    .str0 {stroke:#4B4B4D;stroke-width:250}
    .fil0 {fill:none}
    .fil6 {fill:#FEFEFE}
    .fil1 {fill:#606062}
    .fil8 {fill:#263238}
    .fil10 {fill:#40C4FF}
    .fil11 {fill:#4DB6AC}
    .fil9 {fill:#FF5252}
    .fil7 {fill:#FFD740}
    .fil12 {fill:white}
    .fil3 {fill:url(#id8)}
    .fil4 {fill:url(#id9)}
    .fil5 {fill:url(#id10)}
    .fil2 {fill:url(#id11)}
   ]]>
  </style>
    <mask id="id0">
  <radialGradient id="id1" gradientUnits="userSpaceOnUse" cx="10756" cy="14755" r="0" fx="10756" fy="14755">
   <stop offset="0" style="stop-opacity:1; stop-color:white"/>
   <stop offset="0.701961" style="stop-opacity:-127.502; stop-color:white"/>
   <stop offset="1" style="stop-opacity:0; stop-color:white"/>
  </radialGradient>
     <rect style="fill:url(#id1)" x="10681" y="14680" width="6578" height="6578"/>
    </mask>
    <mask id="id2">
  <radialGradient id="id3" gradientUnits="userSpaceOnUse" cx="17930" cy="7581" r="0" fx="17930" fy="7581">
   <stop offset="0" style="stop-opacity:1; stop-color:white"/>
   <stop offset="0.701961" style="stop-opacity:-127.502; stop-color:white"/>
   <stop offset="1" style="stop-opacity:0; stop-color:white"/>
  </radialGradient>
     <rect style="fill:url(#id3)" x="17855" y="7506" width="6578" height="6578"/>
    </mask>
    <mask id="id4">
  <radialGradient id="id5" gradientUnits="userSpaceOnUse" cx="3582" cy="7581" r="0" fx="3582" fy="7581">
   <stop offset="0" style="stop-opacity:1; stop-color:white"/>
   <stop offset="0.701961" style="stop-opacity:-127.502; stop-color:white"/>
   <stop offset="1" style="stop-opacity:0; stop-color:white"/>
  </radialGradient>
     <rect style="fill:url(#id5)" x="3507" y="7506" width="6578" height="6578"/>
    </mask>
    <mask id="id6">
  <radialGradient id="id7" gradientUnits="userSpaceOnUse" cx="10756" cy="406" r="0" fx="10756" fy="406">
   <stop offset="0" style="stop-opacity:1; stop-color:white"/>
   <stop offset="0.701961" style="stop-opacity:-127.502; stop-color:white"/>
   <stop offset="1" style="stop-opacity:0; stop-color:white"/>
  </radialGradient>
     <rect style="fill:url(#id7)" x="10681" y="331" width="6578" height="6578"/>
    </mask>
  <radialGradient id="id8" gradientUnits="userSpaceOnUse" gradientTransform="matrix(1 -0 -0 0.999999 0 0)" cx="21144" cy="10795" r="6308" fx="21144" fy="10795">
   <stop offset="0" style="stop-opacity:1; stop-color:#FEFEFE"/>
   <stop offset="0.901961" style="stop-opacity:1; stop-color:#A4A4A5"/>
   <stop offset="1" style="stop-opacity:1; stop-color:#4B4B4D"/>
  </radialGradient>
  <radialGradient id="id9" gradientUnits="userSpaceOnUse" gradientTransform="matrix(1 -0 -0 0.999999 0 0)" xlink:href="#id8" cx="6796" cy="10795" r="6308" fx="6796" fy="10795">
  </radialGradient>
  <radialGradient id="id10" gradientUnits="userSpaceOnUse" gradientTransform="matrix(1 -0 -0 1 0 0)" xlink:href="#id8" cx="13970" cy="17969" r="6308" fx="13970" fy="17969">
  </radialGradient>
  <radialGradient id="id11" gradientUnits="userSpaceOnUse" gradientTransform="matrix(1 -0 -0 1 0 0)" xlink:href="#id8" cx="13970" cy="3621" r="6308" fx="13970" fy="3621">
  </radialGradient>
 </defs>
 <g id="Capa_x0020_1">
  <metadata id="CorelCorpID_0Corel-Layer"/>
  <rect class="fil0" width="27940" height="21590"/>
  <g id="_1989278189824">
   <circle class="fil0 str0" cx="13970" cy="10795" r="7174"/>
   <circle class="fil0 str1" cx="11639" cy="9977" r="975"/>
   <path class="fil1 str1" d="M11639 9003c299,0 567,135 746,347 -323,363 -794,592 -1319,592 -137,0 -270,-16 -398,-45 41,-501 460,-894 971,-894z"/>
   <path class="fil0 str1" d="M10167 13221l0 -1250c0,0 -17,-261 166,-416 183,-155 307,-194 307,-194l589 -263c0,0 76,-69 47,-216"/>
   <polyline class="fil0 str1" points="12497,11304 12022,11100 12013,10878 "/>
   <line class="fil0 str1" x1="10784" y1="12278" x2="10784" y2= "13216" />
   <polyline class="fil0 str1" points="11274,10881 11225,11636 12089,11636 12013,10878 "/>
   <circle class="fil0 str1" cx="13972" cy="9344" r="975"/>
   <path class="fil1 str1" d="M13972 8369c299,0 567,135 746,347 -323,363 -794,592 -1319,592 -137,0 -270,-16 -398,-45 41,-501 460,-894 971,-894z"/>
   <path class="fil0 str1" d="M12499 12587l0 -1250c0,0 -17,-261 166,-416 183,-155 307,-194 307,-194l589 -263c0,0 76,-69 47,-216"/>
   <path class="fil0 str1" d="M15440 11213c0,0 -49,-279 -291,-394 -242,-115 -320,-147 -320,-147l-475 -204 -10 -222"/>
   <polyline class="fil0 str1" points="13607,10248 13557,11002 14421,11002 14345,10245 "/>
   <circle class="fil0 str1" cx="16301" cy="9977" r="975"/>
   <path class="fil1 str1" d="M16301 9003c-299,0 -567,135 -746,347 323,363 794,592 1319,592 137,0 270,-16 398,-45 -41,-501 -460,-894 -971,-894z"/>
   <path class="fil0 str1" d="M17774 13221l0 -1250c0,0 17,-261 -166,-416 -183,-155 -307,-194 -307,-194l-589 -263c0,0 -76,-69 -47,-216"/>
   <polyline class="fil0 str1" points="15443,11304 15918,11100 15928,10878 "/>
   <line class="fil0 str1" x1="17156" y1="12278" x2="17156" y2= "13216" />
   <polyline class="fil0 str1" points="16666,10881 16715,11636 15852,11636 15928,10878 "/>
   <line class="fil0 str1" x1="15440" y1="11156" x2="15452" y2= "12531" />
   <circle class="fil2 str1" cx="13970" cy="3621" r="3214"/>
   <circle class="fil3 str1" cx="21144" cy="10795" r="3214"/>
   <circle class="fil4 str1" cx="6796" cy="10795" r="3214"/>
   <circle class="fil5 str1" cx="13970" cy="17969" r="3214"/>
   <line class="fil0 str1" x1="13125" y1="11652" x2="13125" y2= "12591" />
   <line class="fil0 str1" x1="14882" y1="11652" x2="14882" y2= "12591" />
   <path class="fil6 str1" style="mask:url(#id0)" d="M13970 14755c1775,0 3214,1439 3214,3214 0,1775 -1439,3214 -3214,3214 -1775,0 -3214,-1439 -3214,-3214 0,-1775 1439,-3214 3214,-3214z"/>
   <g>
    <path class="fil7" d="M12537 18237l0 89c493,0 893,400 893,893 0,127 -27,248 -75,357l164 0 0 -1430 -893 0c-49,0 -89,40 -89,89l0 0zm0 0z"/>
    <path class="fil7" d="M13878 17433l-1251 0c-49,0 -89,40 -89,89l0 179c0,49 40,89 89,89l893 0 0 -89c0,-49 40,-89 89,-89l357 0 0 -89c0,-49 -40,-89 -89,-89l0 0zm0 0z"/>
    <path class="fil7" d="M15664 16719l-1251 0c-49,0 -89,-40 -89,-89l0 -179c0,-49 40,-89 89,-89l1251 0c49,0 89,40 89,89l0 179c0,49 -40,89 -89,89l0 0zm0 0z"/>
    <path class="fil8" d="M15664 16763l-1251 0c-74,0 -134,-60 -134,-134l0 -179c0,-74 60,-134 134,-134l1251 0c74,0 134,60 134,134l0 179c0,74 -60,134 -134,134l0 0zm-1251 -357c-25,0 -45,20 -45,45l0 179c0,25 20,45 45,45l1251 0c25,0 45,-20 45,-45l0 -179c0,-25 -20,-45 -45,-45l-1251 0zm0 0z"/>
    <path class="fil7" d="M15664 16361l-1251 0c-49,0 -89,-40 -89,-89l0 -179c0,-49 40,-89 89,-89l1251 0c49,0 89,40 89,89l0 179c0,49 -40,89 -89,89l0 0zm0 0z"/>
    <path class="fil8" d="M15664 16406l-1251 0c-74,0 -134,-60 -134,-134l0 -179c0,-74 60,-134 134,-134l1251 0c74,0 134,60 134,134l0 179c0,74 -60,134 -134,134l0 0zm-1251 -357c-25,0 -45,20 -45,45l0 179c0,25 20,45 45,45l1251 0c25,0 45,-20 45,-45l0 -179c0,-25 -20,-45 -45,-45l-1251 0zm0 0z"/>
    <path class="fil7" d="M15664 17433l-1251 0c-49,0 -89,-40 -89,-89l0 -179c0,-49 40,-89 89,-89l1251 0c49,0 89,40 89,89l0 179c0,49 -40,89 -89,89l0 0zm0 0z"/>
    <path class="fil8" d="M15664 17478l-1251 0c-74,0 -134,-60 -134,-134l0 -179c0,-74 60,-134 134,-134l1251 0c74,0 134,60 134,134l0 179c0,74 -60,134 -134,134l0 0zm-1251 -357c-25,0 -45,20 -45,45l0 179c0,25 20,45 45,45l1251 0c25,0 45,-20 45,-45l0 -179c0,-25 -20,-45 -45,-45l-1251 0zm0 0z"/>
    <path class="fil7" d="M15664 17076l-1251 0c-49,0 -89,-40 -89,-89l0 -179c0,-49 40,-89 89,-89l1251 0c49,0 89,40 89,89l0 179c0,49 -40,89 -89,89l0 0zm0 0z"/>
    <path class="fil8" d="M15664 17121l-1251 0c-74,0 -134,-60 -134,-134l0 -179c0,-74 60,-134 134,-134l1251 0c74,0 134,60 134,134l0 179c0,74 -60,134 -134,134l0 0zm-1251 -357c-25,0 -45,20 -45,45l0 179c0,25 20,45 45,45l1251 0c25,0 45,-20 45,-45l0 -179c0,-25 -20,-45 -45,-45l-1251 0zm0 0z"/>
    <path class="fil7" d="M15039 19578l-1251 0c-49,0 -89,-40 -89,-89l0 -179c0,-49 40,-89 89,-89l1251 0c49,0 89,40 89,89l0 179c0,49 -40,89 -89,89l0 0zm0 0z"/>
    <path class="fil8" d="M15039 19622l-1251 0c-74,0 -134,-60 -134,-134l0 -179c0,-74 60,-134 134,-134l1251 0c74,0 134,60 134,134l0 179c0,74 -60,134 -134,134l0 0zm-1251 -357c-25,0 -45,20 -45,45l0 179c0,25 20,45 45,45l1251 0c25,0 45,-20 45,-45l0 -179c0,-25 -20,-45 -45,-45l-1251 0zm0 0z"/>
    <path class="fil7" d="M15039 19220l-1251 0c-49,0 -89,-40 -89,-89l0 -179c0,-49 40,-89 89,-89l1251 0c49,0 89,40 89,89l0 179c0,49 -40,89 -89,89l0 0zm0 0z"/>
    <path class="fil8" d="M15039 19265l-1251 0c-74,0 -134,-60 -134,-134l0 -179c0,-74 60,-134 134,-134l1251 0c74,0 134,60 134,134l0 179c0,74 -60,134 -134,134l0 0zm-1251 -357c-25,0 -45,20 -45,45l0 179c0,25 20,45 45,45l1251 0c25,0 45,-20 45,-45l0 -179c0,-25 -20,-45 -45,-45l-1251 0zm0 0z"/>
    <path class="fil7" d="M15039 18863l-1251 0c-49,0 -89,-40 -89,-89l0 -179c0,-49 40,-89 89,-89l1251 0c49,0 89,40 89,89l0 179c0,49 -40,89 -89,89l0 0zm0 0z"/>
    <path class="fil8" d="M15039 18908l-1251 0c-74,0 -134,-60 -134,-134l0 -179c0,-74 60,-134 134,-134l1251 0c74,0 134,60 134,134l0 179c0,74 -60,134 -134,134l0 0zm-1251 -357c-25,0 -45,20 -45,45l0 179c0,25 20,45 45,45l1251 0c25,0 45,-20 45,-45l0 -179c0,-25 -20,-45 -45,-45l-1251 0zm0 0z"/>
    <path class="fil7" d="M15039 18506l-1251 0c-49,0 -89,-40 -89,-89l0 -179c0,-49 40,-89 89,-89l1251 0c49,0 89,40 89,89l0 179c0,49 -40,89 -89,89l0 0zm0 0z"/>
    <path class="fil8" d="M15039 18550l-1251 0c-74,0 -134,-60 -134,-134l0 -179c0,-74 60,-134 134,-134l1251 0c74,0 134,60 134,134l0 179c0,74 -60,134 -134,134l0 0zm-1251 -357c-25,0 -45,20 -45,45l0 179c0,25 20,45 45,45l1251 0c25,0 45,-20 45,-45l0 -179c0,-25 -20,-45 -45,-45l-1251 0zm0 0z"/>
    <path class="fil7" d="M15039 18148l-1251 0c-49,0 -89,-40 -89,-89l0 -179c0,-49 40,-89 89,-89l1251 0c49,0 89,40 89,89l0 179c0,49 -40,89 -89,89zm0 0z"/>
    <path class="fil8" d="M15039 18193l-1251 0c-74,0 -134,-60 -134,-134l0 -179c0,-74 60,-134 134,-134l1251 0c74,0 134,60 134,134l0 179c0,74 -60,134 -134,134l0 0zm-1251 -357c-25,0 -45,20 -45,45l0 179c0,25 20,45 45,45l1251 0c25,0 45,-20 45,-45l0 -179c0,-25 -20,-45 -45,-45l-1251 0zm0 0z"/>
    <g>
     <path class="fil7" d="M15307 18863l357 0c49,0 89,-40 89,-89l0 -179c0,-49 -40,-89 -89,-89l-357 0 0 357zm0 0l0 0 0 0z"/>
    </g>
    <path class="fil8" d="M15664 18908l-357 0c-25,0 -45,-20 -45,-45 0,-25 20,-45 45,-45l357 0c25,0 45,-20 45,-45l0 -179c0,-25 -20,-45 -45,-45l-357 0c-25,0 -45,-20 -45,-45 0,-25 20,-45 45,-45l357 0c74,0 134,60 134,134l0 179c0,74 -60,134 -134,134l0 0zm0 0z"/>
    <g>
     <path class="fil7" d="M15307 18506l357 0c49,0 89,-40 89,-89l0 -179c0,-49 -40,-89 -89,-89l-357 0 0 357zm0 0l0 0 0 0z"/>
    </g>
    <path class="fil8" d="M15664 18550l-357 0c-25,0 -45,-20 -45,-45 0,-25 20,-45 45,-45l357 0c25,0 45,-20 45,-45l0 -179c0,-25 -20,-45 -45,-45l-357 0c-25,0 -45,-20 -45,-45 0,-25 20,-45 45,-45l357 0c74,0 134,60 134,134l0 179c0,74 -60,134 -134,134l0 0zm0 0z"/>
    <g>
     <path class="fil7" d="M15307 19578l357 0c49,0 89,-40 89,-89l0 -179c0,-49 -40,-89 -89,-89l-357 0 0 357zm0 0l0 0 0 0z"/>
    </g>
    <path class="fil8" d="M15664 19622l-357 0c-25,0 -45,-20 -45,-45 0,-25 20,-45 45,-45l357 0c25,0 45,-20 45,-45l0 -179c0,-25 -20,-45 -45,-45l-357 0c-25,0 -45,-20 -45,-45 0,-25 20,-45 45,-45l357 0c74,0 134,60 134,134l0 179c0,74 -60,134 -134,134l0 0zm0 0z"/>
    <g>
     <path class="fil7" d="M15307 19220l357 0c49,0 89,-40 89,-89l0 -179c0,-49 -40,-89 -89,-89l-357 0 0 357zm0 0l0 0 0 0z"/>
    </g>
    <path class="fil8" d="M15664 19265l-357 0c-25,0 -45,-20 -45,-45 0,-25 20,-45 45,-45l357 0c25,0 45,-20 45,-45l0 -179c0,-25 -20,-45 -45,-45l-357 0c-25,0 -45,-20 -45,-45 0,-25 20,-45 45,-45l357 0c74,0 134,60 134,134l0 179c0,74 -60,134 -134,134l0 0zm0 0z"/>
    <g>
     <path class="fil7" d="M15307 18148l357 0c49,0 89,-40 89,-89l0 -179c0,-49 -40,-89 -89,-89l-357 0 0 357zm0 0l0 0 0 0z"/>
    </g>
    <path class="fil8" d="M15664 18193l-357 0c-25,0 -45,-20 -45,-45 0,-25 20,-45 45,-45l357 0c25,0 45,-20 45,-45l0 -179c0,-25 -20,-45 -45,-45l-357 0c-25,0 -45,-20 -45,-45 0,-25 20,-45 45,-45l357 0c74,0 134,60 134,134l0 179c0,74 -60,134 -134,134l0 0zm0 0z"/>
    <g>
     <path class="fil7" d="M13520 18148l-893 0c-49,0 -89,-40 -89,-89l0 -179c0,-49 40,-89 89,-89l893 0 0 357zm0 0l0 0 0 0z"/>
    </g>
    <path class="fil8" d="M13520 18193l-893 0c-74,0 -134,-60 -134,-134l0 -179c0,-74 60,-134 134,-134l893 0c25,0 45,20 45,45 0,25 -20,45 -45,45l-893 0c-25,0 -45,20 -45,45l0 179c0,25 20,45 45,45l893 0c25,0 45,20 45,45 0,25 -20,45 -45,45l0 0zm0 0z"/>
    <path class="fil7" d="M15664 17433l-1251 0c-49,0 -89,40 -89,89l0 89 893 0c49,0 89,40 89,89l0 89 357 0c49,0 89,-40 89,-89l0 -179c0,-49 -40,-89 -89,-89l0 0zm0 0z"/>
    <path class="fil8" d="M15664 17835l-357 0c-25,0 -45,-20 -45,-45 0,-25 20,-45 45,-45l357 0c25,0 45,-20 45,-45l0 -179c0,-25 -20,-45 -45,-45l-1251 0c-25,0 -45,20 -45,45l0 89c0,25 -20,45 -45,45 -25,0 -45,-20 -45,-45l0 -89c0,-74 60,-134 134,-134l1251 0c74,0 134,60 134,134l0 179c0,74 -60,134 -134,134l0 0zm0 0z"/>
    <path class="fil8" d="M13520 17835l-893 0c-74,0 -134,-60 -134,-134l0 -179c0,-74 60,-134 134,-134l1251 0c74,0 134,60 134,134l0 89c0,25 -20,45 -45,45 -25,0 -45,-20 -45,-45l0 -89c0,-25 -20,-45 -45,-45l-1251 0c-25,0 -45,20 -45,45l0 179c0,25 20,45 45,45l893 0c25,0 45,20 45,45 0,25 -20,45 -45,45l0 0zm0 0z"/>
    <path class="fil7" d="M13878 17433l-1251 0c-49,0 -89,-40 -89,-89l0 -179c0,-49 40,-89 89,-89l1251 0c49,0 89,40 89,89l0 179c0,49 -40,89 -89,89l0 0zm0 0z"/>
    <path class="fil8" d="M13878 17478l-1251 0c-74,0 -134,-60 -134,-134l0 -179c0,-74 60,-134 134,-134l1251 0c74,0 134,60 134,134l0 179c0,74 -60,134 -134,134l0 0zm-1251 -357c-25,0 -45,20 -45,45l0 179c0,25 20,45 45,45l1251 0c25,0 45,-20 45,-45l0 -179c0,-25 -20,-45 -45,-45l-1251 0zm0 0z"/>
    <path class="fil7" d="M13878 17076l-1251 0c-49,0 -89,-40 -89,-89l0 -179c0,-49 40,-89 89,-89l1251 0c49,0 89,40 89,89l0 179c0,49 -40,89 -89,89l0 0zm0 0z"/>
    <path class="fil8" d="M13878 17121l-1251 0c-74,0 -134,-60 -134,-134l0 -179c0,-74 60,-134 134,-134l1251 0c74,0 134,60 134,134l0 179c0,74 -60,134 -134,134l0 0zm-1251 -357c-25,0 -45,20 -45,45l0 179c0,25 20,45 45,45l1251 0c25,0 45,-20 45,-45l0 -179c0,-25 -20,-45 -45,-45l-1251 0zm0 0z"/>
    <path class="fil7" d="M13252 19220c0,395 -320,715 -715,715 -395,0 -715,-320 -715,-715 0,-395 320,-715 715,-715 395,0 715,320 715,715zm0 0z"/>
    <path class="fil8" d="M12537 19980c-419,0 -759,-341 -759,-759 0,-419 341,-759 759,-759 419,0 759,341 759,759 0,419 -341,759 -759,759zm0 -1430c-370,0 -670,301 -670,670 0,370 301,670 670,670 370,0 670,-301 670,-670 0,-370 -301,-670 -670,-670zm0 0z"/>
    <path class="fil8" d="M13520 18550l-448 0c-25,0 -45,-20 -45,-45 0,-25 20,-45 45,-45l448 0c25,0 45,20 45,45 0,25 -20,45 -45,45zm0 0z"/>
    <path class="fil8" d="M12537 18372c-25,0 -45,-20 -45,-45l0 -89c0,-74 60,-134 134,-134l893 0c25,0 45,20 45,45 0,25 -20,45 -45,45l-893 0c-25,0 -45,20 -45,45l0 89c0,25 -20,45 -45,45zm0 0z"/>
    <path class="fil8" d="M13520 18550l-448 0c-25,0 -45,-20 -45,-45 0,-25 20,-45 45,-45l448 0c25,0 45,20 45,45 0,25 -20,45 -45,45zm0 0z"/>
    <path class="fil8" d="M13520 19622l-164 0c-25,0 -45,-20 -45,-45 0,-25 20,-45 45,-45l164 0c25,0 45,20 45,45 0,25 -20,45 -45,45zm0 0z"/>
    <path class="fil8" d="M13520 18908l-164 0c-25,0 -45,-20 -45,-45 0,-25 20,-45 45,-45l164 0c25,0 45,20 45,45 0,25 -20,45 -45,45zm0 0z"/>
    <path class="fil8" d="M13520 18908l-164 0c-25,0 -45,-20 -45,-45 0,-25 20,-45 45,-45l164 0c25,0 45,20 45,45 0,25 -20,45 -45,45zm0 0z"/>
    <path class="fil8" d="M13520 19265l-89 0c-25,0 -45,-20 -45,-45 0,-25 20,-45 45,-45l89 0c25,0 45,20 45,45 0,25 -20,45 -45,45zm0 0z"/>
    <path class="fil8" d="M13520 19265l-89 0c-25,0 -45,-20 -45,-45 0,-25 20,-45 45,-45l89 0c25,0 45,20 45,45 0,25 -20,45 -45,45zm0 0z"/>
    <path class="fil8" d="M13520 19622l-164 0c-25,0 -45,-20 -45,-45 0,-25 20,-45 45,-45l164 0c25,0 45,20 45,45 0,25 -20,45 -45,45zm0 0z"/>
    <path class="fil8" d="M12537 19042c-25,0 -45,-20 -45,-45l0 -134c0,-25 20,-45 45,-45 25,0 45,20 45,45l0 134c0,25 -20,45 -45,45zm0 0z"/>
    <path class="fil8" d="M12537 19622c-25,0 -45,-20 -45,-45l0 -134c0,-25 20,-45 45,-45 25,0 45,20 45,45l0 134c0,25 -20,45 -45,45zm0 0z"/>
    <path class="fil8" d="M12604 19488l-246 0c-25,0 -45,-20 -45,-45 0,-25 20,-45 45,-45l246 0c37,0 67,-30 67,-67 0,-37 -30,-67 -67,-67l-134 0c-86,0 -156,-70 -156,-156 0,-86 70,-156 156,-156l201 0c25,0 45,20 45,45 0,25 -20,45 -45,45l-201 0c-37,0 -67,30 -67,67 0,37 30,67 67,67l134 0c86,0 156,70 156,156 0,86 -70,156 -156,156zm0 0z"/>
   </g>
   <path class="fil6 str1" style="mask:url(#id2)" d="M21144 7581c1775,0 3214,1439 3214,3214 0,1775 -1439,3214 -3214,3214 -1775,0 -3214,-1439 -3214,-3214 0,-1775 1439,-3214 3214,-3214z"/>
   <g>
    <path class="fil8" d="M22399 9592l-3347 0c-19,0 -35,-16 -35,-35l0 -384c0,-115 94,-209 209,-209l2998 0c115,0 209,94 209,209l0 384c0,19 -16,35 -35,35l0 0zm-3312 -70l3277 0 0 -349c0,-77 -63,-139 -139,-139l-2998 0c-77,0 -139,63 -139,139l0 349zm0 0z"/>
    <path class="fil8" d="M19366 9418c-77,0 -139,-63 -139,-139 0,-77 63,-139 139,-139 77,0 139,63 139,139 0,77 -63,139 -139,139zm0 -209c-38,0 -70,31 -70,70 0,38 31,70 70,70 38,0 70,-31 70,-70 0,-38 -31,-70 -70,-70zm0 0z"/>
    <path class="fil8" d="M19715 9418c-77,0 -139,-63 -139,-139 0,-77 63,-139 139,-139 77,0 139,63 139,139 0,77 -63,139 -139,139zm0 -209c-38,0 -70,31 -70,70 0,38 31,70 70,70 38,0 70,-31 70,-70 0,-38 -31,-70 -70,-70zm0 0z"/>
    <path class="fil8" d="M20865 11475l-279 0c-58,0 -105,-47 -105,-105l0 -70c0,-58 47,-105 105,-105l279 0c58,0 105,47 105,105l0 70c0,58 -47,105 -105,105l0 0zm-279 -209c-19,0 -35,16 -35,35l0 70c0,19 16,35 35,35l279 0c19,0 35,-16 35,-35l0 -70c0,-19 -16,-35 -35,-35l-279 0zm0 0z"/>
    <path class="fil8" d="M20865 12207l-279 0c-58,0 -105,-47 -105,-105l0 -70c0,-58 47,-105 105,-105l279 0c58,0 105,47 105,105l0 70c0,58 -47,105 -105,105l0 0zm-279 -209c-19,0 -35,16 -35,35l0 70c0,19 16,35 35,35l279 0c19,0 35,-16 35,-35l0 -70c0,-19 -16,-35 -35,-35l-279 0zm0 0z"/>
    <path class="fil8" d="M23166 12625l-2371 0c-58,0 -105,-47 -105,-105l0 -209c0,-19 16,-35 35,-35 19,0 35,16 35,35l0 209c0,19 16,35 35,35l2371 0c19,0 35,-16 35,-35l0 -1639c0,-19 -16,-35 -35,-35l-2371 0c-19,0 -35,16 -35,35l0 209c0,19 -16,35 -35,35 -19,0 -35,-16 -35,-35l0 -209c0,-58 47,-105 105,-105l2371 0c58,0 105,47 105,105l0 1639c0,58 -47,105 -105,105l0 0zm0 0z"/>
    <path class="fil8" d="M20726 11858c-19,0 -35,-16 -35,-35l0 -244c0,-19 16,-35 35,-35 19,0 35,16 35,35l0 244c0,19 -16,35 -35,35zm0 0z"/>
    <path class="fil8" d="M20586 11824l-1360 0c-115,0 -209,-94 -209,-209l0 -2057c0,-19 16,-35 35,-35l3347 0c19,0 35,16 35,35l0 1116c0,19 -16,35 -35,35 -19,0 -35,-16 -35,-35l0 -1081 -3277 0 0 2022c0,77 63,139 139,139l1360 0c19,0 35,16 35,35 0,19 -16,35 -35,35zm0 0z"/>
    <path class="fil9" d="M19401 9906l697 0 0 697 -697 0 0 -697zm0 0z"/>
    <path class="fil8" d="M20098 10638l-697 0c-19,0 -35,-16 -35,-35l0 -697c0,-19 16,-35 35,-35l697 0c19,0 35,16 35,35l0 697c0,19 -16,35 -35,35zm-662 -70l628 0 0 -628 -628 0 0 628zm0 0z"/>
    <path class="fil8" d="M20098 10847l-697 0c-19,0 -35,-16 -35,-35 0,-19 16,-35 35,-35l697 0c19,0 35,16 35,35 0,19 -16,35 -35,35zm0 0z"/>
    <path class="fil7" d="M20377 9906l697 0 0 697 -697 0 0 -697zm0 0z"/>
    <path class="fil8" d="M21075 10638l-697 0c-19,0 -35,-16 -35,-35l0 -697c0,-19 16,-35 35,-35l697 0c19,0 35,16 35,35l0 697c0,19 -16,35 -35,35zm-662 -70l628 0 0 -628 -628 0 0 628zm0 0z"/>
    <path class="fil8" d="M20586 10847l-209 0c-19,0 -35,-16 -35,-35 0,-19 16,-35 35,-35l209 0c19,0 35,16 35,35 0,19 -16,35 -35,35zm0 0z"/>
    <path class="fil10" d="M21353 9906l697 0 0 697 -697 0 0 -697zm0 0z"/>
    <path class="fil8" d="M22051 10638l-697 0c-19,0 -35,-16 -35,-35l0 -697c0,-19 16,-35 35,-35l697 0c19,0 35,16 35,35l0 697c0,19 -16,35 -35,35zm-662 -70l628 0 0 -628 -628 0 0 628zm0 0z"/>
    <path class="fil8" d="M22051 10847l-697 0c-19,0 -35,-16 -35,-35 0,-19 16,-35 35,-35l697 0c19,0 35,16 35,35 0,19 -16,35 -35,35zm0 0z"/>
    <path class="fil8" d="M20098 11684c-19,0 -35,-16 -35,-35l0 -453 -628 0 0 453c0,19 -16,35 -35,35 -19,0 -35,-16 -35,-35l0 -488c0,-19 16,-35 35,-35l697 0c19,0 35,16 35,35l0 488c0,19 -16,35 -35,35zm0 0z"/>
    <path class="fil8" d="M22399 12224c-6,0 -12,-2 -18,-5l-418 -244c-11,-6 -17,-18 -17,-30l0 -488c0,-12 7,-24 17,-30l418 -244c11,-6 24,-6 35,0l418 244c11,6 17,18 17,30l0 488c0,12 -7,24 -17,30l-418 244c-5,3 -12,5 -18,5l0 0zm-384 -299l384 224 384 -224 0 -448 -384 -224 -384 224 0 448zm0 0z"/>
    <g>
     <path class="fil11" d="M21842 11457l-558 0 0 488 558 0 0 -488zm0 0l0 0 0 0z"/>
    </g>
    <path class="fil8" d="M21842 11980l-558 0c-19,0 -35,-16 -35,-35l0 -488c0,-19 16,-35 35,-35l558 0c19,0 35,16 35,35 0,19 -16,35 -35,35l-523 0 0 418 523 0c19,0 35,16 35,35 0,19 -16,35 -35,35zm0 0z"/>
    <path class="fil8" d="M22399 12224c-6,0 -12,-2 -17,-5 -11,-6 -18,-18 -18,-30l0 -488c0,-12 7,-24 17,-30l418 -244c11,-6 24,-6 35,0 11,6 18,18 18,30l0 488c0,12 -7,24 -17,30l-418 244c-5,3 -12,5 -18,5zm35 -503l0 407 349 -203 0 -407 -349 203zm0 0z"/>
    <g>
     <path class="fil11" d="M22399 11702l-418 -244 418 244zm0 0l0 0 0 0z"/>
    </g>
    <path class="fil8" d="M22399 11736c-6,0 -12,-1 -18,-5l-418 -244c-17,-10 -22,-31 -13,-48 10,-17 31,-22 48,-13l418 244c17,10 22,31 13,48 -7,11 -18,17 -30,17zm0 0z"/>
   </g>
   <path class="fil6 str1" style="mask:url(#id4)" d="M6796 7581c1775,0 3214,1439 3214,3214 0,1775 -1439,3214 -3214,3214 -1775,0 -3214,-1439 -3214,-3214 0,-1775 1439,-3214 3214,-3214z"/>
   <path class="fil6 str1" style="mask:url(#id6)" d="M13970 406c1775,0 3214,1439 3214,3214 0,1775 -1439,3214 -3214,3214 -1775,0 -3214,-1439 -3214,-3214 0,-1775 1439,-3214 3214,-3214z"/>
   <g>
    <path class="fil8" d="M16066 5193l-4193 0c-124,0 -225,-101 -225,-225 0,-124 101,-225 225,-225l4193 0c124,0 225,101 225,225 0,124 -101,225 -225,225zm-4193 -374c-83,0 -150,67 -150,150 0,83 67,150 150,150l4193 0c83,0 150,-67 150,-150 0,-83 -67,-150 -150,-150l-4193 0zm0 0z"/>
    <path class="fil8" d="M14157 5006l-374 0c-62,0 -112,-50 -112,-112l0 -112c0,-21 17,-37 37,-37 21,0 37,17 37,37l0 112c0,21 17,37 37,37l374 0c21,0 37,-17 37,-37l0 -112c0,-21 17,-37 37,-37 21,0 37,17 37,37l0 112c0,62 -50,112 -112,112zm0 0z"/>
    <path class="fil8" d="M15542 4444l-3144 0c-62,0 -112,-50 -112,-112l0 -1947c0,-62 50,-112 112,-112l3144 0c62,0 112,50 112,112l0 1947c0,62 -50,112 -112,112l0 0zm-3144 -2096c-21,0 -37,17 -37,37l0 1947c0,21 17,37 37,37l3144 0c21,0 37,-17 37,-37l0 -1947c0,-21 -17,-37 -37,-37l-3144 0zm0 0z"/>
    <path class="fil8" d="M15842 4669c-21,0 -37,-17 -37,-37l0 -2358c0,-83 -67,-150 -150,-150l-3369 0c-83,0 -150,67 -150,150l0 2358c0,21 -17,37 -37,37 -21,0 -37,-17 -37,-37l0 -2358c0,-124 101,-225 225,-225l3369 0c124,0 225,101 225,225l0 2358c0,21 -17,37 -37,37zm0 0z"/>
    <path class="fil7" d="M15617 2760l-3294 0 0 -374c0,-41 34,-75 75,-75l3144 0c41,0 75,34 75,75l0 374zm0 0z"/>
    <path class="fil8" d="M15617 2797l-3294 0c-21,0 -37,-17 -37,-37l0 -374c0,-62 50,-112 112,-112l3144 0c62,0 112,50 112,112l0 374c0,21 -17,37 -37,37l0 0zm-3257 -75l3219 0 0 -337c0,-21 -17,-37 -37,-37l-3144 0c-21,0 -37,17 -37,37l0 337zm0 0z"/>
    <path class="fil11" d="M14157 3134l973 0 0 973 -973 0 0 -973zm0 0z"/>
    <path class="fil8" d="M15131 4145l-973 0c-21,0 -37,-17 -37,-37l0 -973c0,-21 17,-37 37,-37l973 0c21,0 37,17 37,37l0 973c0,21 -17,37 -37,37l0 0zm-936 -75l898 0 0 -898 -898 0 0 898zm0 0z"/>
    <path class="fil10" d="M12585 3134l1198 0 0 299 -1198 0 0 -299zm0 0z"/>
    <g>
     <path class="fil8" d="M13783 3471l-1198 0c-21,0 -37,-17 -37,-37l0 -299c0,-21 17,-37 37,-37l1198 0c21,0 37,17 37,37l0 299c0,21 -17,37 -37,37l0 0zm-1160 -75l1123 0 0 -225 -1123 0 0 225zm0 0z"/>
     <path class="fil8" d="M13783 3770l-1198 0c-21,0 -37,-17 -37,-37 0,-21 17,-37 37,-37l1198 0c21,0 37,17 37,37 0,21 -17,37 -37,37zm0 0z"/>
     <path class="fil8" d="M13184 4070l-599 0c-21,0 -37,-17 -37,-37 0,-21 17,-37 37,-37l599 0c21,0 37,17 37,37 0,21 -17,37 -37,37zm0 0z"/>
    </g>
   </g>
   <g>
    <path class="fil7" d="M7489 10836l-1328 0 185 653 938 0 204 -653zm0 0z"/>
    <path class="fil8" d="M8101 9000l-2611 0c-23,0 -41,-18 -41,-41 0,-23 18,-41 41,-41l2611 0c23,0 41,18 41,41 0,23 -18,41 -41,41zm0 0z"/>
    <path class="fil8" d="M8101 12671l-2611 0c-23,0 -41,-18 -41,-41 0,-23 18,-41 41,-41l2611 0c23,0 41,18 41,41 0,23 -18,41 -41,41zm0 0z"/>
    <path class="fil8" d="M6796 13079c-135,0 -245,-110 -245,-245 0,-135 110,-245 245,-245 135,0 245,110 245,245 0,135 -110,245 -245,245zm0 -408c-90,0 -163,73 -163,163 0,90 73,163 163,163 90,0 163,-73 163,-163 0,-90 -73,-163 -163,-163zm0 0z"/>
    <path class="fil8" d="M7000 8796l-408 0c-23,0 -41,-18 -41,-41 0,-23 18,-41 41,-41l408 0c23,0 41,18 41,41 0,23 -18,41 -41,41zm0 0z"/>
    <path class="fil8" d="M7285 11529l-938 0c-18,0 -34,-12 -39,-30l-212 -745 -214 0c-23,0 -41,-18 -41,-41 0,-23 18,-41 41,-41l245 0c18,0 34,12 39,30l212 745 877 0 179 -571 -1046 0c-23,0 -41,-18 -41,-41 0,-23 18,-41 41,-41l1101 0c13,0 25,6 33,17 8,10 10,24 6,36l-204 653c-5,17 -21,29 -39,29l0 0zm0 0z"/>
    <path class="fil8" d="M6469 12019c-112,0 -204,-92 -204,-204 0,-112 91,-204 204,-204 112,0 204,92 204,204 0,112 -91,204 -204,204zm0 -326c-67,0 -122,55 -122,122 0,67 55,122 122,122 67,0 122,-55 122,-122 0,-67 -55,-122 -122,-122zm0 0z"/>
    <path class="fil8" d="M7163 12019c-112,0 -204,-92 -204,-204 0,-112 91,-204 204,-204 112,0 204,92 204,204 0,112 -91,204 -204,204zm0 -326c-67,0 -122,55 -122,122 0,67 55,122 122,122 67,0 122,-55 122,-122 0,-67 -55,-122 -122,-122zm0 0z"/>
    <path class="fil9" d="M5490 10428c-180,0 -326,-146 -326,-326l0 -326 653 0 0 326c0,180 -146,326 -326,326zm0 0z"/>
    <path class="fil8" d="M5490 10469c-202,0 -367,-165 -367,-367l0 -326c0,-23 18,-41 41,-41l653 0c23,0 41,18 41,41l0 326c0,202 -165,367 -367,367zm-286 -653l0 286c0,157 128,286 286,286 157,0 286,-128 286,-286l0 -286 -571 0zm0 0z"/>
    <path class="fil12" d="M6143 10428c-180,0 -326,-146 -326,-326l0 -326 653 0 0 326c0,180 -146,326 -326,326zm0 0z"/>
    <path class="fil8" d="M6143 10469c-202,0 -367,-165 -367,-367l0 -326c0,-23 18,-41 41,-41l653 0c23,0 41,18 41,41l0 326c0,202 -165,367 -367,367zm-286 -653l0 286c0,157 128,286 286,286 157,0 286,-128 286,-286l0 -286 -571 0zm0 0z"/>
    <path class="fil12" d="M7448 10428c-180,0 -326,-146 -326,-326l0 -326 653 0 0 326c0,180 -146,326 -326,326zm0 0z"/>
    <path class="fil8" d="M7448 10469c-202,0 -367,-165 -367,-367l0 -326c0,-23 18,-41 41,-41l653 0c23,0 41,18 41,41l0 326c0,202 -165,367 -367,367zm-286 -653l0 286c0,157 128,286 286,286 157,0 286,-128 286,-286l0 -286 -571 0zm0 0z"/>
    <path class="fil9" d="M8101 10428c-180,0 -326,-146 -326,-326l0 -326 653 0 0 326c0,180 -146,326 -326,326zm0 0z"/>
    <path class="fil8" d="M8101 10469c-202,0 -367,-165 -367,-367l0 -326c0,-23 18,-41 41,-41l653 0c23,0 41,18 41,41l0 326c0,202 -165,367 -367,367zm-286 -653l0 286c0,157 128,286 286,286 157,0 286,-128 286,-286l0 -286 -571 0zm0 0z"/>
    <path class="fil9" d="M6796 10428c-180,0 -326,-146 -326,-326l0 -326 653 0 0 326c0,180 -146,326 -326,326zm0 0z"/>
    <path class="fil8" d="M6796 10469c-202,0 -367,-165 -367,-367l0 -326c0,-23 18,-41 41,-41l653 0c23,0 41,18 41,41l0 326c0,202 -165,367 -367,367zm-286 -653l0 286c0,157 128,286 286,286 157,0 286,-128 286,-286l0 -286 -571 0zm0 0z"/>
    <path class="fil8" d="M8101 9163c-23,0 -41,-18 -41,-41l0 -163c0,-202 -165,-367 -367,-367l-1795 0c-202,0 -367,165 -367,367l0 163c0,23 -18,41 -41,41 -23,0 -41,-18 -41,-41l0 -163c0,-247 201,-449 449,-449l1795 0c247,0 449,201 449,449l0 163c0,23 -18,41 -41,41zm0 0z"/>
    <path class="fil8" d="M7693 13079l-1795 0c-247,0 -449,-201 -449,-449l0 -2039c0,-23 18,-41 41,-41 23,0 41,18 41,41l0 2039c0,202 165,367 367,367l1795 0c202,0 367,-165 367,-367l0 -2039c0,-23 18,-41 41,-41 23,0 41,18 41,41l0 2039c0,247 -201,449 -449,449zm0 0z"/>
    <path class="fil9" d="M6061 9286l-245 489 -653 0 408 -489 489 0zm0 0z"/>
    <path class="fil8" d="M5817 9816l-653 0c-16,0 -30,-9 -37,-24 -7,-14 -5,-31 6,-43l408 -489c8,-9 19,-15 31,-15l489 0c14,0 27,7 35,19 7,12 8,27 2,40l-245 489c-7,14 -21,23 -36,23l0 0zm-566 -82l540 0 204 -408 -404 0 -340 408zm0 0z"/>
    <path class="fil12" d="M6551 9286l-82 489 -653 0 245 -489 489 0zm0 0z"/>
    <path class="fil8" d="M6469 9816l-653 0c-14,0 -27,-7 -35,-19 -7,-12 -8,-27 -2,-40l245 -489c7,-14 21,-23 36,-23l489 0c12,0 23,5 31,14 8,9 11,21 9,33l-82 489c-3,20 -20,34 -40,34l0 0zm-587 -82l552 0 68 -408 -416 0 -204 408zm0 0z"/>
    <path class="fil9" d="M7530 9286l245 489 653 0 -408 -489 -489 0zm0 0z"/>
    <path class="fil8" d="M8427 9816l-653 0c-15,0 -30,-9 -36,-23l-245 -489c-6,-13 -6,-28 2,-40 7,-12 21,-19 35,-19l489 0c12,0 24,5 31,15l408 489c10,12 12,29 6,43 -7,14 -21,23 -37,23zm-627 -82l540 0 -340 -408 -404 0 204 408zm0 0z"/>
    <path class="fil12" d="M7040 9286l82 489 653 0 -245 -489 -489 0zm0 0z"/>
    <path class="fil8" d="M7775 9816l-653 0c-20,0 -37,-14 -40,-34l-82 -489c-2,-12 1,-24 9,-33 8,-9 19,-14 31,-14l489 0c15,0 30,9 36,23l245 489c6,13 6,28 -2,40 -7,12 -21,19 -35,19zm-618 -82l552 0 -204 -408 -416 0 68 408zm0 0z"/>
    <path class="fil9" d="M6551 9286l-82 489 653 0 -82 -489 -489 0zm0 0z"/>
    <path class="fil8" d="M7122 9816l-653 0c-12,0 -23,-5 -31,-14 -8,-9 -11,-21 -9,-33l82 -489c3,-20 20,-34 40,-34l489 0c20,0 37,14 40,34l82 489c2,12 -1,24 -9,33 -8,9 -19,14 -31,14zm-605 -82l556 0 -68 -408 -420 0 -68 408zm0 0z"/>
    <path class="fil8" d="M7387 11203l-1133 0c-23,0 -41,-18 -41,-41 0,-23 18,-41 41,-41l1133 0c23,0 41,18 41,41 0,23 -18,41 -41,41zm0 0z"/>
    <path class="fil8" d="M7040 11529c-23,0 -41,-18 -41,-41l0 -652c0,-23 18,-41 41,-41 23,0 41,18 41,41l0 652c0,23 -18,41 -41,41zm0 0z"/>
    <path class="fil8" d="M6592 11529c-23,0 -41,-18 -41,-41l0 -652c0,-23 18,-41 41,-41 23,0 41,18 41,41l0 652c0,23 -18,41 -41,41zm0 0z"/>
   </g>
  </g>
 </g>
</svg>
