<?xml version="1.0" encoding="UTF-8"?>
<!DOCTYPE svg PUBLIC "-//W3C//DTD SVG 1.1//EN" "http://www.w3.org/Graphics/SVG/1.1/DTD/svg11.dtd">
<!-- Creator: CorelDRAW 2017 -->
<svg xmlns="http://www.w3.org/2000/svg" xml:space="preserve" width="279.4mm" height="215.9mm" version="1.1" style="shape-rendering:geometricPrecision; text-rendering:geometricPrecision; image-rendering:optimizeQuality; fill-rule:evenodd; clip-rule:evenodd"
viewBox="0 0 27940 21590"
 xmlns:xlink="http://www.w3.org/1999/xlink">
 <defs>
  <style type="text/css">
   <![CDATA[
    .str22 {stroke:#4B4B4D;stroke-width:110.49;stroke-miterlimit:22.9256}
    .str19 {stroke:#4B4B4D;stroke-width:110.49;stroke-miterlimit:22.9256}
    .str20 {stroke:#4B4B4D;stroke-width:110.49;stroke-miterlimit:22.9256}
    .str21 {stroke:#4B4B4D;stroke-width:110.49;stroke-miterlimit:22.9256}
    .str7 {stroke:#4B4B4D;stroke-width:110.49;stroke-miterlimit:22.9256}
    .str1 {stroke:#4B4B4D;stroke-width:110.49;stroke-miterlimit:22.9256}
    .str12 {stroke:#4B4B4D;stroke-width:110.49;stroke-miterlimit:22.9256}
    .str9 {stroke:#4B4B4D;stroke-width:110.49;stroke-miterlimit:22.9256}
    .str4 {stroke:#4B4B4D;stroke-width:110.49;stroke-miterlimit:22.9256}
    .str6 {stroke:#4B4B4D;stroke-width:110.49;stroke-miterlimit:22.9256}
    .str5 {stroke:#4B4B4D;stroke-width:110.49;stroke-miterlimit:22.9256}
    .str2 {stroke:#4B4B4D;stroke-width:110.49;stroke-miterlimit:22.9256}
    .str11 {stroke:#4B4B4D;stroke-width:110.49;stroke-miterlimit:22.9256}
    .str3 {stroke:#4B4B4D;stroke-width:110.49;stroke-miterlimit:22.9256}
    .str18 {stroke:#4B4B4D;stroke-width:110.49;stroke-miterlimit:22.9256}
    .str10 {stroke:#4B4B4D;stroke-width:110.49;stroke-miterlimit:22.9256}
    .str8 {stroke:#4B4B4D;stroke-width:110.49;stroke-miterlimit:22.9256}
    .str24 {stroke:#4B4B4D;stroke-width:110.49;stroke-miterlimit:22.9256}
    .str23 {stroke:#4B4B4D;stroke-width:110.49;stroke-miterlimit:22.9256}
    .str16 {stroke:#4B4B4D;stroke-width:110.49;stroke-miterlimit:22.9256}
    .str17 {stroke:#4B4B4D;stroke-width:110.49;stroke-miterlimit:22.9256}
    .str13 {stroke:#4B4B4D;stroke-width:110.49;stroke-miterlimit:22.9256}
    .str15 {stroke:#4B4B4D;stroke-width:110.49;stroke-miterlimit:22.9256}
    .str14 {stroke:#4B4B4D;stroke-width:110.49;stroke-miterlimit:22.9256}
    .str0 {stroke:#4B4B4D;stroke-width:184.16;stroke-miterlimit:22.9256}
    .fil0 {fill:none}
    .fil6 {fill:#FEFEFE}
    .fil1 {fill:#606062}
    .fil8 {fill:#263238}
    .fil10 {fill:#40C4FF}
    .fil11 {fill:#4DB6AC}
    .fil9 {fill:#FF5252}
    .fil7 {fill:#FFD740}
    .fil12 {fill:white}
    .fil4 {fill:url(#id8)}
    .fil3 {fill:url(#id9)}
    .fil5 {fill:url(#id10)}
    .fil2 {fill:url(#id11)}
   ]]>
  </style>
    <mask id="id0">
  <radialGradient id="id1" gradientUnits="userSpaceOnUse" cx="10472.63" cy="14650.87" r="0" fx="10472.63" fy="14650.87">
   <stop offset="0" style="stop-opacity:1; stop-color:white"/>
   <stop offset="0.701961" style="stop-opacity:-127.502; stop-color:white"/>
   <stop offset="1" style="stop-opacity:0; stop-color:white"/>
  </radialGradient>
     <rect style="fill:url(#id1)" x="10325.45" y="14503.69" width="5029.6" height="5029.6"/>
    </mask>
    <mask id="id2">
  <radialGradient id="id3" gradientUnits="userSpaceOnUse" cx="15757.31" cy="9365.99" r="0" fx="15757.31" fy="9365.99">
   <stop offset="0" style="stop-opacity:1; stop-color:white"/>
   <stop offset="0.701961" style="stop-opacity:-127.502; stop-color:white"/>
   <stop offset="1" style="stop-opacity:0; stop-color:white"/>
  </radialGradient>
     <rect style="fill:url(#id3)" x="15610.13" y="9218.81" width="5029.6" height="5029.59"/>
    </mask>
    <mask id="id4">
  <radialGradient id="id5" gradientUnits="userSpaceOnUse" cx="5187.75" cy="9365.99" r="0" fx="5187.75" fy="9365.99">
   <stop offset="0" style="stop-opacity:1; stop-color:white"/>
   <stop offset="0.701961" style="stop-opacity:-127.502; stop-color:white"/>
   <stop offset="1" style="stop-opacity:0; stop-color:white"/>
  </radialGradient>
     <rect style="fill:url(#id5)" x="5040.57" y="9218.81" width="5029.6" height="5029.59"/>
    </mask>
    <mask id="id6">
  <radialGradient id="id7" gradientUnits="userSpaceOnUse" cx="10472.63" cy="4081.1" r="0" fx="10472.63" fy="4081.1">
   <stop offset="0" style="stop-opacity:1; stop-color:white"/>
   <stop offset="0.701961" style="stop-opacity:-127.502; stop-color:white"/>
   <stop offset="1" style="stop-opacity:0; stop-color:white"/>
  </radialGradient>
     <rect style="fill:url(#id7)" x="10325.45" y="3933.92" width="5029.6" height="5029.6"/>
    </mask>
  <radialGradient id="id8" gradientUnits="userSpaceOnUse" gradientTransform="matrix(1 -0 -0 1 0 0)" cx="7555.37" cy="11733.61" r="6307.66" fx="7555.37" fy="11733.61">
   <stop offset="0" style="stop-opacity:1; stop-color:#FEFEFE"/>
   <stop offset="0.901961" style="stop-opacity:1; stop-color:#A4A4A5"/>
   <stop offset="1" style="stop-opacity:1; stop-color:#4B4B4D"/>
  </radialGradient>
  <radialGradient id="id9" gradientUnits="userSpaceOnUse" gradientTransform="matrix(1 -0 -0 1 0 0)" xlink:href="#id8" cx="18124.93" cy="11733.61" r="6307.66" fx="18124.93" fy="11733.61">
  </radialGradient>
  <radialGradient id="id10" gradientUnits="userSpaceOnUse" gradientTransform="matrix(1 -0 -0 1 0 0)" xlink:href="#id8" cx="12840.25" cy="17018.49" r="6307.66" fx="12840.25" fy="17018.49">
  </radialGradient>
  <radialGradient id="id11" gradientUnits="userSpaceOnUse" gradientTransform="matrix(1 -0 -0 1 0 0)" xlink:href="#id8" cx="12840.25" cy="6448.72" r="6307.66" fx="12840.25" fy="6448.72">
  </radialGradient>
 </defs>
 <g id="Capa_x0020_1">
  <metadata id="CorelCorpID_0Corel-Layer"/>
  <g id="_1439002388864">
   <circle class="fil0 str0" cx="12840.25" cy="11733.61" r="5284.89"/>
   <circle class="fil0 str1" cx="11123.34" cy="11131.15" r="717.93"/>
   <path class="fil1 str2" d="M11123.34 10413.23c220.4,0 417.56,99.34 549.26,255.65 -238.04,267.61 -584.93,436.25 -971.26,436.25 -100.92,0 -199.16,-11.5 -293.47,-33.27 30.16,-368.76 338.95,-658.63 715.47,-658.63z"/>
   <path class="fil0 str3" d="M10038.52 13520.34l0 -920.47c0,0 -12.73,-191.95 121.95,-306.47 134.68,-114.53 225.88,-143.17 225.88,-143.17l433.72 -194.07c0,0 56.09,-51 34.41,-159.12"/>
   <polyline class="fil0 str4" points="11755.4,12108.86 11405.45,11958.28 11398.37,11794.52 "/>
   <line class="fil0 str5" x1="10493.47" y1="12825.72" x2="10493.47" y2= "13517.14" />
   <polyline class="fil0 str6" points="10854.48,11797.04 10817.97,12352.77 11454.24,12352.77 11398.37,11794.52 "/>
   <circle class="fil0 str7" cx="12841.54" cy="10664.81" r="717.93"/>
   <path class="fil1 str8" d="M12841.54 9946.88c220.39,0 417.56,99.34 549.25,255.66 -238.04,267.6 -584.93,436.24 -971.26,436.24 -100.92,0 -199.15,-11.5 -293.47,-33.27 30.16,-368.76 338.95,-658.63 715.48,-658.63z"/>
   <path class="fil0 str9" d="M11756.72 13053.99l0 -920.47c0,0 -12.74,-191.94 121.94,-306.47 134.68,-114.53 225.88,-143.16 225.88,-143.16l433.72 -194.07c0,0 56.09,-51.01 34.41,-159.13"/>
   <path class="fil0 str10" d="M13923.22 12041.25c0,0 -36.06,-205.73 -214.21,-290.57 -178.16,-84.84 -235.42,-108.16 -235.42,-108.16l-349.95 -150.59 -7.07 -163.76"/>
   <polyline class="fil0 str11" points="12572.67,11330.69 12536.16,11886.42 13172.43,11886.42 13116.57,11328.17 "/>
   <circle class="fil0 str12" cx="14557.16" cy="11131.15" r="717.93"/>
   <path class="fil1 str13" d="M14557.16 10413.23c-220.4,0 -417.56,99.34 -549.25,255.65 238.04,267.61 584.93,436.25 971.26,436.25 100.92,0 199.15,-11.5 293.46,-33.27 -30.15,-368.76 -338.94,-658.63 -715.47,-658.63z"/>
   <path class="fil0 str14" d="M15641.98 13520.34l0 -920.47c0,0 12.74,-191.95 -121.94,-306.47 -134.68,-114.53 -225.88,-143.17 -225.88,-143.17l-433.72 -194.07c0,0 -56.09,-51 -34.42,-159.12"/>
   <polyline class="fil0 str15" points="13925.11,12108.86 14275.06,11958.28 14282.13,11794.52 "/>
   <line class="fil0 str16" x1="15187.04" y1="12825.72" x2="15187.04" y2= "13517.14" />
   <polyline class="fil0 str17" points="14826.02,11797.04 14862.54,12352.77 14226.27,12352.77 14282.13,11794.52 "/>
   <line class="fil0 str18" x1="13923.22" y1="11999.77" x2="13931.72" y2= "13012.27" />
   <circle class="fil2 str19" cx="12840.25" cy="6448.72" r="2367.62"/>
   <circle class="fil3 str20" cx="18124.93" cy="11733.61" r="2367.62"/>
   <circle class="fil4 str21" cx="7555.37" cy="11733.61" r="2367.62"/>
   <circle class="fil5 str22" cx="12840.25" cy="17018.49" r="2367.62"/>
   <line class="fil0 str23" x1="12217.88" y1="12365.18" x2="12217.88" y2= "13056.59" />
   <line class="fil0 str24" x1="13512.01" y1="12365.18" x2="13512.01" y2= "13056.59" />
   <path class="fil6 str22" style="mask:url(#id0)" d="M12840.25 14650.87c1307.6,0 2367.62,1060.02 2367.62,2367.62 0,1307.6 -1060.02,2367.62 -2367.62,2367.62 -1307.6,0 -2367.62,-1060.02 -2367.62,-2367.62 0,-1307.6 1060.02,-2367.62 2367.62,-2367.62z"/>
   <g>
    <path class="fil7" d="M11784.79 17215.94l0 65.81c363.49,0 658.15,294.66 658.15,658.15 0,93.64 -19.86,182.56 -55.15,263.26l120.96 0 0 -1053.04 -658.15 0c-36.31,0 -65.81,29.5 -65.81,65.81l0 0.01zm0 0z"/>
    <path class="fil7" d="M12772.01 16623.6l-921.41 0c-36.31,0 -65.81,29.5 -65.81,65.82l0 131.62c0,36.32 29.5,65.82 65.81,65.82l658.15 0 0 -65.81c0,-36.32 29.5,-65.82 65.82,-65.82l263.26 0 0 -65.81c0,-36.32 -29.5,-65.82 -65.82,-65.82l0 0zm0 0z"/>
    <path class="fil7" d="M14088.31 16097.08l-921.41 0c-36.31,0 -65.81,-29.5 -65.81,-65.81l0 -131.63c0,-36.32 29.5,-65.82 65.81,-65.82l921.41 0c36.32,0 65.82,29.5 65.82,65.81l0 131.63c0,36.32 -29.5,65.82 -65.82,65.82l0 0zm0 0z"/>
    <path class="fil8" d="M14088.31 16129.99l-921.41 0c-54.44,0 -98.72,-44.29 -98.72,-98.72l0 -131.63c0,-54.44 44.28,-98.73 98.72,-98.73l921.41 0c54.44,0 98.72,44.29 98.72,98.72l0 131.63c0,54.44 -44.28,98.73 -98.72,98.73l0 0zm-921.41 -263.26c-18.09,0 -32.9,14.81 -32.9,32.9l0 131.63c0,18.1 14.81,32.91 32.9,32.91l921.41 0c18.09,0 32.91,-14.81 32.91,-32.9l0 -131.63c0,-18.1 -14.82,-32.91 -32.91,-32.91l-921.41 0zm0 0z"/>
    <path class="fil7" d="M14088.31 15833.82l-921.41 0c-36.31,0 -65.81,-29.5 -65.81,-65.81l0 -131.63c0,-36.32 29.5,-65.82 65.81,-65.82l921.41 0c36.32,0 65.82,29.5 65.82,65.81l0 131.63c0,36.32 -29.5,65.82 -65.82,65.82l0 0zm0 0z"/>
    <path class="fil8" d="M14088.31 15866.73l-921.41 0c-54.44,0 -98.72,-44.29 -98.72,-98.72l0 -131.63c0,-54.44 44.28,-98.73 98.72,-98.73l921.41 0c54.44,0 98.72,44.29 98.72,98.72l0 131.63c0,54.44 -44.28,98.72 -98.72,98.72l0 0.01zm-921.41 -263.26c-18.09,0 -32.9,14.81 -32.9,32.9l0 131.63c0,18.09 14.81,32.91 32.9,32.91l921.41 0c18.09,0 32.91,-14.81 32.91,-32.9l0 -131.63c0,-18.1 -14.82,-32.91 -32.91,-32.91l-921.41 0zm0 0z"/>
    <path class="fil7" d="M14088.31 16623.6l-921.41 0c-36.31,0 -65.81,-29.5 -65.81,-65.81l0 -131.63c0,-36.32 29.5,-65.82 65.81,-65.82l921.41 0c36.32,0 65.82,29.5 65.82,65.81l0 131.63c0,36.32 -29.5,65.82 -65.82,65.82l0 0zm0 0z"/>
    <path class="fil8" d="M14088.31 16656.51l-921.41 0c-54.44,0 -98.72,-44.28 -98.72,-98.72l0 -131.63c0,-54.44 44.28,-98.72 98.72,-98.72l921.41 -0.01c54.44,0 98.72,44.29 98.72,98.72l0 131.63c0,54.44 -44.28,98.73 -98.72,98.73l0 0zm-921.41 -263.26c-18.09,0 -32.9,14.81 -32.9,32.9l0 131.63c0,18.1 14.81,32.91 32.9,32.91l921.41 0c18.09,0 32.91,-14.81 32.91,-32.9l0 -131.63c0,-18.09 -14.82,-32.91 -32.91,-32.91l-921.41 0zm0 0z"/>
    <path class="fil7" d="M14088.31 16360.34l-921.41 0c-36.31,0 -65.81,-29.5 -65.81,-65.81l0 -131.63c0,-36.32 29.5,-65.82 65.81,-65.82l921.41 0c36.32,0 65.82,29.5 65.82,65.81l0 131.63c0,36.32 -29.5,65.82 -65.82,65.82l0 0zm0 0z"/>
    <path class="fil8" d="M14088.31 16393.25l-921.41 0c-54.44,0 -98.72,-44.29 -98.72,-98.72l0 -131.63c0,-54.44 44.28,-98.72 98.72,-98.72l921.41 -0.01c54.44,0 98.72,44.29 98.72,98.72l0 131.63c0,54.44 -44.28,98.73 -98.72,98.73l0 0zm-921.41 -263.26c-18.09,0 -32.9,14.81 -32.9,32.9l0 131.63c0,18.1 14.81,32.91 32.9,32.91l921.41 0c18.09,0 32.91,-14.81 32.91,-32.9l0 -131.63c0,-18.09 -14.82,-32.91 -32.91,-32.91l-921.41 0zm0 0z"/>
    <path class="fil7" d="M13627.61 18203.16l-921.41 0c-36.32,0 -65.82,-29.5 -65.82,-65.81l0 -131.63c0,-36.32 29.5,-65.82 65.82,-65.82l921.41 0c36.31,0 65.81,29.5 65.81,65.81l0 131.63c0,36.32 -29.5,65.82 -65.81,65.82l0 0zm0 0z"/>
    <path class="fil8" d="M13627.61 18236.07l-921.41 0c-54.44,0 -98.72,-44.29 -98.72,-98.72l0 -131.63c0,-54.44 44.28,-98.73 98.72,-98.73l921.41 0c54.44,0 98.72,44.29 98.72,98.72l0 131.63c0,54.44 -44.28,98.72 -98.72,98.72l0 0.01zm-921.41 -263.26c-18.09,0 -32.91,14.81 -32.91,32.9l0 131.63c0,18.09 14.82,32.91 32.91,32.91l921.41 0c18.09,0 32.9,-14.81 32.9,-32.9l0 -131.63c0,-18.1 -14.81,-32.91 -32.9,-32.91l-921.41 0zm0 0z"/>
    <path class="fil7" d="M13627.61 17939.9l-921.41 0c-36.32,0 -65.82,-29.5 -65.82,-65.81l0 -131.63c0,-36.32 29.5,-65.82 65.82,-65.82l921.41 0c36.31,0 65.81,29.5 65.81,65.81l0 131.63c0,36.32 -29.5,65.82 -65.81,65.82l0 0zm0 0z"/>
    <path class="fil8" d="M13627.61 17972.81l-921.41 0c-54.44,0 -98.72,-44.29 -98.72,-98.72l0 -131.63c0,-54.44 44.28,-98.73 98.72,-98.73l921.41 0c54.44,0 98.72,44.28 98.72,98.72l0 131.63c0,54.44 -44.28,98.72 -98.72,98.72l0 0.01zm-921.41 -263.26c-18.09,0 -32.91,14.81 -32.91,32.9l0 131.63c0,18.09 14.82,32.91 32.91,32.91l921.41 0c18.09,0 32.9,-14.81 32.9,-32.9l0 -131.63c0,-18.1 -14.81,-32.91 -32.9,-32.91l-921.41 0zm0 0z"/>
    <path class="fil7" d="M13627.61 17676.64l-921.41 0c-36.32,0 -65.82,-29.5 -65.82,-65.82l0 -131.62c0,-36.32 29.5,-65.82 65.82,-65.82l921.41 0c36.31,0 65.81,29.5 65.81,65.81l0 131.63c0,36.32 -29.5,65.82 -65.81,65.82l0 0zm0 0z"/>
    <path class="fil8" d="M13627.61 17709.55l-921.41 0c-54.44,0 -98.72,-44.29 -98.72,-98.73l0 -131.62c0,-54.44 44.28,-98.73 98.72,-98.73l921.41 0c54.44,0 98.72,44.28 98.72,98.72l0 131.63c0,54.44 -44.28,98.72 -98.72,98.72l0 0.01zm-921.41 -263.26c-18.09,0 -32.91,14.81 -32.91,32.9l0 131.63c0,18.09 14.82,32.91 32.91,32.91l921.41 0c18.09,0 32.9,-14.81 32.9,-32.91l0 -131.62c0,-18.1 -14.81,-32.91 -32.9,-32.91l-921.41 0zm0 0z"/>
    <path class="fil7" d="M13627.61 17413.38l-921.41 0c-36.32,0 -65.82,-29.5 -65.82,-65.82l0 -131.62c0,-36.32 29.5,-65.82 65.82,-65.82l921.41 0c36.31,0 65.81,29.5 65.81,65.81l0 131.63c0,36.32 -29.5,65.82 -65.81,65.82l0 0zm0 0z"/>
    <path class="fil8" d="M13627.61 17446.29l-921.41 0c-54.44,0 -98.72,-44.29 -98.72,-98.73l0 -131.62c0,-54.44 44.28,-98.73 98.72,-98.73l921.41 0c54.44,0 98.72,44.28 98.72,98.72l0 131.63c0,54.44 -44.28,98.72 -98.72,98.72l0 0.01zm-921.41 -263.26c-18.09,0 -32.91,14.81 -32.91,32.91l0 131.62c0,18.1 14.82,32.91 32.91,32.91l921.41 0c18.09,0 32.9,-14.81 32.9,-32.91l0 -131.62c0,-18.1 -14.81,-32.91 -32.9,-32.91l-921.41 0zm0 0z"/>
    <path class="fil7" d="M13627.61 17150.12l-921.41 0c-36.32,0 -65.82,-29.5 -65.82,-65.82l0 -131.62c0,-36.32 29.5,-65.82 65.82,-65.82l921.41 0c36.31,0 65.81,29.5 65.81,65.82l0 131.62c0,36.32 -29.5,65.82 -65.81,65.82zm0 0z"/>
    <path class="fil8" d="M13627.61 17183.03l-921.41 0c-54.44,0 -98.72,-44.28 -98.72,-98.72l0 -131.63c0,-54.44 44.28,-98.72 98.72,-98.72l921.41 -0.01c54.44,0 98.72,44.28 98.72,98.72l0 131.63c0,54.44 -44.28,98.72 -98.72,98.72l0 0.01zm-921.41 -263.26c-18.09,0 -32.91,14.81 -32.91,32.91l0 131.62c0,18.1 14.82,32.91 32.91,32.91l921.41 0c18.09,0 32.9,-14.81 32.9,-32.91l0 -131.62c0,-18.1 -14.81,-32.91 -32.9,-32.91l-921.41 0zm0 0z"/>
    <g>
     <path class="fil7" d="M13825.05 17676.64l263.26 0c36.32,0 65.82,-29.5 65.82,-65.82l0 -131.62c0,-36.32 -29.5,-65.82 -65.82,-65.82l-263.26 0 0 263.26zm0 0l0 0 0 0z"/>
    </g>
    <path class="fil8" d="M14088.31 17709.55l-263.26 0c-18.15,0 -32.9,-14.75 -32.9,-32.91 0,-18.16 14.75,-32.91 32.9,-32.91l263.26 0c18.09,0 32.91,-14.81 32.91,-32.91l0 -131.62c0,-18.1 -14.82,-32.91 -32.91,-32.91l-263.26 0c-18.15,0 -32.9,-14.75 -32.9,-32.91 0,-18.16 14.75,-32.91 32.9,-32.91l263.26 0c54.44,0 98.72,44.28 98.72,98.72l0 131.63c0,54.44 -44.28,98.72 -98.72,98.72l0 0.01zm0 0z"/>
    <g>
     <path class="fil7" d="M13825.05 17413.38l263.26 0c36.32,0 65.82,-29.5 65.82,-65.82l0 -131.62c0,-36.32 -29.5,-65.82 -65.82,-65.82l-263.26 0 0 263.26zm0 0l0 0 0 0z"/>
    </g>
    <path class="fil8" d="M14088.31 17446.29l-263.26 0c-18.15,0 -32.9,-14.75 -32.9,-32.91 0,-18.16 14.75,-32.91 32.9,-32.91l263.26 0c18.09,0 32.91,-14.81 32.91,-32.91l0 -131.62c0,-18.1 -14.82,-32.91 -32.91,-32.91l-263.26 0c-18.15,0 -32.9,-14.75 -32.9,-32.91 0,-18.16 14.75,-32.91 32.9,-32.91l263.26 0c54.44,0 98.72,44.28 98.72,98.72l0 131.63c0,54.44 -44.28,98.72 -98.72,98.72l0 0.01zm0 0z"/>
    <g>
     <path class="fil7" d="M13825.05 18203.16l263.26 0c36.32,0 65.82,-29.5 65.82,-65.81l0 -131.63c0,-36.32 -29.5,-65.82 -65.82,-65.82l-263.26 0 0 263.26zm0 0l0 0 0 0z"/>
    </g>
    <path class="fil8" d="M14088.31 18236.07l-263.26 0c-18.15,0 -32.9,-14.75 -32.9,-32.91 0,-18.16 14.75,-32.91 32.9,-32.91l263.26 0c18.09,0 32.91,-14.81 32.91,-32.9l0 -131.63c0,-18.1 -14.82,-32.91 -32.91,-32.91l-263.26 0c-18.15,0 -32.9,-14.75 -32.9,-32.91 0,-18.16 14.75,-32.91 32.9,-32.91l263.26 0c54.44,0 98.72,44.29 98.72,98.72l0 131.63c0,54.44 -44.28,98.72 -98.72,98.72l0 0.01zm0 0z"/>
    <g>
     <path class="fil7" d="M13825.05 17939.9l263.26 0c36.32,0 65.82,-29.5 65.82,-65.81l0 -131.63c0,-36.32 -29.5,-65.82 -65.82,-65.82l-263.26 0 0 263.26zm0 0l0 0 0 0z"/>
    </g>
    <path class="fil8" d="M14088.31 17972.81l-263.26 0c-18.15,0 -32.9,-14.75 -32.9,-32.91 0,-18.16 14.75,-32.91 32.9,-32.91l263.26 0c18.09,0 32.91,-14.81 32.91,-32.9l0 -131.63c0,-18.1 -14.82,-32.91 -32.91,-32.91l-263.26 0c-18.15,0 -32.9,-14.75 -32.9,-32.91 0,-18.16 14.75,-32.91 32.9,-32.91l263.26 0c54.44,0 98.72,44.28 98.72,98.72l0 131.63c0,54.44 -44.28,98.72 -98.72,98.72l0 0.01zm0 0z"/>
    <g>
     <path class="fil7" d="M13825.05 17150.12l263.26 0c36.32,0 65.82,-29.5 65.82,-65.82l0 -131.62c0,-36.32 -29.5,-65.82 -65.82,-65.82l-263.26 0 0 263.26zm0 0l0 0 0 0z"/>
    </g>
    <path class="fil8" d="M14088.31 17183.03l-263.26 0c-18.15,0 -32.9,-14.75 -32.9,-32.91 0,-18.16 14.75,-32.91 32.9,-32.91l263.26 0c18.09,0 32.91,-14.81 32.91,-32.91l0 -131.62c0,-18.1 -14.82,-32.91 -32.91,-32.91l-263.26 0c-18.15,0 -32.9,-14.75 -32.9,-32.91 0,-18.16 14.75,-32.91 32.9,-32.91l263.26 0c54.44,0 98.72,44.28 98.72,98.72l0 131.63c0,54.44 -44.28,98.72 -98.72,98.72l0 0.01zm0 0z"/>
    <g>
     <path class="fil7" d="M12508.75 17150.12l-658.15 0c-36.31,0 -65.81,-29.5 -65.81,-65.82l0 -131.62c0,-36.32 29.5,-65.82 65.81,-65.82l658.15 0 0 263.26zm0 0l0 0 0 0z"/>
    </g>
    <path class="fil8" d="M12508.75 17183.03l-658.15 0c-54.44,0 -98.72,-44.28 -98.72,-98.72l0 -131.63c0,-54.44 44.28,-98.72 98.72,-98.72l658.15 -0.01c18.16,0 32.91,14.75 32.91,32.91 0,18.16 -14.75,32.91 -32.91,32.91l-658.15 0c-18.09,0 -32.91,14.81 -32.91,32.91l0 131.62c0,18.1 14.82,32.91 32.91,32.91l658.15 0c18.16,0 32.91,14.75 32.91,32.91 0,18.16 -14.75,32.91 -32.91,32.91l0 0zm0 0z"/>
    <path class="fil7" d="M14088.31 16623.6l-921.41 0c-36.31,0 -65.81,29.5 -65.81,65.82l0 65.81 658.15 0c36.31,0 65.81,29.5 65.81,65.81l0 65.82 263.26 0c36.32,0 65.82,-29.5 65.82,-65.81l0 -131.63c0,-36.32 -29.5,-65.82 -65.82,-65.82l0 0zm0 0z"/>
    <path class="fil8" d="M14088.31 16919.77l-263.26 0c-18.15,0 -32.9,-14.75 -32.9,-32.91 0,-18.16 14.75,-32.91 32.9,-32.91l263.26 0c18.09,0 32.91,-14.81 32.91,-32.91l0 -131.62c0,-18.1 -14.82,-32.91 -32.91,-32.91l-921.41 0c-18.09,0 -32.9,14.81 -32.9,32.91l0 65.81c0,18.16 -14.75,32.91 -32.91,32.91 -18.16,0 -32.91,-14.75 -32.91,-32.91l0 -65.81c0,-54.44 44.28,-98.73 98.72,-98.73l921.41 0c54.44,0 98.72,44.29 98.72,98.73l0 131.62c0,54.44 -44.28,98.73 -98.72,98.73l0 0zm0 0z"/>
    <path class="fil8" d="M12508.75 16919.77l-658.15 0c-54.44,0 -98.72,-44.28 -98.72,-98.72l0 -131.63c0,-54.44 44.28,-98.72 98.72,-98.72l921.41 -0.01c54.44,0 98.72,44.29 98.72,98.73l0 65.81c0,18.16 -14.75,32.91 -32.9,32.91 -18.16,0 -32.91,-14.75 -32.91,-32.91l0 -65.81c0,-18.1 -14.82,-32.91 -32.91,-32.91l-921.41 0c-18.09,0 -32.91,14.81 -32.91,32.91l0 131.62c0,18.1 14.82,32.91 32.91,32.91l658.15 0c18.16,0 32.91,14.75 32.91,32.91 0,18.16 -14.75,32.91 -32.91,32.91l0 0zm0 0z"/>
    <path class="fil7" d="M12772.01 16623.6l-921.41 0c-36.31,0 -65.81,-29.5 -65.81,-65.81l0 -131.63c0,-36.32 29.5,-65.82 65.81,-65.82l921.41 0c36.32,0 65.82,29.5 65.82,65.81l0 131.63c0,36.32 -29.5,65.82 -65.82,65.82l0 0zm0 0z"/>
    <path class="fil8" d="M12772.01 16656.51l-921.41 0c-54.44,0 -98.72,-44.28 -98.72,-98.72l0 -131.63c0,-54.44 44.28,-98.72 98.72,-98.72l921.41 -0.01c54.44,0 98.72,44.29 98.72,98.72l0 131.63c0,54.44 -44.28,98.73 -98.72,98.73l0 0zm-921.41 -263.26c-18.09,0 -32.91,14.81 -32.91,32.9l0 131.63c0,18.1 14.82,32.91 32.91,32.91l921.41 0c18.09,0 32.91,-14.81 32.91,-32.9l0 -131.63c0,-18.09 -14.82,-32.91 -32.91,-32.91l-921.41 0zm0 0z"/>
    <path class="fil7" d="M12772.01 16360.34l-921.41 0c-36.31,0 -65.81,-29.5 -65.81,-65.81l0 -131.63c0,-36.32 29.5,-65.82 65.81,-65.82l921.41 0c36.32,0 65.82,29.5 65.82,65.81l0 131.63c0,36.32 -29.5,65.82 -65.82,65.82l0 0zm0 0z"/>
    <path class="fil8" d="M12772.01 16393.25l-921.41 0c-54.44,0 -98.72,-44.29 -98.72,-98.72l0 -131.63c0,-54.44 44.28,-98.72 98.72,-98.72l921.41 -0.01c54.44,0 98.72,44.29 98.72,98.72l0 131.63c0,54.44 -44.28,98.73 -98.72,98.73l0 0zm-921.41 -263.26c-18.09,0 -32.91,14.81 -32.91,32.9l0 131.63c0,18.1 14.82,32.91 32.91,32.91l921.41 0c18.09,0 32.91,-14.81 32.91,-32.9l0 -131.63c0,-18.09 -14.82,-32.91 -32.91,-32.91l-921.41 0zm0 0z"/>
    <path class="fil7" d="M12311.31 17939.9c0,290.8 -235.72,526.52 -526.52,526.52 -290.8,0 -526.52,-235.72 -526.52,-526.52 0,-290.8 235.72,-526.52 526.52,-526.52 290.8,0 526.52,235.72 526.52,526.52zm0 0z"/>
    <path class="fil8" d="M11784.79 18499.33c-308.48,0 -559.43,-250.95 -559.43,-559.43 0,-308.48 250.95,-559.43 559.43,-559.43 308.47,0 559.43,250.95 559.43,559.43 0,308.48 -250.96,559.43 -559.43,559.43zm0 -1053.04c-272.23,0 -493.62,221.38 -493.62,493.61 0,272.23 221.39,493.61 493.62,493.61 272.22,0 493.61,-221.38 493.61,-493.61 0,-272.23 -221.39,-493.61 -493.61,-493.61zm0 0z"/>
    <path class="fil8" d="M12508.75 17446.29l-330.33 0c-18.15,0 -32.9,-14.75 -32.9,-32.91 0,-18.16 14.75,-32.91 32.9,-32.91l330.33 0c18.16,0 32.91,14.75 32.91,32.91 0,18.16 -14.75,32.91 -32.91,32.91zm0 0z"/>
    <path class="fil8" d="M11784.79 17314.66c-18.16,0 -32.91,-14.75 -32.91,-32.91l0 -65.81c0,-54.44 44.28,-98.73 98.72,-98.73l658.15 0c18.16,0 32.91,14.75 32.91,32.91 0,18.16 -14.75,32.91 -32.91,32.91l-658.15 0c-18.09,0 -32.91,14.81 -32.91,32.91l0 65.81c0,18.16 -14.75,32.91 -32.9,32.91zm0 0z"/>
    <path class="fil8" d="M12508.75 17446.29l-330.33 0c-18.15,0 -32.9,-14.75 -32.9,-32.91 0,-18.16 14.75,-32.91 32.9,-32.91l330.33 0c18.16,0 32.91,14.75 32.91,32.91 0,18.16 -14.75,32.91 -32.91,32.91zm0 0z"/>
    <path class="fil8" d="M12508.75 18236.07l-120.96 0c-18.16,0 -32.91,-14.75 -32.91,-32.91 0,-18.16 14.75,-32.91 32.91,-32.91l120.96 0c18.16,0 32.91,14.75 32.91,32.91 0,18.16 -14.75,32.91 -32.91,32.91zm0 0z"/>
    <path class="fil8" d="M12508.75 17709.55l-120.96 0c-18.16,0 -32.91,-14.75 -32.91,-32.91 0,-18.16 14.75,-32.91 32.91,-32.91l120.96 0c18.16,0 32.91,14.75 32.91,32.91 0,18.16 -14.75,32.91 -32.91,32.91zm0 0z"/>
    <path class="fil8" d="M12508.75 17709.55l-120.96 0c-18.16,0 -32.91,-14.75 -32.91,-32.91 0,-18.16 14.75,-32.91 32.91,-32.91l120.96 0c18.16,0 32.91,14.75 32.91,32.91 0,18.16 -14.75,32.91 -32.91,32.91zm0 0z"/>
    <path class="fil8" d="M12508.75 17972.81l-65.81 0c-18.16,0 -32.91,-14.75 -32.91,-32.91 0,-18.16 14.75,-32.91 32.91,-32.91l65.81 0c18.16,0 32.91,14.75 32.91,32.91 0,18.16 -14.75,32.91 -32.91,32.91zm0 0z"/>
    <path class="fil8" d="M12508.75 17972.81l-65.81 0c-18.16,0 -32.91,-14.75 -32.91,-32.91 0,-18.16 14.75,-32.91 32.91,-32.91l65.81 0c18.16,0 32.91,14.75 32.91,32.91 0,18.16 -14.75,32.91 -32.91,32.91zm0 0z"/>
    <path class="fil8" d="M12508.75 18236.07l-120.96 0c-18.16,0 -32.91,-14.75 -32.91,-32.91 0,-18.16 14.75,-32.91 32.91,-32.91l120.96 0c18.16,0 32.91,14.75 32.91,32.91 0,18.16 -14.75,32.91 -32.91,32.91zm0 0z"/>
    <path class="fil8" d="M11784.79 17808.27c-18.16,0 -32.91,-14.75 -32.91,-32.91l0 -98.72c0,-18.16 14.75,-32.91 32.91,-32.91 18.15,0 32.9,14.75 32.9,32.91l0 98.72c0,18.16 -14.75,32.91 -32.9,32.91zm0 0z"/>
    <path class="fil8" d="M11784.79 18236.07c-18.16,0 -32.91,-14.75 -32.91,-32.91l0 -98.72c0,-18.16 14.75,-32.91 32.91,-32.91 18.15,0 32.9,14.75 32.9,32.91l0 98.72c0,18.16 -14.75,32.91 -32.9,32.91zm0 0z"/>
    <path class="fil8" d="M11834.15 18137.35l-180.99 0c-18.16,0 -32.91,-14.75 -32.91,-32.91 0,-18.16 14.75,-32.91 32.91,-32.91l180.99 0c27.19,0 49.36,-22.17 49.36,-49.36 0,-27.19 -22.17,-49.37 -49.36,-49.37l-98.72 0.01c-63.51,0 -115.18,-51.68 -115.18,-115.18 0,-63.5 51.67,-115.18 115.18,-115.18l148.08 0c18.16,0 32.91,14.75 32.91,32.91 0,18.16 -14.75,32.91 -32.91,32.91l-148.08 0c-27.19,0 -49.37,22.17 -49.37,49.36 0,27.19 22.18,49.36 49.37,49.36l98.72 0c63.5,0 115.18,51.68 115.18,115.18 0,63.5 -51.68,115.18 -115.18,115.18zm0 0z"/>
   </g>
   <path class="fil6 str20" style="mask:url(#id2)" d="M18124.93 9365.99c1307.6,0 2367.62,1060.02 2367.62,2367.62 0,1307.59 -1060.02,2367.61 -2367.62,2367.61 -1307.6,0 -2367.62,-1060.02 -2367.62,-2367.61 0,-1307.6 1060.02,-2367.62 2367.62,-2367.62z"/>
   <g>
    <path class="fil8" d="M19049.51 10847.56l-2465.54 0c-14.17,0 -25.69,-11.51 -25.69,-25.68l0 -282.51c0,-84.95 69.15,-154.1 154.1,-154.1l2208.71 0c84.95,0 154.1,69.15 154.1,154.1l0 282.51c0,14.17 -11.51,25.68 -25.68,25.68l0 0zm-2439.86 -51.37l2414.17 0 0 -256.82c0,-56.66 -46.07,-102.73 -102.73,-102.73l-2208.71 -0.01c-56.66,0 -102.73,46.08 -102.73,102.73l0 256.83zm0 0z"/>
    <path class="fil8" d="M16815.11 10719.14c-56.66,0 -102.73,-46.07 -102.73,-102.73 0,-56.65 46.08,-102.73 102.73,-102.73 56.66,0 102.73,46.08 102.73,102.73 0,56.66 -46.07,102.73 -102.73,102.73zm0 -154.09c-28.29,0 -51.36,23.02 -51.36,51.36 0,28.35 23.07,51.37 51.36,51.37 28.29,0 51.37,-23.02 51.37,-51.37 0,-28.34 -23.08,-51.36 -51.37,-51.36zm0 0z"/>
    <path class="fil8" d="M17071.94 10719.14c-56.66,0 -102.73,-46.07 -102.73,-102.73 0,-56.65 46.07,-102.73 102.73,-102.73 56.65,0 102.73,46.08 102.73,102.73 0,56.66 -46.08,102.73 -102.73,102.73zm0 -154.09c-28.29,0 -51.37,23.02 -51.37,51.36 0,28.35 23.08,51.37 51.37,51.37 28.29,0 51.36,-23.02 51.36,-51.37 0,-28.34 -23.07,-51.36 -51.36,-51.36zm0 0z"/>
    <path class="fil8" d="M17919.47 12234.42l-205.46 0c-42.49,0 -77.05,-34.56 -77.05,-77.04l0 -51.37c0,-42.49 34.56,-77.05 77.05,-77.05l205.46 0c42.48,0 77.04,34.56 77.04,77.05l0 51.36c0,42.49 -34.56,77.05 -77.04,77.05l0 0zm-205.46 -154.09c-14.18,0 -25.69,11.56 -25.69,25.68l0 51.37c0,14.12 11.51,25.68 25.69,25.68l205.46 0c14.17,0 25.68,-11.56 25.68,-25.68l0 -51.37c0,-14.12 -11.51,-25.68 -25.68,-25.68l-205.46 0zm0 0z"/>
    <path class="fil8" d="M17919.47 12773.76l-205.46 0c-42.49,0 -77.05,-34.56 -77.05,-77.05l0 -51.36c0,-42.49 34.56,-77.05 77.05,-77.05l205.46 0c42.48,0 77.04,34.56 77.04,77.05l0 51.36c0,42.49 -34.56,77.05 -77.04,77.05l0 0zm-205.46 -154.1c-14.18,0 -25.69,11.57 -25.69,25.69l0 51.36c0,14.12 11.51,25.68 25.69,25.68l205.46 0c14.17,0 25.68,-11.56 25.68,-25.68l0 -51.36c0,-14.12 -11.51,-25.69 -25.68,-25.69l-205.46 0zm0 0z"/>
    <path class="fil8" d="M19614.53 13081.95l-1746.43 0c-42.49,0 -77.05,-34.56 -77.05,-77.05l0 -154.09c0,-14.17 11.52,-25.68 25.69,-25.68 14.17,0 25.68,11.51 25.68,25.68l0 154.09c0,14.12 11.51,25.69 25.68,25.69l1746.43 0c14.17,0 25.68,-11.57 25.68,-25.69l0 -1207.08c0,-14.12 -11.51,-25.68 -25.68,-25.68l-1746.43 -0.01c-14.17,0 -25.68,11.57 -25.68,25.69l0 154.09c0,14.17 -11.51,25.69 -25.68,25.69 -14.17,0 -25.69,-11.52 -25.69,-25.69l0 -154.09c0,-42.49 34.56,-77.05 77.05,-77.05l1746.43 0c42.48,0 77.04,34.56 77.04,77.05l0 1207.08c0,42.49 -34.56,77.05 -77.04,77.05l0 0zm0 0z"/>
    <path class="fil8" d="M17816.74 12516.93c-14.17,0 -25.69,-11.51 -25.69,-25.68l0 -179.78c0,-14.17 11.52,-25.68 25.69,-25.68 14.17,0 25.68,11.51 25.68,25.68l0 179.78c0,14.17 -11.51,25.68 -25.68,25.68zm0 0z"/>
    <path class="fil8" d="M17714.01 12491.25l-1001.63 0c-84.95,0 -154.1,-69.15 -154.1,-154.1l0 -1515.28c0,-14.17 11.52,-25.68 25.69,-25.68l2465.54 0c14.17,0 25.68,11.51 25.68,25.69l0 821.84c0,14.17 -11.51,25.68 -25.68,25.68 -14.18,0 -25.69,-11.51 -25.69,-25.68l0 -796.16 -2414.17 0 0 1489.59c0,56.66 46.07,102.73 102.73,102.73l1001.63 0c14.17,0 25.68,11.52 25.68,25.69 0,14.17 -11.51,25.68 -25.68,25.68zm0 0z"/>
    <path class="fil9" d="M16840.79 11078.7l513.66 0 0 513.66 -513.66 0 0 -513.66zm0 0z"/>
    <path class="fil8" d="M17354.45 11618.04l-513.66 0c-14.17,0 -25.68,-11.51 -25.68,-25.68l0 -513.66c0,-14.17 11.51,-25.68 25.68,-25.68l513.66 0c14.17,0 25.68,11.51 25.68,25.68l0 513.66c0,14.17 -11.51,25.68 -25.68,25.68zm-487.97 -51.37l462.28 0 0 -462.29 -462.28 0 0 462.29zm0 0z"/>
    <path class="fil8" d="M17354.45 11772.13l-513.66 0c-14.17,0 -25.68,-11.51 -25.68,-25.68 0,-14.17 11.51,-25.68 25.68,-25.68l513.66 0c14.17,0 25.68,11.51 25.68,25.68 0,14.17 -11.51,25.68 -25.68,25.68zm0 0z"/>
    <path class="fil7" d="M17559.91 11078.7l513.65 0 0 513.66 -513.65 0 0 -513.66zm0 0z"/>
    <path class="fil8" d="M18073.56 11618.04l-513.65 0c-14.17,0 -25.68,-11.51 -25.68,-25.68l0 -513.66c0,-14.17 11.51,-25.68 25.68,-25.68l513.65 0c14.17,0 25.69,11.51 25.69,25.68l0 513.66c0,14.17 -11.52,25.68 -25.69,25.68zm-487.97 -51.37l462.29 0 0 -462.29 -462.29 0 0 462.29zm0 0z"/>
    <path class="fil8" d="M17714.01 11772.13l-154.1 0c-14.17,0 -25.68,-11.51 -25.68,-25.68 0,-14.17 11.51,-25.68 25.68,-25.68l154.1 0c14.17,0 25.68,11.51 25.68,25.68 0,14.17 -11.51,25.68 -25.68,25.68zm0 0z"/>
    <path class="fil10" d="M18279.03 11078.7l513.65 0 0 513.66 -513.65 0 0 -513.66zm0 0z"/>
    <path class="fil8" d="M18792.68 11618.04l-513.65 0c-14.18,0 -25.69,-11.51 -25.69,-25.68l0 -513.66c0,-14.17 11.51,-25.68 25.69,-25.68l513.65 0c14.17,0 25.68,11.51 25.68,25.68l0 513.66c0,14.17 -11.51,25.68 -25.68,25.68zm-487.97 -51.37l462.29 0 0 -462.29 -462.29 0 0 462.29zm0 0z"/>
    <path class="fil8" d="M18792.68 11772.13l-513.65 0c-14.18,0 -25.69,-11.51 -25.69,-25.68 0,-14.17 11.51,-25.68 25.69,-25.68l513.65 0c14.17,0 25.68,11.51 25.68,25.68 0,14.17 -11.51,25.68 -25.68,25.68zm0 0z"/>
    <path class="fil8" d="M17354.45 12388.52c-14.17,0 -25.68,-11.51 -25.68,-25.68l0 -333.88 -462.29 0 0 333.88c0,14.17 -11.52,25.68 -25.69,25.68 -14.17,0 -25.68,-11.51 -25.68,-25.68l0 -359.56c0,-14.17 11.51,-25.69 25.68,-25.69l513.66 0.01c14.17,0 25.68,11.51 25.68,25.68l0 359.56c0,14.17 -11.51,25.68 -25.68,25.68zm0 0z"/>
    <path class="fil8" d="M19049.51 12786.6c-4.47,0 -8.93,-1.13 -12.95,-3.48l-308.19 -179.78c-7.9,-4.64 -12.74,-13.05 -12.74,-22.2l0 -359.56c0,-9.15 4.84,-17.56 12.74,-22.2l308.19 -179.78c7.95,-4.71 17.94,-4.71 25.89,0l308.19 179.78c7.9,4.64 12.74,13.05 12.74,22.2l0 359.56c0,9.15 -4.84,17.56 -12.74,22.2l-308.19 179.78c-4.02,2.35 -8.48,3.48 -12.95,3.48l0.01 0zm-282.51 -220.21l282.51 164.78 282.5 -164.78 0 -330.06 -282.5 -164.78 -282.51 164.78 0 330.06zm0 0z"/>
    <g>
     <path class="fil11" d="M18638.58 12221.58l-410.92 0 0 359.56 410.92 0 0 -359.56zm0 0l0 0 0 0z"/>
    </g>
    <path class="fil8" d="M18638.58 12606.82l-410.92 0c-14.17,0 -25.68,-11.51 -25.68,-25.68l0 -359.56c0,-14.17 11.51,-25.68 25.68,-25.68l410.92 0c14.17,0 25.68,11.51 25.68,25.68 0,14.17 -11.51,25.69 -25.68,25.69l-385.24 0 0 308.19 385.24 0c14.17,0 25.68,11.51 25.68,25.68 0,14.17 -11.51,25.68 -25.68,25.68zm0 0z"/>
    <path class="fil8" d="M19049.51 12786.6c-4.42,0 -8.83,-1.13 -12.8,-3.38 -7.95,-4.57 -12.89,-13.1 -12.89,-22.3l0 -359.56c0,-9.15 4.84,-17.56 12.74,-22.2l308.19 -179.78c7.91,-4.66 17.79,-4.66 25.74,-0.1 7.95,4.57 12.89,13.1 12.89,22.3l0 359.56c0,9.15 -4.84,17.56 -12.74,22.2l-308.19 179.78c-4.02,2.35 -8.48,3.48 -12.94,3.48zm25.68 -370.49l0 300.11 256.82 -149.83 0 -300.11 -256.82 149.83zm0 0z"/>
    <g>
     <path class="fil11" d="M19049.51 12401.36l-308.2 -179.78 308.2 179.78zm0 0l0 0 0 0z"/>
    </g>
    <path class="fil8" d="M19049.51 12427.04c-4.37,0 -8.83,-1.08 -12.9,-3.48l-308.19 -179.78c-12.21,-7.15 -16.38,-22.87 -9.25,-35.14 7.2,-12.24 22.92,-16.43 35.13,-9.25l308.2 179.78c12.24,7.14 16.37,22.87 9.25,35.13 -4.84,8.18 -13.47,12.74 -22.24,12.74zm0 0z"/>
   </g>
   <path class="fil6 str21" style="mask:url(#id4)" d="M7555.37 9365.99c1307.59,0 2367.62,1060.02 2367.62,2367.62 0,1307.59 -1060.03,2367.61 -2367.62,2367.61 -1307.6,0 -2367.62,-1060.02 -2367.62,-2367.61 0,-1307.6 1060.02,-2367.62 2367.62,-2367.62z"/>
   <path class="fil6 str19" style="mask:url(#id6)" d="M12840.25 4081.1c1307.6,0 2367.62,1060.02 2367.62,2367.62 0,1307.6 -1060.02,2367.62 -2367.62,2367.62 -1307.6,0 -2367.62,-1060.02 -2367.62,-2367.62 0,-1307.6 1060.02,-2367.62 2367.62,-2367.62z"/>
   <g>
    <path class="fil8" d="M14384.46 7606.87l-3088.41 0c-91.2,0 -165.45,-74.25 -165.45,-165.45 0,-91.21 74.25,-165.45 165.45,-165.45l3088.41 0c91.21,0 165.45,74.24 165.45,165.45 0,91.2 -74.24,165.45 -165.45,165.45zm-3088.41 -275.75c-60.83,0 -110.3,49.47 -110.3,110.3 0,60.83 49.47,110.3 110.3,110.3l3088.41 0c60.83,0 110.3,-49.47 110.3,-110.3 0,-60.83 -49.47,-110.3 -110.3,-110.3l-3088.41 0zm0 0z"/>
    <path class="fil8" d="M12978.13 7468.99l-275.75 0c-45.62,0 -82.72,-37.11 -82.72,-82.72l0 -82.73c0,-15.21 12.36,-27.57 27.57,-27.57 15.22,0 27.58,12.36 27.58,27.57l0 82.73c0,15.16 12.36,27.57 27.57,27.57l275.75 0c15.22,0 27.58,-12.41 27.58,-27.57l0 -82.73c0,-15.21 12.36,-27.57 27.57,-27.57 15.22,0 27.58,12.36 27.58,27.57l0 82.73c0,45.61 -37.11,82.72 -82.73,82.72zm0 0z"/>
    <path class="fil8" d="M13998.41 7055.37l-2316.31 0c-45.61,0 -82.72,-37.11 -82.72,-82.73l0 -1433.9c0,-45.62 37.11,-82.73 82.72,-82.73l2316.31 0c45.62,0 82.73,37.11 82.73,82.73l0 1433.9c0,45.62 -37.11,82.72 -82.73,82.72l0 0.01zm-2316.31 -1544.21c-15.21,0 -27.57,12.42 -27.57,27.58l0 1433.9c0,15.16 12.36,27.58 27.57,27.58l2316.31 0c15.22,0 27.58,-12.42 27.58,-27.58l0 -1433.9c0,-15.16 -12.36,-27.58 -27.58,-27.58l-2316.31 0zm0 0z"/>
    <path class="fil8" d="M14219.01 7220.82c-15.21,0 -27.57,-12.36 -27.57,-27.58l0 -1737.23c0,-60.83 -49.47,-110.3 -110.3,-110.3l-2481.76 0c-60.83,0 -110.3,49.47 -110.3,110.3l0 1737.23c0,15.22 -12.36,27.58 -27.58,27.58 -15.21,0 -27.57,-12.36 -27.57,-27.58l0 -1737.23c0,-91.21 74.24,-165.45 165.45,-165.45l2481.76 0c91.2,0 165.45,74.24 165.45,165.45l0 1737.23c0,15.22 -12.36,27.58 -27.58,27.58zm0 0z"/>
    <path class="fil7" d="M14053.56 5814.49l-2426.61 0 0 -275.75c0,-30.43 24.72,-55.15 55.15,-55.15l2316.31 0c30.43,0 55.15,24.72 55.15,55.15l0 275.75zm0 0z"/>
    <path class="fil8" d="M14053.56 5842.06l-2426.61 0c-15.21,0 -27.57,-12.36 -27.57,-27.57l0 -275.75c0,-45.62 37.11,-82.73 82.72,-82.73l2316.31 0c45.62,0 82.73,37.11 82.73,82.73l0 275.75c0,15.21 -12.36,27.57 -27.58,27.57l0 0zm-2399.03 -55.15l2371.46 0 0 -248.17c0,-15.16 -12.36,-27.58 -27.58,-27.58l-2316.31 0c-15.21,0 -27.57,12.42 -27.57,27.58l0 248.17zm0 0z"/>
    <path class="fil11" d="M12978.13 6090.24l716.95 0 0 716.95 -716.95 0 0 -716.95zm0 0z"/>
    <path class="fil8" d="M13695.09 6834.77l-716.95 0c-15.22,0 -27.58,-12.36 -27.58,-27.58l0 -716.95c0,-15.22 12.36,-27.58 27.58,-27.58l716.95 0c15.21,0 27.57,12.36 27.57,27.58l0 716.95c0,15.21 -12.36,27.57 -27.57,27.57l0 0.01zm-689.38 -55.16l661.8 0 0 -661.8 -661.8 0 0 661.8zm0 0z"/>
    <path class="fil10" d="M11819.97 6090.24l882.41 0 0 220.6 -882.41 0 0 -220.6zm0 0z"/>
    <g>
     <path class="fil8" d="M12702.38 6338.41l-882.41 0c-15.21,0 -27.57,-12.36 -27.57,-27.57l0 -220.6c0,-15.22 12.36,-27.58 27.57,-27.58l882.41 0c15.21,0 27.57,12.36 27.57,27.58l0 220.6c0,15.21 -12.36,27.57 -27.57,27.57l0 0zm-854.83 -55.15l827.25 0 0 -165.45 -827.25 0 0 165.45zm0 0z"/>
     <path class="fil8" d="M12702.38 6559.01l-882.41 0c-15.21,0 -27.57,-12.36 -27.57,-27.57 0,-15.22 12.36,-27.58 27.57,-27.58l882.41 0c15.21,0 27.57,12.36 27.57,27.58 0,15.21 -12.36,27.57 -27.57,27.57zm0 0z"/>
     <path class="fil8" d="M12261.18 6779.61l-441.21 0c-15.21,0 -27.57,-12.36 -27.57,-27.57 0,-15.22 12.36,-27.58 27.57,-27.58l441.21 0c15.21,0 27.57,12.36 27.57,27.58 0,15.21 -12.36,27.57 -27.57,27.57zm0 0z"/>
    </g>
   </g>
   <g>
    <path class="fil7" d="M8066.15 11763.66l-977.89 0 136.59 480.74 691.07 0 150.23 -480.74zm0 0z"/>
    <path class="fil8" d="M8516.85 10411.57l-1922.97 0c-16.58,0 -30.05,-13.47 -30.05,-30.05 0,-16.58 13.47,-30.04 30.05,-30.04l1922.97 0c16.58,0 30.04,13.46 30.04,30.04 0,16.58 -13.46,30.05 -30.04,30.05zm0 0z"/>
    <path class="fil8" d="M8516.85 13115.75l-1922.97 0c-16.58,0 -30.05,-13.47 -30.05,-30.05 0,-16.58 13.47,-30.04 30.05,-30.04l1922.97 0c16.58,0 30.04,13.46 30.04,30.04 0,16.58 -13.46,30.05 -30.04,30.05zm0 0z"/>
    <path class="fil8" d="M7555.42 13416.21c-99.38,0 -180.28,-80.9 -180.28,-180.28 0,-99.38 80.9,-180.28 180.28,-180.28 99.38,0 180.28,80.9 180.28,180.28 0,99.38 -80.9,180.28 -180.28,180.28zm0 -300.46c-66.28,0 -120.18,53.9 -120.18,120.18 0,66.28 53.9,120.19 120.18,120.19 66.28,0 120.19,-53.91 120.19,-120.19 0,-66.28 -53.91,-120.18 -120.19,-120.18zm0 0z"/>
    <path class="fil8" d="M7705.65 10261.34l-300.4 0c-16.58,0 -30.05,-13.47 -30.05,-30.05 0,-16.58 13.47,-30.05 30.05,-30.05l300.4 0c16.58,0 30.05,13.47 30.05,30.05 0,16.58 -13.47,30.05 -30.05,30.05zm0 0z"/>
    <path class="fil8" d="M7915.92 12274.45l-691.07 0c-13.47,0 -25.23,-8.89 -28.9,-21.8l-155.96 -548.79 -157.56 0c-16.58,0 -30.05,-13.47 -30.05,-30.05 0,-16.58 13.47,-30.05 30.05,-30.05l180.28 0c13.46,0 25.26,8.89 28.93,21.84l155.92 548.76 646.29 0 131.49 -420.66 -770.38 0.24c-16.58,0 -30.05,-13.47 -30.05,-30.05 0,-16.58 13.47,-30.04 30.05,-30.04l811.25 -0.24c9.56,0 18.57,4.58 24.15,12.27 5.72,7.68 7.33,17.6 4.52,26.73l-150.24 480.74c-3.96,12.56 -15.58,21.1 -28.72,21.1l0 0zm0 0z"/>
    <path class="fil8" d="M7314.99 12635c-82.86,0 -150.23,-67.42 -150.23,-150.23 0,-82.8 67.37,-150.23 150.23,-150.23 82.86,0 150.23,67.43 150.23,150.23 0,82.81 -67.37,150.23 -150.23,150.23zm0 -240.37c-49.7,0 -90.14,40.44 -90.14,90.14 0,49.71 40.44,90.14 90.14,90.14 49.71,0 90.14,-40.43 90.14,-90.14 0,-49.7 -40.43,-90.14 -90.14,-90.14zm0 0z"/>
    <path class="fil8" d="M7825.78 12635c-82.86,0 -150.23,-67.42 -150.23,-150.23 0,-82.8 67.37,-150.23 150.23,-150.23 82.86,0 150.23,67.43 150.23,150.23 0,82.81 -67.37,150.23 -150.23,150.23zm0 -240.37c-49.71,0 -90.14,40.44 -90.14,90.14 0,49.71 40.43,90.14 90.14,90.14 49.7,0 90.14,-40.43 90.14,-90.14 0,-49.7 -40.44,-90.14 -90.14,-90.14zm0 0z"/>
    <path class="fil9" d="M6593.88 11463.19c-132.75,0 -240.38,-107.62 -240.38,-240.37l0 -240.37 480.75 0 0 240.37c0,132.75 -107.57,240.37 -240.37,240.37zm0 0z"/>
    <path class="fil8" d="M6593.88 11493.24c-149.09,0 -270.42,-121.33 -270.42,-270.42l0 -240.37c0,-16.58 13.47,-30.05 30.04,-30.05l480.75 0c16.58,0 30.04,13.47 30.04,30.05l0 240.37c0,149.09 -121.33,270.42 -270.41,270.42zm-210.33 -480.74l0 210.32c0,115.99 94.34,210.33 210.33,210.33 115.99,0 210.32,-94.34 210.32,-210.33l0 -210.32 -420.65 0zm0 0z"/>
    <path class="fil12" d="M7074.62 11463.19c-132.74,0 -240.37,-107.62 -240.37,-240.37l0 -240.37 480.74 0 0 240.37c0,132.75 -107.57,240.37 -240.37,240.37zm0 0z"/>
    <path class="fil8" d="M7074.62 11493.24c-149.09,0 -270.42,-121.33 -270.42,-270.42l0 -240.37c0,-16.58 13.47,-30.05 30.05,-30.05l480.74 0c16.58,0 30.05,13.47 30.05,30.05l0 240.37c0,149.09 -121.33,270.42 -270.42,270.42zm-210.33 -480.74l0 210.32c0,115.99 94.34,210.33 210.33,210.33 115.99,0 210.33,-94.34 210.33,-210.33l0 -210.32 -420.66 0zm0 0z"/>
    <path class="fil12" d="M8036.1 11463.19c-132.74,0 -240.37,-107.62 -240.37,-240.37l0 -240.37 480.75 0 0 240.37c0,132.75 -107.57,240.37 -240.38,240.37zm0 0z"/>
    <path class="fil8" d="M8036.1 11493.24c-149.08,0 -270.41,-121.33 -270.41,-270.42l0 -240.37c0,-16.58 13.46,-30.05 30.04,-30.05l480.75 0c16.57,0 30.04,13.47 30.04,30.05l0 240.37c0,149.09 -121.33,270.42 -270.42,270.42zm-210.32 -480.74l0 210.32c0,115.99 94.33,210.33 210.32,210.33 115.99,0 210.33,-94.34 210.33,-210.33l0 -210.32 -420.65 0zm0 0z"/>
    <path class="fil9" d="M8516.85 11463.19c-132.75,0 -240.37,-107.62 -240.37,-240.37l0 -240.37 480.74 0 0 240.37c0,132.75 -107.57,240.37 -240.37,240.37zm0 0z"/>
    <path class="fil8" d="M8516.85 11493.24c-149.09,0 -270.42,-121.33 -270.42,-270.42l0 -240.37c0,-16.58 13.47,-30.05 30.05,-30.05l480.74 0c16.58,0 30.05,13.47 30.05,30.05l0 240.37c0,149.09 -121.33,270.42 -270.42,270.42zm-210.33 -480.74l0 210.32c0,115.99 94.34,210.33 210.33,210.33 115.99,0 210.32,-94.34 210.32,-210.33l0 -210.32 -420.65 0zm0 0z"/>
    <path class="fil9" d="M7555.36 11463.19c-132.74,0 -240.37,-107.62 -240.37,-240.37l0 -240.37 480.74 0 0 240.37c0,132.75 -107.57,240.37 -240.37,240.37zm0 0z"/>
    <path class="fil8" d="M7555.36 11493.24c-149.09,0 -270.42,-121.33 -270.42,-270.42l0 -240.37c0,-16.58 13.47,-30.05 30.05,-30.05l480.74 0c16.58,0 30.05,13.47 30.05,30.05l0 240.37c0,149.09 -121.33,270.42 -270.42,270.42zm-210.32 -480.74l0 210.32c0,115.99 94.33,210.33 210.32,210.33 115.99,0 210.33,-94.34 210.33,-210.33l0 -210.32 -420.65 0zm0 0z"/>
    <path class="fil8" d="M8516.85 10531.75c-16.58,0 -30.05,-13.46 -30.05,-30.04l0 -120.19c0,-149.09 -121.33,-270.42 -270.42,-270.42l-1322.04 0c-149.09,0 -270.42,121.33 -270.42,270.42l0 120.19c0,16.58 -13.47,30.04 -30.04,30.04 -16.58,0 -30.05,-13.46 -30.05,-30.04l0 -120.19c0,-182.27 148.3,-330.51 330.51,-330.51l1322.04 0c182.19,0 330.51,148.24 330.51,330.51l0 120.19c0,16.58 -13.46,30.04 -30.04,30.04zm0 0z"/>
    <path class="fil8" d="M8216.38 13416.21l-1322.04 0c-182.21,0 -330.51,-148.23 -330.51,-330.51l0 -1502.32c0,-16.58 13.47,-30.05 30.05,-30.05 16.57,0 30.04,13.47 30.04,30.05l0 1502.32c0,149.09 121.33,270.42 270.42,270.42l1322.04 0c149.09,0 270.42,-121.33 270.42,-270.42l0 -1502.32c0,-16.58 13.47,-30.05 30.05,-30.05 16.58,0 30.04,13.47 30.04,30.05l0 1502.32c0,182.28 -148.32,330.51 -330.51,330.51zm0 0z"/>
    <path class="fil9" d="M7014.53 10621.89l-180.28 360.56 -480.75 0 300.47 -360.56 360.56 0zm0 0z"/>
    <path class="fil8" d="M6834.25 11012.5l-480.75 0c-11.64,0 -22.24,-6.72 -27.22,-17.31 -4.93,-10.51 -3.35,-23.01 4.16,-31.96l300.47 -360.55c5.69,-6.87 14.11,-10.83 23.06,-10.83l360.56 0c10.38,0 20.07,5.4 25.58,14.23 5.49,8.83 5.96,19.95 1.26,29.22l-180.28 360.56c-5.1,10.21 -15.49,16.63 -26.84,16.63l0 0.01zm-416.63 -60.1l398.05 0 150.24 -300.46 -297.89 0 -250.4 300.46zm0 0z"/>
    <path class="fil12" d="M7375.08 10621.89l-60.09 360.56 -480.74 0 180.28 -360.56 360.55 0zm0 0z"/>
    <path class="fil8" d="M7314.99 11012.5l-480.74 0c-10.39,0 -20.07,-5.4 -25.59,-14.23 -5.48,-8.84 -5.95,-19.96 -1.29,-29.23l180.28 -360.55c5.14,-10.16 15.52,-16.58 26.88,-16.58l360.55 0c8.84,0 17.2,3.84 22.95,10.65 5.72,6.72 8.19,15.61 6.69,24.32l-60.09 360.56c-2.41,14.43 -14.97,25.05 -29.64,25.05l0 0.01zm-432.12 -60.1l406.71 0 50.12 -300.46 -306.6 0 -150.23 300.46zm0 0z"/>
    <path class="fil9" d="M8096.2 10621.89l180.28 360.56 480.74 0 -300.46 -360.56 -360.56 0zm0 0z"/>
    <path class="fil8" d="M8757.22 11012.5l-480.74 0c-11.36,0 -21.75,-6.43 -26.88,-16.58l-180.28 -360.56c-4.61,-9.33 -4.14,-20.39 1.29,-29.22 5.52,-8.83 15.2,-14.23 25.58,-14.23l360.57 0c8.88,0 17.37,3.96 23.06,10.82l300.46 360.56c7.51,8.95 9.1,21.45 4.17,31.95 -4.99,10.54 -15.58,17.26 -27.23,17.26zm-462.17 -60.1l398.06 0 -250.41 -300.46 -297.88 0 150.23 300.46zm0 0z"/>
    <path class="fil12" d="M7735.64 10621.89l60.09 360.56 480.75 0 -180.28 -360.56 -360.56 0zm0 0z"/>
    <path class="fil8" d="M8276.48 11012.5l-480.75 0c-14.67,0 -27.23,-10.62 -29.63,-25.12l-60.1 -360.56c-1.43,-8.71 1.03,-17.6 6.7,-24.35 5.75,-6.72 14.05,-10.62 22.94,-10.62l360.56 0c11.35,0 21.74,6.42 26.84,16.58l180.28 360.55c4.64,9.33 4.17,20.39 -1.26,29.23 -5.52,8.89 -15.2,14.29 -25.58,14.29zm-455.28 -60.1l406.72 0 -150.24 -300.46 -306.59 0 50.11 300.46zm0 0z"/>
    <path class="fil9" d="M7375.08 10621.89l-60.09 360.56 480.74 0 -60.09 -360.56 -360.56 0zm0 0z"/>
    <path class="fil8" d="M7795.73 11012.5l-480.74 0c-8.83,0 -17.19,-3.85 -22.94,-10.62 -5.73,-6.75 -8.19,-15.64 -6.69,-24.36l60.09 -360.56c2.4,-14.49 14.96,-25.11 29.63,-25.11l360.56 0c14.67,0 27.23,10.62 29.64,25.11l60.09 360.56c1.44,8.72 -1.03,17.61 -6.69,24.36 -5.75,6.77 -14.12,10.62 -22.95,10.62zm-445.29 -60.1l409.85 0 -50.12 -300.46 -309.62 0 -50.11 300.46zm0 0z"/>
    <path class="fil8" d="M7991.04 12034.08l-834.53 0c-16.57,0 -30.04,-13.47 -30.04,-30.05 0,-16.58 13.47,-30.05 30.04,-30.05l834.53 0c16.57,0 30.04,13.47 30.04,30.05 0,16.58 -13.47,30.05 -30.04,30.05zm0 0z"/>
    <path class="fil8" d="M7735.64 12274.45c-16.58,0 -30.05,-13.47 -30.05,-30.05l0 -480.62c0,-16.58 13.47,-30.05 30.05,-30.05 16.58,0 30.05,13.47 30.05,30.05l0 480.62c0,16.58 -13.47,30.05 -30.05,30.05zm0 0z"/>
    <path class="fil8" d="M7405.13 12274.45c-16.58,0 -30.05,-13.47 -30.05,-30.05l0 -480.62c0,-16.58 13.47,-30.05 30.05,-30.05 16.58,0 30.05,13.47 30.05,30.05l0 480.62c0,16.58 -13.47,30.05 -30.05,30.05zm0 0z"/>
   </g>
  </g>
 </g>
</svg>
