<?xml version="1.0" encoding="UTF-8"?>
<!DOCTYPE svg PUBLIC "-//W3C//DTD SVG 1.1//EN" "http://www.w3.org/Graphics/SVG/1.1/DTD/svg11.dtd">
<!-- Creator: CorelDRAW 2017 -->
<svg xmlns="http://www.w3.org/2000/svg" xml:space="preserve" width="60mm" height="30mm" version="1.1" style="shape-rendering:geometricPrecision; text-rendering:geometricPrecision; image-rendering:optimizeQuality; fill-rule:evenodd; clip-rule:evenodd"
viewBox="0 0 6000 3000"
 xmlns:xlink="http://www.w3.org/1999/xlink">
 <defs>
  <style type="text/css">
   <![CDATA[
    .fil2 {fill:#33CC33}
    .fil0 {fill:#33CC33;fill-rule:nonzero}
    .fil1 {fill:white;fill-rule:nonzero}
   ]]>
  </style>
 </defs>
 <g id="Capa_x0020_1">
  <metadata id="CorelCorpID_0Corel-Layer"/>
  <polygon class="fil0" points="591.87,1449.53 591.87,1352.34 957.57,1115.26 957.57,1219.57 667.8,1401.53 957.57,1585.85 957.57,1690.17 "/>
  <polygon class="fil1" points="1196.52,1568.09 1196.52,1665.29 830.82,1902.36 830.82,1798.05 1120.59,1616.1 830.82,1431.77 830.82,1327.46 "/>
  <path class="fil0" d="M1235.03 1215.78l101.05 0 67.72 172.09c2.18,-1.03 25.75,-58.4 70.7,-172.09l104.38 0 0 485.71 -77.48 0 0 -342.24 -1.61 0c-33.92,87.83 -52.42,132.78 -55.64,134.73l-77.37 0c-3.22,0 -20.69,-41.5 -52.54,-124.62l-1.72 0 0 332.13 -77.49 0 0 -485.71zm531.77 139.79l21.26 0c33.92,0 67.03,12.3 99.33,36.67 0,-5.75 1.27,-8.73 3.68,-8.73l66.33 0c2.3,0.45 3.45,1.6 3.45,3.44l0 311.2c0,2.19 -1.15,3.34 -3.45,3.34l-66.33 0c-2.41,0 -3.68,-1.15 -3.68,-3.34l0 -33.34c-32.3,24.49 -65.41,36.68 -99.33,36.68l-21.26 0c-56.1,0 -102.66,-27.94 -139.8,-83.81 -15.06,-26.1 -22.53,-52.31 -22.53,-78.52l0 -21.27c0,-56.1 27.94,-102.54 83.81,-139.44 26.09,-15.18 52.31,-22.88 78.52,-22.88zm-90.59 171.06l0 3.79c0,45.53 25.63,77.6 76.79,96 5.17,2.18 12.65,3.33 22.53,3.33l3.8 0c45.52,0 77.48,-25.63 95.87,-76.79 2.3,-5.18 3.45,-12.65 3.45,-22.54l0 -3.79c0,-45.52 -25.63,-77.48 -76.79,-95.88 -5.17,-2.3 -12.76,-3.45 -22.53,-3.45l-3.8 0c-45.52,0 -77.59,25.64 -95.99,76.8 -2.18,5.17 -3.33,12.76 -3.33,22.53zm309.2 -323.96l70.7 0c2.53,0.23 3.79,1.5 3.79,3.68l0 273.49 124.96 -122.89 102.32 0c2.53,0.46 3.79,1.72 3.79,3.68 -42.3,40.69 -88.17,86.56 -137.84,137.72l199.12 201.07 -3.8 2.07 -102.31 0 -148.88 -147.15c-1.84,0 -14.25,12.41 -37.36,37.36l0 102.31c0,2.53 -1.26,3.8 -3.79,3.8l-70.7 0c-2.42,0 -3.68,-1.27 -3.68,-3.8l0 -487.66c0.46,-2.41 1.72,-3.68 3.68,-3.68zm320.92 231.76l63.69 0c2.3,0.46 3.33,1.5 3.33,3.34l0 260.04c0,2.41 -1.03,3.68 -3.33,3.68l-63.69 0c-2.41,0 -3.68,-1.27 -3.68,-3.68l0 -260.04c0.46,-2.19 1.73,-3.34 3.68,-3.34zm32.07 -87.25l0.58 0c6.55,6.32 11.27,12.76 14.26,19.54l-0.69 0c-3.68,-2.07 -6.21,-3.1 -7.82,-3.1l0 1.03c3.22,4.48 6.78,8.16 10.8,10.81l1.04 0 0 -0.69c-1.61,-4.03 -2.42,-6.55 -2.42,-7.71 7.25,3.57 13.45,8.28 18.86,14.15l0 0.69c-6.21,6.43 -12.76,11.15 -19.55,14.13l0 -0.68c2.07,-3.57 3.11,-6.21 3.11,-7.71l-1.04 0c-4.48,3.11 -8.04,6.67 -10.8,10.69l0 1.04 0.69 0c4.02,-1.61 6.66,-2.3 7.82,-2.3 -3.68,7.13 -8.4,13.45 -14.26,18.85l-0.58 0c-6.55,-6.32 -11.26,-12.87 -14.13,-19.54l0.57 0c3.68,1.95 6.21,2.99 7.82,2.99l0 -1.04c-3.22,-4.48 -6.79,-8.04 -10.81,-10.69l-1.03 0 0 0.58c1.6,4.14 2.41,6.67 2.41,7.81 -7.24,-3.67 -13.45,-8.39 -18.85,-14.13l0 -0.69c6.2,-6.56 12.76,-11.27 19.54,-14.15l0 0.69c-2.07,3.57 -3.1,6.1 -3.1,7.71l1.03 0c4.48,-3.11 8.05,-6.79 10.81,-10.81l0 -1.03 -0.69 0c-4.03,1.61 -6.67,2.41 -7.7,2.41 3.56,-7.13 8.27,-13.45 14.13,-18.85zm224.36 7.35l20.81 0c62.42,0 112.09,33.34 148.88,100.14 7.01,17.47 12.3,37.36 15.86,59.55l0 183.93c0,2.19 -1.15,3.34 -3.33,3.34l-66.68 0c-2.3,0 -3.45,-1.15 -3.45,-3.34l0 -171.75c0,-45.64 -25.64,-77.71 -77.14,-96.34 -5.4,-2.3 -12.99,-3.45 -22.88,-3.45l-3.33 0c-45.87,0 -77.94,25.64 -96.34,76.8 -2.53,5.4 -3.68,13.1 -3.68,22.99l0 171.75c0,2.19 -1.15,3.34 -3.44,3.34l-66.68 0c-2.19,0 -3.34,-1.15 -3.34,-3.34l0 -143.81c0,-72.77 18.05,-123.47 54.27,-152.21 32.76,-31.73 69.55,-47.6 110.47,-47.6zm369.44 0l20.81 0c55.99,0 102.2,27.94 138.76,83.58 15.06,25.87 22.53,51.85 22.53,78.17l0 168.31c-9.77,38.39 -28.86,69.2 -57.25,92.31 -32.31,25.41 -65.87,38.05 -100.71,38.05l-19.08 0c-2.3,0 -3.45,-1.03 -3.45,-3.33l0 -64.38c0.46,-2.41 1.61,-3.68 3.45,-3.68l10.35 0c43.57,0 74.95,-23.68 94.03,-71.04l0 -1.73 -1.72 0c-29.2,18.51 -58.17,27.71 -86.91,27.71l-20.81 0c-55.98,0 -102.31,-27.82 -139.1,-83.23 -15.06,-26.1 -22.65,-52.08 -22.65,-78.18l0 -20.81c0,-55.98 27.82,-102.31 83.58,-139.1 25.98,-15.06 52.08,-22.65 78.17,-22.65zm-90.36 170.49l0 3.34c0,45.4 25.41,77.25 76.22,95.64 5.29,2.3 12.99,3.34 22.88,3.34l3.33 0c46.91,0 79.33,-27.25 97.37,-81.74l1.61 -27.71c0,-32.07 -20.8,-60.47 -62.65,-85.18 -14.37,-4.72 -26.44,-7.01 -36.33,-7.01l-3.33 0c-45.41,0 -77.26,25.4 -95.65,76.44 -2.3,5.29 -3.45,13 -3.45,22.88z"/>
  <path class="fil1" d="M4847.52 1354.88l21.27 0c48.05,0 89.32,21.04 123.93,63l1.95 0c34.6,-41.96 75.99,-63 123.93,-63l21.26 0c56.34,0 103.01,28.05 139.8,84.26 15.29,25.99 22.87,52.2 22.87,78.41l0 180.6c0,2.19 -1.15,3.34 -3.33,3.34l-66.68 0c-2.3,0 -3.45,-1.15 -3.45,-3.34l0 -182.21c0,-35.29 -23.91,-63.8 -71.73,-85.53 -10.92,-2.53 -19.66,-3.8 -26.21,-3.8l-3.68 0c-45.64,0 -77.6,25.76 -95.99,77.14l0 194.4c0,2.19 -1.27,3.34 -3.8,3.34l-67.94 0c-2.53,0 -3.79,-1.15 -3.79,-3.34l0 -192.67c0,-19.77 -15.64,-41.39 -47.14,-64.72 -15.86,-9.43 -32.19,-14.15 -48.85,-14.15l-3.68 0c-47.14,0 -79.79,27.48 -97.95,82.2 0,3.57 -0.58,5.41 -1.72,5.41l1.72 20.92 0 163.01c0,2.19 -1.15,3.34 -3.45,3.34l-66.68 0c-2.18,0 -3.33,-1.15 -3.33,-3.34l0 -180.6c0,-56.1 27.94,-102.66 83.81,-139.68 26.32,-15.29 52.65,-22.99 78.86,-22.99zm-425.66 130.71l179.11 0c-19.54,-42.65 -46.67,-64.03 -81.5,-64.03l-16.1 0c-34.83,0 -61.96,21.38 -81.51,64.03zm83.12 -129.33l12.88 0c54.95,0 99.78,28.16 134.39,84.5 11.61,23.33 17.47,46.9 17.47,70.46l0 8.05c0,20.24 -2.18,30.35 -6.44,30.35l-244.52 0c0,33.23 20.81,60.36 62.31,81.51 11.27,3.1 20.81,4.71 28.63,4.71l144.16 0c2.07,0.46 3.1,1.5 3.1,3.34l0 59.32c0,1.95 -1.03,2.99 -3.1,2.99l-151.87 0c-51.62,0 -94.26,-25.64 -127.95,-76.8 -13.91,-24.02 -20.92,-48.05 -20.92,-72.08l0 -41.39c0,-64.03 33.57,-112.54 100.7,-145.54 18.86,-6.32 35.99,-9.42 51.16,-9.42zm-345.52 -116.92l66.1 0c2.41,0.46 3.68,1.61 3.68,3.45l0 73.12 65.98 0c2.3,0.34 3.34,1.49 3.34,3.33l0 65.99c0,2.41 -1.04,3.68 -3.34,3.68l-65.98 0 0 150.94c0,35.18 23.68,63.58 71.04,85.19 11.04,2.18 19.66,3.33 25.87,3.33l10.46 0c2.53,0.46 3.79,1.73 3.79,3.68l0 69.44 -38.39 0c0,-2.3 -0.58,-3.34 -1.73,-3.34 -28.28,0 -61.27,-16.9 -98.98,-50.58 -30.12,-34.95 -45.18,-71.51 -45.18,-109.44l0 -295.34c0.46,-2.3 1.61,-3.45 3.34,-3.45zm-226.66 119.33c40,1.04 71.16,1.61 93.69,1.61l83.12 0c2.3,0.46 3.45,1.61 3.45,3.34l0 64.37c0,2.3 -1.15,3.34 -3.45,3.34l-164.63 0c-35.06,0 -63.22,23.68 -84.61,71.16l-1.95 8.39 273.83 0c2.19,0.46 3.34,1.61 3.34,3.68l0 25.98c0,55.64 -27.71,101.74 -83.23,138.41 -25.75,15.06 -51.74,22.54 -77.72,22.54l-190.72 0c-2.18,0 -3.33,-1.15 -3.33,-3.34l0 -64.38c0.46,-2.18 1.61,-3.33 3.33,-3.33l181.87 0c31.96,0 59.09,-14.94 81.51,-44.83l0 -1.96 -257.97 0c-2.42,0 -3.68,-1.15 -3.68,-3.45l0 -60.58c0,-64.26 35.29,-114.39 105.76,-150.6 25.64,-6.9 39.43,-10.35 41.39,-10.35zm-473.48 0l76.45 0c3.56,3.11 35.18,76.34 94.61,219.58l1.73 0c60.35,-145.54 91.97,-218.77 94.61,-219.58l74.72 0c2.53,0 3.8,1.73 3.8,5.29 -122.21,289.93 -185.89,438 -190.95,444.32l-74.84 0c-2.42,0 -3.68,-1.26 -3.68,-3.79 32.3,-74.26 50.12,-117.6 53.57,-129.9 -64.26,-152.33 -108.87,-256.94 -133.7,-313.96l3.68 -1.96zm-185.27 -139.79l138.76 0c2.18,0.46 3.33,1.49 3.33,3.33l0 73.81c0,2.41 -1.15,3.68 -3.33,3.68l-135.43 0c-20.69,0 -40,15.75 -57.94,47.13 -5.86,15.75 -8.73,30.47 -8.73,44.15 1.14,2.18 1.72,3.91 1.72,5.05l63.23 0c69.89,0 120.71,34.61 152.67,103.7 7.12,16.67 10.69,32.99 10.69,49.2 0,54.15 -29.32,99.67 -87.83,136.69 -23.34,10.58 -42.65,15.87 -57.94,15.87l-154.28 0c-2.53,0 -3.68,-1.15 -3.68,-3.34l0 -73.8c0.46,-2.42 1.61,-3.68 3.68,-3.68l154.28 0c20.57,0 39.89,-14.6 57.94,-43.8 5.74,-12.99 8.74,-24.72 8.74,-35.06 -16.22,-43.34 -42.43,-64.96 -78.87,-64.96l-144.16 0c-2.18,0 -3.33,-1.15 -3.33,-3.33l0 -100.13c0,-60.13 31.5,-107.61 94.61,-142.44 19.31,-8.04 34.6,-12.07 45.87,-12.07z"/>
  <circle class="fil2" cx="2340.01" cy="1381.96" r="39.71"/>
 </g>
</svg>
