<?xml version="1.0" encoding="UTF-8"?>
<!DOCTYPE svg PUBLIC "-//W3C//DTD SVG 1.1//EN" "http://www.w3.org/Graphics/SVG/1.1/DTD/svg11.dtd">
<!-- Creator: CorelDRAW 2017 -->
<svg xmlns="http://www.w3.org/2000/svg" xml:space="preserve" width="50mm" height="20mm" version="1.1" style="shape-rendering:geometricPrecision; text-rendering:geometricPrecision; image-rendering:optimizeQuality; fill-rule:evenodd; clip-rule:evenodd"
viewBox="0 0 5000 2000"
 xmlns:xlink="http://www.w3.org/1999/xlink">
 <defs>
  <style type="text/css">
   <![CDATA[
    .fil2 {fill:#33CC33}
    .fil0 {fill:#33CC33;fill-rule:nonzero}
    .fil1 {fill:white;fill-rule:nonzero}
   ]]>
  </style>
 </defs>
 <g id="Capa_x0020_1">
  <metadata id="CorelCorpID_0Corel-Layer"/>
  <polygon class="fil0" points="567.02,951.34 567.02,871.57 867.14,677.01 867.14,762.62 629.33,911.95 867.14,1063.22 867.14,1148.82 "/>
  <polygon class="fil1" points="1063.24,1048.64 1063.24,1128.41 763.12,1322.97 763.12,1237.36 1000.93,1088.04 763.12,936.77 763.12,851.16 "/>
  <path class="fil0" d="M1094.85 759.5l82.93 0 55.57 141.24c1.79,-0.85 21.13,-47.93 58.02,-141.24l85.67 0 0 398.62 -63.59 0 0 -280.87 -1.32 0c-27.83,72.08 -43.02,108.97 -45.67,110.57l-63.49 0c-2.64,0 -16.98,-34.06 -43.12,-102.27l-1.41 0 0 272.57 -63.59 0 0 -398.62zm436.4 114.73l17.46 0c27.83,0 55,10.09 81.51,30.09 0,-4.71 1.04,-7.16 3.02,-7.16l54.44 0c1.89,0.37 2.83,1.32 2.83,2.83l0 255.39c0,1.79 -0.94,2.74 -2.83,2.74l-54.44 0c-1.98,0 -3.02,-0.95 -3.02,-2.74l0 -27.36c-26.51,20.09 -53.68,30.1 -81.51,30.1l-17.46 0c-46.04,0 -84.24,-22.93 -114.72,-68.78 -12.36,-21.42 -18.49,-42.93 -18.49,-64.44l0 -17.45c0,-46.05 22.92,-84.16 68.78,-114.45 21.41,-12.45 42.92,-18.77 64.43,-18.77zm-74.34 140.39l0 3.11c0,37.36 21.04,63.68 63.02,78.78 4.25,1.79 10.38,2.73 18.5,2.73l3.11 0c37.36,0 63.59,-21.04 78.68,-63.02 1.89,-4.24 2.83,-10.38 2.83,-18.49l0 -3.11c0,-37.37 -21.04,-63.59 -63.02,-78.69 -4.25,-1.89 -10.47,-2.83 -18.49,-2.83l-3.11 0c-37.37,0 -63.69,21.04 -78.78,63.02 -1.8,4.25 -2.74,10.48 -2.74,18.5zm253.75 -265.87l58.03 0c2.07,0.19 3.11,1.22 3.11,3.02l0 224.45 102.55 -100.86 83.97 0c2.08,0.38 3.12,1.42 3.12,3.02 -34.72,33.4 -72.37,71.04 -113.13,113.03l163.41 165.01 -3.11 1.7 -83.97 0 -122.18 -120.77c-1.51,0 -11.7,10.19 -30.66,30.66l0 83.97c0,2.08 -1.04,3.12 -3.11,3.12l-58.03 0c-1.98,0 -3.02,-1.04 -3.02,-3.12l0 -400.21c0.38,-1.98 1.42,-3.02 3.02,-3.02zm263.38 190.2l52.27 0c1.88,0.38 2.73,1.23 2.73,2.74l0 213.41c0,1.98 -0.85,3.02 -2.73,3.02l-52.27 0c-1.98,0 -3.02,-1.04 -3.02,-3.02l0 -213.41c0.38,-1.8 1.42,-2.74 3.02,-2.74zm26.32 -71.61l0.47 0c5.38,5.19 9.25,10.47 11.7,16.04l-0.56 0c-3.02,-1.7 -5.1,-2.55 -6.42,-2.55l0 0.85c2.64,3.68 5.57,6.7 8.87,8.87l0.85 0 0 -0.57c-1.32,-3.3 -1.98,-5.37 -1.98,-6.32 5.94,2.93 11.04,6.8 15.47,11.61l0 0.56c-5.09,5.29 -10.47,9.16 -16.04,11.61l0 -0.57c1.7,-2.92 2.55,-5.09 2.55,-6.32l-0.85 0c-3.68,2.55 -6.6,5.47 -8.87,8.77l0 0.85 0.57 0c3.3,-1.32 5.47,-1.88 6.41,-1.88 -3.02,5.85 -6.88,11.04 -11.7,15.47l-0.47 0c-5.38,-5.19 -9.24,-10.57 -11.6,-16.04l0.47 0c3.02,1.6 5.09,2.45 6.41,2.45l0 -0.85c-2.64,-3.67 -5.56,-6.6 -8.86,-8.77l-0.85 0 0 0.47c1.32,3.4 1.98,5.47 1.98,6.42 -5.95,-3.02 -11.04,-6.89 -15.47,-11.61l0 -0.56c5.09,-5.38 10.47,-9.25 16.03,-11.61l0 0.57c-1.69,2.92 -2.54,5 -2.54,6.32l0.85 0c3.68,-2.55 6.6,-5.57 8.86,-8.87l0 -0.85 -0.56 0c-3.3,1.32 -5.47,1.98 -6.32,1.98 2.92,-5.85 6.79,-11.03 11.6,-15.47zm184.13 6.04l17.07 0c51.23,0 91.99,27.36 122.18,82.17 5.76,14.34 10.1,30.67 13.02,48.88l0 150.95c0,1.79 -0.94,2.74 -2.73,2.74l-54.73 0c-1.88,0 -2.83,-0.95 -2.83,-2.74l0 -140.95c0,-37.46 -21.03,-63.78 -63.3,-79.06 -4.43,-1.89 -10.66,-2.84 -18.78,-2.84l-2.73 0c-37.65,0 -63.97,21.04 -79.06,63.03 -2.08,4.43 -3.02,10.75 -3.02,18.87l0 140.95c0,1.79 -0.95,2.74 -2.83,2.74l-54.72 0c-1.8,0 -2.74,-0.95 -2.74,-2.74l0 -118.03c0,-59.72 14.81,-101.32 44.53,-124.91 26.89,-26.04 57.08,-39.06 90.67,-39.06zm303.19 0l17.07 0c45.95,0 83.88,22.93 113.88,68.59 12.36,21.23 18.49,42.55 18.49,64.15l0 138.13c-8.02,31.51 -23.68,56.79 -46.98,75.76 -26.51,20.85 -54.06,31.23 -82.65,31.23l-15.66 0c-1.89,0 -2.83,-0.85 -2.83,-2.74l0 -52.83c0.38,-1.99 1.32,-3.02 2.83,-3.02l8.49 0c35.76,0 61.51,-19.44 77.18,-58.31l0 -1.41 -1.42 0c-23.96,15.18 -47.74,22.73 -71.33,22.73l-17.07 0c-45.95,0 -83.97,-22.83 -114.16,-68.3 -12.36,-21.42 -18.59,-42.74 -18.59,-64.16l0 -17.08c0,-45.94 22.84,-83.96 68.59,-114.15 21.32,-12.36 42.74,-18.59 64.16,-18.59zm-74.16 139.91l0 2.74c0,37.27 20.85,63.4 62.55,78.5 4.34,1.88 10.66,2.73 18.78,2.73l2.73 0c38.5,0 65.1,-22.36 79.92,-67.08l1.32 -22.73c0,-26.33 -17.08,-49.63 -51.42,-69.92 -11.8,-3.86 -21.7,-5.75 -29.82,-5.75l-2.73 0c-37.27,0 -63.4,20.85 -78.5,62.74 -1.88,4.34 -2.83,10.66 -2.83,18.77z"/>
  <path class="fil1" d="M4059.54 873.66l17.45 0c39.44,0 73.31,17.27 101.71,51.7l1.6 0c28.4,-34.43 62.36,-51.7 101.7,-51.7l17.46 0c46.23,0 84.53,23.02 114.72,69.16 12.55,21.32 18.78,42.83 18.78,64.34l0 148.22c0,1.79 -0.94,2.74 -2.74,2.74l-54.72 0c-1.89,0 -2.83,-0.95 -2.83,-2.74l0 -149.54c0,-28.96 -19.62,-52.36 -58.87,-70.19 -8.96,-2.08 -16.13,-3.12 -21.51,-3.12l-3.02 0c-37.45,0 -63.68,21.14 -78.78,63.31l0 159.54c0,1.79 -1.04,2.74 -3.11,2.74l-55.76 0c-2.08,0 -3.12,-0.95 -3.12,-2.74l0 -158.12c0,-16.23 -12.83,-33.97 -38.67,-53.12 -13.03,-7.74 -26.42,-11.61 -40.1,-11.61l-3.02 0c-38.68,0 -65.48,22.55 -80.38,67.46 0,2.93 -0.48,4.44 -1.42,4.44l1.42 17.17 0 133.78c0,1.79 -0.95,2.74 -2.84,2.74l-54.72 0c-1.79,0 -2.73,-0.95 -2.73,-2.74l0 -148.22c0,-46.04 22.92,-84.25 68.78,-114.63 21.6,-12.55 43.21,-18.87 64.72,-18.87zm-349.33 107.27l146.99 0c-16.03,-35 -38.3,-52.55 -66.89,-52.55l-13.21 0c-28.58,0 -50.85,17.55 -66.89,52.55zm68.22 -106.14l10.56 0c45.1,0 81.89,23.12 110.29,69.35 9.53,19.15 14.34,38.49 14.34,57.83l0 6.61c0,16.6 -1.79,24.9 -5.28,24.9l-200.67 0c0,27.27 17.07,49.54 51.13,66.89 9.25,2.55 17.08,3.87 23.49,3.87l118.31 0c1.7,0.38 2.55,1.23 2.55,2.74l0 48.68c0,1.61 -0.85,2.46 -2.55,2.46l-124.63 0c-42.36,0 -77.36,-21.04 -105,-63.03 -11.42,-19.72 -17.18,-39.43 -17.18,-59.15l0 -33.97c0,-52.55 27.55,-92.36 82.65,-119.44 15.47,-5.19 29.53,-7.74 41.99,-7.74zm-283.57 -95.94l54.25 0c1.98,0.37 3.02,1.32 3.02,2.83l0 60 54.15 0c1.89,0.28 2.74,1.23 2.74,2.74l0 54.15c0,1.98 -0.85,3.02 -2.74,3.02l-54.15 0 0 123.87c0,28.88 19.43,52.18 58.3,69.92 9.06,1.79 16.13,2.73 21.23,2.73l8.58 0c2.08,0.38 3.12,1.42 3.12,3.02l0 56.99 -31.51 0c0,-1.89 -0.48,-2.74 -1.42,-2.74 -23.21,0 -50.28,-13.87 -81.23,-41.51 -24.72,-28.68 -37.08,-58.69 -37.08,-89.82l0 -242.37c0.38,-1.89 1.32,-2.83 2.74,-2.83zm-186.01 97.93c32.83,0.85 58.4,1.32 76.89,1.32l68.21 0c1.89,0.37 2.83,1.32 2.83,2.73l0 52.84c0,1.88 -0.94,2.73 -2.83,2.73l-135.1 0c-28.78,0 -51.89,19.44 -69.44,58.4l-1.61 6.89 224.73 0c1.8,0.38 2.74,1.32 2.74,3.02l0 21.32c0,45.66 -22.74,83.5 -68.31,113.59 -21.13,12.36 -42.45,18.5 -63.77,18.5l-156.52 0c-1.8,0 -2.74,-0.95 -2.74,-2.74l0 -52.83c0.38,-1.8 1.32,-2.74 2.74,-2.74l149.25 0c26.23,0 48.5,-12.27 66.89,-36.8l0 -1.6 -211.71 0c-1.98,0 -3.02,-0.94 -3.02,-2.83l0 -49.72c0,-52.74 28.97,-93.87 86.8,-123.59 21.04,-5.66 32.36,-8.49 33.97,-8.49zm-388.58 0l62.74 0c2.93,2.54 28.87,62.64 77.65,180.2l1.42 0c49.53,-119.44 75.47,-179.54 77.64,-180.2l61.33 0c2.07,0 3.11,1.41 3.11,4.34 -100.29,237.94 -152.56,359.45 -156.71,364.64l-61.42 0c-1.98,0 -3.02,-1.04 -3.02,-3.11 26.52,-60.95 41.14,-96.52 43.97,-106.61 -52.74,-125.01 -89.35,-210.86 -109.73,-257.66l3.02 -1.6zm-152.05 -114.73l113.88 0c1.79,0.38 2.73,1.23 2.73,2.74l0 60.57c0,1.98 -0.94,3.02 -2.73,3.02l-111.14 0c-16.98,0 -32.83,12.92 -47.55,38.68 -4.81,12.92 -7.17,25 -7.17,36.23 0.94,1.79 1.41,3.2 1.41,4.15l51.89 0c57.37,0 99.07,28.4 125.3,85.1 5.85,13.68 8.77,27.08 8.77,40.38 0,44.44 -24.06,81.8 -72.08,112.18 -19.15,8.67 -35,13.02 -47.55,13.02l-126.61 0c-2.08,0 -3.02,-0.95 -3.02,-2.74l0 -60.57c0.38,-1.98 1.32,-3.02 3.02,-3.02l126.61 0c16.89,0 32.74,-11.98 47.55,-35.95 4.72,-10.66 7.17,-20.28 7.17,-28.77 -13.3,-35.57 -34.81,-53.31 -64.72,-53.31l-118.31 0c-1.79,0 -2.74,-0.94 -2.74,-2.73l0 -82.18c0,-49.34 25.85,-88.31 77.65,-116.89 15.85,-6.61 28.4,-9.91 37.64,-9.91z"/>
  <circle class="fil2" cx="2001.68" cy="895.88" r="32.59"/>
 </g>
</svg>
