<?xml version="1.0" encoding="UTF-8"?>
<!DOCTYPE svg PUBLIC "-//W3C//DTD SVG 1.1//EN" "http://www.w3.org/Graphics/SVG/1.1/DTD/svg11.dtd">
<!-- Creator: CorelDRAW 2017 -->
<svg xmlns="http://www.w3.org/2000/svg" xml:space="preserve" width="60mm" height="30mm" version="1.1" style="shape-rendering:geometricPrecision; text-rendering:geometricPrecision; image-rendering:optimizeQuality; fill-rule:evenodd; clip-rule:evenodd"
viewBox="0 0 6000 3000"
 xmlns:xlink="http://www.w3.org/1999/xlink">
 <defs>
  <style type="text/css">
   <![CDATA[
    .fil2 {fill:#33CC33}
    .fil0 {fill:#33CC33;fill-rule:nonzero}
    .fil1 {fill:white;fill-rule:nonzero}
   ]]>
  </style>
 </defs>
 <g id="Capa_x0020_1">
  <metadata id="CorelCorpID_0Corel-Layer"/>
  <polygon class="fil0" points="336.2,1432.95 336.2,1323.02 749.79,1054.9 749.79,1172.87 422.07,1378.66 749.79,1587.12 749.79,1705.1 "/>
  <polygon class="fil1" points="1020.04,1567.03 1020.04,1676.96 606.44,1945.08 606.44,1827.11 934.16,1621.33 606.44,1412.86 606.44,1294.89 "/>
  <path class="fil0" d="M1063.59 1168.58l114.29 0 76.57 194.63c2.48,-1.17 29.13,-66.04 79.96,-194.63l118.06 0 0 549.32 -87.63 0 0 -387.06 -1.82 0c-38.36,99.33 -59.29,150.17 -62.93,152.38l-87.5 0c-3.64,0 -23.4,-46.93 -59.42,-140.94l-1.95 0 0 375.62 -87.63 0 0 -549.32zm601.4 158.1l24.06 0c38.35,0 75.8,13.91 112.33,41.48 0,-6.51 1.43,-9.88 4.16,-9.88l75.02 0c2.6,0.51 3.9,1.81 3.9,3.9l0 351.95c0,2.47 -1.3,3.77 -3.9,3.77l-75.02 0c-2.73,0 -4.16,-1.3 -4.16,-3.77l0 -37.71c-36.53,27.7 -73.98,41.48 -112.33,41.48l-24.06 0c-63.44,0 -116.1,-31.59 -158.1,-94.78 -17.03,-29.52 -25.48,-59.16 -25.48,-88.8l0 -24.06c0,-63.44 31.6,-115.97 94.78,-157.71 29.52,-17.16 59.16,-25.87 88.8,-25.87zm-102.45 193.47l0 4.29c0,51.48 28.99,87.76 86.85,108.56 5.85,2.47 14.3,3.77 25.49,3.77l4.29 0c51.48,0 87.63,-28.99 108.43,-86.85 2.6,-5.85 3.9,-14.3 3.9,-25.48l0 -4.29c0,-51.49 -28.99,-87.64 -86.85,-108.44 -5.85,-2.6 -14.43,-3.9 -25.48,-3.9l-4.29 0c-51.49,0 -87.76,28.99 -108.57,86.85 -2.47,5.85 -3.77,14.43 -3.77,25.49zm349.69 -366.39l79.96 0c2.86,0.26 4.29,1.69 4.29,4.16l0 309.31 141.33 -138.99 115.72 0c2.86,0.52 4.29,1.95 4.29,4.16 -47.85,46.03 -99.73,97.9 -155.89,155.76l225.19 227.4 -4.29 2.34 -115.72 0 -168.37 -166.42c-2.08,0 -16.12,14.04 -42.26,42.25l0 115.72c0,2.86 -1.43,4.29 -4.29,4.29l-79.96 0c-2.73,0 -4.16,-1.43 -4.16,-4.29l0 -551.53c0.52,-2.73 1.95,-4.16 4.16,-4.16zm362.96 262.11l72.03 0c2.6,0.52 3.77,1.69 3.77,3.77l0 294.1c0,2.73 -1.17,4.16 -3.77,4.16l-72.03 0c-2.73,0 -4.16,-1.43 -4.16,-4.16l0 -294.1c0.52,-2.47 1.95,-3.77 4.16,-3.77zm36.27 -98.68l0.65 0c7.41,7.15 12.74,14.43 16.12,22.1l-0.78 0c-4.16,-2.34 -7.02,-3.51 -8.84,-3.51l0 1.17c3.64,5.07 7.67,9.23 12.22,12.22l1.17 0 0 -0.78c-1.82,-4.55 -2.73,-7.41 -2.73,-8.71 8.2,4.03 15.22,9.36 21.33,15.99l0 0.78c-7.02,7.29 -14.44,12.62 -22.11,16l0 -0.78c2.34,-4.03 3.51,-7.03 3.51,-8.71l-1.17 0c-5.07,3.51 -9.1,7.54 -12.22,12.09l0 1.17 0.78 0c4.55,-1.82 7.54,-2.6 8.84,-2.6 -4.16,8.06 -9.49,15.21 -16.12,21.32l-0.65 0c-7.41,-7.15 -12.74,-14.56 -15.99,-22.1l0.65 0c4.16,2.21 7.02,3.38 8.84,3.38l0 -1.17c-3.64,-5.07 -7.67,-9.1 -12.22,-12.09l-1.17 0 0 0.64c1.82,4.69 2.73,7.55 2.73,8.85 -8.19,-4.16 -15.21,-9.49 -21.32,-16l0 -0.78c7.02,-7.41 14.43,-12.74 22.1,-15.99l0 0.78c-2.34,4.03 -3.51,6.89 -3.51,8.71l1.17 0c5.07,-3.51 9.1,-7.67 12.22,-12.22l0 -1.17 -0.78 0c-4.55,1.82 -7.54,2.73 -8.71,2.73 4.03,-8.06 9.36,-15.21 15.99,-21.32zm253.74 8.32l23.54 0c70.59,0 126.76,37.7 168.37,113.24 7.93,19.77 13.91,42.26 17.94,67.35l0 208.03c0,2.47 -1.3,3.77 -3.77,3.77l-75.41 0c-2.6,0 -3.9,-1.3 -3.9,-3.77l0 -194.25c0,-51.61 -29,-87.89 -87.24,-108.95 -6.11,-2.6 -14.7,-3.9 -25.88,-3.9l-3.77 0c-51.87,0 -88.15,28.99 -108.95,86.85 -2.86,6.11 -4.16,14.82 -4.16,26l0 194.25c0,2.47 -1.3,3.77 -3.9,3.77l-75.41 0c-2.47,0 -3.77,-1.3 -3.77,-3.77l0 -162.65c0,-82.3 20.41,-139.64 61.37,-172.14 37.05,-35.89 78.66,-53.83 124.94,-53.83zm417.82 0l23.54 0c63.31,0 115.58,31.59 156.93,94.52 17.03,29.26 25.48,58.64 25.48,88.41l0 190.35c-11.05,43.42 -32.63,78.27 -64.75,104.4 -36.53,28.73 -74.5,43.04 -113.89,43.04l-21.59 0c-2.6,0 -3.9,-1.17 -3.9,-3.77l0 -72.81c0.52,-2.73 1.82,-4.16 3.9,-4.16l11.7 0c49.28,0 84.78,-26.79 106.36,-80.35l0 -1.95 -1.95 0c-33.03,20.93 -65.79,31.33 -98.29,31.33l-23.54 0c-63.32,0 -115.71,-31.47 -157.32,-94.13 -17.03,-29.52 -25.61,-58.9 -25.61,-88.41l0 -23.54c0,-63.31 31.46,-115.71 94.52,-157.32 29.39,-17.03 58.9,-25.61 88.41,-25.61zm-102.19 192.81l0 3.78c0,51.35 28.73,87.37 86.2,108.17 5.98,2.6 14.69,3.77 25.87,3.77l3.77 0c53.05,0 89.72,-30.81 110.13,-92.44l1.82 -31.34c0,-36.27 -23.53,-68.39 -70.86,-96.34 -16.25,-5.33 -29.9,-7.93 -41.09,-7.93l-3.77 0c-51.35,0 -87.37,28.73 -108.17,86.46 -2.6,5.98 -3.9,14.69 -3.9,25.87z"/>
  <path class="fil1" d="M5149.17 1325.9l24.06 0c54.34,0 101.02,23.79 140.16,71.25l2.2 0c39.14,-47.46 85.94,-71.25 140.16,-71.25l24.05 0c63.71,0 116.5,31.73 158.1,95.3 17.3,29.39 25.88,59.03 25.88,88.67l0 204.26c0,2.47 -1.3,3.77 -3.77,3.77l-75.41 0c-2.6,0 -3.9,-1.3 -3.9,-3.77l0 -206.08c0,-39.91 -27.04,-72.16 -81.13,-96.73 -12.35,-2.86 -22.24,-4.29 -29.65,-4.29l-4.16 0c-51.61,0 -87.76,29.12 -108.56,87.24l0 219.86c0,2.47 -1.43,3.77 -4.29,3.77l-76.84 0c-2.86,0 -4.29,-1.3 -4.29,-3.77l0 -217.91c0,-22.36 -17.68,-46.8 -53.31,-73.2 -17.94,-10.66 -36.4,-15.99 -55.25,-15.99l-4.17 0c-53.3,0 -90.22,31.07 -110.77,92.96 0,4.03 -0.65,6.11 -1.95,6.11l1.95 23.67 0 184.36c0,2.47 -1.3,3.77 -3.9,3.77l-75.41 0c-2.47,0 -3.77,-1.3 -3.77,-3.77l0 -204.26c0,-63.44 31.6,-116.1 94.78,-157.97 29.78,-17.29 59.55,-26 89.19,-26zm-481.4 147.83l202.57 0c-22.1,-48.24 -52.79,-72.42 -92.18,-72.42l-18.2 0c-39.4,0 -70.08,24.18 -92.19,72.42zm94.01 -146.27l14.56 0c62.15,0 112.85,31.85 151.99,95.56 13.13,26.4 19.76,53.05 19.76,79.7l0 9.1c0,22.89 -2.47,34.33 -7.28,34.33l-276.54 0c0,37.57 23.53,68.26 70.46,92.18 12.75,3.51 23.54,5.33 32.38,5.33l163.04 0c2.34,0.52 3.51,1.69 3.51,3.77l0 67.09c0,2.21 -1.17,3.38 -3.51,3.38l-171.75 0c-58.38,0 -106.62,-28.99 -144.71,-86.85 -15.73,-27.18 -23.66,-54.35 -23.66,-81.52l0 -46.81c0,-72.42 37.96,-127.28 113.89,-164.6 21.32,-7.15 40.7,-10.66 57.86,-10.66zm-390.78 -132.23l74.76 0c2.73,0.53 4.16,1.82 4.16,3.91l0 82.69 74.63 0c2.6,0.39 3.77,1.68 3.77,3.77l0 74.62c0,2.73 -1.17,4.17 -3.77,4.17l-74.63 0 0 170.71c0,39.78 26.78,71.9 80.35,96.34 12.48,2.47 22.23,3.77 29.25,3.77l11.83 0c2.87,0.52 4.29,1.95 4.29,4.16l0 78.53 -43.42 0c0,-2.6 -0.65,-3.77 -1.95,-3.77 -31.99,0 -69.3,-19.12 -111.95,-57.21 -34.06,-39.52 -51.09,-80.87 -51.09,-123.78l0 -334c0.52,-2.61 1.82,-3.91 3.77,-3.91zm-256.34 134.96c45.24,1.17 80.48,1.82 105.96,1.82l94.01 0c2.59,0.52 3.89,1.82 3.89,3.77l0 72.81c0,2.6 -1.3,3.77 -3.89,3.77l-186.19 0c-39.65,0 -71.51,26.79 -95.69,80.48l-2.21 9.49 309.7 0c2.47,0.52 3.77,1.82 3.77,4.16l0 29.39c0,62.92 -31.34,115.06 -94.14,156.54 -29.12,17.03 -58.5,25.48 -87.88,25.48l-215.7 0c-2.47,0 -3.77,-1.3 -3.77,-3.77l0 -72.81c0.52,-2.47 1.82,-3.77 3.77,-3.77l205.68 0c36.15,0 66.83,-16.9 92.19,-50.71l0 -2.21 -291.76 0c-2.73,0 -4.16,-1.3 -4.16,-3.9l0 -68.52c0,-72.68 39.91,-129.36 119.61,-170.32 29,-7.8 44.6,-11.7 46.81,-11.7zm-535.49 0l86.47 0c4.03,3.51 39.78,86.33 107,248.33l1.95 0c68.26,-164.6 104.01,-247.42 107,-248.33l84.51 0c2.86,0 4.29,1.95 4.29,5.98 -138.2,327.9 -210.23,495.37 -215.95,502.51l-84.64 0c-2.74,0 -4.16,-1.43 -4.16,-4.29 36.53,-83.99 56.68,-133 60.58,-146.91 -72.68,-172.27 -123.12,-290.59 -151.21,-355.08l4.16 -2.21zm-209.53 -158.1l156.93 0c2.47,0.52 3.77,1.69 3.77,3.77l0 83.47c0,2.73 -1.3,4.16 -3.77,4.16l-153.16 0c-23.4,0 -45.25,17.82 -65.53,53.31 -6.63,17.81 -9.88,34.45 -9.88,49.93 1.3,2.47 1.95,4.42 1.95,5.72l71.51 0c79.05,0 136.52,39.13 172.66,117.27 8.06,18.85 12.09,37.32 12.09,55.65 0,61.24 -33.15,112.72 -99.33,154.59 -26.39,11.96 -48.23,17.94 -65.53,17.94l-174.48 0c-2.86,0 -4.16,-1.3 -4.16,-3.77l0 -83.47c0.52,-2.73 1.82,-4.16 4.16,-4.16l174.48 0c23.27,0 45.12,-16.51 65.53,-49.54 6.5,-14.69 9.88,-27.95 9.88,-39.65 -18.33,-49.02 -47.97,-73.46 -89.19,-73.46l-163.04 0c-2.47,0 -3.77,-1.3 -3.77,-3.77l0 -113.25c0,-67.99 35.62,-121.69 107,-161.09 21.85,-9.1 39.14,-13.65 51.88,-13.65z"/>
  <circle class="fil2" cx="2313.27" cy="1356.52" r="44.91"/>
 </g>
</svg>
