<?xml version="1.0" encoding="UTF-8"?>
<!DOCTYPE svg PUBLIC "-//W3C//DTD SVG 1.1//EN" "http://www.w3.org/Graphics/SVG/1.1/DTD/svg11.dtd">
<!-- Creator: CorelDRAW 2017 -->
<svg xmlns="http://www.w3.org/2000/svg" xml:space="preserve" width="50mm" height="20mm" version="1.1" style="shape-rendering:geometricPrecision; text-rendering:geometricPrecision; image-rendering:optimizeQuality; fill-rule:evenodd; clip-rule:evenodd"
viewBox="0 0 5000 2000"
 xmlns:xlink="http://www.w3.org/1999/xlink">
 <defs>
  <style type="text/css">
   <![CDATA[
    .fil1 {fill:white}
    .fil0 {fill:white;fill-rule:nonzero}
   ]]>
  </style>
 </defs>
 <g id="Capa_x0020_1">
  <metadata id="CorelCorpID_0Corel-Layer"/>
  <polygon class="fil0" points="233.07,942.94 233.07,849.39 585.04,621.21 585.04,721.61 306.15,896.73 585.04,1074.14 585.04,1174.54 "/>
  <polygon class="fil0" points="815.02,1057.04 815.02,1150.6 463.05,1378.77 463.05,1278.37 741.94,1103.25 463.05,925.84 463.05,825.45 "/>
  <path class="fil0" d="M852.09 717.96l97.26 0 65.17 165.63c2.1,-0.99 24.78,-56.2 68.04,-165.63l100.47 0 0 467.47 -74.58 0 0 -329.39 -1.54 0c-32.65,84.54 -50.46,127.8 -53.56,129.68l-74.46 0c-3.1,0 -19.92,-39.94 -50.57,-119.94l-1.66 0 0 319.65 -74.57 0 0 -467.47zm511.8 134.54l20.47 0c32.64,0 64.51,11.84 95.6,35.3 0,-5.54 1.22,-8.41 3.54,-8.41l63.84 0c2.21,0.44 3.32,1.55 3.32,3.32l0 299.52c0,2.1 -1.11,3.2 -3.32,3.2l-63.84 0c-2.32,0 -3.54,-1.1 -3.54,-3.2l0 -32.09c-31.09,23.57 -62.96,35.29 -95.6,35.29l-20.47 0c-53.99,0 -98.81,-26.88 -134.54,-80.66 -14.5,-25.11 -21.69,-50.34 -21.69,-75.57l0 -20.47c0,-53.99 26.89,-98.69 80.66,-134.21 25.12,-14.61 50.34,-22.02 75.57,-22.02zm-87.19 164.64l0 3.65c0,43.82 24.68,74.69 73.91,92.39 4.98,2.11 12.17,3.21 21.69,3.21l3.65 0c43.82,0 74.58,-24.67 92.28,-73.91 2.21,-4.98 3.32,-12.17 3.32,-21.69l0 -3.65c0,-43.81 -24.68,-74.57 -73.91,-92.28 -4.98,-2.21 -12.28,-3.32 -21.69,-3.32l-3.65 0c-43.82,0 -74.69,24.68 -92.39,73.91 -2.1,4.99 -3.21,12.29 -3.21,21.69zm297.59 -311.8l68.05 0c2.44,0.22 3.65,1.44 3.65,3.54l0 263.23 120.28 -118.28 98.47 0c2.43,0.44 3.65,1.66 3.65,3.54 -40.72,39.17 -84.86,83.32 -132.66,132.55l191.64 193.52 -3.66 1.99 -98.47 0 -143.29 -141.62c-1.77,0 -13.72,11.95 -35.96,35.96l0 98.47c0,2.44 -1.21,3.65 -3.65,3.65l-68.05 0c-2.32,0 -3.54,-1.21 -3.54,-3.65l0 -469.36c0.45,-2.32 1.66,-3.54 3.54,-3.54zm308.88 223.06l61.3 0c2.21,0.45 3.21,1.44 3.21,3.21l0 250.28c0,2.33 -1,3.54 -3.21,3.54l-61.3 0c-2.32,0 -3.54,-1.21 -3.54,-3.54l0 -250.28c0.44,-2.1 1.66,-3.21 3.54,-3.21zm30.87 -83.98l0.56 0c6.3,6.09 10.84,12.29 13.72,18.81l-0.67 0c-3.54,-1.99 -5.97,-2.98 -7.52,-2.98l0 0.99c3.1,4.32 6.53,7.86 10.4,10.4l1 0 0 -0.66c-1.55,-3.87 -2.33,-6.31 -2.33,-7.41 6.97,3.43 12.95,7.96 18.15,13.61l0 0.66c-5.98,6.2 -12.28,10.73 -18.81,13.61l0 -0.67c1.99,-3.43 2.99,-5.97 2.99,-7.41l-1 0c-4.32,2.99 -7.75,6.42 -10.4,10.29l0 1 0.66 0c3.88,-1.55 6.42,-2.22 7.53,-2.22 -3.54,6.86 -8.08,12.95 -13.72,18.15l-0.56 0c-6.3,-6.09 -10.84,-12.39 -13.61,-18.81l0.56 0c3.54,1.88 5.97,2.88 7.52,2.88l0 -1c-3.1,-4.31 -6.53,-7.74 -10.4,-10.29l-1 0 0 0.55c1.55,3.99 2.33,6.42 2.33,7.53 -6.97,-3.54 -12.95,-8.08 -18.15,-13.61l0 -0.66c5.98,-6.31 12.28,-10.85 18.81,-13.61l0 0.66c-1.99,3.43 -2.99,5.86 -2.99,7.41l1 0c4.32,-2.98 7.75,-6.53 10.4,-10.4l0 -0.99 -0.66 0c-3.88,1.55 -6.42,2.32 -7.42,2.32 3.43,-6.86 7.97,-12.95 13.61,-18.15zm215.94 7.08l20.03 0c60.08,0 107.88,32.09 143.28,96.38 6.75,16.82 11.84,35.96 15.27,57.31l0 177.04c0,2.1 -1.1,3.2 -3.21,3.2l-64.17 0c-2.21,0 -3.32,-1.1 -3.32,-3.2l0 -165.31c0,-43.93 -24.67,-74.8 -74.24,-92.72 -5.2,-2.21 -12.51,-3.32 -22.02,-3.32l-3.21 0c-44.15,0 -75.02,24.67 -92.72,73.91 -2.44,5.2 -3.54,12.62 -3.54,22.13l0 165.31c0,2.1 -1.11,3.2 -3.32,3.2l-64.18 0c-2.1,0 -3.21,-1.1 -3.21,-3.2l0 -138.42c0,-70.04 17.38,-118.84 52.23,-146.5 31.53,-30.54 66.94,-45.81 106.33,-45.81zm355.57 0l20.03 0c53.88,0 98.36,26.89 133.55,80.44 14.49,24.9 21.68,49.91 21.68,75.24l0 161.99c-9.4,36.95 -27.77,66.61 -55.1,88.85 -31.09,24.45 -63.4,36.62 -96.92,36.62l-18.37 0c-2.21,0 -3.32,-0.99 -3.32,-3.21l0 -61.96c0.44,-2.32 1.55,-3.54 3.32,-3.54l9.96 0c41.93,0 72.14,-22.79 90.51,-68.38l0 -1.66 -1.66 0c-28.11,17.82 -55.99,26.67 -83.65,26.67l-20.03 0c-53.88,0 -98.47,-26.78 -133.88,-80.11 -14.5,-25.12 -21.8,-50.12 -21.8,-75.24l0 -20.03c0,-53.88 26.78,-98.47 80.44,-133.88 25.01,-14.49 50.12,-21.8 75.24,-21.8zm-86.97 164.09l0 3.21c0,43.71 24.46,74.36 73.36,92.06 5.09,2.21 12.5,3.21 22.02,3.21l3.21 0c45.14,0 76.34,-26.23 93.72,-78.67l1.54 -26.67c0,-30.87 -20.02,-58.2 -60.3,-81.99 -13.83,-4.53 -25.45,-6.74 -34.96,-6.74l-3.21 0c-43.71,0 -74.35,24.45 -92.06,73.58 -2.21,5.08 -3.32,12.5 -3.32,22.01z"/>
  <path class="fil0" d="M4328.98 851.84l20.46 0c46.25,0 85.98,20.24 119.28,60.63l1.88 0c33.3,-40.39 73.14,-60.63 119.28,-60.63l20.47 0c54.21,0 99.13,27 134.54,81.1 14.72,25.01 22.02,50.23 22.02,75.46l0 173.82c0,2.11 -1.11,3.21 -3.21,3.21l-64.17 0c-2.22,0 -3.32,-1.1 -3.32,-3.21l0 -175.37c0,-33.97 -23.01,-61.41 -69.04,-82.32 -10.52,-2.43 -18.93,-3.65 -25.23,-3.65l-3.54 0c-43.93,0 -74.69,24.79 -92.39,74.24l0 187.1c0,2.11 -1.22,3.21 -3.65,3.21l-65.39 0c-2.44,0 -3.66,-1.1 -3.66,-3.21l0 -185.44c0,-19.03 -15.05,-39.83 -45.36,-62.29 -15.27,-9.07 -30.98,-13.61 -47.03,-13.61l-3.54 0c-45.36,0 -76.78,26.44 -94.27,79.11 0,3.43 -0.55,5.2 -1.65,5.2l1.65 20.14 0 156.89c0,2.11 -1.1,3.21 -3.32,3.21l-64.17 0c-2.1,0 -3.21,-1.1 -3.21,-3.21l0 -173.82c0,-53.99 26.89,-98.81 80.66,-134.43 25.34,-14.72 50.68,-22.13 75.91,-22.13zm-409.68 125.8l172.38 0c-18.8,-41.05 -44.92,-61.63 -78.44,-61.63l-15.49 0c-33.53,0 -59.64,20.58 -78.45,61.63zm80 -124.48l12.39 0c52.88,0 96.04,27.11 129.34,81.33 11.18,22.46 16.82,45.14 16.82,67.82l0 7.75c0,19.47 -2.1,29.21 -6.2,29.21l-235.34 0c0,31.98 20.03,58.09 59.97,78.45 10.85,2.99 20.03,4.54 27.55,4.54l138.75 0c1.99,0.44 2.99,1.43 2.99,3.2l0 57.1c0,1.88 -1,2.87 -2.99,2.87l-146.16 0c-49.68,0 -90.73,-24.67 -123.15,-73.91 -13.39,-23.12 -20.14,-46.25 -20.14,-69.37l0 -39.84c0,-61.62 32.31,-108.32 96.93,-140.07 18.14,-6.09 34.63,-9.08 49.24,-9.08zm-332.56 -112.52l63.62 0c2.32,0.44 3.54,1.55 3.54,3.32l0 70.37 63.51 0c2.21,0.33 3.21,1.44 3.21,3.21l0 63.51c0,2.32 -1,3.54 -3.21,3.54l-63.51 0 0 145.28c0,33.85 22.79,61.18 68.38,81.99 10.62,2.1 18.92,3.2 24.89,3.2l10.07 0c2.44,0.45 3.65,1.66 3.65,3.54l0 66.83 -36.95 0c0,-2.21 -0.56,-3.21 -1.66,-3.21 -27.22,0 -58.97,-16.26 -95.27,-48.68 -28.99,-33.63 -43.48,-68.82 -43.48,-105.33l0 -284.25c0.44,-2.22 1.55,-3.32 3.21,-3.32zm-218.15 114.85c38.5,1 68.49,1.55 90.17,1.55l80 0c2.21,0.44 3.32,1.55 3.32,3.21l0 61.96c0,2.21 -1.11,3.21 -3.32,3.21l-158.44 0c-33.75,0 -60.86,22.79 -81.44,68.49l-1.88 8.07 263.56 0c2.1,0.45 3.21,1.55 3.21,3.54l0 25.01c0,53.55 -26.67,97.92 -80.11,133.22 -24.78,14.49 -49.79,21.68 -74.8,21.68l-183.56 0c-2.1,0 -3.21,-1.1 -3.21,-3.21l0 -61.96c0.45,-2.1 1.55,-3.2 3.21,-3.2l175.04 0c30.76,0 56.88,-14.39 78.45,-43.16l0 -1.88 -248.29 0c-2.32,0 -3.54,-1.1 -3.54,-3.32l0 -58.31c0,-61.85 33.97,-110.09 101.8,-144.94 24.67,-6.64 37.95,-9.96 39.83,-9.96zm-455.71 0l73.58 0c3.43,2.99 33.86,73.47 91.06,211.33l1.66 0c58.09,-140.07 88.52,-210.56 91.06,-211.33l71.92 0c2.44,0 3.66,1.66 3.66,5.09 -117.62,279.05 -178.92,421.56 -183.78,427.64l-72.04 0c-2.32,0 -3.54,-1.21 -3.54,-3.65 31.1,-71.47 48.24,-113.19 51.56,-125.03 -61.85,-146.6 -104.78,-247.29 -128.68,-302.17l3.54 -1.88zm-178.31 -134.55l133.55 0c2.1,0.45 3.2,1.44 3.2,3.21l0 71.04c0,2.32 -1.1,3.54 -3.2,3.54l-130.34 0c-19.92,0 -38.51,15.16 -55.77,45.36 -5.64,15.16 -8.41,29.32 -8.41,42.49 1.11,2.1 1.66,3.76 1.66,4.87l60.85 0c67.28,0 116.18,33.3 146.94,99.8 6.86,16.04 10.29,31.76 10.29,47.36 0,52.11 -28.21,95.93 -84.53,131.55 -22.46,10.18 -41.05,15.27 -55.77,15.27l-148.48 0c-2.44,0 -3.54,-1.1 -3.54,-3.21l0 -71.03c0.44,-2.32 1.55,-3.54 3.54,-3.54l148.48 0c19.81,0 38.4,-14.05 55.77,-42.16 5.53,-12.5 8.41,-23.78 8.41,-33.74 -15.6,-41.72 -40.83,-62.52 -75.91,-62.52l-138.74 0c-2.11,0 -3.21,-1.1 -3.21,-3.21l0 -96.37c0,-57.87 30.31,-103.56 91.06,-137.09 18.59,-7.74 33.3,-11.62 44.15,-11.62z"/>
  <circle class="fil1" cx="1915.58" cy="877.9" r="38.22"/>
 </g>
</svg>
