<?xml version="1.0" encoding="UTF-8"?>
<!DOCTYPE svg PUBLIC "-//W3C//DTD SVG 1.1//EN" "http://www.w3.org/Graphics/SVG/1.1/DTD/svg11.dtd">
<!-- Creator: CorelDRAW 2017 -->
<svg xmlns="http://www.w3.org/2000/svg" xml:space="preserve" width="25.4mm" height="5mm" version="1.1" style="shape-rendering:geometricPrecision; text-rendering:geometricPrecision; image-rendering:optimizeQuality; fill-rule:evenodd; clip-rule:evenodd"
viewBox="0 0 2540 500"
 xmlns:xlink="http://www.w3.org/1999/xlink">
 <defs>
  <style type="text/css">
   <![CDATA[
    .fil1 {fill:white}
    .fil0 {fill:white;fill-rule:nonzero}
   ]]>
  </style>
 </defs>
 <g id="Capa_x0020_1">
  <metadata id="CorelCorpID_0Corel-Layer"/>
  <polygon class="fil0" points="165.63,222.2 165.63,176.63 337.09,65.47 337.09,114.38 201.23,199.69 337.09,286.12 337.09,335.03 "/>
  <polygon class="fil0" points="449.13,277.79 449.13,323.37 277.66,434.52 277.66,385.61 413.53,300.3 277.66,213.87 277.66,164.96 "/>
  <path class="fil0" d="M467.19 112.6l47.38 0 31.75 80.69c1.02,-0.49 12.07,-27.38 33.15,-80.69l48.94 0 0 227.74 -36.33 0 0 -160.47 -0.75 0c-15.9,41.18 -24.58,62.26 -26.09,63.17l-36.28 0c-1.51,0 -9.7,-19.46 -24.63,-58.43l-0.81 0 0 155.73 -36.33 0 0 -227.74zm249.33 65.54l9.98 0c15.9,0 31.42,5.77 46.57,17.2 0,-2.7 0.59,-4.1 1.72,-4.1l31.11 0c1.07,0.22 1.61,0.76 1.61,1.62l0 145.91c0,1.03 -0.54,1.57 -1.61,1.57l-31.11 0c-1.13,0 -1.72,-0.54 -1.72,-1.57l0 -15.63c-15.15,11.48 -30.67,17.2 -46.57,17.2l-9.98 0c-26.3,0 -48.13,-13.1 -65.54,-39.3 -7.06,-12.23 -10.57,-24.52 -10.57,-36.81l0 -9.98c0,-26.3 13.1,-48.08 39.3,-65.38 12.23,-7.12 24.52,-10.73 36.81,-10.73zm-42.47 80.21l0 1.78c0,21.35 12.02,36.38 36.01,45.01 2.42,1.02 5.93,1.56 10.56,1.56l1.78 0c21.35,0 36.33,-12.02 44.95,-36.01 1.08,-2.42 1.62,-5.92 1.62,-10.56l0 -1.78c0,-21.34 -12.02,-36.33 -36,-44.95 -2.43,-1.08 -5.99,-1.62 -10.57,-1.62l-1.78 0c-21.34,0 -36.38,12.02 -45.01,36.01 -1.02,2.42 -1.56,5.98 -1.56,10.56zm144.98 -151.9l33.15 0c1.18,0.11 1.78,0.7 1.78,1.73l0 128.23 58.59 -57.62 47.97 0c1.19,0.22 1.78,0.81 1.78,1.72 -19.84,19.09 -41.34,40.59 -64.63,64.58l93.36 94.28 -1.78 0.97 -47.97 0 -69.81 -69c-0.86,0 -6.68,5.82 -17.51,17.52l0 47.97c0,1.19 -0.6,1.78 -1.78,1.78l-33.15 0c-1.14,0 -1.73,-0.59 -1.73,-1.78l0 -228.65c0.22,-1.13 0.81,-1.73 1.73,-1.73zm150.47 108.67l29.86 0c1.08,0.22 1.57,0.7 1.57,1.56l0 121.93c0,1.13 -0.49,1.73 -1.57,1.73l-29.86 0c-1.13,0 -1.72,-0.6 -1.72,-1.73l0 -121.93c0.21,-1.02 0.81,-1.56 1.72,-1.56zm15.04 -40.91l0.27 0c3.07,2.96 5.28,5.98 6.68,9.16l-0.32 0c-1.72,-0.97 -2.91,-1.45 -3.66,-1.45l0 0.48c1.5,2.1 3.18,3.83 5.06,5.07l0.49 0 0 -0.32c-0.76,-1.89 -1.13,-3.08 -1.13,-3.62 3.39,1.67 6.3,3.88 8.84,6.63l0 0.33c-2.91,3.02 -5.99,5.23 -9.17,6.63l0 -0.33c0.97,-1.67 1.46,-2.91 1.46,-3.61l-0.49 0c-2.1,1.46 -3.77,3.13 -5.06,5.02l0 0.48 0.32 0c1.89,-0.75 3.13,-1.08 3.66,-1.08 -1.72,3.34 -3.93,6.31 -6.68,8.84l-0.27 0c-3.07,-2.96 -5.28,-6.03 -6.63,-9.16l0.27 0c1.73,0.92 2.91,1.4 3.67,1.4l0 -0.48c-1.51,-2.11 -3.18,-3.78 -5.07,-5.02l-0.49 0 0 0.27c0.76,1.94 1.14,3.13 1.14,3.67 -3.4,-1.73 -6.31,-3.94 -8.84,-6.63l0 -0.33c2.91,-3.07 5.98,-5.28 9.16,-6.63l0 0.33c-0.97,1.67 -1.46,2.85 -1.46,3.61l0.49 0c2.1,-1.46 3.77,-3.18 5.07,-5.07l0 -0.48 -0.33 0c-1.88,0.75 -3.12,1.13 -3.61,1.13 1.67,-3.34 3.88,-6.31 6.63,-8.84zm105.2 3.45l9.75 0c29.27,0 52.56,15.63 69.81,46.95 3.29,8.19 5.77,17.52 7.44,27.92l0 86.24c0,1.03 -0.54,1.57 -1.57,1.57l-31.26 0c-1.08,0 -1.62,-0.54 -1.62,-1.57l0 -80.53c0,-21.4 -12.02,-36.44 -36.17,-45.17 -2.53,-1.08 -6.09,-1.61 -10.72,-1.61l-1.57 0c-21.5,0 -36.54,12.02 -45.17,36 -1.18,2.54 -1.72,6.15 -1.72,10.78l0 80.53c0,1.03 -0.54,1.57 -1.62,1.57l-31.26 0c-1.03,0 -1.56,-0.54 -1.56,-1.57l0 -67.43c0,-34.12 8.46,-57.89 25.44,-71.37 15.36,-14.87 32.61,-22.31 51.8,-22.31zm173.22 0l9.76 0c26.25,0 47.92,13.1 65.06,39.19 7.06,12.12 10.56,24.31 10.56,36.65l0 78.91c-4.58,18.01 -13.53,32.45 -26.84,43.29 -15.15,11.91 -30.89,17.84 -47.22,17.84l-8.95 0c-1.08,0 -1.61,-0.49 -1.61,-1.56l0 -30.19c0.21,-1.13 0.75,-1.72 1.61,-1.72l4.85 0c20.43,0 35.15,-11.11 44.1,-33.32l0 -0.8 -0.81 0c-13.69,8.67 -27.28,12.99 -40.75,12.99l-9.76 0c-26.25,0 -47.97,-13.05 -65.22,-39.03 -7.06,-12.24 -10.62,-24.42 -10.62,-36.65l0 -9.76c0,-26.25 13.04,-47.97 39.19,-65.22 12.18,-7.06 24.41,-10.62 36.65,-10.62zm-42.37 79.94l0 1.56c0,21.29 11.92,36.22 35.74,44.85 2.48,1.08 6.09,1.56 10.73,1.56l1.56 0c21.99,0 37.19,-12.77 45.66,-38.33l0.75 -12.99c0,-15.03 -9.76,-28.35 -29.38,-39.94 -6.73,-2.21 -12.39,-3.29 -17.03,-3.29l-1.56 0c-21.29,0 -36.23,11.92 -44.85,35.85 -1.08,2.48 -1.62,6.09 -1.62,10.73z"/>
  <path class="fil0" d="M2161.02 177.82l9.97 0c22.53,0 41.88,9.86 58.11,29.54l0.91 0c16.23,-19.68 35.63,-29.54 58.11,-29.54l9.97 0c26.41,0 48.3,13.15 65.55,39.51 7.17,12.18 10.72,24.47 10.72,36.76l0 84.68c0,1.03 -0.53,1.57 -1.56,1.57l-31.26 0c-1.08,0 -1.62,-0.54 -1.62,-1.57l0 -85.43c0,-16.55 -11.21,-29.92 -33.63,-40.11 -5.13,-1.18 -9.22,-1.77 -12.29,-1.77l-1.73 0c-21.4,0 -36.38,12.07 -45.01,36.16l0 91.15c0,1.03 -0.59,1.57 -1.78,1.57l-31.85 0c-1.19,0 -1.78,-0.54 -1.78,-1.57l0 -90.34c0,-9.27 -7.33,-19.4 -22.1,-30.34 -7.44,-4.43 -15.1,-6.63 -22.91,-6.63l-1.73 0c-22.1,0 -37.4,12.88 -45.92,38.54 0,1.67 -0.27,2.53 -0.81,2.53l0.81 9.81 0 76.43c0,1.03 -0.54,1.57 -1.62,1.57l-31.26 0c-1.03,0 -1.57,-0.54 -1.57,-1.57l0 -84.68c0,-26.3 13.1,-48.13 39.3,-65.49 12.34,-7.17 24.69,-10.78 36.98,-10.78zm-199.58 61.29l83.98 0c-9.17,-20 -21.89,-30.03 -38.22,-30.03l-7.55 0c-16.33,0 -29.05,10.03 -38.21,30.03zm38.97 -60.64l6.03 0c25.77,0 46.79,13.2 63.02,39.62 5.44,10.94 8.19,21.99 8.19,33.04l0 3.77c0,9.49 -1.02,14.23 -3.02,14.23l-114.65 0c0,15.58 9.76,28.3 29.22,38.22 5.28,1.45 9.75,2.21 13.42,2.21l67.59 0c0.97,0.21 1.46,0.7 1.46,1.56l0 27.82c0,0.91 -0.49,1.4 -1.46,1.4l-71.2 0c-24.21,0 -44.2,-12.02 -60,-36.01 -6.52,-11.27 -9.81,-22.53 -9.81,-33.8l0 -19.4c0,-30.03 15.74,-52.77 47.22,-68.24 8.84,-2.97 16.87,-4.42 23.99,-4.42zm-162.01 -54.82l30.99 0c1.13,0.21 1.73,0.75 1.73,1.61l0 34.29 30.94 0c1.07,0.16 1.56,0.7 1.56,1.56l0 30.94c0,1.13 -0.49,1.73 -1.56,1.73l-30.94 0 0 70.77c0,16.49 11.1,29.81 33.31,39.94 5.17,1.03 9.21,1.56 12.13,1.56l4.9 0c1.19,0.22 1.78,0.81 1.78,1.73l0 32.56 -18 0c0,-1.08 -0.27,-1.57 -0.81,-1.57 -13.26,0 -28.73,-7.92 -46.41,-23.71 -14.13,-16.39 -21.19,-33.53 -21.19,-51.32l0 -138.48c0.22,-1.07 0.76,-1.61 1.57,-1.61zm-106.28 55.95c18.76,0.48 33.37,0.75 43.93,0.75l38.97 0c1.08,0.22 1.62,0.76 1.62,1.57l0 30.18c0,1.08 -0.54,1.56 -1.62,1.56l-77.18 0c-16.45,0 -29.65,11.11 -39.68,33.37l-0.91 3.94 128.39 0c1.03,0.21 1.57,0.75 1.57,1.72l0 12.18c0,26.09 -12.99,47.71 -39.03,64.9 -12.07,7.06 -24.26,10.57 -36.44,10.57l-89.42 0c-1.03,0 -1.57,-0.54 -1.57,-1.57l0 -30.18c0.22,-1.03 0.76,-1.56 1.57,-1.56l85.27 0c14.99,0 27.71,-7.01 38.22,-21.03l0 -0.91 -120.96 0c-1.13,0 -1.72,-0.54 -1.72,-1.62l0 -28.41c0,-30.13 16.54,-53.63 49.59,-70.61 12.02,-3.23 18.49,-4.85 19.4,-4.85zm-222 0l35.84 0c1.67,1.45 16.5,35.79 44.36,102.95l0.81 0c28.3,-68.24 43.13,-102.57 44.36,-102.95l35.04 0c1.19,0 1.78,0.81 1.78,2.48 -57.3,135.94 -87.16,205.37 -89.53,208.33l-35.09 0c-1.13,0 -1.73,-0.59 -1.73,-1.78 15.15,-34.82 23.5,-55.14 25.12,-60.91 -30.13,-71.42 -51.04,-120.47 -62.69,-147.2l1.73 -0.92zm-86.87 -65.55l65.06 0c1.02,0.22 1.56,0.7 1.56,1.57l0 34.6c0,1.13 -0.54,1.73 -1.56,1.73l-63.5 0c-9.7,0 -18.76,7.38 -27.17,22.1 -2.75,7.38 -4.09,14.28 -4.09,20.7 0.53,1.02 0.8,1.83 0.8,2.37l29.65 0c32.77,0 56.6,16.22 71.58,48.62 3.35,7.81 5.02,15.47 5.02,23.07 0,25.39 -13.75,46.73 -41.18,64.09 -10.95,4.96 -20,7.44 -27.17,7.44l-72.34 0c-1.19,0 -1.72,-0.54 -1.72,-1.57l0 -34.6c0.21,-1.13 0.75,-1.73 1.72,-1.73l72.34 0c9.65,0 18.7,-6.84 27.17,-20.53 2.69,-6.09 4.09,-11.59 4.09,-16.44 -7.6,-20.33 -19.89,-30.46 -36.98,-30.46l-67.59 0c-1.02,0 -1.56,-0.54 -1.56,-1.56l0 -46.95c0,-28.19 14.77,-50.45 44.36,-66.79 9.06,-3.77 16.22,-5.66 21.51,-5.66z"/>
  <circle class="fil1" cx="985.29" cy="190.52" r="18.62"/>
 </g>
</svg>
