<?xml version="1.0" encoding="UTF-8"?>
<!DOCTYPE svg PUBLIC "-//W3C//DTD SVG 1.1//EN" "http://www.w3.org/Graphics/SVG/1.1/DTD/svg11.dtd">
<!-- Creator: CorelDRAW 2017 -->
<svg xmlns="http://www.w3.org/2000/svg" xml:space="preserve" width="279.4mm" height="215.9mm" version="1.1" style="shape-rendering:geometricPrecision; text-rendering:geometricPrecision; image-rendering:optimizeQuality; fill-rule:evenodd; clip-rule:evenodd"
viewBox="0 0 27940 21590"
 xmlns:xlink="http://www.w3.org/1999/xlink">
 <defs>
  <style type="text/css">
   <![CDATA[
    .str7 {stroke:#4B4B4D;stroke-width:110.49}
    .str1 {stroke:#4B4B4D;stroke-width:110.49}
    .str12 {stroke:#4B4B4D;stroke-width:110.49}
    .str9 {stroke:#4B4B4D;stroke-width:110.49}
    .str20 {stroke:#4B4B4D;stroke-width:110.49}
    .str2 {stroke:#4B4B4D;stroke-width:110.49}
    .str6 {stroke:#4B4B4D;stroke-width:110.49}
    .str11 {stroke:#4B4B4D;stroke-width:110.49}
    .str8 {stroke:#4B4B4D;stroke-width:110.49}
    .str18 {stroke:#4B4B4D;stroke-width:110.49}
    .str10 {stroke:#4B4B4D;stroke-width:110.49}
    .str3 {stroke:#4B4B4D;stroke-width:110.49}
    .str19 {stroke:#4B4B4D;stroke-width:110.49}
    .str5 {stroke:#4B4B4D;stroke-width:110.49}
    .str4 {stroke:#4B4B4D;stroke-width:110.49}
    .str15 {stroke:#4B4B4D;stroke-width:110.49}
    .str17 {stroke:#4B4B4D;stroke-width:110.49}
    .str16 {stroke:#4B4B4D;stroke-width:110.49}
    .str13 {stroke:#4B4B4D;stroke-width:110.49}
    .str14 {stroke:#4B4B4D;stroke-width:110.49}
    .str0 {stroke:#00BA00;stroke-width:184.16}
    .fil0 {fill:none}
    .fil1 {fill:#FEFEFE}
    .fil2 {fill:#606062}
    .fil10 {fill:black}
    .fil26 {fill:#003399}
    .fil36 {fill:#00A8B0}
    .fil25 {fill:#12E8D3}
    .fil5 {fill:#1685FB}
    .fil15 {fill:#1C1D21}
    .fil23 {fill:#33CC33}
    .fil4 {fill:#43A3F9}
    .fil6 {fill:#4E7693}
    .fil27 {fill:#5A5A5A}
    .fil18 {fill:#5C9CEE}
    .fil3 {fill:#64BDFF}
    .fil13 {fill:#69FFFF}
    .fil34 {fill:#80E0DC}
    .fil30 {fill:#838383}
    .fil38 {fill:#9AE7FD}
    .fil8 {fill:#9BE058}
    .fil32 {fill:#9C9C9C}
    .fil21 {fill:#9FD479}
    .fil11 {fill:#A7FCA1}
    .fil14 {fill:#AAB1BA}
    .fil31 {fill:#ACACAC}
    .fil7 {fill:#C0FF66}
    .fil37 {fill:#C9F0FF}
    .fil24 {fill:#CC3A60}
    .fil17 {fill:#D1D6DE}
    .fil16 {fill:#EBEEF2}
    .fil12 {fill:#ECF4F7}
    .fil20 {fill:#ED5575}
    .fil19 {fill:#F2DF33}
    .fil22 {fill:#FCAB29}
    .fil9 {fill:#FD82AC}
    .fil35 {fill:#FF435F}
    .fil33 {fill:#FF6B81}
    .fil29 {fill:#FFB509}
    .fil28 {fill:#FFD86E}
    .fil39 {fill:#4B4B4D;fill-rule:nonzero}
   ]]>
  </style>
 </defs>
 <g id="Capa_x0020_1">
  <metadata id="CorelCorpID_0Corel-Layer"/>
  <circle class="fil0 str0" cx="15135" cy="11759" r="5285"/>
  <circle class="fil1" cx="15135" cy="17043" r="2368"/>
  <circle class="fil0 str1" cx="13418" cy="11156" r="718"/>
  <path class="fil2 str2" d="M13418 10438c220,0 418,99 549,256 -238,268 -585,436 -971,436 -101,0 -199,-12 -293,-33 30,-369 339,-659 715,-659z"/>
  <path class="fil0 str3" d="M12333 13545l0 -920c0,0 -13,-192 122,-306 135,-115 226,-143 226,-143l434 -194c0,0 56,-51 34,-159"/>
  <polyline class="fil0 str4" points="14050,12134 13700,11983 13693,11819 "/>
  <line class="fil0 str5" x1="12788" y1="12851" x2="12788" y2= "13542" />
  <polyline class="fil0 str6" points="13149,11822 13113,12378 13749,12378 13693,11819 "/>
  <circle class="fil0 str7" cx="15136" cy="10690" r="718"/>
  <path class="fil2 str8" d="M15136 9972c220,0 418,99 549,256 -238,268 -585,436 -971,436 -101,0 -199,-12 -293,-33 30,-369 339,-659 715,-659z"/>
  <path class="fil0 str9" d="M14051 13079l0 -920c0,0 -13,-192 122,-306 135,-115 226,-143 226,-143l434 -194c0,0 56,-51 34,-159"/>
  <path class="fil0 str10" d="M16218 12066c0,0 -36,-206 -214,-291 -178,-85 -235,-108 -235,-108l-350 -151 -7 -164"/>
  <polyline class="fil0 str11" points="14867,11356 14831,11911 15467,11911 15411,11353 "/>
  <circle class="fil0 str12" cx="16852" cy="11156" r="718"/>
  <path class="fil2 str13" d="M16852 10438c-220,0 -418,99 -549,256 238,268 585,436 971,436 101,0 199,-12 293,-33 -30,-369 -339,-659 -715,-659z"/>
  <path class="fil0 str14" d="M17937 13545l0 -920c0,0 13,-192 -122,-306 -135,-115 -226,-143 -226,-143l-434 -194c0,0 -56,-51 -34,-159"/>
  <polyline class="fil0 str15" points="16220,12134 16570,11983 16577,11819 "/>
  <line class="fil0 str16" x1="17482" y1="12851" x2="17482" y2= "13542" />
  <polyline class="fil0 str17" points="17121,11822 17157,12378 16521,12378 16577,11819 "/>
  <line class="fil0 str18" x1="16218" y1="12025" x2="16226" y2= "13037" />
  <circle class="fil1" cx="15135" cy="6474" r="2368"/>
  <circle class="fil1" cx="20420" cy="11759" r="2368"/>
  <line class="fil0 str19" x1="14513" y1="12390" x2="14513" y2= "13082" />
  <line class="fil0 str20" x1="15807" y1="12390" x2="15807" y2= "13082" />
  <g id="_1539606190656">
   <path class="fil3" d="M21653 11674l-2519 0 0 1275c0,178 145,323 323,323l2196 0c29,0 52,-23 52,-52l0 -1495c0,-29 -23,-52 -52,-52l0 0zm0 0z"/>
   <path class="fil4" d="M21705 11725l0 1495c0,29 -23,52 -52,52l-130 0c29,0 52,-23 52,-52l0 -1495c0,-29 -23,-52 -52,-52l130 0c29,0 52,23 52,52zm0 0z"/>
   <path class="fil5" d="M19589 12554c0,29 -23,52 -52,52l-80 0c-178,0 -323,145 -323,323l0 -1598c0,-178 145,-323 323,-323l80 0c29,0 52,23 52,52l0 1495zm0 0z"/>
   <path class="fil6" d="M20753 12088l-167 83c-19,9 -39,-9 -32,-28l65 -174 134 120zm0 0z"/>
   <path class="fil7" d="M20789 12078l669 -744c14,-16 13,-40 -3,-54l-106 -96c-16,-14 -40,-13 -54,3l-669 744c-14,16 -13,40 3,54l106 96c16,14 40,13 54,-3zm0 0z"/>
   <path class="fil8" d="M20789 12078l669 -744c14,-16 13,-40 -3,-54l-53 -48 -720 801 53 48c16,14 40,13 54,-3l0 0zm0 0z"/>
   <path class="fil9" d="M21385 11414l72 -81c14,-16 13,-40 -3,-54l-106 -96c-16,-14 -40,-13 -54,3l-72 81 163 147zm0 0z"/>
   <path class="fil10" d="M21653 11635l-414 0 247 -276c14,-15 21,-35 20,-56 -1,-21 -10,-39 -25,-53l-106 -96c-32,-28 -80,-26 -109,6l-426 474 -741 0c-21,0 -39,17 -39,39 0,21 17,39 39,39l671 0 -173 193c-14,15 -21,35 -20,56 0,2 0,5 1,7l-59 161c-9,24 -2,50 17,67 12,10 26,16 41,16 9,0 19,-2 28,-7l154 -76c1,0 2,0 3,0 1,0 3,0 4,0 21,-1 39,-10 53,-25l351 -391 484 0c7,0 13,6 13,13l0 1495c0,7 -6,13 -13,13l-282 0c-21,0 -39,17 -39,39 0,21 17,39 39,39l282 0c50,0 91,-41 91,-91l0 -1495c0,-50 -41,-91 -91,-91zm-225 -327l-46 51 -106 -95 46 -51 106 95zm-203 14l24 21 -570 634 -24 -21 570 -634zm-591 719l45 40 -73 36 28 -77zm127 10l-24 -21 570 -634 24 21 -570 634zm0 0z"/>
   <path class="fil10" d="M21202 13233l-1745 0c-157,0 -284,-128 -284,-284l0 -21c0,-157 127,-284 284,-284l80 0c50,0 91,-41 91,-91l0 -841 302 0c21,0 39,-17 39,-39 0,-21 -17,-39 -39,-39l-302 0 0 -135c0,-21 -17,-39 -39,-39 -21,0 -39,17 -39,39l0 1053c0,7 -6,13 -13,13l-80 0c-115,0 -218,54 -284,138l0 -1375c0,-157 128,-284 284,-284l80 0c7,0 13,6 13,13l0 272c0,21 17,39 39,39 21,0 39,-17 39,-39l0 -272c0,-50 -41,-91 -91,-91l-80 0c-200,0 -362,162 -362,362l0 1619c0,200 162,362 362,362l1745 0c21,0 39,-17 39,-39 0,-21 -17,-39 -39,-39l0 0zm0 0z"/>
   <path class="fil10" d="M21166 12045c-158,0 -288,124 -298,280l-179 0c-21,0 -39,17 -39,39l0 443c0,21 17,39 39,39l443 0c21,0 39,-17 39,-39l0 -166c162,-3 293,-136 293,-298 0,-165 -134,-298 -298,-298l0 0zm-72 507c-68,-24 -121,-79 -141,-149l141 0 0 149zm-366 217l0 -366 145 0c23,113 110,202 220,230l0 136 -366 0zm443 -205l0 -200c0,-21 -17,-39 -39,-39l-187 0c9,-113 104,-203 220,-203 122,0 221,99 221,221 0,120 -96,218 -215,221l0 0zm0 0z"/>
   <path class="fil10" d="M21310 12668c-21,0 -39,17 -39,39 0,21 17,39 39,39l86 0c21,0 39,-17 39,-39 0,-21 -17,-39 -39,-39l-86 0zm0 0z"/>
   <path class="fil10" d="M21435 12807c0,-21 -17,-39 -39,-39l-86 0c-21,0 -39,17 -39,39 0,21 17,39 39,39l86 0c21,0 39,-17 39,-39l0 0zm0 0z"/>
   <path class="fil10" d="M19804 12029l62 0c21,0 39,-17 39,-39 0,-21 -17,-39 -39,-39l-62 0c-21,0 -39,17 -39,39 0,21 17,39 39,39l0 0zm0 0z"/>
   <path class="fil10" d="M19804 12142l300 0c21,0 39,-17 39,-39 0,-21 -17,-39 -39,-39l-300 0c-21,0 -39,17 -39,39 0,21 17,39 39,39zm0 0z"/>
   <path class="fil10" d="M20041 12029l62 0c21,0 39,-17 39,-39 0,-21 -17,-39 -39,-39l-62 0c-21,0 -39,17 -39,39 0,21 17,39 39,39l0 0zm0 0z"/>
   <path class="fil10" d="M20341 11951l-62 0c-21,0 -39,17 -39,39 0,21 17,39 39,39l62 0c21,0 39,-17 39,-39 0,-21 -17,-39 -39,-39l0 0zm0 0z"/>
   <path class="fil10" d="M19804 12254l300 0c21,0 39,-17 39,-39 0,-21 -17,-39 -39,-39l-300 0c-21,0 -39,17 -39,39 0,21 17,39 39,39l0 0zm0 0z"/>
   <path class="fil10" d="M19765 12328c0,21 17,39 39,39l475 0c21,0 39,-17 39,-39 0,-21 -17,-39 -39,-39l-475 0c-21,0 -39,17 -39,39l0 0zm0 0z"/>
   <path class="fil10" d="M20380 12440c0,-21 -17,-39 -39,-39l-537 0c-21,0 -39,17 -39,39 0,21 17,39 39,39l537 0c21,0 39,-17 39,-39l0 0zm0 0z"/>
   <path class="fil10" d="M19950 12621c0,-21 -17,-39 -39,-39l-107 0c-21,0 -39,17 -39,39l0 107c0,21 17,39 39,39l107 0c21,0 39,-17 39,-39l0 -107zm-78 68l-29 0 0 -29 29 0 0 29zm0 0z"/>
   <path class="fil10" d="M20206 12621c0,-21 -17,-39 -39,-39l-107 0c-21,0 -39,17 -39,39l0 107c0,21 17,39 39,39l107 0c21,0 39,-17 39,-39l0 -107zm-78 68l-29 0 0 -29 29 0 0 29zm0 0z"/>
   <path class="fil10" d="M20463 12621c0,-21 -17,-39 -39,-39l-107 0c-21,0 -39,17 -39,39l0 107c0,21 17,39 39,39l107 0c21,0 39,-17 39,-39l0 -107zm-78 68l-29 0 0 -29 29 0 0 29zm0 0z"/>
   <path class="fil10" d="M19911 12854l-107 0c-21,0 -39,17 -39,39l0 107c0,21 17,39 39,39l107 0c21,0 39,-17 39,-39l0 -107c0,-21 -17,-39 -39,-39l0 0zm-39 107l-29 0 0 -29 29 0 0 29zm0 0z"/>
   <path class="fil10" d="M20167 12854l-107 0c-21,0 -39,17 -39,39l0 107c0,21 17,39 39,39l107 0c21,0 39,-17 39,-39l0 -107c0,-21 -17,-39 -39,-39l0 0zm-39 107l-29 0 0 -29 29 0 0 29zm0 0z"/>
   <path class="fil10" d="M20317 13039l107 0c21,0 39,-17 39,-39l0 -107c0,-21 -17,-39 -39,-39l-107 0c-21,0 -39,17 -39,39l0 107c0,21 17,39 39,39zm39 -107l29 0 0 29 -29 0 0 -29zm0 0z"/>
  </g>
  <g id="_1539606184224">
   <g>
    <circle class="fil11" cx="14965" cy="18137" r="473"/>
    <path class="fil12" d="M15436 16136l-1310 0 0 2000 253 0 112 0 0 0c0,-261 212,-473 473,-473 261,0 473,212 473,473l0 0 118 0 247 0 0 -1633 -366 -367z"/>
    <path class="fil12" d="M14909 18332c-20,0 -40,-8 -54,-22l-125 -125c-30,-30 -30,-78 0,-108 30,-30 78,-30 108,0l71 71 184 -184c30,-30 78,-30 108,0 30,30 30,78 0,108l-239 238c-14,15 -34,22 -54,22z"/>
    <path class="fil13" d="M14509 16618l-168 0c-17,0 -31,-13 -31,-31l0 -168c0,-17 14,-31 31,-31l168 0c17,0 31,13 31,31l0 168c0,17 -13,31 -31,31z"/>
    <path class="fil13" d="M14509 17043l-168 0c-17,0 -31,-13 -31,-31l0 -168c0,-17 14,-31 31,-31l168 0c17,0 31,13 31,31l0 168c0,17 -13,31 -31,31z"/>
    <path class="fil13" d="M14509 17468l-168 0c-17,0 -31,-13 -31,-31l0 -168c0,-17 14,-31 31,-31l168 0c17,0 31,13 31,31l0 168c0,17 -13,31 -31,31z"/>
    <polygon class="fil14" points="15776,15796 14467,15796 14467,16136 15436,16136 15436,16503 15803,16503 15803,17950 16143,17950 16143,16163 "/>
   </g>
   <path class="fil15" d="M15178 18050l-238 238c-8,8 -20,13 -31,13 -12,0 -23,-4 -31,-13l-125 -125c-17,-17 -17,-45 0,-63 8,-8 20,-13 31,-13 12,0 23,4 31,13l71 71c13,13 33,13 45,0l184 -184c8,-8 20,-13 31,-13 12,0 23,4 31,13 8,8 13,20 13,31 0,12 -5,23 -13,31zm-31 -140c-29,0 -56,12 -77,32l-161 161 -48 -48c-20,-20 -48,-32 -77,-32 -29,0 -56,12 -77,32 -42,42 -42,111 0,153l125 125c20,20 48,32 77,32 29,0 56,-12 77,-32l238 -238c20,-20 32,-48 32,-77 0,-29 -12,-56 -32,-77 -20,-20 -48,-32 -77,-32zm-463 -556c0,-18 14,-32 32,-32l436 0c18,0 32,14 32,32 0,18 -14,32 -32,32l-436 0c-18,0 -32,-14 -32,-32zm0 -425c0,-18 14,-32 32,-32l436 0c18,0 32,14 32,32 0,18 -14,32 -32,32l-436 0c-18,0 -32,-15 -32,-32zm0 -425c0,-18 14,-32 32,-32l436 0c18,0 32,14 32,32 0,18 -14,32 -32,32l-436 0c-18,0 -32,-14 -32,-32zm-341 767l165 0 0 165 -165 0 0 -165zm-64 167c0,35 28,63 63,63l168 0c35,0 63,-28 63,-63l0 -168c0,-35 -28,-63 -63,-63l-168 0c-35,0 -63,28 -63,63 0,-1 0,168 0,168zm64 -591l165 0 0 165 -165 0 0 -165zm-64 166c0,35 28,63 63,63l168 0c35,0 63,-28 63,-63l0 -168c0,-35 -28,-63 -63,-63l-168 0c-35,0 -63,28 -63,63 0,0 0,168 0,168zm64 -591l165 0 0 165 -165 0 0 -165zm-1 229l168 0c35,0 63,-28 63,-63l0 -168c0,-35 -28,-63 -63,-63l-168 0c-35,0 -63,28 -63,63l0 168c0,35 28,63 63,63zm623 1928c-243,0 -441,-198 -441,-441 0,-243 198,-441 441,-441 243,0 441,198 441,441 0,243 -198,441 -441,441zm0 -946c-278,0 -505,226 -505,505 0,278 226,505 505,505 278,0 505,-226 505,-505 0,-278 -226,-505 -505,-505zm1146 350l-177 0c-18,0 -32,-14 -32,-32 0,-18 14,-32 32,-32l177 0 0 -1741 -348 -348 -1264 0 0 190c0,18 -14,32 -32,32 -18,0 -32,-14 -32,-32l0 -222c0,-18 14,-32 32,-32l1310 0c8,0 17,3 22,10l367 367c6,6 10,14 10,22l0 1786c0,0 0,0 0,0l0 244c0,18 -14,32 -32,32 -18,0 -32,-14 -32,-32l0 -211zm-643 -1510l0 -258 258 258 -258 0zm366 26c-1,-2 -1,-4 -2,-5 0,-1 -1,-1 -1,-1 -1,-1 -1,-3 -2,-4 0,-1 -1,-1 -1,-1 -1,-1 -3,-3 -4,-4l-367 -367c0,0 0,0 0,0 -1,-1 -3,-3 -4,-4 -1,-1 -1,-1 -1,-1 -1,-1 -3,-1 -4,-2 -1,0 -1,-1 -1,-1 -2,-1 -4,-1 -5,-2l0 0c-2,-1 -4,-1 -6,-1 0,0 -1,0 -1,0l-1278 0 0 -212c0,-18 -14,-32 -32,-32 -18,0 -32,14 -32,32l0 244c0,0 0,0 0,0l0 2000c0,18 14,32 32,32l253 0c18,0 32,-14 32,-32 0,-18 -14,-32 -32,-32l-221 0 0 -1936 1246 0 0 335c0,18 14,32 32,32l335 0 0 1569 -215 0c-18,0 -32,14 -32,32 0,18 14,32 32,32l247 0c18,0 32,-14 32,-32l0 -1633c0,0 0,-1 0,-1 0,-2 0,-4 -1,-6zm0 0c0,0 0,0 0,0z"/>
  </g>
  <g id="_1539606175008">
   <path class="fil16" d="M13646 5464l0 1736c0,43 34,77 77,77l2269 0c43,0 77,-34 77,-77l0 -1736c0,-43 -34,-77 -77,-77l-2269 0c-43,0 -77,34 -77,77z"/>
   <path class="fil17" d="M15992 5387l-139 0c43,0 77,34 77,77l0 1736c0,43 -34,77 -77,77l139 0c43,0 77,-34 77,-77l0 -1736c0,-43 -34,-77 -77,-77z"/>
   <circle class="fil18" cx="14278" cy="6266" r="98"/>
   <circle class="fil19" cx="14664" cy="6047" r="98"/>
   <circle class="fil20" cx="15050" cy="6266" r="98"/>
   <circle class="fil21" cx="15437" cy="5727" r="98"/>
   <path class="fil19" d="M14055 7412l0 -135 1604 0 0 135c0,30 -24,54 -54,54l-1497 0c-30,0 -54,-24 -54,-54z"/>
   <path class="fil22" d="M15523 7278l0 135c0,30 -24,54 -54,54l136 0c30,0 54,-24 54,-54l0 -135 -136 0z"/>
   <path class="fil19" d="M14666 5387l0 -125c0,-35 28,-64 64,-64l256 0c35,0 64,28 64,64l0 125 -383 0 0 0z"/>
   <path class="fil22" d="M14985 5199l-137 0c35,0 64,28 64,64l0 125 137 0 0 -125c0,-35 -28,-64 -64,-64z"/>
   <rect class="fil23" x="14193" y="6664" width="171" height="372"/>
   <rect class="fil23" x="14579" y="6449" width="171" height="587"/>
   <rect class="fil23" x="14965" y="6664" width="171" height="372"/>
   <rect class="fil23" x="15351" y="6281" width="171" height="755"/>
   <path class="fil20" d="M15902 6871l313 543c33,56 105,76 161,43l0 0c56,-33 76,-105 43,-161l-313 -543 -204 118z"/>
   <path class="fil24" d="M16106 6753l-204 118 122 212c37,-13 73,-29 108,-50 35,-20 67,-43 97,-68l-122 -212z"/>
   <circle class="fil19" cx="15812" cy="6481" r="508"/>
   <circle class="fil25" cx="15812" cy="6481" r="357"/>
   <path class="fil10" d="M15437 5867c77,0 140,-63 140,-140 0,-77 -63,-140 -140,-140 -77,0 -140,63 -140,140 0,32 11,61 28,84l-231 322c-14,-5 -28,-7 -44,-7 -37,0 -70,14 -95,38l-154 -87c2,-10 3,-19 3,-30 0,-77 -63,-140 -140,-140 -77,0 -140,63 -140,140 0,10 1,20 3,30l-154 87c-25,-23 -59,-38 -95,-38 -77,0 -140,63 -140,140 0,77 63,140 140,140 77,0 140,-63 140,-140 0,-10 -1,-20 -3,-30l154 -87c25,23 59,38 95,38 37,0 70,-14 95,-38l154 87c-2,10 -3,19 -3,30 0,77 63,140 140,140 77,0 140,-63 140,-140 0,-32 -11,-61 -28,-84l231 -322c14,5 28,7 44,7zm0 -196c31,0 56,25 56,56 0,31 -25,56 -56,56 -31,0 -56,-25 -56,-56 0,-31 25,-56 56,-56zm-1159 652c-31,0 -56,-25 -56,-56 0,-31 25,-56 56,-56 31,0 56,25 56,56 0,31 -25,56 -56,56zm386 -219c-31,0 -56,-25 -56,-56 0,-31 25,-56 56,-56 31,0 56,25 56,56 0,31 -25,56 -56,56zm386 219c-31,0 -56,-25 -56,-56 0,-31 25,-56 56,-56 31,0 56,25 56,56 0,31 -25,56 -56,56z"/>
   <path class="fil10" d="M15954 7235l-295 0 -1604 0 -332 0c-19,0 -35,-16 -35,-35l0 -1736c0,-19 16,-35 35,-35l198 0c23,0 42,-19 42,-42 0,-23 -19,-42 -42,-42l-198 0c-66,0 -119,53 -119,119l0 1736c0,66 53,119 119,119l290 0 0 93c0,53 43,96 96,96l421 0 -198 387c-11,21 -2,46 18,57 6,3 13,5 19,5 15,0 30,-8 37,-23l218 -426 465 0 218 426c7,15 22,23 37,23 6,0 13,-2 19,-5 21,-11 29,-36 18,-57l-198 -387 421 0c53,0 96,-43 96,-96l0 -93 252 0c23,0 42,-19 42,-42 0,-23 -19,-42 -42,-42zm-337 177c0,6 -5,12 -12,12l-1497 0c-6,0 -12,-5 -12,-12l0 -93 1520 0 0 93z"/>
   <path class="fil10" d="M14090 5429l576 0 383 0 943 0c19,0 35,16 35,35l0 400c0,23 19,42 42,42 23,0 42,-19 42,-42l0 -400c0,-66 -53,-119 -119,-119l-901 0 0 -83c0,-58 -47,-106 -106,-106l-256 0c-58,0 -106,47 -106,106l0 83 -534 0c-23,0 -42,19 -42,42 0,23 19,42 42,42zm618 -167c0,-12 10,-21 21,-21l256 0c12,0 21,10 21,21l0 83 -299 0 0 -83 0 0z"/>
   <path class="fil26" d="M14193 6622c-23,0 -42,19 -42,42l0 372c0,23 19,42 42,42l171 0c23,0 42,-19 42,-42l0 -372c0,-23 -19,-42 -42,-42l-171 0zm129 372l-87 0 0 -288 87 0 0 288z"/>
   <path class="fil26" d="M14579 6407c-23,0 -42,19 -42,42l0 587c0,23 19,42 42,42l171 0c23,0 42,-19 42,-42l0 -587c0,-23 -19,-42 -42,-42l-171 0zm129 587l-87 0 0 -503 87 0 0 503z"/>
   <path class="fil26" d="M14965 6622c-23,0 -42,19 -42,42l0 372c0,23 19,42 42,42l171 0c23,0 42,-19 42,-42l0 -372c0,-23 -19,-42 -42,-42l-171 0zm129 372l-87 0 0 -288 87 0 0 288z"/>
   <path class="fil26" d="M15351 6870c-23,0 -42,19 -42,42l0 124c0,23 19,42 42,42l171 0c23,0 42,-19 42,-42 0,-23 -19,-42 -42,-42l-129 0 0 -81c0,-23 -19,-42 -42,-42z"/>
   <path class="fil10" d="M16456 7275l-241 -418c61,-65 106,-145 130,-234 38,-142 19,-290 -55,-417 -152,-263 -489,-353 -751,-201 -263,152 -353,489 -201,751 73,127 192,218 334,256 47,13 95,19 143,19 42,0 83,-5 124,-14l241 418c30,51 83,80 139,80 27,0 55,-7 80,-21 49,-28 80,-82 80,-139 0,-28 -7,-56 -21,-80zm-764 -344c-120,-32 -221,-109 -283,-217 -128,-222 -52,-508 171,-636 73,-42 153,-62 232,-62 161,0 318,84 404,233 62,108 79,233 47,354 -32,120 -109,221 -217,283 -108,62 -233,79 -354,47zm663 490c-36,21 -83,8 -104,-28l-232 -402c23,-10 46,-21 68,-33 22,-13 43,-27 63,-42l232 402c7,12 10,25 10,38 0,27 -15,52 -38,66z"/>
   <path class="fil10" d="M16194 6599c30,-96 23,-198 -20,-289 -10,-21 -35,-30 -56,-20 -21,10 -30,35 -20,56 34,71 39,152 16,228 -24,76 -75,140 -144,180 -73,42 -158,53 -239,32 -81,-22 -149,-74 -192,-147 -87,-151 -35,-344 115,-431 110,-64 247,-55 348,22 19,14 45,10 59,-8 14,-19 10,-45 -8,-59 -128,-97 -302,-108 -441,-27 -92,53 -159,140 -186,243 -28,103 -13,211 40,303 53,92 140,159 243,186 34,9 69,14 104,14 69,0 138,-18 199,-54 87,-50 152,-131 182,-227z"/>
  </g>
  <circle class="fil1" cx="9850" cy="11759" r="2368"/>
  <g id="_1539702170752">
   <path class="fil27" d="M9492 12990l714 0 0 215 -714 0 0 -215zm0 0z"/>
   <path class="fil28" d="M10994 12990l-2291 0c-72,0 -131,-59 -131,-131l0 -1865c0,-72 59,-131 131,-131l2291 0c72,0 131,59 131,131l0 1865c0,72 -59,131 -131,131zm0 0z"/>
   <path class="fil29" d="M11125 10994l0 1864c0,72 -59,131 -131,131l-160 0c72,0 131,-59 131,-131l0 -1864c0,-72 -59,-131 -131,-131l160 0c72,0 131,59 131,131zm0 0z"/>
   <path class="fil30" d="M11125 12674l-2553 0 0 185c0,72 59,131 131,131l2291 0c72,0 131,-59 131,-131l0 -185zm0 0z"/>
   <path class="fil27" d="M11125 12674l0 185c0,72 -59,131 -131,131l-160 0c72,0 131,-59 131,-131l0 -185 160 0zm0 0z"/>
   <path class="fil31" d="M11128 11310l-2553 0 0 -316c0,-72 59,-131 131,-131l2291 0c72,0 131,59 131,131l0 316zm0 0z"/>
   <path class="fil32" d="M11128 10994l0 316 -163 0 0 -316c0,-72 -59,-131 -131,-131l163 0c72,0 131,59 131,131l0 0zm0 0z"/>
   <path class="fil33" d="M8892 11085c0,41 -33,75 -75,75 -41,0 -75,-33 -75,-75 0,-41 33,-75 75,-75 41,0 75,33 75,75zm0 0z"/>
   <path class="fil28" d="M9180 11085c0,41 -33,75 -75,75 -41,0 -75,-33 -75,-75 0,-41 33,-75 75,-75 41,0 75,33 75,75zm0 0z"/>
   <path class="fil34" d="M9468 11085c0,41 -33,75 -75,75 -41,0 -75,-33 -75,-75 0,-41 33,-75 75,-75 41,0 75,33 75,75zm0 0z"/>
   <path class="fil35" d="M8892 11085c0,41 -33,75 -75,75 -20,0 -38,-8 -51,-21 40,-1 73,-34 73,-74 0,-21 -9,-40 -23,-54 1,0 1,0 2,0 41,0 75,33 75,75l0 0zm0 0z"/>
   <path class="fil29" d="M9180 11085c0,41 -33,75 -75,75 -20,0 -38,-8 -51,-21 40,-1 73,-34 73,-74 0,-21 -9,-40 -23,-54 1,0 1,0 2,0 41,0 75,33 75,75l0 0zm0 0z"/>
   <path class="fil36" d="M9468 11085c0,41 -33,75 -75,75 -20,0 -38,-8 -51,-21 40,-1 73,-34 73,-74 0,-21 -9,-40 -23,-54 1,0 1,0 2,0 41,0 75,33 75,75l0 0zm0 0z"/>
   <path class="fil30" d="M10437 13416l-1177 0c-14,0 -26,-11 -26,-26l0 -83c0,-56 46,-102 102,-102l1024 0c56,0 102,46 102,102l0 83c0,14 -11,26 -26,26l0 0zm0 0z"/>
   <path class="fil27" d="M10463 13307l0 83c0,14 -12,26 -26,26l-91 0 0 -109c0,-56 -46,-102 -102,-102l116 0c56,0 102,46 102,102l0 0zm0 0z"/>
   <path class="fil37" d="M8575 11310l1269 0 0 1361 -1269 0 0 -1361zm0 0z"/>
   <path class="fil38" d="M9723 11310l120 0 0 1361 -120 0 0 -1361zm0 0z"/>
   <path class="fil37" d="M10865 12199l-754 0c-34,0 -61,-27 -61,-61l0 -613c0,-34 27,-61 61,-61l754 0c34,0 61,27 61,61l0 613c0,34 -27,61 -61,61l0 0zm0 0z"/>
   <path class="fil38" d="M10926 11525l0 613c0,34 -27,61 -61,61l-100 0c34,0 61,-27 61,-61l0 -613c0,-34 -27,-61 -61,-61l100 0c34,0 61,27 61,61zm0 0z"/>
   <path class="fil34" d="M10677 11803l-125 125 -164 -185c-9,-10 -24,-10 -33,-1l-306 305 0 91c0,34 27,61 61,61l754 0c34,0 61,-27 61,-61l0 -91 -216 -243c-9,-10 -24,-10 -33,-1l0 0zm0 0z"/>
   <path class="fil36" d="M10926 12047l0 91c0,34 -27,61 -61,61l-100 0c34,0 61,-27 61,-61l0 -204 100 112zm0 0z"/>
   <path class="fil10" d="M8818 10972c-62,0 -113,51 -113,113 0,62 51,113 113,113 62,0 113,-51 113,-113 0,-62 -51,-113 -113,-113zm0 149c-20,0 -36,-16 -36,-36 0,-20 16,-36 36,-36 20,0 36,16 36,36 0,20 -16,36 -36,36zm0 0z"/>
   <path class="fil10" d="M9106 10972c-62,0 -113,51 -113,113 0,62 51,113 113,113 62,0 113,-51 113,-113 0,-62 -51,-113 -113,-113zm0 149c-20,0 -36,-16 -36,-36 0,-20 16,-36 36,-36 20,0 36,16 36,36 0,20 -16,36 -36,36zm0 0z"/>
   <path class="fil10" d="M9394 10972c-62,0 -113,51 -113,113 0,62 51,113 113,113 62,0 113,-51 113,-113 0,-62 -51,-113 -113,-113zm0 149c-20,0 -36,-16 -36,-36 0,-20 16,-36 36,-36 20,0 36,16 36,36 0,20 -16,36 -36,36zm0 0z"/>
   <path class="fil10" d="M11125 11585c21,0 39,-17 39,-39l3 -552c0,-94 -76,-170 -170,-170l-2294 0c-94,0 -170,76 -170,170l0 1865c0,85 62,155 144,168 8,1 17,2 26,2l750 0 0 138 -116 0c-78,0 -141,63 -141,141l0 83c0,35 29,64 64,64l184 0c21,0 39,-17 39,-39 0,-21 -17,-39 -39,-39l-171 0 0 -70c0,-35 29,-64 64,-64l1024 0c35,0 64,29 64,64l0 70 -741 0c-21,0 -39,17 -39,39 0,21 17,39 39,39l754 0c35,0 64,-29 64,-64l0 -83c0,-78 -63,-141 -141,-141l-116 0 0 -138 750 0c9,0 17,-1 26,-2 81,-12 144,-83 144,-168l0 -1074c0,-21 -17,-39 -39,-39 -21,0 -39,17 -39,39l0 850 -1205 0 0 -1287 1205 0 0 197c0,21 17,39 39,39zm-2512 -236l1191 0 0 1284 -1191 0 0 -1284zm1554 1818l-637 0 0 -138 637 0 0 138zm919 -454l0 146c0,48 -36,87 -83,92 -3,0 -6,0 -9,0l-2291 0c-3,0 -6,0 -9,0 -47,-5 -83,-44 -83,-92l0 -146 2476 0zm-1243 -1441l-1230 0 0 -278c0,-51 42,-93 93,-93l2288 0c51,0 93,42 93,93l0 278 -1243 0zm0 0z"/>
   <path class="fil10" d="M8775 11502l195 0c21,0 39,-17 39,-39 0,-21 -17,-39 -39,-39l-195 0c-21,0 -39,17 -39,39 0,21 17,39 39,39l0 0zm0 0z"/>
   <path class="fil10" d="M9104 11502l92 0c21,0 39,-17 39,-39 0,-21 -17,-39 -39,-39l-92 0c-21,0 -39,17 -39,39 0,21 17,39 39,39l0 0zm0 0z"/>
   <path class="fil10" d="M9068 11561l-128 0c-21,0 -39,17 -39,39 0,21 17,39 39,39l128 0c21,0 39,-17 39,-39 0,-21 -17,-39 -39,-39zm0 0z"/>
   <path class="fil10" d="M9674 11702l-128 0c-21,0 -39,17 -39,39 0,21 17,39 39,39l128 0c21,0 39,-17 39,-39 0,-21 -17,-39 -39,-39l0 0zm0 0z"/>
   <path class="fil10" d="M9147 11600c0,21 17,39 39,39l308 0c21,0 39,-17 39,-39 0,-21 -17,-39 -39,-39l-308 0c-21,0 -39,17 -39,39l0 0zm0 0z"/>
   <path class="fil10" d="M9024 11741c0,21 17,39 39,39l67 0c21,0 39,-17 39,-39 0,-21 -17,-39 -39,-39l-67 0c-21,0 -39,17 -39,39zm0 0z"/>
   <path class="fil10" d="M9427 11779c21,0 39,-17 39,-39 0,-21 -17,-39 -39,-39l-185 0c-21,0 -39,17 -39,39 0,21 17,39 39,39l185 0zm0 0z"/>
   <path class="fil10" d="M9009 12240c0,-21 -17,-39 -39,-39l-195 0c-21,0 -39,17 -39,39 0,21 17,39 39,39l195 0c21,0 39,-17 39,-39l0 0zm0 0z"/>
   <path class="fil10" d="M9104 12202c-21,0 -39,17 -39,39 0,21 17,39 39,39l92 0c21,0 39,-17 39,-39 0,-21 -17,-39 -39,-39l-92 0zm0 0z"/>
   <path class="fil10" d="M9106 12376c0,-21 -17,-39 -39,-39l-128 0c-21,0 -39,17 -39,39 0,21 17,39 39,39l128 0c21,0 39,-17 39,-39zm0 0z"/>
   <path class="fil10" d="M9129 12478l-67 0c-21,0 -39,17 -39,39 0,21 17,39 39,39l67 0c21,0 39,-17 39,-39 0,-21 -17,-39 -39,-39l0 0zm0 0z"/>
   <path class="fil10" d="M9674 12478l-128 0c-21,0 -39,17 -39,39 0,21 17,39 39,39l128 0c21,0 39,-17 39,-39 0,-21 -17,-39 -39,-39l0 0zm0 0z"/>
   <path class="fil10" d="M9533 12376c0,-21 -17,-39 -39,-39l-308 0c-21,0 -39,17 -39,39 0,21 17,39 39,39l308 0c21,0 39,-17 39,-39l0 0zm0 0z"/>
   <path class="fil10" d="M9427 12478l-185 0c-21,0 -39,17 -39,39 0,21 17,39 39,39l185 0c21,0 39,-17 39,-39 0,-21 -17,-39 -39,-39l0 0zm0 0z"/>
   <path class="fil10" d="M8775 11956l108 0c21,0 39,-17 39,-39 0,-21 -17,-39 -39,-39l-108 0c-21,0 -39,17 -39,39 0,21 17,39 39,39zm0 0z"/>
   <path class="fil10" d="M9425 11917c0,-21 -17,-39 -39,-39l-396 0c-21,0 -39,17 -39,39 0,21 17,39 39,39l396 0c21,0 39,-17 39,-39zm0 0z"/>
   <path class="fil10" d="M9353 12053c0,-21 -17,-39 -39,-39l-375 0c-21,0 -39,17 -39,39 0,21 17,39 39,39l375 0c21,0 39,-17 39,-39l0 0zm0 0z"/>
   <path class="fil10" d="M9422 12092l72 0c21,0 39,-17 39,-39 0,-21 -17,-39 -39,-39l-72 0c-21,0 -39,17 -39,39 0,21 17,39 39,39l0 0zm0 0z"/>
   <path class="fil10" d="M10298 12314l-247 0c-21,0 -39,17 -39,39 0,21 17,39 39,39l247 0c21,0 39,-17 39,-39 0,-21 -17,-39 -39,-39l0 0zm0 0z"/>
   <path class="fil10" d="M10924 12314l-488 0c-21,0 -39,17 -39,39 0,21 17,39 39,39l488 0c21,0 39,-17 39,-39 0,-21 -17,-39 -39,-39l0 0zm0 0z"/>
   <path class="fil10" d="M10298 12463l-247 0c-21,0 -39,17 -39,39 0,21 17,39 39,39l247 0c21,0 39,-17 39,-39 0,-21 -17,-39 -39,-39l0 0zm0 0z"/>
   <path class="fil10" d="M10924 12463l-488 0c-21,0 -39,17 -39,39 0,21 17,39 39,39l488 0c21,0 39,-17 39,-39 0,-21 -17,-39 -39,-39l0 0zm0 0z"/>
   <path class="fil10" d="M10964 11525c0,-55 -45,-100 -100,-100l-754 0c-55,0 -100,45 -100,100l0 522 0 0 0 91c0,55 45,100 100,100l754 0c55,0 100,-45 100,-100l0 -613zm-77 613c0,12 -10,22 -22,22l-754 0c-12,0 -23,-10 -23,-22l0 -75 282 -282 195 220c14,16 38,17 54,3 16,-14 17,-38 3,-54l-18 -20 87 -87 195 219 0 77zm0 -193l-148 -167c-11,-13 -27,-20 -44,-20 -17,0 -33,6 -45,18l-96 96 -137 -155c-11,-13 -27,-20 -44,-20 -17,0 -33,6 -45,18l-240 240 0 -429c0,-12 10,-23 22,-23l754 0c12,0 22,10 22,23l0 420zm0 0z"/>
  </g>
  <path class="fil39" d="M13277 4359l86 0c23,0 41,-5 52,-15 11,-10 17,-25 17,-46 0,-20 -6,-35 -17,-45 -12,-10 -29,-15 -52,-15l-85 0 0 121zm-131 284l0 -507 232 0c59,0 104,14 135,41 31,27 46,66 46,118 0,54 -15,95 -46,124 -30,29 -74,43 -131,43l-106 0 0 181 -131 0z"/>
  <polygon id="1" class="fil39" points="13625,4643 13625,4136 13748,4136 13748,4643 "/>
  <path id="2" class="fil39" d="M14047 4467c-9,6 -26,12 -50,17 -12,2 -20,4 -26,6 -15,4 -25,9 -31,16 -6,6 -9,15 -9,26 0,13 4,24 12,32 8,8 19,12 33,12 21,0 38,-6 51,-18 13,-12 20,-28 20,-47l0 -43zm135 176l-125 0c-1,-6 -3,-12 -4,-19 -1,-6 -2,-13 -3,-20 -17,17 -36,30 -55,38 -19,8 -41,12 -64,12 -36,0 -65,-10 -86,-30 -21,-20 -32,-47 -32,-80 0,-31 8,-56 25,-76 16,-19 41,-33 75,-41 18,-4 42,-9 70,-13 42,-7 64,-17 64,-30l0 -9c0,-11 -4,-19 -12,-25 -8,-6 -20,-8 -36,-8 -17,0 -31,4 -42,11 -10,7 -17,18 -19,32l-113 0c6,-42 24,-74 53,-95 29,-21 70,-31 124,-31 33,0 61,4 84,12 23,8 41,20 54,37 9,12 15,26 19,42 4,16 6,42 6,78l0 142c0,17 2,30 5,40 3,10 8,16 14,19l0 14z"/>
  <path id="3" class="fil39" d="M14245 4643l0 -375 120 0 0 52c13,-20 29,-36 47,-46 19,-10 41,-15 66,-15 44,0 76,11 95,33 20,22 29,58 29,107l0 244 -123 0 0 -188c0,-44 -4,-72 -11,-84 -7,-12 -21,-18 -41,-18 -22,0 -37,7 -47,22 -10,14 -15,37 -15,69l0 201 -122 0z"/>
  <path id="4" class="fil39" d="M14787 4416l140 0c0,-24 -7,-43 -19,-56 -12,-14 -29,-20 -50,-20 -20,0 -36,7 -48,20 -12,13 -19,32 -22,57zm133 109l118 0c-11,41 -33,73 -65,95 -32,22 -72,34 -120,34 -58,0 -104,-18 -138,-53 -34,-35 -51,-83 -51,-144 0,-62 17,-111 51,-147 34,-36 80,-54 137,-54 60,0 106,18 140,55 34,37 51,88 51,152 0,6 0,11 0,14 0,3 0,6 -1,8l-253 0c0,26 6,46 17,60 11,14 28,21 50,21 16,0 30,-3 40,-10 11,-7 18,-17 22,-31z"/>
  <path id="5" class="fil39" d="M15321 4467c-9,6 -26,12 -50,17 -12,2 -20,4 -26,6 -15,4 -25,9 -31,16 -6,6 -9,15 -9,26 0,13 4,24 12,32 8,8 19,12 33,12 21,0 38,-6 51,-18 13,-12 20,-28 20,-47l0 -43zm135 176l-125 0c-1,-6 -3,-12 -4,-19 -1,-6 -2,-13 -3,-20 -17,17 -36,30 -55,38 -19,8 -41,12 -64,12 -36,0 -65,-10 -86,-30 -21,-20 -32,-47 -32,-80 0,-31 8,-56 25,-76 16,-19 41,-33 75,-41 18,-4 42,-9 70,-13 42,-7 64,-17 64,-30l0 -9c0,-11 -4,-19 -12,-25 -8,-6 -20,-8 -36,-8 -17,0 -31,4 -42,11 -10,7 -17,18 -19,32l-113 0c6,-42 24,-74 53,-95 29,-21 70,-31 124,-31 33,0 61,4 84,12 23,8 41,20 54,37 9,12 15,26 19,42 4,16 6,42 6,78l0 142c0,17 2,30 5,40 3,10 8,16 14,19l0 14z"/>
  <path id="6" class="fil39" d="M15866 4504c-6,48 -25,85 -57,111 -32,27 -74,40 -125,40 -56,0 -101,-18 -135,-54 -34,-36 -51,-83 -51,-142 0,-64 17,-113 52,-150 34,-37 81,-55 140,-55 51,0 93,13 124,39 31,26 49,62 53,107l-123 0c-3,-17 -10,-30 -19,-39 -9,-9 -21,-13 -36,-13 -21,0 -37,9 -48,27 -11,18 -17,45 -17,80 0,34 5,60 16,77 10,17 26,25 48,25 16,0 29,-4 38,-14 10,-9 16,-23 20,-41l121 0z"/>
  <path id="7" class="fil39" d="M15927 4234l0 -99 122 0 0 99 -122 0zm0 409l0 -375 122 0 0 375 -122 0z"/>
  <path id="8" class="fil39" d="M16239 4455c0,34 6,61 19,79 13,18 31,28 54,28 23,0 42,-9 54,-28 13,-18 19,-45 19,-79 0,-34 -6,-60 -19,-78 -13,-18 -31,-28 -54,-28 -23,0 -41,9 -54,27 -13,18 -19,44 -19,78zm-126 0c0,-63 18,-112 53,-147 35,-35 84,-53 146,-53 62,0 111,18 146,53 35,35 53,84 53,147 0,63 -18,112 -53,147 -35,36 -84,53 -146,53 -62,0 -111,-18 -146,-53 -35,-35 -52,-85 -52,-148zm304 -359l-112 127 -53 0 66 -127 99 0z"/>
  <path id="9" class="fil39" d="M16576 4643l0 -375 120 0 0 52c13,-20 29,-36 47,-46 19,-10 41,-15 66,-15 44,0 76,11 95,33 20,22 29,58 29,107l0 244 -123 0 0 -188c0,-44 -4,-72 -11,-84 -7,-12 -21,-18 -41,-18 -22,0 -37,7 -47,22 -10,14 -15,37 -15,69l0 201 -122 0z"/>
  <polygon class="fil39" points="13262,15208 13262,14701 13647,14701 13647,14805 13392,14805 13392,14894 13625,14894 13625,14996 13392,14996 13392,15105 13656,15105 13656,15208 "/>
  <polygon id="1" class="fil39" points="13818,15208 13679,14834 13809,14834 13881,15095 13953,14834 14083,14834 13944,15208 "/>
  <path id="2" class="fil39" d="M14334 15032c-9,6 -26,12 -50,17 -12,2 -20,4 -26,6 -15,4 -25,9 -31,16 -6,6 -9,15 -9,26 0,13 4,24 12,32 8,8 19,12 33,12 21,0 38,-6 51,-18 13,-12 20,-28 20,-47l0 -43zm135 176l-125 0c-1,-6 -3,-12 -4,-19 -1,-6 -2,-13 -3,-20 -17,17 -36,30 -55,38 -19,8 -41,12 -64,12 -36,0 -65,-10 -86,-30 -21,-20 -32,-47 -32,-80 0,-31 8,-56 25,-76 16,-19 41,-33 75,-41 18,-4 42,-9 70,-13 42,-7 64,-17 64,-30l0 -9c0,-11 -4,-19 -12,-25 -8,-6 -20,-8 -36,-8 -17,0 -31,4 -42,11 -10,7 -17,18 -19,32l-113 0c6,-42 24,-74 53,-95 29,-21 70,-31 124,-31 33,0 61,4 84,12 23,8 41,20 54,37 9,12 15,26 19,42 4,16 6,42 6,78l0 142c0,17 2,30 5,40 3,10 8,16 14,19l0 14z"/>
  <polygon id="3" class="fil39" points="14531,15208 14531,14701 14654,14701 14654,15208 "/>
  <path id="4" class="fil39" d="M15096 14834l0 375 -120 0 0 -52c-15,21 -31,36 -50,46 -18,10 -40,15 -64,15 -41,0 -73,-11 -93,-32 -21,-21 -31,-53 -31,-94l0 -258 123 0 0 210c0,31 4,52 12,64 8,12 21,17 40,17 21,0 37,-7 47,-21 10,-14 15,-37 15,-69l0 -200 123 0z"/>
  <path id="5" class="fil39" d="M15394 15032c-9,6 -26,12 -50,17 -12,2 -20,4 -26,6 -15,4 -25,9 -31,16 -6,6 -9,15 -9,26 0,13 4,24 12,32 8,8 19,12 33,12 21,0 38,-6 51,-18 13,-12 20,-28 20,-47l0 -43zm135 176l-125 0c-1,-6 -3,-12 -4,-19 -1,-6 -2,-13 -3,-20 -17,17 -36,30 -55,38 -19,8 -41,12 -64,12 -36,0 -65,-10 -86,-30 -21,-20 -32,-47 -32,-80 0,-31 8,-56 25,-76 16,-19 41,-33 75,-41 18,-4 42,-9 70,-13 42,-7 64,-17 64,-30l0 -9c0,-11 -4,-19 -12,-25 -8,-6 -20,-8 -36,-8 -17,0 -31,4 -42,11 -10,7 -17,18 -19,32l-113 0c6,-42 24,-74 53,-95 29,-21 70,-31 124,-31 33,0 61,4 84,12 23,8 41,20 54,37 9,12 15,26 19,42 4,16 6,42 6,78l0 142c0,17 2,30 5,40 3,10 8,16 14,19l0 14z"/>
  <path id="6" class="fil39" d="M15940 15069c-6,48 -25,85 -57,111 -32,27 -74,40 -125,40 -56,0 -101,-18 -135,-54 -34,-36 -51,-83 -51,-142 0,-64 17,-113 52,-150 34,-37 81,-55 140,-55 51,0 93,13 124,39 31,26 49,62 53,107l-123 0c-3,-17 -10,-30 -19,-39 -9,-9 -21,-13 -36,-13 -21,0 -37,9 -48,27 -11,18 -17,45 -17,80 0,34 5,60 16,77 10,17 26,25 48,25 16,0 29,-4 38,-14 10,-9 16,-23 20,-41l121 0z"/>
  <path id="7" class="fil39" d="M16000 14800l0 -99 122 0 0 99 -122 0zm0 409l0 -375 122 0 0 375 -122 0z"/>
  <path id="8" class="fil39" d="M16313 15021c0,34 6,61 19,79 13,18 31,28 54,28 23,0 42,-9 54,-28 13,-18 19,-45 19,-79 0,-34 -6,-60 -19,-78 -13,-18 -31,-28 -54,-28 -23,0 -41,9 -54,27 -13,18 -19,44 -19,78zm-126 0c0,-63 18,-112 53,-147 35,-35 84,-53 146,-53 62,0 111,18 146,53 35,35 53,84 53,147 0,63 -18,112 -53,147 -35,36 -84,53 -146,53 -62,0 -111,-18 -146,-53 -35,-35 -52,-85 -52,-148zm304 -359l-112 127 -53 0 66 -127 99 0z"/>
  <path id="9" class="fil39" d="M16649 15208l0 -375 120 0 0 52c13,-20 29,-36 47,-46 19,-10 41,-15 66,-15 44,0 76,11 95,33 20,22 29,58 29,107l0 244 -123 0 0 -188c0,-44 -4,-72 -11,-84 -7,-12 -21,-18 -41,-18 -22,0 -37,7 -47,22 -10,14 -15,37 -15,69l0 201 -122 0z"/>
  <path class="fil39" d="M19359 10333l71 0c40,0 70,-12 88,-36 19,-24 28,-61 28,-111 0,-51 -9,-88 -28,-111 -19,-24 -48,-35 -88,-35l-71 0 0 294zm-131 107l0 -507 217 0c75,0 133,22 173,66 40,44 60,107 60,189 0,85 -21,148 -62,190 -41,42 -104,63 -187,63l-200 0z"/>
  <path id="1" class="fil39" d="M19750 10031l0 -99 122 0 0 99 -122 0zm0 409l0 -375 122 0 0 375 -122 0z"/>
  <path id="2" class="fil39" d="M19941 10325l123 0c1,16 8,29 18,37 11,8 27,12 47,12 17,0 31,-3 41,-10 10,-7 15,-16 15,-27 0,-14 -19,-27 -58,-36 -21,-5 -37,-10 -50,-14 -47,-15 -79,-32 -96,-48 -17,-17 -26,-39 -26,-66 0,-38 14,-68 43,-89 29,-22 69,-33 120,-33 54,0 96,9 125,28 29,19 46,46 50,83l-118 0c-2,-13 -8,-22 -17,-28 -9,-6 -21,-9 -37,-9 -15,0 -26,3 -34,8 -8,6 -12,14 -12,24 0,15 20,28 60,38 10,3 17,5 22,6 37,11 63,19 78,24 14,5 25,11 31,15 14,10 24,21 30,34 6,13 10,28 10,46 0,41 -16,72 -48,95 -32,23 -76,34 -133,34 -56,0 -99,-11 -132,-33 -32,-22 -50,-53 -53,-93z"/>
  <path id="3" class="fil39" d="M20473 10212l140 0c0,-24 -7,-43 -19,-56 -12,-14 -29,-20 -50,-20 -20,0 -36,7 -48,20 -12,13 -19,32 -22,57zm133 109l118 0c-11,41 -33,73 -65,95 -32,22 -72,34 -120,34 -58,0 -104,-18 -138,-53 -34,-35 -51,-83 -51,-144 0,-62 17,-111 51,-147 34,-36 80,-54 137,-54 60,0 106,18 140,55 34,37 51,88 51,152 0,6 0,11 0,14 0,3 0,6 -1,8l-253 0c0,26 6,46 17,60 11,14 28,21 50,21 16,0 30,-3 40,-10 11,-7 18,-17 22,-31z"/>
  <path id="4" class="fil39" d="M20794 10439l0 -375 120 0 0 52c13,-20 29,-36 47,-46 19,-10 41,-15 66,-15 44,0 76,11 95,33 20,22 29,58 29,107l0 244 -123 0 0 -188c0,-44 -4,-72 -11,-84 -7,-12 -21,-18 -41,-18 -22,0 -37,7 -47,22 -10,14 -15,37 -15,69l0 201 -122 0zm292 -532c-7,30 -16,52 -28,66 -12,14 -28,21 -47,21 -5,0 -10,0 -14,-1 -4,-1 -8,-2 -13,-3l-31 -9c-5,-1 -10,-2 -14,-3 -4,-1 -7,-1 -10,-1 -8,0 -14,2 -19,6 -5,4 -9,11 -12,20l-41 0c6,-29 16,-50 28,-64 12,-14 27,-21 46,-21 5,0 10,0 15,1 5,1 11,2 17,4l32 9c3,1 6,2 9,2 3,0 7,1 11,1 8,0 14,-2 19,-8 5,-5 9,-12 11,-22l41 0z"/>
  <path id="5" class="fil39" d="M21339 10251c0,34 6,61 19,79 13,18 31,28 54,28 23,0 42,-9 54,-28 13,-18 19,-45 19,-79 0,-34 -6,-60 -19,-78 -13,-18 -31,-28 -54,-28 -23,0 -41,9 -54,27 -13,18 -19,44 -19,78zm-126 0c0,-63 18,-112 53,-147 35,-35 84,-53 146,-53 62,0 111,18 146,53 35,35 53,84 53,147 0,63 -18,112 -53,147 -35,36 -84,53 -146,53 -62,0 -111,-18 -146,-53 -35,-35 -52,-85 -52,-148z"/>
  <path class="fil39" d="M8182 10320l71 0c40,0 70,-12 88,-36 19,-24 28,-61 28,-111 0,-51 -9,-88 -28,-111 -19,-24 -48,-35 -88,-35l-71 0 0 294zm-131 107l0 -507 217 0c75,0 133,22 173,66 40,44 60,107 60,189 0,85 -21,148 -62,190 -41,42 -104,63 -187,63l-200 0z"/>
  <path id="1" class="fil39" d="M8674 10200l140 0c0,-24 -7,-43 -19,-56 -12,-14 -29,-20 -50,-20 -20,0 -36,7 -48,20 -12,13 -19,32 -22,57zm133 109l118 0c-11,41 -33,73 -65,95 -32,22 -72,34 -120,34 -58,0 -104,-18 -138,-53 -34,-35 -51,-83 -51,-144 0,-62 17,-111 51,-147 34,-36 80,-54 137,-54 60,0 106,18 140,55 34,37 51,88 51,152 0,6 0,11 0,14 0,3 0,6 -1,8l-253 0c0,26 6,46 17,60 11,14 28,21 50,21 16,0 30,-3 40,-10 11,-7 18,-17 22,-31z"/>
  <path id="2" class="fil39" d="M8977 10312l123 0c1,16 8,29 18,37 11,8 27,12 47,12 17,0 31,-3 41,-10 10,-7 15,-16 15,-27 0,-14 -19,-27 -58,-36 -21,-5 -37,-10 -50,-14 -47,-15 -79,-32 -96,-48 -17,-17 -26,-39 -26,-66 0,-38 14,-68 43,-89 29,-22 69,-33 120,-33 54,0 96,9 125,28 29,19 46,46 50,83l-118 0c-2,-13 -8,-22 -17,-28 -9,-6 -21,-9 -37,-9 -15,0 -26,3 -34,8 -8,6 -12,14 -12,24 0,15 20,28 60,38 10,3 17,5 22,6 37,11 63,19 78,24 14,5 25,11 31,15 14,10 24,21 30,34 6,13 10,28 10,46 0,41 -16,72 -48,95 -32,23 -76,34 -133,34 -56,0 -99,-11 -132,-33 -32,-22 -50,-53 -53,-93z"/>
  <path id="3" class="fil39" d="M9622 10251c-9,6 -26,12 -50,17 -12,2 -20,4 -26,6 -15,4 -25,9 -31,16 -6,6 -9,15 -9,26 0,13 4,24 12,32 8,8 19,12 33,12 21,0 38,-6 51,-18 13,-12 20,-28 20,-47l0 -43zm135 176l-125 0c-1,-6 -3,-12 -4,-19 -1,-6 -2,-13 -3,-20 -17,17 -36,30 -55,38 -19,8 -41,12 -64,12 -36,0 -65,-10 -86,-30 -21,-20 -32,-47 -32,-80 0,-31 8,-56 25,-76 16,-19 41,-33 75,-41 18,-4 42,-9 70,-13 42,-7 64,-17 64,-30l0 -9c0,-11 -4,-19 -12,-25 -8,-6 -20,-8 -36,-8 -17,0 -31,4 -42,11 -10,7 -17,18 -19,32l-113 0c6,-42 24,-74 53,-95 29,-21 70,-31 124,-31 33,0 61,4 84,12 23,8 41,20 54,37 9,12 15,26 19,42 4,16 6,42 6,78l0 142c0,17 2,30 5,40 3,10 8,16 14,19l0 14z"/>
  <path id="4" class="fil39" d="M9820 10427l0 -375 118 0 0 66c13,-26 29,-45 49,-56 20,-12 44,-18 74,-18l0 121c-5,-1 -10,-1 -16,-2 -5,0 -10,0 -15,0 -19,0 -34,3 -47,8 -12,6 -22,14 -30,26 -5,8 -8,19 -10,34 -2,15 -3,38 -3,71l0 126 -122 0z"/>
  <path id="5" class="fil39" d="M10117 10427l0 -375 118 0 0 66c13,-26 29,-45 49,-56 20,-12 44,-18 74,-18l0 121c-5,-1 -10,-1 -16,-2 -5,0 -10,0 -15,0 -19,0 -34,3 -47,8 -12,6 -22,14 -30,26 -5,8 -8,19 -10,34 -2,15 -3,38 -3,71l0 126 -122 0z"/>
  <path id="6" class="fil39" d="M10520 10239c0,34 6,61 19,79 13,18 31,28 54,28 23,0 42,-9 54,-28 13,-18 19,-45 19,-79 0,-34 -6,-60 -19,-78 -13,-18 -31,-28 -54,-28 -23,0 -41,9 -54,27 -13,18 -19,44 -19,78zm-126 0c0,-63 18,-112 53,-147 35,-35 84,-53 146,-53 62,0 111,18 146,53 35,35 53,84 53,147 0,63 -18,112 -53,147 -35,36 -84,53 -146,53 -62,0 -111,-18 -146,-53 -35,-35 -52,-85 -52,-148z"/>
  <polygon id="7" class="fil39" points="10855,10427 10855,9919 10978,9919 10978,10427 "/>
  <polygon id="8" class="fil39" points="11064,10427 11064,9919 11186,9919 11186,10427 "/>
  <path id="9" class="fil39" d="M11377 10239c0,34 6,61 19,79 13,18 31,28 54,28 23,0 42,-9 54,-28 13,-18 19,-45 19,-79 0,-34 -6,-60 -19,-78 -13,-18 -31,-28 -54,-28 -23,0 -41,9 -54,27 -13,18 -19,44 -19,78zm-126 0c0,-63 18,-112 53,-147 35,-35 84,-53 146,-53 62,0 111,18 146,53 35,35 53,84 53,147 0,63 -18,112 -53,147 -35,36 -84,53 -146,53 -62,0 -111,-18 -146,-53 -35,-35 -52,-85 -52,-148z"/>
 </g>
</svg>
