<?xml version="1.0" encoding="UTF-8"?>
<!DOCTYPE svg PUBLIC "-//W3C//DTD SVG 1.1//EN" "http://www.w3.org/Graphics/SVG/1.1/DTD/svg11.dtd">
<!-- Creator: CorelDRAW 2017 -->
<svg xmlns="http://www.w3.org/2000/svg" xml:space="preserve" width="279.4mm" height="215.9mm" version="1.1" style="shape-rendering:geometricPrecision; text-rendering:geometricPrecision; image-rendering:optimizeQuality; fill-rule:evenodd; clip-rule:evenodd"
viewBox="0 0 27940 21590"
 xmlns:xlink="http://www.w3.org/1999/xlink">
 <defs>
  <style type="text/css">
   <![CDATA[
    .fil0 {fill:none}
    .fil39 {fill:#FEFEFE}
    .fil44 {fill:#00AFEF}
    .fil10 {fill:black}
    .fil21 {fill:#1A2B63}
    .fil40 {fill:#1D3369}
    .fil26 {fill:#28A5A5}
    .fil20 {fill:#293D7C}
    .fil19 {fill:#2E4C89}
    .fil30 {fill:#37C47A}
    .fil18 {fill:#445EA0}
    .fil15 {fill:#48C397}
    .fil25 {fill:#5DC1D8}
    .fil29 {fill:#69CDFF}
    .fil13 {fill:#92E0C0}
    .fil38 {fill:#AEC1ED}
    .fil35 {fill:#B27946}
    .fil6 {fill:#B4DD7F}
    .fil37 {fill:#C3DDF4}
    .fil3 {fill:#CCD1D9}
    .fil34 {fill:#CF9E76}
    .fil31 {fill:#D3A06C}
    .fil23 {fill:#D9EAFC}
    .fil28 {fill:#DB722C}
    .fil4 {fill:#E6E9ED}
    .fil11 {fill:#ECECEC}
    .fil33 {fill:#EF7385}
    .fil5 {fill:#F0D0B4}
    .fil17 {fill:#F24976}
    .fil16 {fill:#F9E0A6}
    .fil9 {fill:#FCD770}
    .fil12 {fill:#FEA82F}
    .fil14 {fill:#FF8031}
    .fil7 {fill:#FF826E}
    .fil24 {fill:#FF9518}
    .fil27 {fill:#FFAF10}
    .fil32 {fill:#FFC729}
    .fil8 {fill:#FFEAA7}
    .fil22 {fill:white}
    .fil2 {fill:#373435;fill-rule:nonzero}
    .fil36 {fill:url(#id2)}
    .fil43 {fill:url(#id3)}
    .fil41 {fill:url(#id4)}
    .fil1 {fill:url(#id5)}
    .fil42 {fill:url(#id6)}
   ]]>
  </style>
    <mask id="id0">
  <linearGradient id="id1" gradientUnits="userSpaceOnUse" x1="17116" y1="12276" x2="16712" y2="12244">
   <stop offset="0" style="stop-opacity:1; stop-color:white"/>
   <stop offset="1" style="stop-opacity:0; stop-color:white"/>
  </linearGradient>
     <rect style="fill:url(#id1)" x="16711" y="11601" width="3351" height="1317"/>
    </mask>
  <linearGradient id="id2" gradientUnits="userSpaceOnUse" x1="3875" y1="6264" x2="4804" y2="7193">
   <stop offset="0" style="stop-opacity:1; stop-color:#0C92C5"/>
   <stop offset="0.188235" style="stop-opacity:1; stop-color:#31AEDA"/>
   <stop offset="1" style="stop-opacity:1; stop-color:#57CAF0"/>
  </linearGradient>
  <linearGradient id="id3" gradientUnits="userSpaceOnUse" xlink:href="#id2" x1="22639" y1="13201" x2="23568" y2="14130">
  </linearGradient>
  <linearGradient id="id4" gradientUnits="userSpaceOnUse" x1="19282" y1="9161" x2="13825" y2="11012">
   <stop offset="0" style="stop-opacity:1; stop-color:#168DB9"/>
   <stop offset="1" style="stop-opacity:1; stop-color:#0CE2ED"/>
  </linearGradient>
  <linearGradient id="id5" gradientUnits="userSpaceOnUse" x1="16699" y1="5017" x2="18788" y2="7555">
   <stop offset="0" style="stop-opacity:1; stop-color:#168DB9"/>
   <stop offset="1" style="stop-opacity:1; stop-color:#3DE0F2"/>
  </linearGradient>
  <linearGradient id="id6" gradientUnits="userSpaceOnUse" xlink:href="#id2" x1="7138" y1="10781" x2="8067" y2="9852">
  </linearGradient>
 </defs>
 <g id="Capa_x0020_1">
  <metadata id="CorelCorpID_0Corel-Layer"/>
  <rect class="fil0" width="27940" height="21590"/>
  <g id="_1754554724064">
   <path class="fil1" d="M19320 6699c43,23 133,61 169,94l-157 100c-51,32 -455,287 -481,315l-16 -14c16,-33 -15,-336 -16,-380 0,-21 2,-25 2,-45 0,-62 -30,-302 -13,-336 43,36 106,49 149,85 13,-25 23,-116 24,-145 4,-109 6,-176 -13,-291 -74,-453 -422,-874 -871,-993 -208,-55 -429,-76 -640,-20 -37,10 -64,17 -102,29 -416,130 -757,506 -836,938 -7,40 -11,70 -17,110 -30,217 16,433 96,633 130,326 421,570 749,686l-60 390c-5,33 -65,-19 -97,-30 -186,-64 -362,-165 -539,-321 -962,-851 -607,-2487 709,-2812 839,-207 1729,296 1960,1171 31,117 59,296 56,413 -2,70 -4,141 -14,209l-41 216z"/>
   <path class="fil2" d="M15041 9432l262 0 0 60 -192 0 0 102 165 0 0 60 -165 0 0 99 194 0 0 60 -264 0 0 -381zm622 381l-69 0 0 -154c0,-15 -2,-28 -5,-39 -3,-11 -8,-19 -14,-26 -6,-7 -14,-12 -23,-15 -9,-3 -19,-5 -30,-5 -12,0 -23,2 -33,7 -10,4 -19,11 -26,18 -7,8 -13,17 -17,28 -4,11 -6,23 -6,36l0 149 -68 0 0 -289 56 0 5 29c6,-5 13,-10 20,-15 7,-5 15,-9 24,-12 9,-3 17,-6 27,-8 9,-2 19,-3 28,-3 22,0 42,3 58,9 16,6 30,15 41,28 11,12 19,27 24,45 5,18 8,38 8,61l0 155zm114 -371l50 0 0 82 92 0 0 59 -92 0 0 118c0,12 1,21 4,29 3,8 6,14 11,18 5,4 10,7 16,9 6,2 13,3 20,3l49 0 -1 56 -55 0c-16,0 -30,-2 -44,-5 -14,-3 -26,-9 -36,-18 -10,-9 -18,-20 -24,-35 -6,-15 -9,-34 -9,-57l0 -119 -48 0 0 -53 47 -13 20 -75zm409 142l-34 0c-13,0 -25,2 -36,6 -11,4 -20,10 -27,17 -8,8 -13,17 -17,28 -4,11 -6,24 -6,39l0 138 -68 0 0 -289 55 0 6 35c10,-10 22,-18 37,-25 15,-7 32,-10 53,-10l38 0 0 60zm43 85c0,-21 4,-41 12,-60 8,-19 19,-35 33,-49 14,-14 31,-25 50,-33 19,-8 41,-12 64,-12 23,0 45,4 64,12 20,8 36,19 51,33 14,14 25,30 33,49 8,19 12,38 12,60 0,5 0,8 -1,11 0,3 -1,6 -1,8l-250 0c2,12 6,22 12,32 6,10 13,18 21,24 8,7 18,12 28,15 10,4 20,5 31,5 17,0 32,-4 45,-11 13,-7 23,-17 29,-29l74 0c-5,13 -11,25 -20,37 -9,12 -20,22 -32,31 -13,9 -27,16 -43,21 -16,5 -34,8 -53,8 -23,0 -44,-4 -64,-12 -19,-8 -36,-19 -50,-33 -14,-14 -25,-30 -33,-49 -8,-18 -12,-38 -12,-59zm159 -98c-12,0 -22,2 -32,5 -10,3 -19,8 -26,14 -8,6 -14,14 -20,22 -5,9 -9,18 -12,28l177 0c-3,-10 -7,-19 -12,-28 -5,-9 -12,-16 -19,-22 -7,-6 -16,-11 -25,-14 -9,-3 -20,-5 -31,-5zm214 98c0,-21 4,-41 11,-60 7,-19 18,-35 31,-49 14,-14 30,-25 49,-33 19,-8 40,-12 63,-12 11,0 22,1 32,3 10,2 19,5 28,9 9,4 17,8 24,14 7,5 14,10 19,16l5 -33 56 0 0 261c0,20 -3,39 -9,57 -6,18 -16,34 -28,48 -13,14 -29,25 -48,33 -19,8 -42,12 -68,12 -25,0 -47,-3 -65,-10 -18,-7 -33,-15 -45,-26 -12,-11 -21,-23 -27,-36 -6,-13 -10,-26 -11,-39l65 0c2,7 5,14 9,20 4,7 10,12 17,17 7,5 15,9 24,12 9,3 20,4 33,4 18,0 33,-3 44,-9 11,-6 20,-14 26,-23 6,-9 11,-19 13,-29 2,-10 3,-19 3,-28l0 -13c-6,6 -13,11 -20,16 -7,5 -15,9 -24,13 -9,4 -18,7 -28,9 -10,2 -20,3 -31,3 -22,0 -41,-4 -59,-11 -18,-8 -34,-18 -47,-31 -13,-13 -23,-29 -31,-47 -7,-18 -11,-38 -11,-59zm68 0c0,14 2,27 7,38 5,12 11,22 20,30 8,8 18,15 29,19 11,5 23,7 36,7 13,0 25,-2 36,-7 11,-5 21,-11 29,-19 8,-8 15,-18 20,-30 5,-11 7,-24 7,-38 0,-14 -2,-26 -7,-38 -5,-11 -11,-21 -20,-30 -8,-8 -18,-15 -29,-19 -11,-5 -23,-7 -36,-7 -13,0 -25,2 -36,7 -11,5 -21,11 -29,19 -8,8 -15,18 -20,30 -5,11 -7,24 -7,38zm324 0c0,-21 4,-41 11,-60 7,-19 18,-35 31,-49 14,-14 30,-25 49,-33 19,-8 40,-12 63,-12 11,0 21,1 31,3 10,2 19,5 28,9 9,4 16,8 24,13 7,5 14,10 19,16l4 -32 58 0 0 289 -58 0 -4 -32c-6,6 -12,11 -20,16 -7,5 -15,9 -24,13 -9,4 -18,7 -27,9 -10,2 -20,3 -31,3 -23,0 -44,-4 -63,-12 -19,-8 -35,-19 -49,-33 -13,-14 -24,-30 -31,-49 -7,-19 -11,-38 -11,-60zm68 0c0,14 2,27 7,38 5,12 11,22 20,30 8,8 18,15 29,19 11,5 23,7 36,7 13,0 25,-2 36,-7 11,-5 21,-11 29,-19 8,-8 15,-18 20,-30 5,-11 7,-24 7,-38 0,-14 -2,-26 -7,-38 -5,-11 -11,-21 -20,-30 -8,-8 -18,-15 -29,-19 -11,-5 -23,-7 -36,-7 -13,0 -25,2 -36,7 -11,5 -21,11 -29,19 -8,8 -15,18 -20,30 -5,11 -7,24 -7,38zm662 0c0,21 -4,41 -11,60 -7,19 -18,35 -31,49 -14,14 -30,25 -49,33 -19,8 -40,12 -63,12 -11,0 -21,-1 -31,-3 -10,-2 -19,-5 -28,-9 -9,-4 -16,-8 -24,-13 -7,-5 -14,-10 -19,-16l-4 32 -59 0 0 -395 68 0 0 135c11,-11 25,-19 41,-26 16,-7 35,-11 56,-11 23,0 44,4 63,12 19,8 35,19 48,33 13,14 24,30 31,49 7,19 11,38 11,60zm-68 0c0,-14 -2,-26 -7,-38 -5,-11 -11,-21 -20,-30 -8,-8 -18,-15 -29,-19 -11,-5 -23,-7 -36,-7 -13,0 -25,2 -36,7 -11,5 -21,11 -29,19 -8,8 -15,18 -20,30 -5,11 -7,24 -7,38 0,14 2,27 7,38 5,11 11,21 20,30 8,8 18,15 29,19 11,5 23,7 36,7 13,0 25,-2 36,-7 11,-5 21,-11 29,-19 8,-8 15,-18 20,-30 5,-12 7,-24 7,-38zm141 -251l68 0 0 395 -68 0 0 -395zm142 251c0,-21 4,-41 12,-60 8,-19 19,-35 33,-49 14,-14 31,-25 50,-33 19,-8 41,-12 64,-12 23,0 45,4 64,12 20,8 36,19 51,33 14,14 25,30 33,49 8,19 12,38 12,60 0,5 0,8 -1,11 0,3 -1,6 -1,8l-250 0c2,12 6,22 12,32 6,10 13,18 21,24 8,7 18,12 28,15 10,4 20,5 31,5 17,0 32,-4 45,-11 13,-7 23,-17 29,-29l74 0c-5,13 -11,25 -20,37 -9,12 -20,22 -32,31 -13,9 -27,16 -43,21 -16,5 -34,8 -53,8 -23,0 -44,-4 -64,-12 -19,-8 -36,-19 -50,-33 -14,-14 -25,-30 -33,-49 -8,-18 -12,-38 -12,-59zm159 -98c-12,0 -22,2 -32,5 -10,3 -19,8 -26,14 -8,6 -14,14 -20,22 -5,9 -9,18 -12,28l177 0c-3,-10 -7,-19 -12,-28 -5,-9 -12,-16 -19,-22 -7,-6 -16,-11 -25,-14 -9,-3 -20,-5 -31,-5zm272 156c0,5 2,11 5,15 3,5 7,9 12,13 5,4 11,6 18,8 7,2 14,3 22,3 22,0 38,-3 48,-10 10,-7 15,-15 15,-26 0,-6 -2,-11 -6,-15 -4,-4 -9,-8 -16,-10 -7,-3 -16,-5 -26,-7 -10,-2 -22,-5 -35,-7 -7,-1 -13,-2 -21,-4 -7,-2 -14,-4 -21,-6 -7,-3 -14,-6 -20,-10 -6,-4 -12,-9 -17,-14 -5,-6 -9,-13 -12,-20 -3,-8 -5,-17 -5,-28 0,-14 2,-26 7,-37 5,-11 12,-21 23,-29 10,-8 23,-14 39,-19 16,-5 35,-7 57,-7 17,0 33,2 47,7 14,5 26,11 36,19 10,8 17,18 22,29 5,11 8,23 8,37l-68 0c-1,-10 -5,-18 -14,-25 -9,-7 -20,-10 -35,-10 -10,0 -18,1 -24,3 -7,2 -12,5 -17,8 -4,3 -7,7 -10,11 -2,4 -3,9 -3,13 0,5 1,10 4,13 3,4 7,7 13,9 6,2 13,5 21,6 9,2 19,3 30,4 14,2 28,5 41,8 14,3 26,8 36,14 11,6 19,14 26,24 7,10 10,23 10,39 0,16 -3,30 -10,43 -7,12 -16,22 -28,30 -12,8 -26,14 -43,18 -17,4 -36,6 -56,6 -21,0 -39,-3 -54,-9 -15,-6 -28,-13 -38,-22 -10,-9 -18,-19 -23,-31 -5,-11 -8,-23 -8,-34l67 0zm-3279 664c0,15 2,28 7,39 5,12 12,21 20,29 8,8 18,14 29,19 11,4 22,6 34,6 18,0 34,-4 48,-13 14,-9 25,-21 33,-36l70 0c-4,16 -11,30 -20,43 -9,13 -20,25 -33,34 -13,10 -28,17 -44,23 -16,5 -34,8 -53,8 -23,0 -44,-4 -64,-12 -19,-8 -36,-19 -50,-33 -14,-14 -25,-30 -33,-48 -8,-19 -12,-38 -12,-59 0,-21 4,-41 12,-60 8,-19 19,-35 33,-49 14,-14 31,-25 50,-33 19,-8 41,-12 64,-12 19,0 37,3 53,8 16,5 31,13 44,23 13,10 24,21 33,34 9,13 16,28 20,44l-70 0c-7,-15 -18,-27 -33,-36 -14,-9 -30,-13 -48,-13 -12,0 -24,2 -35,6 -11,4 -21,11 -29,19 -8,8 -15,18 -20,29 -5,12 -7,25 -7,39zm296 0c0,-21 4,-41 11,-60 7,-19 18,-35 31,-49 14,-14 30,-25 49,-33 19,-8 40,-12 63,-12 11,0 21,1 31,3 10,2 19,5 28,9 9,4 16,8 24,13 7,5 14,10 19,16l4 -32 58 0 0 289 -58 0 -4 -32c-6,6 -12,11 -20,16 -7,5 -15,9 -24,13 -9,4 -18,7 -27,9 -10,2 -20,3 -31,3 -23,0 -44,-4 -63,-12 -19,-8 -35,-19 -49,-33 -13,-14 -24,-30 -31,-49 -7,-19 -11,-38 -11,-60zm68 0c0,14 2,27 7,38 5,12 11,22 20,30 8,8 18,15 29,19 11,5 23,7 36,7 13,0 25,-2 36,-7 11,-5 21,-11 29,-19 8,-8 15,-18 20,-30 5,-11 7,-24 7,-38 0,-14 -2,-26 -7,-38 -5,-11 -11,-21 -20,-30 -8,-8 -18,-15 -29,-19 -11,-5 -23,-7 -36,-7 -13,0 -25,2 -36,7 -11,5 -21,11 -29,19 -8,8 -15,18 -20,30 -5,11 -7,24 -7,38zm326 0c0,-21 4,-41 11,-60 7,-19 18,-35 31,-49 13,-14 29,-25 48,-33 19,-8 40,-12 63,-12 21,0 39,3 55,10 16,7 30,16 42,27l0 -135 68 0 0 395 -58 0 -4 -33c-6,6 -12,11 -20,17 -7,5 -15,10 -24,14 -9,4 -18,7 -27,9 -10,2 -20,3 -31,3 -23,0 -44,-4 -63,-12 -19,-8 -35,-19 -49,-33 -13,-14 -24,-30 -31,-49 -7,-19 -11,-38 -11,-60zm68 0c0,14 2,27 7,38 5,12 11,22 20,30 8,8 18,15 29,19 11,5 23,7 36,7 13,0 25,-2 36,-7 11,-5 21,-11 29,-19 8,-8 15,-18 20,-30 5,-11 7,-24 7,-38 0,-14 -2,-26 -7,-38 -5,-11 -11,-21 -20,-30 -8,-8 -18,-15 -29,-19 -11,-5 -23,-7 -36,-7 -13,0 -25,2 -36,7 -11,5 -21,11 -29,19 -8,8 -15,18 -20,30 -5,11 -7,24 -7,38zm326 0c0,-21 4,-41 11,-60 7,-19 18,-35 31,-49 14,-14 30,-25 49,-33 19,-8 40,-12 63,-12 11,0 21,1 31,3 10,2 19,5 28,9 9,4 16,8 24,13 7,5 14,10 19,16l4 -32 58 0 0 289 -58 0 -4 -32c-6,6 -12,11 -20,16 -7,5 -15,9 -24,13 -9,4 -18,7 -27,9 -10,2 -20,3 -31,3 -23,0 -44,-4 -63,-12 -19,-8 -35,-19 -49,-33 -13,-14 -24,-30 -31,-49 -7,-19 -11,-38 -11,-60zm68 0c0,14 2,27 7,38 5,12 11,22 20,30 8,8 18,15 29,19 11,5 23,7 36,7 13,0 25,-2 36,-7 11,-5 21,-11 29,-19 8,-8 15,-18 20,-30 5,-11 7,-24 7,-38 0,-14 -2,-26 -7,-38 -5,-11 -11,-21 -20,-30 -8,-8 -18,-15 -29,-19 -11,-5 -23,-7 -36,-7 -13,0 -25,2 -36,7 -11,5 -21,11 -29,19 -8,8 -15,18 -20,30 -5,11 -7,24 -7,38zm936 0c0,-21 4,-41 12,-60 8,-19 19,-35 33,-49 14,-14 31,-25 50,-33 19,-8 41,-12 64,-12 23,0 45,4 64,12 20,8 36,19 50,33 14,14 25,30 33,49 8,19 12,38 12,60 0,21 -4,41 -12,60 -8,18 -19,35 -33,49 -14,14 -31,25 -51,33 -20,8 -41,12 -64,12 -23,0 -44,-4 -63,-12 -19,-8 -36,-19 -50,-33 -14,-14 -25,-30 -33,-49 -8,-19 -12,-38 -12,-60zm68 0c0,14 2,27 7,38 5,11 11,21 19,30 8,8 18,15 29,20 11,5 23,7 36,7 13,0 25,-2 36,-7 11,-5 21,-11 29,-19 8,-8 15,-18 19,-30 5,-12 7,-24 7,-38 0,-14 -2,-26 -7,-38 -5,-11 -11,-21 -19,-30 -8,-8 -18,-15 -29,-19 -11,-5 -23,-7 -36,-7 -13,0 -25,2 -36,7 -11,5 -21,11 -29,19 -8,8 -15,18 -19,30 -5,11 -7,24 -7,38zm-287 91l0 53 -275 0 154 -184c19,-23 33,-43 42,-61 9,-17 13,-33 13,-47 0,-20 -6,-36 -18,-48 -12,-12 -29,-18 -49,-18 -19,0 -34,6 -46,18 -12,12 -19,27 -20,46l-64 0c0,-37 12,-66 37,-88 25,-22 58,-33 100,-33 40,0 71,10 94,31 23,20 34,48 34,83 0,25 -7,50 -20,76 -13,25 -41,63 -84,111l-52 61 156 0zm723 -56l64 0 0 3c0,19 6,34 19,45 13,11 30,17 53,17 25,0 44,-6 58,-19 14,-12 20,-30 20,-54 0,-25 -7,-43 -21,-55 -14,-12 -35,-19 -63,-19 -1,0 -3,0 -6,0 -3,0 -5,0 -7,0l0 -54c1,0 3,0 6,0 3,0 5,0 6,0 24,0 43,-5 55,-15 12,-10 19,-25 19,-45 0,-18 -6,-31 -17,-42 -11,-10 -26,-16 -45,-16 -20,0 -36,5 -47,14 -11,10 -17,23 -18,41l-60 0c2,-35 14,-62 36,-81 22,-19 52,-28 91,-28 38,0 67,10 89,29 22,20 33,46 33,80 0,25 -6,46 -19,62 -12,16 -30,26 -52,29 26,5 46,16 59,34 14,18 20,42 20,72 0,36 -13,65 -38,87 -25,21 -60,32 -104,32 -39,0 -71,-11 -95,-33 -24,-22 -37,-51 -38,-88zm-2604 640c0,5 2,11 5,15 3,5 7,9 12,13 5,4 11,6 18,8 7,2 14,3 22,3 22,0 38,-3 48,-10 10,-7 15,-15 15,-26 0,-6 -2,-11 -6,-15 -4,-4 -9,-8 -16,-10 -7,-3 -16,-5 -26,-7 -10,-2 -22,-5 -35,-7 -7,-1 -13,-2 -21,-4 -7,-2 -14,-4 -21,-6 -7,-3 -14,-6 -20,-10 -6,-4 -12,-9 -17,-14 -5,-6 -9,-13 -12,-20 -3,-8 -5,-17 -5,-28 0,-14 2,-26 7,-37 5,-11 12,-21 23,-29 10,-8 23,-14 39,-19 16,-5 35,-7 57,-7 17,0 33,2 47,7 14,5 26,11 36,19 10,8 17,18 22,29 5,11 8,23 8,37l-68 0c-1,-10 -5,-18 -14,-25 -9,-7 -20,-10 -35,-10 -10,0 -18,1 -24,3 -7,2 -12,5 -17,8 -4,3 -7,7 -10,11 -2,4 -3,9 -3,13 0,5 1,10 4,13 3,4 7,7 13,9 6,2 13,5 21,6 9,2 19,3 30,4 14,2 28,5 41,8 14,3 26,8 36,14 11,6 19,14 26,24 7,10 10,23 10,39 0,16 -3,30 -10,43 -7,12 -16,22 -28,30 -12,8 -26,14 -43,18 -17,4 -36,6 -56,6 -21,0 -39,-3 -54,-9 -15,-6 -28,-13 -38,-22 -10,-9 -18,-19 -23,-31 -5,-11 -8,-23 -8,-34l67 0z"/>
   <path class="fil2" d="M15321 11008c0,-21 4,-41 12,-60 8,-19 19,-35 33,-49 14,-14 31,-25 50,-33 19,-8 41,-12 64,-12 23,0 45,4 64,12 20,8 36,19 51,33 14,14 25,30 33,49 8,19 12,38 12,60 0,5 0,8 -1,11 0,3 -1,6 -1,8l-250 0c2,12 6,22 12,32 6,10 13,18 21,24 8,7 18,12 28,15 10,4 20,5 31,5 17,0 32,-4 45,-11 13,-7 23,-17 29,-29l74 0c-5,13 -11,25 -20,37 -9,12 -20,22 -32,31 -13,9 -27,16 -43,21 -16,5 -34,8 -53,8 -23,0 -44,-4 -64,-12 -19,-8 -36,-19 -50,-33 -14,-14 -25,-30 -33,-49 -8,-18 -12,-38 -12,-59zm159 -98c-12,0 -22,2 -32,5 -10,3 -19,8 -26,14 -8,6 -14,14 -20,22 -5,9 -9,18 -12,28l177 0c-3,-10 -7,-19 -12,-28 -5,-9 -12,-16 -19,-22 -7,-6 -16,-11 -25,-14 -9,-3 -20,-5 -31,-5zm705 243l-68 0 0 -156c0,-29 -5,-50 -15,-63 -10,-13 -25,-20 -44,-20 -11,0 -21,2 -30,5 -9,4 -17,9 -23,16 -7,7 -12,15 -16,25 -4,10 -6,21 -6,33l0 159 -69 0 0 -156c0,-29 -5,-50 -15,-63 -10,-13 -25,-20 -44,-20 -11,0 -21,2 -30,6 -9,4 -17,9 -24,16 -7,7 -12,16 -15,26 -4,10 -5,22 -5,35l0 155 -68 0 0 -289 56 0 5 27c5,-5 11,-9 18,-14 7,-4 14,-8 22,-11 8,-3 16,-6 25,-8 9,-2 18,-3 28,-3 20,0 38,4 54,11 16,8 29,18 39,33 6,-6 12,-12 20,-17 7,-5 16,-10 25,-14 9,-4 19,-7 29,-9 11,-2 22,-4 34,-4 19,0 36,3 51,9 15,6 27,15 38,27 10,12 18,27 23,44 5,17 8,37 8,60l0 157zm66 -144c0,-21 4,-41 11,-60 7,-19 18,-35 31,-49 14,-14 30,-25 49,-33 19,-8 40,-12 63,-12 11,0 21,1 31,3 10,2 19,5 28,9 9,4 16,8 24,13 7,5 14,10 19,16l4 -32 58 0 0 289 -58 0 -4 -32c-6,6 -12,11 -20,16 -7,5 -15,9 -24,13 -9,4 -18,7 -27,9 -10,2 -20,3 -31,3 -23,0 -44,-4 -63,-12 -19,-8 -35,-19 -49,-33 -13,-14 -24,-30 -31,-49 -7,-19 -11,-38 -11,-60zm68 0c0,14 2,27 7,38 5,12 11,22 20,30 8,8 18,15 29,19 11,5 23,7 36,7 13,0 25,-2 36,-7 11,-5 21,-11 29,-19 8,-8 15,-18 20,-30 5,-11 7,-24 7,-38 0,-14 -2,-26 -7,-38 -5,-11 -11,-21 -20,-30 -8,-8 -18,-15 -29,-19 -11,-5 -23,-7 -36,-7 -13,0 -25,2 -36,7 -11,5 -21,11 -29,19 -8,8 -15,18 -20,30 -5,11 -7,24 -7,38zm634 144l-69 0 0 -154c0,-15 -2,-28 -5,-39 -3,-11 -8,-19 -14,-26 -6,-7 -14,-12 -23,-15 -9,-3 -19,-5 -30,-5 -12,0 -23,2 -33,7 -10,4 -19,11 -26,18 -7,8 -13,17 -17,28 -4,11 -6,23 -6,36l0 149 -68 0 0 -289 56 0 5 29c6,-5 13,-10 20,-15 7,-5 15,-9 24,-12 9,-3 17,-6 27,-8 9,-2 19,-3 28,-3 22,0 42,3 58,9 16,6 30,15 41,28 11,12 19,27 24,45 5,18 8,38 8,61l0 155zm63 -144c0,-21 4,-41 11,-60 7,-19 18,-35 31,-49 14,-14 30,-25 49,-33 19,-8 40,-12 63,-12 11,0 21,1 31,3 10,2 19,5 28,9 9,4 16,8 24,13 7,5 14,10 19,16l4 -32 58 0 0 289 -58 0 -4 -32c-6,6 -12,11 -20,16 -7,5 -15,9 -24,13 -9,4 -18,7 -27,9 -10,2 -20,3 -31,3 -23,0 -44,-4 -63,-12 -19,-8 -35,-19 -49,-33 -13,-14 -24,-30 -31,-49 -7,-19 -11,-38 -11,-60zm68 0c0,14 2,27 7,38 5,12 11,22 20,30 8,8 18,15 29,19 11,5 23,7 36,7 13,0 25,-2 36,-7 11,-5 21,-11 29,-19 8,-8 15,-18 20,-30 5,-11 7,-24 7,-38 0,-14 -2,-26 -7,-38 -5,-11 -11,-21 -20,-30 -8,-8 -18,-15 -29,-19 -11,-5 -23,-7 -36,-7 -13,0 -25,2 -36,7 -11,5 -21,11 -29,19 -8,8 -15,18 -20,30 -5,11 -7,24 -7,38zm384 58c0,5 2,11 5,15 3,5 7,9 12,13 5,4 11,6 18,8 7,2 14,3 22,3 22,0 38,-3 48,-10 10,-7 15,-15 15,-26 0,-6 -2,-11 -6,-15 -4,-4 -9,-8 -16,-10 -7,-3 -16,-5 -26,-7 -10,-2 -22,-5 -35,-7 -7,-1 -13,-2 -21,-4 -7,-2 -14,-4 -21,-6 -7,-3 -14,-6 -20,-10 -6,-4 -12,-9 -17,-14 -5,-6 -9,-13 -12,-20 -3,-8 -5,-17 -5,-28 0,-14 2,-26 7,-37 5,-11 12,-21 23,-29 10,-8 23,-14 39,-19 16,-5 35,-7 57,-7 17,0 33,2 47,7 14,5 26,11 36,19 10,8 17,18 22,29 5,11 8,23 8,37l-68 0c-1,-10 -5,-18 -14,-25 -9,-7 -20,-10 -35,-10 -10,0 -18,1 -24,3 -7,2 -12,5 -17,8 -4,3 -7,7 -10,11 -2,4 -3,9 -3,13 0,5 1,10 4,13 3,4 7,7 13,9 6,2 13,5 21,6 9,2 19,3 30,4 14,2 28,5 41,8 14,3 26,8 36,14 11,6 19,14 26,24 7,10 10,23 10,39 0,16 -3,30 -10,43 -7,12 -16,22 -28,30 -12,8 -26,14 -43,18 -17,4 -36,6 -56,6 -21,0 -39,-3 -54,-9 -15,-6 -28,-13 -38,-22 -10,-9 -18,-19 -23,-31 -5,-11 -8,-23 -8,-34l67 0z"/>
   <path class="fil2" d="M3012 1503l-81 0 0 133 -70 0 0 -381 165 0c19,0 37,3 53,9 16,6 30,14 42,25 12,11 21,24 27,39 7,15 10,32 10,51 0,14 -2,27 -5,39 -4,12 -9,23 -15,33 -7,10 -15,18 -24,25 -9,7 -20,13 -32,18l85 142 -80 0 -75 -133zm12 -60c9,0 18,-2 25,-5 8,-3 15,-7 20,-13 6,-6 10,-12 14,-20 3,-8 5,-17 5,-26 0,-10 -2,-18 -5,-26 -3,-8 -8,-15 -14,-20 -6,-6 -13,-10 -21,-13 -8,-3 -17,-5 -26,-5l-92 0 0 128 93 0zm185 49c0,-21 4,-41 12,-60 8,-19 19,-35 33,-49 14,-14 31,-25 50,-33 19,-8 41,-12 64,-12 23,0 45,4 64,12 20,8 36,19 51,33 14,14 25,30 33,49 8,19 12,38 12,60 0,5 0,8 -1,11 0,3 -1,6 -1,8l-250 0c2,12 6,22 12,32 6,10 13,18 21,24 8,7 18,12 28,15 10,4 20,5 31,5 17,0 32,-4 45,-11 13,-7 23,-17 29,-29l74 0c-5,13 -11,25 -20,37 -9,12 -20,22 -32,31 -13,9 -27,16 -43,21 -16,5 -34,8 -53,8 -23,0 -44,-4 -64,-12 -19,-8 -36,-19 -50,-33 -14,-14 -25,-30 -33,-49 -8,-18 -12,-38 -12,-59zm159 -98c-12,0 -22,2 -32,5 -10,3 -19,8 -26,14 -8,6 -14,14 -20,22 -5,9 -9,18 -12,28l177 0c-3,-10 -7,-19 -12,-28 -5,-9 -12,-16 -19,-22 -7,-6 -16,-11 -25,-14 -9,-3 -20,-5 -31,-5zm216 98c0,-21 4,-41 11,-60 7,-19 18,-35 31,-49 14,-14 30,-25 49,-33 19,-8 40,-12 63,-12 11,0 21,1 31,4 10,2 19,6 28,10 9,4 17,9 24,15 7,6 14,12 19,18l6 -38 56 0 0 388 -68 0 0 -126c-12,11 -26,19 -42,26 -16,7 -35,10 -56,10 -23,0 -44,-4 -63,-12 -19,-8 -35,-19 -48,-33 -13,-14 -24,-30 -31,-49 -7,-19 -11,-38 -11,-60zm68 0c0,14 2,27 7,38 5,11 11,21 20,30 8,8 18,15 29,19 11,5 23,7 36,7 13,0 25,-2 36,-7 11,-5 21,-11 29,-19 8,-8 15,-18 20,-30 5,-11 7,-24 7,-38 0,-14 -2,-27 -7,-38 -5,-12 -11,-22 -20,-30 -8,-8 -18,-15 -29,-19 -11,-5 -23,-7 -36,-7 -13,0 -25,2 -36,7 -11,5 -21,11 -29,20 -8,8 -15,18 -20,30 -5,11 -7,24 -7,38zm478 94c12,0 23,-2 32,-5 9,-3 17,-8 24,-15 6,-7 11,-16 15,-27 3,-11 5,-24 5,-40l0 -151 68 0 0 153c0,26 -4,47 -11,66 -7,18 -17,33 -30,45 -13,12 -28,20 -45,26 -18,5 -37,8 -58,8 -21,0 -40,-3 -58,-8 -18,-5 -33,-14 -45,-26 -13,-12 -23,-27 -30,-45 -7,-18 -11,-40 -11,-66l0 -153 68 0 0 151c0,16 2,29 5,40 3,11 8,20 15,27 6,7 14,12 24,15 9,3 20,5 32,5zm224 -238l69 0 0 289 -69 0 0 -289zm-8 -82c0,-5 1,-10 3,-15 2,-5 5,-9 9,-12 4,-3 8,-6 13,-8 5,-2 11,-3 17,-3 6,0 12,1 18,3 5,2 10,5 14,8 4,3 7,7 9,12 2,5 3,9 3,15 0,5 -1,10 -3,15 -2,5 -5,9 -9,12 -4,3 -8,6 -14,8 -5,2 -11,3 -18,3 -6,0 -12,-1 -17,-3 -5,-2 -10,-5 -13,-8 -4,-3 -7,-7 -9,-12 -2,-5 -3,-9 -3,-15zm214 283c0,5 2,11 5,15 3,5 7,9 12,13 5,4 11,6 18,8 7,2 14,3 22,3 22,0 38,-3 48,-10 10,-7 15,-15 15,-26 0,-6 -2,-11 -6,-15 -4,-4 -9,-8 -16,-10 -7,-3 -16,-5 -26,-7 -10,-2 -22,-5 -35,-7 -7,-1 -13,-2 -21,-4 -7,-2 -14,-4 -21,-6 -7,-3 -14,-6 -20,-10 -6,-4 -12,-9 -17,-14 -5,-6 -9,-13 -12,-20 -3,-8 -5,-17 -5,-28 0,-14 2,-26 7,-37 5,-11 12,-21 23,-29 10,-8 23,-14 39,-19 16,-5 35,-7 57,-7 17,0 33,2 47,7 14,5 26,11 36,19 10,8 17,18 22,29 5,11 8,23 8,37l-68 0c-1,-10 -5,-18 -14,-25 -9,-7 -20,-10 -35,-10 -10,0 -18,1 -24,3 -7,2 -12,5 -17,8 -4,3 -7,7 -10,11 -2,4 -3,9 -3,13 0,5 1,10 4,13 3,4 7,7 13,9 6,2 13,5 21,6 9,2 19,3 30,4 14,2 28,5 41,8 14,3 26,8 36,14 11,6 19,14 26,24 7,10 10,23 10,39 0,16 -3,30 -10,43 -7,12 -16,22 -28,30 -12,8 -26,14 -43,18 -17,4 -36,6 -56,6 -21,0 -39,-3 -54,-9 -15,-6 -28,-13 -38,-22 -10,-9 -18,-19 -23,-31 -5,-11 -8,-23 -8,-34l67 0zm255 -202l69 0 0 289 -69 0 0 -289zm-8 -82c0,-5 1,-10 3,-15 2,-5 5,-9 9,-12 4,-3 8,-6 13,-8 5,-2 11,-3 17,-3 6,0 12,1 18,3 5,2 10,5 14,8 4,3 7,7 9,12 2,5 3,9 3,15 0,5 -1,10 -3,15 -2,5 -5,9 -9,12 -4,3 -8,6 -14,8 -5,2 -11,3 -18,3 -6,0 -12,-1 -17,-3 -5,-2 -10,-5 -13,-8 -4,-3 -7,-7 -9,-12 -2,-5 -3,-9 -3,-15zm208 0l50 0 0 82 92 0 0 59 -92 0 0 118c0,12 1,21 4,29 3,8 6,14 11,18 5,4 10,7 16,9 6,2 13,3 20,3l49 0 -1 56 -55 0c-16,0 -30,-2 -44,-5 -14,-3 -26,-9 -36,-18 -10,-9 -18,-20 -24,-35 -6,-15 -9,-34 -9,-57l0 -119 -48 0 0 -53 47 -13 20 -75zm204 226c0,-21 4,-41 12,-60 8,-19 19,-35 33,-49 14,-14 31,-25 50,-33 19,-8 41,-12 64,-12 23,0 45,4 64,12 20,8 36,19 50,33 14,14 25,30 33,49 8,19 12,38 12,60 0,21 -4,41 -12,60 -8,18 -19,35 -33,49 -14,14 -31,25 -51,33 -20,8 -41,12 -64,12 -23,0 -44,-4 -63,-12 -19,-8 -36,-19 -50,-33 -14,-14 -25,-30 -33,-49 -8,-19 -12,-38 -12,-60zm68 0c0,14 2,27 7,38 5,11 11,21 19,30 8,8 18,15 29,20 11,5 23,7 36,7 13,0 25,-2 36,-7 11,-5 21,-11 29,-19 8,-8 15,-18 19,-30 5,-12 7,-24 7,-38 0,-14 -2,-26 -7,-38 -5,-11 -11,-21 -19,-30 -8,-8 -18,-15 -29,-19 -11,-5 -23,-7 -36,-7 -13,0 -25,2 -36,7 -11,5 -21,11 -29,19 -8,8 -15,18 -19,30 -5,11 -7,24 -7,38zm364 58c0,5 2,11 5,15 3,5 7,9 12,13 5,4 11,6 18,8 7,2 14,3 22,3 22,0 38,-3 48,-10 10,-7 15,-15 15,-26 0,-6 -2,-11 -6,-15 -4,-4 -9,-8 -16,-10 -7,-3 -16,-5 -26,-7 -10,-2 -22,-5 -35,-7 -7,-1 -13,-2 -21,-4 -7,-2 -14,-4 -21,-6 -7,-3 -14,-6 -20,-10 -6,-4 -12,-9 -17,-14 -5,-6 -9,-13 -12,-20 -3,-8 -5,-17 -5,-28 0,-14 2,-26 7,-37 5,-11 12,-21 23,-29 10,-8 23,-14 39,-19 16,-5 35,-7 57,-7 17,0 33,2 47,7 14,5 26,11 36,19 10,8 17,18 22,29 5,11 8,23 8,37l-68 0c-1,-10 -5,-18 -14,-25 -9,-7 -20,-10 -35,-10 -10,0 -18,1 -24,3 -7,2 -12,5 -17,8 -4,3 -7,7 -10,11 -2,4 -3,9 -3,13 0,5 1,10 4,13 3,4 7,7 13,9 6,2 13,5 21,6 9,2 19,3 30,4 14,2 28,5 41,8 14,3 26,8 36,14 11,6 19,14 26,24 7,10 10,23 10,39 0,16 -3,30 -10,43 -7,12 -16,22 -28,30 -12,8 -26,14 -43,18 -17,4 -36,6 -56,6 -21,0 -39,-3 -54,-9 -15,-6 -28,-13 -38,-22 -10,-9 -18,-19 -23,-31 -5,-11 -8,-23 -8,-34l67 0z"/>
   <path class="fil2" d="M3289 13192l-176 0 -30 73 -74 0 159 -382 66 0 159 382 -74 0 -30 -73zm-151 -60l126 0 -61 -147 -2 -10 0 0 -2 10 -61 147zm597 133l-69 0 0 -154c0,-15 -2,-28 -5,-39 -3,-11 -8,-19 -14,-26 -6,-7 -14,-12 -23,-15 -9,-3 -19,-5 -30,-5 -12,0 -23,2 -33,7 -10,4 -19,11 -26,18 -7,8 -13,17 -17,28 -4,11 -6,23 -6,36l0 149 -68 0 0 -289 56 0 5 29c6,-5 13,-10 20,-15 7,-5 15,-9 24,-12 9,-3 17,-6 27,-8 9,-2 19,-3 28,-3 22,0 42,3 58,9 16,6 30,15 41,28 11,12 19,27 24,45 5,18 8,38 8,61l0 155zm63 -144c0,-21 4,-41 11,-60 7,-19 18,-35 31,-49 14,-14 30,-25 49,-33 19,-8 40,-12 63,-12 11,0 21,1 31,3 10,2 19,5 28,9 9,4 16,8 24,13 7,5 14,10 19,16l4 -32 58 0 0 289 -58 0 -4 -32c-6,6 -12,11 -20,16 -7,5 -15,9 -24,13 -9,4 -18,7 -27,9 -10,2 -20,3 -31,3 -23,0 -44,-4 -63,-12 -19,-8 -35,-19 -49,-33 -13,-14 -24,-30 -31,-49 -7,-19 -11,-38 -11,-60zm68 0c0,14 2,27 7,38 5,12 11,22 20,30 8,8 18,15 29,19 11,5 23,7 36,7 13,0 25,-2 36,-7 11,-5 21,-11 29,-19 8,-8 15,-18 20,-30 5,-11 7,-24 7,-38 0,-14 -2,-26 -7,-38 -5,-11 -11,-21 -20,-30 -8,-8 -18,-15 -29,-19 -11,-5 -23,-7 -36,-7 -13,0 -25,2 -36,7 -11,5 -21,11 -29,19 -8,8 -15,18 -20,30 -5,11 -7,24 -7,38zm343 -251l68 0 0 395 -68 0 0 -395zm158 107l69 0 0 289 -69 0 0 -289zm-8 -82c0,-5 1,-10 3,-15 2,-5 5,-9 9,-12 4,-3 8,-6 13,-8 5,-2 11,-3 17,-3 6,0 12,1 18,3 5,2 10,5 14,8 4,3 7,7 9,12 2,5 3,9 3,15 0,5 -1,10 -3,15 -2,5 -5,9 -9,12 -4,3 -8,6 -14,8 -5,2 -11,3 -18,3 -6,0 -12,-1 -17,-3 -5,-2 -10,-5 -13,-8 -4,-3 -7,-7 -9,-12 -2,-5 -3,-9 -3,-15zm214 283c0,5 2,11 5,15 3,5 7,9 12,13 5,4 11,6 18,8 7,2 14,3 22,3 22,0 38,-3 48,-10 10,-7 15,-15 15,-26 0,-6 -2,-11 -6,-15 -4,-4 -9,-8 -16,-10 -7,-3 -16,-5 -26,-7 -10,-2 -22,-5 -35,-7 -7,-1 -13,-2 -21,-4 -7,-2 -14,-4 -21,-6 -7,-3 -14,-6 -20,-10 -6,-4 -12,-9 -17,-14 -5,-6 -9,-13 -12,-20 -3,-8 -5,-17 -5,-28 0,-14 2,-26 7,-37 5,-11 12,-21 23,-29 10,-8 23,-14 39,-19 16,-5 35,-7 57,-7 17,0 33,2 47,7 14,5 26,11 36,19 10,8 17,18 22,29 5,11 8,23 8,37l-68 0c-1,-10 -5,-18 -14,-25 -9,-7 -20,-10 -35,-10 -10,0 -18,1 -24,3 -7,2 -12,5 -17,8 -4,3 -7,7 -10,11 -2,4 -3,9 -3,13 0,5 1,10 4,13 3,4 7,7 13,9 6,2 13,5 21,6 9,2 19,3 30,4 14,2 28,5 41,8 14,3 26,8 36,14 11,6 19,14 26,24 7,10 10,23 10,39 0,16 -3,30 -10,43 -7,12 -16,22 -28,30 -12,8 -26,14 -43,18 -17,4 -36,6 -56,6 -21,0 -39,-3 -54,-9 -15,-6 -28,-13 -38,-22 -10,-9 -18,-19 -23,-31 -5,-11 -8,-23 -8,-34l67 0zm255 -202l69 0 0 289 -69 0 0 -289zm-8 -82c0,-5 1,-10 3,-15 2,-5 5,-9 9,-12 4,-3 8,-6 13,-8 5,-2 11,-3 17,-3 6,0 12,1 18,3 5,2 10,5 14,8 4,3 7,7 9,12 2,5 3,9 3,15 0,5 -1,10 -3,15 -2,5 -5,9 -9,12 -4,3 -8,6 -14,8 -5,2 -11,3 -18,3 -6,0 -12,-1 -17,-3 -5,-2 -10,-5 -13,-8 -4,-3 -7,-7 -9,-12 -2,-5 -3,-9 -3,-15zm214 283c0,5 2,11 5,15 3,5 7,9 12,13 5,4 11,6 18,8 7,2 14,3 22,3 22,0 38,-3 48,-10 10,-7 15,-15 15,-26 0,-6 -2,-11 -6,-15 -4,-4 -9,-8 -16,-10 -7,-3 -16,-5 -26,-7 -10,-2 -22,-5 -35,-7 -7,-1 -13,-2 -21,-4 -7,-2 -14,-4 -21,-6 -7,-3 -14,-6 -20,-10 -6,-4 -12,-9 -17,-14 -5,-6 -9,-13 -12,-20 -3,-8 -5,-17 -5,-28 0,-14 2,-26 7,-37 5,-11 12,-21 23,-29 10,-8 23,-14 39,-19 16,-5 35,-7 57,-7 17,0 33,2 47,7 14,5 26,11 36,19 10,8 17,18 22,29 5,11 8,23 8,37l-68 0c-1,-10 -5,-18 -14,-25 -9,-7 -20,-10 -35,-10 -10,0 -18,1 -24,3 -7,2 -12,5 -17,8 -4,3 -7,7 -10,11 -2,4 -3,9 -3,13 0,5 1,10 4,13 3,4 7,7 13,9 6,2 13,5 21,6 9,2 19,3 30,4 14,2 28,5 41,8 14,3 26,8 36,14 11,6 19,14 26,24 7,10 10,23 10,39 0,16 -3,30 -10,43 -7,12 -16,22 -28,30 -12,8 -26,14 -43,18 -17,4 -36,6 -56,6 -21,0 -39,-3 -54,-9 -15,-6 -28,-13 -38,-22 -10,-9 -18,-19 -23,-31 -5,-11 -8,-23 -8,-34l67 0zm660 -201l-169 388 -74 0 52 -111 -120 -277 75 0 77 183 3 15 82 -198 73 0zm-2151 845c21,0 40,-3 57,-9 17,-6 31,-14 42,-26 11,-11 20,-25 26,-41 6,-16 9,-34 9,-54 0,-20 -3,-38 -8,-54 -5,-16 -14,-30 -25,-41 -11,-11 -25,-20 -42,-27 -17,-6 -36,-10 -59,-10l-77 0 0 261 77 0zm-147 -321l148 0c29,0 56,4 81,12 25,8 46,21 64,37 18,16 32,36 42,60 10,24 15,51 15,81 0,28 -4,54 -13,78 -9,23 -22,44 -39,60 -17,17 -38,30 -63,39 -25,9 -54,14 -86,14l-149 0 0 -381zm424 93l69 0 0 289 -69 0 0 -289zm-8 -82c0,-5 1,-10 3,-15 2,-5 5,-9 9,-12 4,-3 8,-6 13,-8 5,-2 11,-3 17,-3 6,0 12,1 18,3 5,2 10,5 14,8 4,3 7,7 9,12 2,5 3,9 3,15 0,5 -1,10 -3,15 -2,5 -5,9 -9,12 -4,3 -8,6 -14,8 -5,2 -11,3 -18,3 -6,0 -12,-1 -17,-3 -5,-2 -10,-5 -13,-8 -4,-3 -7,-7 -9,-12 -2,-5 -3,-9 -3,-15zm214 283c0,5 2,11 5,15 3,5 7,9 12,13 5,4 11,6 18,8 7,2 14,3 22,3 22,0 38,-3 48,-10 10,-7 15,-15 15,-26 0,-6 -2,-11 -6,-15 -4,-4 -9,-8 -16,-10 -7,-3 -16,-5 -26,-7 -10,-2 -22,-5 -35,-7 -7,-1 -13,-2 -21,-4 -7,-2 -14,-4 -21,-6 -7,-3 -14,-6 -20,-10 -6,-4 -12,-9 -17,-14 -5,-6 -9,-13 -12,-20 -3,-8 -5,-17 -5,-28 0,-14 2,-26 7,-37 5,-11 12,-21 23,-29 10,-8 23,-14 39,-19 16,-5 35,-7 57,-7 17,0 33,2 47,7 14,5 26,11 36,19 10,8 17,18 22,29 5,11 8,23 8,37l-68 0c-1,-10 -5,-18 -14,-25 -9,-7 -20,-10 -35,-10 -10,0 -18,1 -24,3 -7,2 -12,5 -17,8 -4,3 -7,7 -10,11 -2,4 -3,9 -3,13 0,5 1,10 4,13 3,4 7,7 13,9 6,2 13,5 21,6 9,2 19,3 30,4 14,2 28,5 41,8 14,3 26,8 36,14 11,6 19,14 26,24 7,10 10,23 10,39 0,16 -3,30 -10,43 -7,12 -16,22 -28,30 -12,8 -26,14 -43,18 -17,4 -36,6 -56,6 -21,0 -39,-3 -54,-9 -15,-6 -28,-13 -38,-22 -10,-9 -18,-19 -23,-31 -5,-11 -8,-23 -8,-34l67 0zm239 -57c0,-21 4,-41 12,-60 8,-19 19,-35 33,-49 14,-14 31,-25 50,-33 19,-8 41,-12 64,-12 23,0 45,4 64,12 20,8 36,19 51,33 14,14 25,30 33,49 8,19 12,38 12,60 0,5 0,8 -1,11 0,3 -1,6 -1,8l-250 0c2,12 6,22 12,32 6,10 13,18 21,24 8,7 18,12 28,15 10,4 20,5 31,5 17,0 32,-4 45,-11 13,-7 23,-17 29,-29l74 0c-5,13 -11,25 -20,37 -9,12 -20,22 -32,31 -13,9 -27,16 -43,21 -16,5 -34,8 -53,8 -23,0 -44,-4 -64,-12 -19,-8 -36,-19 -50,-33 -14,-14 -25,-30 -33,-49 -8,-18 -12,-38 -12,-59zm159 -98c-12,0 -22,2 -32,5 -10,3 -19,8 -26,14 -8,6 -14,14 -20,22 -5,9 -9,18 -12,28l177 0c-3,-10 -7,-19 -12,-28 -5,-9 -12,-16 -19,-22 -7,-6 -16,-11 -25,-14 -9,-3 -20,-5 -31,-5zm522 243l-69 0 0 -154c0,-15 -2,-28 -5,-39 -3,-11 -8,-19 -14,-26 -6,-7 -14,-12 -23,-15 -9,-3 -19,-5 -30,-5 -12,0 -23,2 -33,7 -10,4 -19,11 -26,18 -7,8 -13,17 -17,28 -4,11 -6,23 -6,36l0 149 -68 0 0 -289 56 0 5 29c6,-5 13,-10 20,-15 7,-5 15,-9 24,-12 9,-3 17,-6 27,-8 9,-2 19,-3 28,-3 22,0 42,3 58,9 16,6 30,15 41,28 11,12 19,27 24,45 5,18 8,38 8,61l0 155zm-33 -371c-7,16 -16,29 -27,38 -11,9 -23,13 -37,13 -8,0 -16,-1 -23,-3 -7,-2 -14,-4 -20,-6 -6,-2 -12,-5 -17,-6 -5,-2 -10,-3 -14,-3 -5,0 -9,1 -14,3 -4,2 -9,7 -13,15l-28 -20c3,-7 6,-13 11,-19 4,-6 9,-11 15,-15 5,-4 12,-7 18,-9 7,-2 14,-2 21,-2 7,1 14,2 20,4 6,2 11,4 17,6 5,2 10,4 15,6 5,2 9,2 14,2 6,0 12,-2 18,-6 6,-4 11,-10 16,-20l29 20zm96 226c0,-21 4,-41 12,-60 8,-19 19,-35 33,-49 14,-14 31,-25 50,-33 19,-8 41,-12 64,-12 23,0 45,4 64,12 20,8 36,19 50,33 14,14 25,30 33,49 8,19 12,38 12,60 0,21 -4,41 -12,60 -8,18 -19,35 -33,49 -14,14 -31,25 -51,33 -20,8 -41,12 -64,12 -23,0 -44,-4 -63,-12 -19,-8 -36,-19 -50,-33 -14,-14 -25,-30 -33,-49 -8,-19 -12,-38 -12,-60zm68 0c0,14 2,27 7,38 5,11 11,21 19,30 8,8 18,15 29,20 11,5 23,7 36,7 13,0 25,-2 36,-7 11,-5 21,-11 29,-19 8,-8 15,-18 19,-30 5,-12 7,-24 7,-38 0,-14 -2,-26 -7,-38 -5,-11 -11,-21 -19,-30 -8,-8 -18,-15 -29,-19 -11,-5 -23,-7 -36,-7 -13,0 -25,2 -36,7 -11,5 -21,11 -29,19 -8,8 -15,18 -19,30 -5,11 -7,24 -7,38z"/>
   <path class="fil2" d="M9410 13403l0 125 -70 0 0 -381 161 0c19,0 37,3 53,10 16,6 30,15 42,27 12,11 21,25 27,41 7,16 10,33 10,51 0,19 -3,36 -10,52 -6,16 -16,29 -27,40 -12,11 -26,20 -42,27 -16,6 -34,9 -53,9l-92 0zm88 -60c9,0 18,-2 26,-5 8,-3 15,-8 21,-14 6,-6 10,-13 14,-21 3,-8 5,-17 5,-27 0,-10 -2,-18 -5,-27 -3,-8 -8,-16 -14,-22 -6,-6 -13,-11 -21,-15 -8,-4 -16,-5 -26,-5l-88 0 0 136 88 0zm202 -210l68 0 0 395 -68 0 0 -395zm142 251c0,-21 4,-41 11,-60 7,-19 18,-35 31,-49 14,-14 30,-25 49,-33 19,-8 40,-12 63,-12 11,0 21,1 31,3 10,2 19,5 28,9 9,4 16,8 24,13 7,5 14,10 19,16l4 -32 58 0 0 289 -58 0 -4 -32c-6,6 -12,11 -20,16 -7,5 -15,9 -24,13 -9,4 -18,7 -27,9 -10,2 -20,3 -31,3 -23,0 -44,-4 -63,-12 -19,-8 -35,-19 -49,-33 -13,-14 -24,-30 -31,-49 -7,-19 -11,-38 -11,-60zm68 0c0,14 2,27 7,38 5,12 11,22 20,30 8,8 18,15 29,19 11,5 23,7 36,7 13,0 25,-2 36,-7 11,-5 21,-11 29,-19 8,-8 15,-18 20,-30 5,-11 7,-24 7,-38 0,-14 -2,-26 -7,-38 -5,-11 -11,-21 -20,-30 -8,-8 -18,-15 -29,-19 -11,-5 -23,-7 -36,-7 -13,0 -25,2 -36,7 -11,5 -21,11 -29,19 -8,8 -15,18 -20,30 -5,11 -7,24 -7,38zm634 144l-69 0 0 -154c0,-15 -2,-28 -5,-39 -3,-11 -8,-19 -14,-26 -6,-7 -14,-12 -23,-15 -9,-3 -19,-5 -30,-5 -12,0 -23,2 -33,7 -10,4 -19,11 -26,18 -7,8 -13,17 -17,28 -4,11 -6,23 -6,36l0 149 -68 0 0 -289 56 0 5 29c6,-5 13,-10 20,-15 7,-5 15,-9 24,-12 9,-3 17,-6 27,-8 9,-2 19,-3 28,-3 22,0 42,3 58,9 16,6 30,15 41,28 11,12 19,27 24,45 5,18 8,38 8,61l0 155zm64 -144c0,-21 4,-41 12,-60 8,-19 19,-35 33,-49 14,-14 31,-25 50,-33 19,-8 41,-12 64,-12 23,0 45,4 64,12 20,8 36,19 51,33 14,14 25,30 33,49 8,19 12,38 12,60 0,5 0,8 -1,11 0,3 -1,6 -1,8l-250 0c2,12 6,22 12,32 6,10 13,18 21,24 8,7 18,12 28,15 10,4 20,5 31,5 17,0 32,-4 45,-11 13,-7 23,-17 29,-29l74 0c-5,13 -11,25 -20,37 -9,12 -20,22 -32,31 -13,9 -27,16 -43,21 -16,5 -34,8 -53,8 -23,0 -44,-4 -64,-12 -19,-8 -36,-19 -50,-33 -14,-14 -25,-30 -33,-49 -8,-18 -12,-38 -12,-59zm159 -98c-12,0 -22,2 -32,5 -10,3 -19,8 -26,14 -8,6 -14,14 -20,22 -5,9 -9,18 -12,28l177 0c-3,-10 -7,-19 -12,-28 -5,-9 -12,-16 -19,-22 -7,-6 -16,-11 -25,-14 -9,-3 -20,-5 -31,-5zm215 98c0,-21 4,-41 11,-60 7,-19 18,-35 31,-49 14,-14 30,-25 49,-33 19,-8 40,-12 63,-12 11,0 21,1 31,3 10,2 19,5 28,9 9,4 16,8 24,13 7,5 14,10 19,16l4 -32 58 0 0 289 -58 0 -4 -32c-6,6 -12,11 -20,16 -7,5 -15,9 -24,13 -9,4 -18,7 -27,9 -10,2 -20,3 -31,3 -23,0 -44,-4 -63,-12 -19,-8 -35,-19 -49,-33 -13,-14 -24,-30 -31,-49 -7,-19 -11,-38 -11,-60zm68 0c0,14 2,27 7,38 5,12 11,22 20,30 8,8 18,15 29,19 11,5 23,7 36,7 13,0 25,-2 36,-7 11,-5 21,-11 29,-19 8,-8 15,-18 20,-30 5,-11 7,-24 7,-38 0,-14 -2,-26 -7,-38 -5,-11 -11,-21 -20,-30 -8,-8 -18,-15 -29,-19 -11,-5 -23,-7 -36,-7 -13,0 -25,2 -36,7 -11,5 -21,11 -29,19 -8,8 -15,18 -20,30 -5,11 -7,24 -7,38zm395 0c0,15 2,28 7,39 5,12 12,21 20,29 8,8 18,14 29,19 11,4 22,6 34,6 18,0 34,-4 48,-13 14,-9 25,-21 33,-36l70 0c-4,16 -11,30 -20,43 -9,13 -20,25 -33,34 -13,10 -28,17 -44,23 -16,5 -34,8 -53,8 -23,0 -44,-4 -64,-12 -19,-8 -36,-19 -50,-33 -14,-14 -25,-30 -33,-48 -8,-19 -12,-38 -12,-59 0,-21 4,-41 12,-60 8,-19 19,-35 33,-49 14,-14 31,-25 50,-33 19,-8 41,-12 64,-12 19,0 37,3 53,8 16,5 31,13 44,23 13,10 24,21 33,34 9,13 16,28 20,44l-70 0c-7,-15 -18,-27 -33,-36 -14,-9 -30,-13 -48,-13 -12,0 -24,2 -35,6 -11,4 -21,11 -29,19 -8,8 -15,18 -20,29 -5,12 -7,25 -7,39zm313 -144l69 0 0 289 -69 0 0 -289zm-8 -82c0,-5 1,-10 3,-15 2,-5 5,-9 9,-12 4,-3 8,-6 13,-8 5,-2 11,-3 17,-3 6,0 12,1 18,3 5,2 10,5 14,8 4,3 7,7 9,12 2,5 3,9 3,15 0,5 -1,10 -3,15 -2,5 -5,9 -9,12 -4,3 -8,6 -14,8 -5,2 -11,3 -18,3 -6,0 -12,-1 -17,-3 -5,-2 -10,-5 -13,-8 -4,-3 -7,-7 -9,-12 -2,-5 -3,-9 -3,-15zm157 226c0,-21 4,-41 12,-60 8,-19 19,-35 33,-49 14,-14 31,-25 50,-33 19,-8 41,-12 64,-12 23,0 45,4 64,12 20,8 36,19 50,33 14,14 25,30 33,49 8,19 12,38 12,60 0,21 -4,41 -12,60 -8,18 -19,35 -33,49 -14,14 -31,25 -51,33 -20,8 -41,12 -64,12 -23,0 -44,-4 -63,-12 -19,-8 -36,-19 -50,-33 -14,-14 -25,-30 -33,-49 -8,-19 -12,-38 -12,-60zm68 0c0,14 2,27 7,38 5,11 11,21 19,30 8,8 18,15 29,20 11,5 23,7 36,7 13,0 25,-2 36,-7 11,-5 21,-11 29,-19 8,-8 15,-18 19,-30 5,-12 7,-24 7,-38 0,-14 -2,-26 -7,-38 -5,-11 -11,-21 -19,-30 -8,-8 -18,-15 -29,-19 -11,-5 -23,-7 -36,-7 -13,0 -25,2 -36,7 -11,5 -21,11 -29,19 -8,8 -15,18 -19,30 -5,11 -7,24 -7,38zm166 -245l-53 67 -49 0 51 -84 51 18zm448 389l-69 0 0 -154c0,-15 -2,-28 -5,-39 -3,-11 -8,-19 -14,-26 -6,-7 -14,-12 -23,-15 -9,-3 -19,-5 -30,-5 -12,0 -23,2 -33,7 -10,4 -19,11 -26,18 -7,8 -13,17 -17,28 -4,11 -6,23 -6,36l0 149 -68 0 0 -289 56 0 5 29c6,-5 13,-10 20,-15 7,-5 15,-9 24,-12 9,-3 17,-6 27,-8 9,-2 19,-3 28,-3 22,0 42,3 58,9 16,6 30,15 41,28 11,12 19,27 24,45 5,18 8,38 8,61l0 155z"/>
   <path class="fil2" d="M13005 6085c21,0 40,-3 57,-9 17,-6 31,-14 42,-26 11,-11 20,-25 26,-41 6,-16 9,-34 9,-54 0,-20 -3,-38 -8,-54 -5,-16 -14,-30 -25,-41 -11,-11 -25,-20 -42,-27 -17,-6 -36,-10 -59,-10l-77 0 0 261 77 0zm-147 -321l148 0c29,0 56,4 81,12 25,8 46,21 64,37 18,16 32,36 42,60 10,24 15,51 15,81 0,28 -4,54 -13,78 -9,23 -22,44 -39,60 -17,17 -38,30 -63,39 -25,9 -54,14 -86,14l-149 0 0 -381zm408 237c0,-21 4,-41 12,-60 8,-19 19,-35 33,-49 14,-14 31,-25 50,-33 19,-8 41,-12 64,-12 23,0 45,4 64,12 20,8 36,19 51,33 14,14 25,30 33,49 8,19 12,38 12,60 0,5 0,8 -1,11 0,3 -1,6 -1,8l-250 0c2,12 6,22 12,32 6,10 13,18 21,24 8,7 18,12 28,15 10,4 20,5 31,5 17,0 32,-4 45,-11 13,-7 23,-17 29,-29l74 0c-5,13 -11,25 -20,37 -9,12 -20,22 -32,31 -13,9 -27,16 -43,21 -16,5 -34,8 -53,8 -23,0 -44,-4 -64,-12 -19,-8 -36,-19 -50,-33 -14,-14 -25,-30 -33,-49 -8,-18 -12,-38 -12,-59zm159 -98c-12,0 -22,2 -32,5 -10,3 -19,8 -26,14 -8,6 -14,14 -20,22 -5,9 -9,18 -12,28l177 0c-3,-10 -7,-19 -12,-28 -5,-9 -12,-16 -19,-22 -7,-6 -16,-11 -25,-14 -9,-3 -20,-5 -31,-5zm272 156c0,5 2,11 5,15 3,5 7,9 12,13 5,4 11,6 18,8 7,2 14,3 22,3 22,0 38,-3 48,-10 10,-7 15,-15 15,-26 0,-6 -2,-11 -6,-15 -4,-4 -9,-8 -16,-10 -7,-3 -16,-5 -26,-7 -10,-2 -22,-5 -35,-7 -7,-1 -13,-2 -21,-4 -7,-2 -14,-4 -21,-6 -7,-3 -14,-6 -20,-10 -6,-4 -12,-9 -17,-14 -5,-6 -9,-13 -12,-20 -3,-8 -5,-17 -5,-28 0,-14 2,-26 7,-37 5,-11 12,-21 23,-29 10,-8 23,-14 39,-19 16,-5 35,-7 57,-7 17,0 33,2 47,7 14,5 26,11 36,19 10,8 17,18 22,29 5,11 8,23 8,37l-68 0c-1,-10 -5,-18 -14,-25 -9,-7 -20,-10 -35,-10 -10,0 -18,1 -24,3 -7,2 -12,5 -17,8 -4,3 -7,7 -10,11 -2,4 -3,9 -3,13 0,5 1,10 4,13 3,4 7,7 13,9 6,2 13,5 21,6 9,2 19,3 30,4 14,2 28,5 41,8 14,3 26,8 36,14 11,6 19,14 26,24 7,10 10,23 10,39 0,16 -3,30 -10,43 -7,12 -16,22 -28,30 -12,8 -26,14 -43,18 -17,4 -36,6 -56,6 -21,0 -39,-3 -54,-9 -15,-6 -28,-13 -38,-22 -10,-9 -18,-19 -23,-31 -5,-11 -8,-23 -8,-34l67 0zm238 -57c0,-21 4,-41 11,-60 7,-19 18,-35 31,-49 14,-14 30,-25 49,-33 19,-8 40,-12 63,-12 11,0 21,1 31,3 10,2 19,5 28,9 9,4 16,8 24,13 7,5 14,10 19,16l4 -32 58 0 0 289 -58 0 -4 -32c-6,6 -12,11 -20,16 -7,5 -15,9 -24,13 -9,4 -18,7 -27,9 -10,2 -20,3 -31,3 -23,0 -44,-4 -63,-12 -19,-8 -35,-19 -49,-33 -13,-14 -24,-30 -31,-49 -7,-19 -11,-38 -11,-60zm68 0c0,14 2,27 7,38 5,12 11,22 20,30 8,8 18,15 29,19 11,5 23,7 36,7 13,0 25,-2 36,-7 11,-5 21,-11 29,-19 8,-8 15,-18 20,-30 5,-11 7,-24 7,-38 0,-14 -2,-26 -7,-38 -5,-11 -11,-21 -20,-30 -8,-8 -18,-15 -29,-19 -11,-5 -23,-7 -36,-7 -13,0 -25,2 -36,7 -11,5 -21,11 -29,19 -8,8 -15,18 -20,30 -5,11 -7,24 -7,38zm531 -84l-34 0c-13,0 -25,2 -36,6 -11,4 -20,10 -27,17 -8,8 -13,17 -17,28 -4,11 -6,24 -6,39l0 138 -68 0 0 -289 55 0 6 35c10,-10 22,-18 37,-25 15,-7 32,-10 53,-10l38 0 0 60zm248 0l-34 0c-13,0 -25,2 -36,6 -11,4 -20,10 -27,17 -8,8 -13,17 -17,28 -4,11 -6,24 -6,39l0 138 -68 0 0 -289 55 0 6 35c10,-10 22,-18 37,-25 15,-7 32,-10 53,-10l38 0 0 60zm43 85c0,-21 4,-41 12,-60 8,-19 19,-35 33,-49 14,-14 31,-25 50,-33 19,-8 41,-12 64,-12 23,0 45,4 64,12 20,8 36,19 50,33 14,14 25,30 33,49 8,19 12,38 12,60 0,21 -4,41 -12,60 -8,18 -19,35 -33,49 -14,14 -31,25 -51,33 -20,8 -41,12 -64,12 -23,0 -44,-4 -63,-12 -19,-8 -36,-19 -50,-33 -14,-14 -25,-30 -33,-49 -8,-19 -12,-38 -12,-60zm68 0c0,14 2,27 7,38 5,11 11,21 19,30 8,8 18,15 29,20 11,5 23,7 36,7 13,0 25,-2 36,-7 11,-5 21,-11 29,-19 8,-8 15,-18 19,-30 5,-12 7,-24 7,-38 0,-14 -2,-26 -7,-38 -5,-11 -11,-21 -19,-30 -8,-8 -18,-15 -29,-19 -11,-5 -23,-7 -36,-7 -13,0 -25,2 -36,7 -11,5 -21,11 -29,19 -8,8 -15,18 -19,30 -5,11 -7,24 -7,38zm323 -250l68 0 0 395 -68 0 0 -395zm158 0l68 0 0 395 -68 0 0 -395zm142 251c0,-21 4,-41 12,-60 8,-19 19,-35 33,-49 14,-14 31,-25 50,-33 19,-8 41,-12 64,-12 23,0 45,4 64,12 20,8 36,19 50,33 14,14 25,30 33,49 8,19 12,38 12,60 0,21 -4,41 -12,60 -8,18 -19,35 -33,49 -14,14 -31,25 -51,33 -20,8 -41,12 -64,12 -23,0 -44,-4 -63,-12 -19,-8 -36,-19 -50,-33 -14,-14 -25,-30 -33,-49 -8,-19 -12,-38 -12,-60zm68 0c0,14 2,27 7,38 5,11 11,21 19,30 8,8 18,15 29,20 11,5 23,7 36,7 13,0 25,-2 36,-7 11,-5 21,-11 29,-19 8,-8 15,-18 19,-30 5,-12 7,-24 7,-38 0,-14 -2,-26 -7,-38 -5,-11 -11,-21 -19,-30 -8,-8 -18,-15 -29,-19 -11,-5 -23,-7 -36,-7 -13,0 -25,2 -36,7 -11,5 -21,11 -29,19 -8,8 -15,18 -19,30 -5,11 -7,24 -7,38zm-2388 473l-169 388 -74 0 52 -111 -120 -277 75 0 77 183 3 15 82 -198 73 0zm508 144c0,21 -4,41 -11,60 -7,19 -18,35 -31,49 -13,14 -29,25 -48,33 -19,8 -40,12 -63,12 -21,0 -39,-3 -56,-10 -16,-7 -30,-16 -41,-26l0 126 -68 0 0 -387 56 0 5 34c6,-6 12,-11 20,-16 7,-5 15,-10 24,-14 9,-4 18,-7 28,-9 10,-2 20,-3 32,-3 23,0 44,4 63,12 19,8 35,19 49,33 13,14 24,30 31,49 7,19 11,38 11,60zm-68 0c0,-14 -2,-27 -7,-38 -5,-12 -11,-22 -20,-30 -8,-8 -18,-15 -29,-19 -11,-5 -23,-7 -36,-7 -13,0 -25,2 -36,7 -11,5 -21,11 -29,19 -8,8 -15,18 -20,30 -5,11 -7,24 -7,38 0,14 2,26 7,38 5,11 11,21 20,30 8,8 18,15 29,19 11,5 23,7 36,7 13,0 25,-2 36,-7 11,-5 21,-11 29,-19 8,-8 15,-18 20,-30 5,-11 7,-24 7,-38zm330 -85l-34 0c-13,0 -25,2 -36,6 -11,4 -20,10 -27,17 -8,8 -13,17 -17,28 -4,11 -6,24 -6,39l0 138 -68 0 0 -289 55 0 6 35c10,-10 22,-18 37,-25 15,-7 32,-10 53,-10l38 0 0 60zm194 178c12,0 23,-2 32,-5 9,-3 17,-8 24,-15 6,-7 11,-16 15,-27 3,-11 5,-24 5,-40l0 -151 68 0 0 153c0,26 -4,47 -11,66 -7,18 -17,33 -30,45 -13,12 -28,20 -45,26 -18,5 -37,8 -58,8 -21,0 -40,-3 -58,-8 -18,-5 -33,-14 -45,-26 -13,-12 -23,-27 -30,-45 -7,-18 -11,-40 -11,-66l0 -153 68 0 0 151c0,16 2,29 5,40 3,11 8,20 15,27 6,7 14,12 24,15 9,3 20,5 32,5zm208 -94c0,-21 4,-41 12,-60 8,-19 19,-35 33,-49 14,-14 31,-25 50,-33 19,-8 41,-12 64,-12 23,0 45,4 64,12 20,8 36,19 51,33 14,14 25,30 33,49 8,19 12,38 12,60 0,5 0,8 -1,11 0,3 -1,6 -1,8l-250 0c2,12 6,22 12,32 6,10 13,18 21,24 8,7 18,12 28,15 10,4 20,5 31,5 17,0 32,-4 45,-11 13,-7 23,-17 29,-29l74 0c-5,13 -11,25 -20,37 -9,12 -20,22 -32,31 -13,9 -27,16 -43,21 -16,5 -34,8 -53,8 -23,0 -44,-4 -64,-12 -19,-8 -36,-19 -50,-33 -14,-14 -25,-30 -33,-49 -8,-18 -12,-38 -12,-59zm159 -98c-12,0 -22,2 -32,5 -10,3 -19,8 -26,14 -8,6 -14,14 -20,22 -5,9 -9,18 -12,28l177 0c-3,-10 -7,-19 -12,-28 -5,-9 -12,-16 -19,-22 -7,-6 -16,-11 -25,-14 -9,-3 -20,-5 -31,-5zm550 99c0,21 -4,41 -11,60 -7,19 -18,35 -31,49 -14,14 -30,25 -49,33 -19,8 -40,12 -63,12 -11,0 -21,-1 -31,-3 -10,-2 -19,-5 -28,-9 -9,-4 -16,-8 -24,-13 -7,-5 -14,-10 -19,-16l-4 32 -59 0 0 -395 68 0 0 135c11,-11 25,-19 41,-26 16,-7 35,-11 56,-11 23,0 44,4 63,12 19,8 35,19 48,33 13,14 24,30 31,49 7,19 11,38 11,60zm-68 0c0,-14 -2,-26 -7,-38 -5,-11 -11,-21 -20,-30 -8,-8 -18,-15 -29,-19 -11,-5 -23,-7 -36,-7 -13,0 -25,2 -36,7 -11,5 -21,11 -29,19 -8,8 -15,18 -20,30 -5,11 -7,24 -7,38 0,14 2,27 7,38 5,11 11,21 20,30 8,8 18,15 29,19 11,5 23,7 36,7 13,0 25,-2 36,-7 11,-5 21,-11 29,-19 8,-8 15,-18 20,-30 5,-12 7,-24 7,-38zm125 0c0,-21 4,-41 11,-60 7,-19 18,-35 31,-49 14,-14 30,-25 49,-33 19,-8 40,-12 63,-12 11,0 21,1 31,3 10,2 19,5 28,9 9,4 16,8 24,13 7,5 14,10 19,16l4 -32 58 0 0 289 -58 0 -4 -32c-6,6 -12,11 -20,16 -7,5 -15,9 -24,13 -9,4 -18,7 -27,9 -10,2 -20,3 -31,3 -23,0 -44,-4 -63,-12 -19,-8 -35,-19 -49,-33 -13,-14 -24,-30 -31,-49 -7,-19 -11,-38 -11,-60zm68 0c0,14 2,27 7,38 5,12 11,22 20,30 8,8 18,15 29,19 11,5 23,7 36,7 13,0 25,-2 36,-7 11,-5 21,-11 29,-19 8,-8 15,-18 20,-30 5,-11 7,-24 7,-38 0,-14 -2,-26 -7,-38 -5,-11 -11,-21 -20,-30 -8,-8 -18,-15 -29,-19 -11,-5 -23,-7 -36,-7 -13,0 -25,2 -36,7 -11,5 -21,11 -29,19 -8,8 -15,18 -20,30 -5,11 -7,24 -7,38zm384 58c0,5 2,11 5,15 3,5 7,9 12,13 5,4 11,6 18,8 7,2 14,3 22,3 22,0 38,-3 48,-10 10,-7 15,-15 15,-26 0,-6 -2,-11 -6,-15 -4,-4 -9,-8 -16,-10 -7,-3 -16,-5 -26,-7 -10,-2 -22,-5 -35,-7 -7,-1 -13,-2 -21,-4 -7,-2 -14,-4 -21,-6 -7,-3 -14,-6 -20,-10 -6,-4 -12,-9 -17,-14 -5,-6 -9,-13 -12,-20 -3,-8 -5,-17 -5,-28 0,-14 2,-26 7,-37 5,-11 12,-21 23,-29 10,-8 23,-14 39,-19 16,-5 35,-7 57,-7 17,0 33,2 47,7 14,5 26,11 36,19 10,8 17,18 22,29 5,11 8,23 8,37l-68 0c-1,-10 -5,-18 -14,-25 -9,-7 -20,-10 -35,-10 -10,0 -18,1 -24,3 -7,2 -12,5 -17,8 -4,3 -7,7 -10,11 -2,4 -3,9 -3,13 0,5 1,10 4,13 3,4 7,7 13,9 6,2 13,5 21,6 9,2 19,3 30,4 14,2 28,5 41,8 14,3 26,8 36,14 11,6 19,14 26,24 7,10 10,23 10,39 0,16 -3,30 -10,43 -7,12 -16,22 -28,30 -12,8 -26,14 -43,18 -17,4 -36,6 -56,6 -21,0 -39,-3 -54,-9 -15,-6 -28,-13 -38,-22 -10,-9 -18,-19 -23,-31 -5,-11 -8,-23 -8,-34l67 0z"/>
   <path class="fil2" d="M21742 6543c0,9 2,17 6,25 4,8 10,14 17,20 7,6 16,10 27,13 11,3 22,5 35,5 30,0 52,-5 67,-14 14,-10 21,-23 21,-41 0,-11 -2,-20 -7,-27 -5,-7 -12,-13 -21,-17 -9,-5 -20,-9 -32,-12 -12,-3 -26,-7 -41,-10 -8,-2 -17,-3 -26,-5 -9,-2 -19,-5 -29,-8 -10,-3 -19,-7 -28,-12 -9,-5 -17,-10 -24,-17 -7,-7 -12,-15 -17,-24 -4,-9 -6,-20 -6,-33 0,-17 3,-33 8,-48 6,-15 14,-27 27,-38 12,-11 28,-19 47,-25 19,-6 42,-9 69,-9 22,0 41,3 57,8 17,6 31,13 43,23 12,10 20,22 27,36 6,14 9,30 9,47l-70 0c0,-8 -2,-15 -5,-21 -3,-7 -7,-12 -13,-17 -6,-5 -13,-9 -22,-11 -9,-3 -19,-4 -31,-4 -15,0 -27,1 -37,5 -10,3 -17,7 -23,12 -6,5 -10,10 -12,16 -2,6 -3,12 -3,19 0,8 2,16 7,21 5,6 11,11 19,15 8,4 18,7 29,10 11,3 24,5 37,7 18,4 36,9 52,14 17,5 31,12 44,21 13,9 23,20 30,33 8,13 11,30 11,51 0,18 -4,35 -12,49 -8,14 -19,26 -33,36 -14,10 -31,17 -50,22 -20,5 -41,8 -65,8 -26,0 -49,-4 -69,-11 -19,-7 -35,-17 -48,-29 -13,-12 -22,-25 -28,-40 -6,-15 -9,-29 -9,-44l70 0zm298 -30c0,-21 4,-41 12,-60 8,-19 19,-35 33,-49 14,-14 31,-25 50,-33 19,-8 41,-12 64,-12 23,0 45,4 64,12 20,8 36,19 50,33 14,14 25,30 33,49 8,19 12,38 12,60 0,21 -4,41 -12,60 -8,18 -19,35 -33,49 -14,14 -31,25 -51,33 -20,8 -41,12 -64,12 -23,0 -44,-4 -63,-12 -19,-8 -36,-19 -50,-33 -14,-14 -25,-30 -33,-49 -8,-19 -12,-38 -12,-60zm68 0c0,14 2,27 7,38 5,11 11,21 19,30 8,8 18,15 29,20 11,5 23,7 36,7 13,0 25,-2 36,-7 11,-5 21,-11 29,-19 8,-8 15,-18 19,-30 5,-12 7,-24 7,-38 0,-14 -2,-26 -7,-38 -5,-11 -11,-21 -19,-30 -8,-8 -18,-15 -29,-19 -11,-5 -23,-7 -36,-7 -13,0 -25,2 -36,7 -11,5 -21,11 -29,19 -8,8 -15,18 -19,30 -5,11 -7,24 -7,38zm544 -72l-133 0 0 217 -68 0 0 -217 -49 0 0 -59 49 0 0 -26c0,-13 2,-25 5,-38 3,-13 8,-24 15,-34 7,-10 17,-18 29,-25 12,-6 27,-9 45,-9 14,0 26,1 36,4 10,3 17,6 22,10l-21 51c-2,-1 -4,-2 -7,-2 -2,0 -5,-1 -7,-2 -3,0 -6,-1 -10,-1 -13,0 -22,4 -29,13 -6,8 -9,19 -9,33l0 25 133 0 0 -83 68 0 0 83 86 0 0 59 -86 0 0 110c0,11 1,20 4,27 2,7 6,13 10,17 4,4 9,7 14,9 5,2 11,3 16,3 5,0 10,0 14,-1 4,-1 8,-2 11,-3 3,-1 6,-2 9,-4 3,-2 6,-3 8,-4l22 51c-3,2 -6,5 -11,7 -5,2 -10,5 -16,7 -6,2 -13,4 -21,5 -8,1 -16,2 -24,2 -15,0 -29,-2 -42,-5 -13,-4 -24,-10 -33,-19 -9,-9 -17,-21 -22,-35 -5,-15 -8,-33 -8,-56l0 -111zm661 -72l-103 288 -62 0 -66 -185 -65 185 -62 0 -103 -288 73 0 67 198 1 0 64 -196 50 0 64 196 1 0 67 -198 74 0zm25 144c0,-21 4,-41 11,-60 7,-19 18,-35 31,-49 14,-14 30,-25 49,-33 19,-8 40,-12 63,-12 11,0 21,1 31,3 10,2 19,5 28,9 9,4 16,8 24,13 7,5 14,10 19,16l4 -32 58 0 0 289 -58 0 -4 -32c-6,6 -12,11 -20,16 -7,5 -15,9 -24,13 -9,4 -18,7 -27,9 -10,2 -20,3 -31,3 -23,0 -44,-4 -63,-12 -19,-8 -35,-19 -49,-33 -13,-14 -24,-30 -31,-49 -7,-19 -11,-38 -11,-60zm68 0c0,14 2,27 7,38 5,12 11,22 20,30 8,8 18,15 29,19 11,5 23,7 36,7 13,0 25,-2 36,-7 11,-5 21,-11 29,-19 8,-8 15,-18 20,-30 5,-11 7,-24 7,-38 0,-14 -2,-26 -7,-38 -5,-11 -11,-21 -20,-30 -8,-8 -18,-15 -29,-19 -11,-5 -23,-7 -36,-7 -13,0 -25,2 -36,7 -11,5 -21,11 -29,19 -8,8 -15,18 -20,30 -5,11 -7,24 -7,38zm531 -84l-34 0c-13,0 -25,2 -36,6 -11,4 -20,10 -27,17 -8,8 -13,17 -17,28 -4,11 -6,24 -6,39l0 138 -68 0 0 -289 55 0 6 35c10,-10 22,-18 37,-25 15,-7 32,-10 53,-10l38 0 0 60zm43 85c0,-21 4,-41 12,-60 8,-19 19,-35 33,-49 14,-14 31,-25 50,-33 19,-8 41,-12 64,-12 23,0 45,4 64,12 20,8 36,19 51,33 14,14 25,30 33,49 8,19 12,38 12,60 0,5 0,8 -1,11 0,3 -1,6 -1,8l-250 0c2,12 6,22 12,32 6,10 13,18 21,24 8,7 18,12 28,15 10,4 20,5 31,5 17,0 32,-4 45,-11 13,-7 23,-17 29,-29l74 0c-5,13 -11,25 -20,37 -9,12 -20,22 -32,31 -13,9 -27,16 -43,21 -16,5 -34,8 -53,8 -23,0 -44,-4 -64,-12 -19,-8 -36,-19 -50,-33 -14,-14 -25,-30 -33,-49 -8,-18 -12,-38 -12,-59zm159 -98c-12,0 -22,2 -32,5 -10,3 -19,8 -26,14 -8,6 -14,14 -20,22 -5,9 -9,18 -12,28l177 0c-3,-10 -7,-19 -12,-28 -5,-9 -12,-16 -19,-22 -7,-6 -16,-11 -25,-14 -9,-3 -20,-5 -31,-5zm-2421 630l-56 0 0 -59 56 0 0 -12c0,-13 2,-26 5,-39 3,-13 9,-25 16,-35 8,-10 18,-19 31,-25 13,-6 29,-10 49,-10l50 0 0 56 -34 0c-9,0 -17,1 -23,4 -6,3 -11,7 -15,12 -4,5 -7,11 -8,17 -2,7 -2,14 -2,21l0 11 81 0 0 59 -81 0 0 230 -68 0 0 -230zm344 179c12,0 23,-2 32,-5 9,-3 17,-8 24,-15 6,-7 11,-16 15,-27 3,-11 5,-24 5,-40l0 -151 68 0 0 153c0,26 -4,47 -11,66 -7,18 -17,33 -30,45 -13,12 -28,20 -45,26 -18,5 -37,8 -58,8 -21,0 -40,-3 -58,-8 -18,-5 -33,-14 -45,-26 -13,-12 -23,-27 -30,-45 -7,-18 -11,-40 -11,-66l0 -153 68 0 0 151c0,16 2,29 5,40 3,11 8,20 15,27 6,7 14,12 24,15 9,3 20,5 32,5zm515 51l-69 0 0 -154c0,-15 -2,-28 -5,-39 -3,-11 -8,-19 -14,-26 -6,-7 -14,-12 -23,-15 -9,-3 -19,-5 -30,-5 -12,0 -23,2 -33,7 -10,4 -19,11 -26,18 -7,8 -13,17 -17,28 -4,11 -6,23 -6,36l0 149 -68 0 0 -289 56 0 5 29c6,-5 13,-10 20,-15 7,-5 15,-9 24,-12 9,-3 17,-6 27,-8 9,-2 19,-3 28,-3 22,0 42,3 58,9 16,6 30,15 41,28 11,12 19,27 24,45 5,18 8,38 8,61l0 155zm131 -144c0,15 2,28 7,39 5,12 12,21 20,29 8,8 18,14 29,19 11,4 22,6 34,6 18,0 34,-4 48,-13 14,-9 25,-21 33,-36l70 0c-4,16 -11,30 -20,43 -9,13 -20,25 -33,34 -13,10 -28,17 -44,23 -16,5 -34,8 -53,8 -23,0 -44,-4 -64,-12 -19,-8 -36,-19 -50,-33 -14,-14 -25,-30 -33,-48 -8,-19 -12,-38 -12,-59 0,-21 4,-41 12,-60 8,-19 19,-35 33,-49 14,-14 31,-25 50,-33 19,-8 41,-12 64,-12 19,0 37,3 53,8 16,5 31,13 44,23 13,10 24,21 33,34 9,13 16,28 20,44l-70 0c-7,-15 -18,-27 -33,-36 -14,-9 -30,-13 -48,-13 -12,0 -24,2 -35,6 -11,4 -21,11 -29,19 -8,8 -15,18 -20,29 -5,12 -7,25 -7,39zm313 -144l69 0 0 289 -69 0 0 -289zm-8 -82c0,-5 1,-10 3,-15 2,-5 5,-9 9,-12 4,-3 8,-6 13,-8 5,-2 11,-3 17,-3 6,0 12,1 18,3 5,2 10,5 14,8 4,3 7,7 9,12 2,5 3,9 3,15 0,5 -1,10 -3,15 -2,5 -5,9 -9,12 -4,3 -8,6 -14,8 -5,2 -11,3 -18,3 -6,0 -12,-1 -17,-3 -5,-2 -10,-5 -13,-8 -4,-3 -7,-7 -9,-12 -2,-5 -3,-9 -3,-15zm157 226c0,-21 4,-41 12,-60 8,-19 19,-35 33,-49 14,-14 31,-25 50,-33 19,-8 41,-12 64,-12 23,0 45,4 64,12 20,8 36,19 50,33 14,14 25,30 33,49 8,19 12,38 12,60 0,21 -4,41 -12,60 -8,18 -19,35 -33,49 -14,14 -31,25 -51,33 -20,8 -41,12 -64,12 -23,0 -44,-4 -63,-12 -19,-8 -36,-19 -50,-33 -14,-14 -25,-30 -33,-49 -8,-19 -12,-38 -12,-60zm68 0c0,14 2,27 7,38 5,11 11,21 19,30 8,8 18,15 29,20 11,5 23,7 36,7 13,0 25,-2 36,-7 11,-5 21,-11 29,-19 8,-8 15,-18 19,-30 5,-12 7,-24 7,-38 0,-14 -2,-26 -7,-38 -5,-11 -11,-21 -19,-30 -8,-8 -18,-15 -29,-19 -11,-5 -23,-7 -36,-7 -13,0 -25,2 -36,7 -11,5 -21,11 -29,19 -8,8 -15,18 -19,30 -5,11 -7,24 -7,38zm614 145l-69 0 0 -154c0,-15 -2,-28 -5,-39 -3,-11 -8,-19 -14,-26 -6,-7 -14,-12 -23,-15 -9,-3 -19,-5 -30,-5 -12,0 -23,2 -33,7 -10,4 -19,11 -26,18 -7,8 -13,17 -17,28 -4,11 -6,23 -6,36l0 149 -68 0 0 -289 56 0 5 29c6,-5 13,-10 20,-15 7,-5 15,-9 24,-12 9,-3 17,-6 27,-8 9,-2 19,-3 28,-3 22,0 42,3 58,9 16,6 30,15 41,28 11,12 19,27 24,45 5,18 8,38 8,61l0 155zm63 -144c0,-21 4,-41 11,-60 7,-19 18,-35 31,-49 14,-14 30,-25 49,-33 19,-8 40,-12 63,-12 11,0 21,1 31,3 10,2 19,5 28,9 9,4 16,8 24,13 7,5 14,10 19,16l4 -32 58 0 0 289 -58 0 -4 -32c-6,6 -12,11 -20,16 -7,5 -15,9 -24,13 -9,4 -18,7 -27,9 -10,2 -20,3 -31,3 -23,0 -44,-4 -63,-12 -19,-8 -35,-19 -49,-33 -13,-14 -24,-30 -31,-49 -7,-19 -11,-38 -11,-60zm68 0c0,14 2,27 7,38 5,12 11,22 20,30 8,8 18,15 29,19 11,5 23,7 36,7 13,0 25,-2 36,-7 11,-5 21,-11 29,-19 8,-8 15,-18 20,-30 5,-11 7,-24 7,-38 0,-14 -2,-26 -7,-38 -5,-11 -11,-21 -20,-30 -8,-8 -18,-15 -29,-19 -11,-5 -23,-7 -36,-7 -13,0 -25,2 -36,7 -11,5 -21,11 -29,19 -8,8 -15,18 -20,30 -5,11 -7,24 -7,38zm343 -251l68 0 0 395 -68 0 0 -395z"/>
   <path class="fil2" d="M21837 15096c0,9 2,17 6,25 4,8 10,14 17,20 7,6 16,10 27,13 11,3 22,5 35,5 30,0 52,-5 67,-14 14,-10 21,-23 21,-41 0,-11 -2,-20 -7,-27 -5,-7 -12,-13 -21,-17 -9,-5 -20,-9 -32,-12 -12,-3 -26,-7 -41,-10 -8,-2 -17,-3 -26,-5 -9,-2 -19,-5 -29,-8 -10,-3 -19,-7 -28,-12 -9,-5 -17,-10 -24,-17 -7,-7 -12,-15 -17,-24 -4,-9 -6,-20 -6,-33 0,-17 3,-33 8,-48 6,-15 14,-27 27,-38 12,-11 28,-19 47,-25 19,-6 42,-9 69,-9 22,0 41,3 57,8 17,6 31,13 43,23 12,10 20,22 27,36 6,14 9,30 9,47l-70 0c0,-8 -2,-15 -5,-21 -3,-7 -7,-12 -13,-17 -6,-5 -13,-9 -22,-11 -9,-3 -19,-4 -31,-4 -15,0 -27,1 -37,5 -10,3 -17,7 -23,12 -6,5 -10,10 -12,16 -2,6 -3,12 -3,19 0,8 2,16 7,21 5,6 11,11 19,15 8,4 18,7 29,10 11,3 24,5 37,7 18,4 36,9 52,14 17,5 31,12 44,21 13,9 23,20 30,33 8,13 11,30 11,51 0,18 -4,35 -12,49 -8,14 -19,26 -33,36 -14,10 -31,17 -50,22 -20,5 -41,8 -65,8 -26,0 -49,-4 -69,-11 -19,-7 -35,-17 -48,-29 -13,-12 -22,-25 -28,-40 -6,-15 -9,-29 -9,-44l70 0zm298 -30c0,-21 4,-41 12,-60 8,-19 19,-35 33,-49 14,-14 31,-25 50,-33 19,-8 41,-12 64,-12 23,0 45,4 64,12 20,8 36,19 50,33 14,14 25,30 33,49 8,19 12,38 12,60 0,21 -4,41 -12,60 -8,18 -19,35 -33,49 -14,14 -31,25 -51,33 -20,8 -41,12 -64,12 -23,0 -44,-4 -63,-12 -19,-8 -36,-19 -50,-33 -14,-14 -25,-30 -33,-49 -8,-19 -12,-38 -12,-60zm68 0c0,14 2,27 7,38 5,11 11,21 19,30 8,8 18,15 29,20 11,5 23,7 36,7 13,0 25,-2 36,-7 11,-5 21,-11 29,-19 8,-8 15,-18 19,-30 5,-12 7,-24 7,-38 0,-14 -2,-26 -7,-38 -5,-11 -11,-21 -19,-30 -8,-8 -18,-15 -29,-19 -11,-5 -23,-7 -36,-7 -13,0 -25,2 -36,7 -11,5 -21,11 -29,19 -8,8 -15,18 -19,30 -5,11 -7,24 -7,38zm641 0c0,21 -4,41 -11,60 -7,19 -18,35 -31,49 -13,14 -29,25 -48,33 -19,8 -40,12 -63,12 -21,0 -39,-3 -56,-10 -16,-7 -30,-16 -41,-26l0 126 -68 0 0 -387 56 0 5 34c6,-6 12,-11 20,-16 7,-5 15,-10 24,-14 9,-4 18,-7 28,-9 10,-2 20,-3 32,-3 23,0 44,4 63,12 19,8 35,19 49,33 13,14 24,30 31,49 7,19 11,38 11,60zm-68 0c0,-14 -2,-27 -7,-38 -5,-12 -11,-22 -20,-30 -8,-8 -18,-15 -29,-19 -11,-5 -23,-7 -36,-7 -13,0 -25,2 -36,7 -11,5 -21,11 -29,19 -8,8 -15,18 -20,30 -5,11 -7,24 -7,38 0,14 2,26 7,38 5,11 11,21 20,30 8,8 18,15 29,19 11,5 23,7 36,7 13,0 25,-2 36,-7 11,-5 21,-11 29,-19 8,-8 15,-18 20,-30 5,-11 7,-24 7,-38zm125 0c0,-21 4,-41 12,-60 8,-19 19,-35 33,-49 14,-14 31,-25 50,-33 19,-8 41,-12 64,-12 23,0 45,4 64,12 20,8 36,19 50,33 14,14 25,30 33,49 8,19 12,38 12,60 0,21 -4,41 -12,60 -8,18 -19,35 -33,49 -14,14 -31,25 -51,33 -20,8 -41,12 -64,12 -23,0 -44,-4 -63,-12 -19,-8 -36,-19 -50,-33 -14,-14 -25,-30 -33,-49 -8,-19 -12,-38 -12,-60zm68 0c0,14 2,27 7,38 5,11 11,21 19,30 8,8 18,15 29,20 11,5 23,7 36,7 13,0 25,-2 36,-7 11,-5 21,-11 29,-19 8,-8 15,-18 19,-30 5,-12 7,-24 7,-38 0,-14 -2,-26 -7,-38 -5,-11 -11,-21 -19,-30 -8,-8 -18,-15 -29,-19 -11,-5 -23,-7 -36,-7 -13,0 -25,2 -36,7 -11,5 -21,11 -29,19 -8,8 -15,18 -19,30 -5,11 -7,24 -7,38zm511 -84l-34 0c-13,0 -25,2 -36,6 -11,4 -20,10 -27,17 -8,8 -13,17 -17,28 -4,11 -6,24 -6,39l0 138 -68 0 0 -289 55 0 6 35c10,-10 22,-18 37,-25 15,-7 32,-10 53,-10l38 0 0 60zm94 -142l50 0 0 82 92 0 0 59 -92 0 0 118c0,12 1,21 4,29 3,8 6,14 11,18 5,4 10,7 16,9 6,2 13,3 20,3l49 0 -1 56 -55 0c-16,0 -30,-2 -44,-5 -14,-3 -26,-9 -36,-18 -10,-9 -18,-20 -24,-35 -6,-15 -9,-34 -9,-57l0 -119 -48 0 0 -53 47 -13 20 -75zm204 227c0,-21 4,-41 12,-60 8,-19 19,-35 33,-49 14,-14 31,-25 50,-33 19,-8 41,-12 64,-12 23,0 45,4 64,12 20,8 36,19 51,33 14,14 25,30 33,49 8,19 12,38 12,60 0,5 0,8 -1,11 0,3 -1,6 -1,8l-250 0c2,12 6,22 12,32 6,10 13,18 21,24 8,7 18,12 28,15 10,4 20,5 31,5 17,0 32,-4 45,-11 13,-7 23,-17 29,-29l74 0c-5,13 -11,25 -20,37 -9,12 -20,22 -32,31 -13,9 -27,16 -43,21 -16,5 -34,8 -53,8 -23,0 -44,-4 -64,-12 -19,-8 -36,-19 -50,-33 -14,-14 -25,-30 -33,-49 -8,-18 -12,-38 -12,-59zm159 -98c-12,0 -22,2 -32,5 -10,3 -19,8 -26,14 -8,6 -14,14 -20,22 -5,9 -9,18 -12,28l177 0c-3,-10 -7,-19 -12,-28 -5,-9 -12,-16 -19,-22 -7,-6 -16,-11 -25,-14 -9,-3 -20,-5 -31,-5zm-3208 571l-169 388 -74 0 52 -111 -120 -277 75 0 77 183 3 15 82 -198 73 0zm663 288l-68 0 0 -156c0,-29 -5,-50 -15,-63 -10,-13 -25,-20 -44,-20 -11,0 -21,2 -30,5 -9,4 -17,9 -23,16 -7,7 -12,15 -16,25 -4,10 -6,21 -6,33l0 159 -69 0 0 -156c0,-29 -5,-50 -15,-63 -10,-13 -25,-20 -44,-20 -11,0 -21,2 -30,6 -9,4 -17,9 -24,16 -7,7 -12,16 -15,26 -4,10 -5,22 -5,35l0 155 -68 0 0 -289 56 0 5 27c5,-5 11,-9 18,-14 7,-4 14,-8 22,-11 8,-3 16,-6 25,-8 9,-2 18,-3 28,-3 20,0 38,4 54,11 16,8 29,18 39,33 6,-6 12,-12 20,-17 7,-5 16,-10 25,-14 9,-4 19,-7 29,-9 11,-2 22,-4 34,-4 19,0 36,3 51,9 15,6 27,15 38,27 10,12 18,27 23,44 5,17 8,37 8,60l0 157zm66 -144c0,-21 4,-41 11,-60 7,-19 18,-35 31,-49 14,-14 30,-25 49,-33 19,-8 40,-12 63,-12 11,0 21,1 31,3 10,2 19,5 28,9 9,4 16,8 24,13 7,5 14,10 19,16l4 -32 58 0 0 289 -58 0 -4 -32c-6,6 -12,11 -20,16 -7,5 -15,9 -24,13 -9,4 -18,7 -27,9 -10,2 -20,3 -31,3 -23,0 -44,-4 -63,-12 -19,-8 -35,-19 -49,-33 -13,-14 -24,-30 -31,-49 -7,-19 -11,-38 -11,-60zm68 0c0,14 2,27 7,38 5,12 11,22 20,30 8,8 18,15 29,19 11,5 23,7 36,7 13,0 25,-2 36,-7 11,-5 21,-11 29,-19 8,-8 15,-18 20,-30 5,-11 7,-24 7,-38 0,-14 -2,-26 -7,-38 -5,-11 -11,-21 -20,-30 -8,-8 -18,-15 -29,-19 -11,-5 -23,-7 -36,-7 -13,0 -25,2 -36,7 -11,5 -21,11 -29,19 -8,8 -15,18 -20,30 -5,11 -7,24 -7,38zm634 144l-69 0 0 -154c0,-15 -2,-28 -5,-39 -3,-11 -8,-19 -14,-26 -6,-7 -14,-12 -23,-15 -9,-3 -19,-5 -30,-5 -12,0 -23,2 -33,7 -10,4 -19,11 -26,18 -7,8 -13,17 -17,28 -4,11 -6,23 -6,36l0 149 -68 0 0 -289 56 0 5 29c6,-5 13,-10 20,-15 7,-5 15,-9 24,-12 9,-3 17,-6 27,-8 9,-2 19,-3 28,-3 22,0 42,3 58,9 16,6 30,15 41,28 11,12 19,27 24,45 5,18 8,38 8,61l0 155zm114 -371l50 0 0 82 92 0 0 59 -92 0 0 118c0,12 1,21 4,29 3,8 6,14 11,18 5,4 10,7 16,9 6,2 13,3 20,3l49 0 -1 56 -55 0c-16,0 -30,-2 -44,-5 -14,-3 -26,-9 -36,-18 -10,-9 -18,-20 -24,-35 -6,-15 -9,-34 -9,-57l0 -119 -48 0 0 -53 47 -13 20 -75zm204 227c0,-21 4,-41 12,-60 8,-19 19,-35 33,-49 14,-14 31,-25 50,-33 19,-8 41,-12 64,-12 23,0 45,4 64,12 20,8 36,19 51,33 14,14 25,30 33,49 8,19 12,38 12,60 0,5 0,8 -1,11 0,3 -1,6 -1,8l-250 0c2,12 6,22 12,32 6,10 13,18 21,24 8,7 18,12 28,15 10,4 20,5 31,5 17,0 32,-4 45,-11 13,-7 23,-17 29,-29l74 0c-5,13 -11,25 -20,37 -9,12 -20,22 -32,31 -13,9 -27,16 -43,21 -16,5 -34,8 -53,8 -23,0 -44,-4 -64,-12 -19,-8 -36,-19 -50,-33 -14,-14 -25,-30 -33,-49 -8,-18 -12,-38 -12,-59zm159 -98c-12,0 -22,2 -32,5 -10,3 -19,8 -26,14 -8,6 -14,14 -20,22 -5,9 -9,18 -12,28l177 0c-3,-10 -7,-19 -12,-28 -5,-9 -12,-16 -19,-22 -7,-6 -16,-11 -25,-14 -9,-3 -20,-5 -31,-5zm522 243l-69 0 0 -154c0,-15 -2,-28 -5,-39 -3,-11 -8,-19 -14,-26 -6,-7 -14,-12 -23,-15 -9,-3 -19,-5 -30,-5 -12,0 -23,2 -33,7 -10,4 -19,11 -26,18 -7,8 -13,17 -17,28 -4,11 -6,23 -6,36l0 149 -68 0 0 -289 56 0 5 29c6,-5 13,-10 20,-15 7,-5 15,-9 24,-12 9,-3 17,-6 27,-8 9,-2 19,-3 28,-3 22,0 42,3 58,9 16,6 30,15 41,28 11,12 19,27 24,45 5,18 8,38 8,61l0 155zm80 -289l69 0 0 289 -69 0 0 -289zm-8 -82c0,-5 1,-10 3,-15 2,-5 5,-9 9,-12 4,-3 8,-6 13,-8 5,-2 11,-3 17,-3 6,0 12,1 18,3 5,2 10,5 14,8 4,3 7,7 9,12 2,5 3,9 3,15 0,5 -1,10 -3,15 -2,5 -5,9 -9,12 -4,3 -8,6 -14,8 -5,2 -11,3 -18,3 -6,0 -12,-1 -17,-3 -5,-2 -10,-5 -13,-8 -4,-3 -7,-7 -9,-12 -2,-5 -3,-9 -3,-15zm647 370l-68 0 0 -156c0,-29 -5,-50 -15,-63 -10,-13 -25,-20 -44,-20 -11,0 -21,2 -30,5 -9,4 -17,9 -23,16 -7,7 -12,15 -16,25 -4,10 -6,21 -6,33l0 159 -69 0 0 -156c0,-29 -5,-50 -15,-63 -10,-13 -25,-20 -44,-20 -11,0 -21,2 -30,6 -9,4 -17,9 -24,16 -7,7 -12,16 -15,26 -4,10 -5,22 -5,35l0 155 -68 0 0 -289 56 0 5 27c5,-5 11,-9 18,-14 7,-4 14,-8 22,-11 8,-3 16,-6 25,-8 9,-2 18,-3 28,-3 20,0 38,4 54,11 16,8 29,18 39,33 6,-6 12,-12 20,-17 7,-5 16,-10 25,-14 9,-4 19,-7 29,-9 11,-2 22,-4 34,-4 19,0 36,3 51,9 15,6 27,15 38,27 10,12 18,27 23,44 5,17 8,37 8,60l0 157zm83 -289l69 0 0 289 -69 0 0 -289zm-8 -82c0,-5 1,-10 3,-15 2,-5 5,-9 9,-12 4,-3 8,-6 13,-8 5,-2 11,-3 17,-3 6,0 12,1 18,3 5,2 10,5 14,8 4,3 7,7 9,12 2,5 3,9 3,15 0,5 -1,10 -3,15 -2,5 -5,9 -9,12 -4,3 -8,6 -14,8 -5,2 -11,3 -18,3 -6,0 -12,-1 -17,-3 -5,-2 -10,-5 -13,-8 -4,-3 -7,-7 -9,-12 -2,-5 -3,-9 -3,-15zm157 226c0,-21 4,-41 12,-60 8,-19 19,-35 33,-49 14,-14 31,-25 50,-33 19,-8 41,-12 64,-12 23,0 45,4 64,12 20,8 36,19 51,33 14,14 25,30 33,49 8,19 12,38 12,60 0,5 0,8 -1,11 0,3 -1,6 -1,8l-250 0c2,12 6,22 12,32 6,10 13,18 21,24 8,7 18,12 28,15 10,4 20,5 31,5 17,0 32,-4 45,-11 13,-7 23,-17 29,-29l74 0c-5,13 -11,25 -20,37 -9,12 -20,22 -32,31 -13,9 -27,16 -43,21 -16,5 -34,8 -53,8 -23,0 -44,-4 -64,-12 -19,-8 -36,-19 -50,-33 -14,-14 -25,-30 -33,-49 -8,-18 -12,-38 -12,-59zm159 -98c-12,0 -22,2 -32,5 -10,3 -19,8 -26,14 -8,6 -14,14 -20,22 -5,9 -9,18 -12,28l177 0c-3,-10 -7,-19 -12,-28 -5,-9 -12,-16 -19,-22 -7,-6 -16,-11 -25,-14 -9,-3 -20,-5 -31,-5zm522 243l-69 0 0 -154c0,-15 -2,-28 -5,-39 -3,-11 -8,-19 -14,-26 -6,-7 -14,-12 -23,-15 -9,-3 -19,-5 -30,-5 -12,0 -23,2 -33,7 -10,4 -19,11 -26,18 -7,8 -13,17 -17,28 -4,11 -6,23 -6,36l0 149 -68 0 0 -289 56 0 5 29c6,-5 13,-10 20,-15 7,-5 15,-9 24,-12 9,-3 17,-6 27,-8 9,-2 19,-3 28,-3 22,0 42,3 58,9 16,6 30,15 41,28 11,12 19,27 24,45 5,18 8,38 8,61l0 155zm114 -371l50 0 0 82 92 0 0 59 -92 0 0 118c0,12 1,21 4,29 3,8 6,14 11,18 5,4 10,7 16,9 6,2 13,3 20,3l49 0 -1 56 -55 0c-16,0 -30,-2 -44,-5 -14,-3 -26,-9 -36,-18 -10,-9 -18,-20 -24,-35 -6,-15 -9,-34 -9,-57l0 -119 -48 0 0 -53 47 -13 20 -75zm204 226c0,-21 4,-41 12,-60 8,-19 19,-35 33,-49 14,-14 31,-25 50,-33 19,-8 41,-12 64,-12 23,0 45,4 64,12 20,8 36,19 50,33 14,14 25,30 33,49 8,19 12,38 12,60 0,21 -4,41 -12,60 -8,18 -19,35 -33,49 -14,14 -31,25 -51,33 -20,8 -41,12 -64,12 -23,0 -44,-4 -63,-12 -19,-8 -36,-19 -50,-33 -14,-14 -25,-30 -33,-49 -8,-19 -12,-38 -12,-60zm68 0c0,14 2,27 7,38 5,11 11,21 19,30 8,8 18,15 29,20 11,5 23,7 36,7 13,0 25,-2 36,-7 11,-5 21,-11 29,-19 8,-8 15,-18 19,-30 5,-12 7,-24 7,-38 0,-14 -2,-26 -7,-38 -5,-11 -11,-21 -19,-30 -8,-8 -18,-15 -29,-19 -11,-5 -23,-7 -36,-7 -13,0 -25,2 -36,7 -11,5 -21,11 -29,19 -8,8 -15,18 -19,30 -5,11 -7,24 -7,38z"/>
   <path class="fil3" d="M12201 11331l0 514 -835 0 0 -300c24,-21 42,-50 51,-83l69 -251c56,7 110,20 164,38l109 36c92,31 188,46 284,46 52,0 104,-4 155,-14l3 14zm0 0z"/>
   <path class="fil3" d="M11796 10663c23,23 37,55 37,91 0,71 -57,128 -128,128l-130 0 69 -257 60 0c35,0 67,14 91,38zm0 0z"/>
   <path class="fil4" d="M11270 10629l-68 253 -204 0c-71,0 -135,29 -182,75l-11 -11 246 -246c48,-48 114,-75 182,-75l22 0 15 4zm0 0z"/>
   <path class="fil5" d="M11355 10314l-85 315 -15 -4 -22 0c-68,0 -134,27 -182,75l-246 246 -88 89c-26,26 -60,40 -96,40 -38,0 -72,-15 -97,-40 -24,-24 -40,-59 -40,-96 0,-36 15,-71 40,-96l462 -463c48,-48 114,-75 182,-75l150 0 36 10zm0 0z"/>
   <path class="fil3" d="M11366 10240l0 -1477 -1477 0 0 -385 2312 0 0 2119 -4 6 -234 -156c-42,-28 -92,-43 -143,-43l-89 0 124 -458 69 -256 96 -356c4,-15 6,-30 6,-44 0,-94 -76,-170 -170,-170l-21 0c-76,0 -144,51 -164,126l-89 331 -69 255 -138 511 -8 -3zm0 0z"/>
   <path class="fil4" d="M11366 10240l8 3 -19 71 -36 -10 -150 0c-68,0 -134,27 -182,75l-462 463c-26,26 -40,60 -40,96 0,37 15,72 40,96 25,24 59,40 97,40 36,0 71,-14 96,-40l88 -89 11 11c-46,47 -75,111 -75,182 0,35 29,64 64,64l310 0 -46 171c-4,15 -6,30 -6,44 0,94 76,170 170,170l21 0c42,0 82,-16 112,-43l0 685 -2312 0 0 -3468 2312 0 0 1477zm0 0z"/>
   <path class="fil6" d="M9311 9020l1541 0 0 514 -1541 0 0 -514zm0 0z"/>
   <path class="fil7" d="M9761 11139l193 0 0 642 -642 0 0 -642 450 0zm0 0z"/>
   <path class="fil7" d="M9761 10047l193 0 0 642 -642 0 0 -642 450 0zm0 0z"/>
   <path class="fil8" d="M12026 9190c0,15 -2,30 -6,44l-96 356 -342 -114 89 -331c20,-75 87,-126 164,-126l21 0c94,0 170,76 170,170l0 0zm0 0z"/>
   <path class="fil4" d="M11924 9591l-69 256 -342 -114 69 -255 342 114zm0 0z"/>
   <path class="fil9" d="M11366 11545c-30,27 -70,43 -112,43l-21 0c-94,0 -170,-76 -170,-170 0,-15 3,-30 6,-44l46 -171 251 0c40,0 80,3 120,8l-69 251c-9,33 -27,62 -51,83zm0 0z"/>
   <path class="fil9" d="M11731 10304l-156 578 -373 0 68 -253 85 -315 19 -71 138 -511 342 114 -124 458zm0 0z"/>
   <path class="fil5" d="M11486 11211c-40,-6 -80,-8 -120,-8l-561 0c-35,0 -64,-29 -64,-64 0,-71 29,-135 75,-182 47,-46 111,-75 182,-75l706 0c71,0 128,-58 128,-128 0,-35 -14,-67 -37,-91 -24,-24 -56,-38 -91,-38l-60 0 87 -321 89 0c51,0 101,15 143,43l234 156 214 143c42,28 92,43 143,43l418 0 0 514 -193 0c-74,0 -147,9 -218,27l-299 75c-21,5 -42,10 -64,13 -51,10 -103,14 -155,14 -97,0 -193,-15 -284,-46l-109 -36c-54,-18 -109,-31 -164,-38l0 0zm0 0z"/>
   <path class="fil10" d="M11820 10368c38,0 75,11 107,32l448 299c53,35 115,54 178,54l418 0 0 -128 -418 0c-38,0 -75,-11 -107,-32l-181 -121 0 -2159 -2440 0 0 385 -835 0 0 3596 2440 0 0 -385 835 0 0 -540c4,-1 8,-1 12,-2l299 -75c66,-17 135,-25 203,-25l193 0 0 -128 -193 0c-79,0 -157,10 -234,29l-299 75c-154,38 -317,32 -467,-18l-108 -36c-98,-33 -201,-49 -305,-49l-560 0c0,-106 86,-193 193,-193l706 0c106,0 193,-86 193,-193 0,-99 -75,-179 -170,-190l53 -195 40 0zm-81 978c99,33 201,50 305,50 31,0 62,-3 93,-6l0 391 -706 0 0 -210c23,-26 40,-57 49,-92l53 -195c33,7 66,15 98,26l108 36zm-335 -77l-48 177c-12,46 -54,78 -102,78l-21 0c-58,0 -106,-47 -106,-106 0,-9 1,-19 4,-28l33 -123 202 0c13,0 25,1 38,1l0 0zm-373 -1l-24 90c-5,20 -8,40 -8,61 0,87 48,162 118,202l-20 81 125 31 20 -80 12 0c17,0 33,-2 48,-6l0 519 -2183 0 0 -3339 835 0 0 -385 2183 0 0 1945 -139 -93c-53,-35 -115,-54 -178,-54l-5 0 267 -989c5,-20 8,-40 8,-61 0,-129 -105,-234 -234,-234l-21 0c-106,0 -199,71 -226,173l-179 661 0 -1091 -1348 0 0 128 1220 0 0 1413 -133 0c-70,0 -136,23 -191,64l-640 0 0 128 505 0 -128 128 -376 0 0 128 248 0 -107 107c-38,38 -59,88 -59,142 0,111 90,200 200,200 20,0 39,-4 57,-9 0,3 -1,6 -1,9 0,71 58,128 128,128l225 0zm495 -450l-240 0 271 -1003 220 73 -251 930zm-493 -393c36,-36 85,-56 136,-56l105 0 -52 194c-81,3 -157,35 -215,93l-334 334c-13,13 -32,21 -51,21 -40,0 -72,-32 -72,-72 0,-19 8,-37 21,-51l463 -463zm64 321c25,-25 55,-41 88,-50l-33 122 -127 0 72 -72zm861 -1528l-79 291 -220 -73 74 -273c13,-46 55,-78 102,-78l21 0c58,0 106,47 106,106 0,9 -1,19 -4,28zm-332 342l220 73 -35 131 -220 -73 35 -131zm79 1130c35,0 64,29 64,64 0,35 -29,64 -64,64l-46 0 35 -128 12 0zm0 0z"/>
   <path class="fil10" d="M10917 8955l-1670 0 0 642 1670 0 0 -642zm-128 514l-1413 0 0 -385 1413 0 0 385zm0 0z"/>
   <path class="fil10" d="M9504 9212l128 0 0 128 -128 0 0 -128zm0 0z"/>
   <path class="fil10" d="M9761 9212l128 0 0 128 -128 0 0 -128zm0 0z"/>
   <path class="fil10" d="M10018 9212l128 0 0 128 -128 0 0 -128zm0 0z"/>
   <path class="fil10" d="M10275 9212l128 0 0 128 -128 0 0 -128zm0 0z"/>
   <path class="fil10" d="M10531 9212l128 0 0 128 -128 0 0 -128zm0 0z"/>
   <path class="fil10" d="M10018 10368l-128 0 0 257 -514 0 0 -514 385 0 0 -128 -514 0 0 771 771 0 0 -385zm0 0z"/>
   <path class="fil10" d="M10229 9745l-597 597 -83 -83 -91 91 174 174 688 -688 -91 -91zm0 0z"/>
   <path class="fil10" d="M9889 11717l-514 0 0 -514 385 0 0 -128 -514 0 0 771 771 0 0 -385 -128 0 0 257zm0 0z"/>
   <path class="fil10" d="M9549 11350l-91 91 174 174 688 -688 -91 -91 -597 597 -83 -83zm0 0z"/>
   <path class="fil10" d="M11045 11845l128 0 0 128 -128 0 0 -128zm0 0z"/>
   <path class="fil10" d="M10210 11845l706 0 0 128 -706 0 0 -128zm0 0z"/>
   <path class="fil10" d="M10339 10047l835 0 0 128 -835 0 0 -128zm0 0z"/>
   <path class="fil11" d="M5418 5495l-2131 0 0 -2860c0,-124 -100,-224 -224,-224l-56 0 2187 0c124,0 224,100 224,224l0 2860z"/>
   <path class="fil12" d="M3287 5495l2355 0c124,0 224,-100 224,-224l0 -224 -2131 0 0 224c0,124 -100,224 -224,224l-224 0z"/>
   <path class="fil12" d="M3287 3083l-449 0 0 -449c0,-124 100,-224 224,-224l0 0c124,0 224,100 224,224l0 449z"/>
   <rect class="fil13" x="2839" y="5326" width="673" height="449"/>
   <rect class="fil13" x="3568" y="2635" width="1570" height="617"/>
   <rect class="fil14" x="2839" y="2915" width="449" height="168"/>
   <rect class="fil15" x="2839" y="5607" width="673" height="168"/>
   <path class="fil16" d="M3063 5326l-54 -435c-1,-9 -2,-19 -2,-28l0 -477c0,-9 1,-19 2,-28l47 -374c5,-40 21,-78 46,-97l321 -412c21,-40 54,-56 89,-56l0 0c62,0 113,51 113,113l0 19c0,24 -7,46 -21,66l-218 305c-27,38 -42,84 -42,130l0 324c0,35 8,69 24,100l88 177 0 0 246 -246c22,-22 53,-35 84,-35l0 0c66,0 119,53 119,119l0 0c0,32 -13,62 -35,84l-414 414 0 336 -393 0z"/>
   <path class="fil10" d="M3512 3308l1682 0 0 -729 -1682 0 0 729zm112 -617l1458 0 0 505 -1458 0 0 -505z"/>
   <rect class="fil10" x="3792" y="4093" width="1121" height="112"/>
   <rect class="fil10" x="3904" y="3644" width="336" height="112"/>
   <rect class="fil10" x="4465" y="3644" width="336" height="112"/>
   <rect class="fil10" x="3904" y="3868" width="336" height="112"/>
   <rect class="fil10" x="4465" y="3868" width="336" height="112"/>
   <rect class="fil10" x="4297" y="4541" width="897" height="112"/>
   <rect class="fil10" x="4857" y="4766" width="336" height="112"/>
   <rect class="fil10" x="4297" y="4766" width="336" height="112"/>
   <path class="fil10" d="M5474 3219l0 -585c0,-155 -126,-280 -280,-280l-2131 0c-155,0 -280,126 -280,280l0 505 449 0 0 418 -227 292c-32,28 -54,75 -61,130l-47 374c-1,12 -2,23 -2,35l0 477c0,12 1,23 2,35l46 372 -161 0 0 561 785 0 0 -280 2075 0c155,0 280,-126 280,-280l0 -280 -449 0 0 -585 0 -1186zm-2579 -192l0 -393c0,-93 75,-168 168,-168 93,0 168,75 168,168l0 393 -336 0zm113 1857c-1,-7 -1,-14 -1,-21l0 -477c0,-7 0,-14 1,-21l47 -374c4,-31 15,-53 25,-60l330 -422 5 -8c13,-23 28,-26 40,-26 31,0 57,26 57,57l0 19c0,12 -4,23 -11,33l-218 305c-34,48 -52,104 -52,163l0 324c0,43 10,87 30,125l48 96 -21 0 0 112 135 0 262 -262c12,-12 28,-18 44,-18 35,0 63,28 63,63 0,17 -7,33 -18,44l-430 430 0 304 -287 0 -48 -386zm447 834l-561 0 0 -336 561 0 0 336zm2355 -449c0,93 -75,168 -168,168l-1907 0c35,-47 56,-105 56,-168l0 -168 2019 0 0 168zm-449 -909l0 629 -1682 0 0 280c0,73 -47,135 -112,158l0 -158 -112 0 0 -257 397 -397c33,-33 51,-77 51,-124 0,-97 -79,-175 -175,-175 -46,0 -91,19 -124,51l-191 191 -54 -107c-12,-23 -18,-49 -18,-75l0 -324c0,-35 11,-69 31,-98l218 -305c21,-29 31,-63 31,-98l0 -19c0,-93 -76,-169 -169,-169 -44,0 -82,17 -111,48l0 -777c0,-63 -22,-121 -58,-168l1908 0c93,0 168,75 168,168l0 629 0 1097z"/>
   <circle class="fil17" cx="23116" cy="18304" r="2059"/>
   <rect class="fil18" x="22740" y="19377" width="752" height="373"/>
   <rect class="fil19" x="22740" y="19377" width="167" height="373"/>
   <path class="fil20" d="M23865 19966c0,20 -17,37 -37,37l-1423 0c-20,0 -37,-17 -37,-37l0 -187c0,-20 17,-37 37,-37l1423 0c20,0 37,17 37,37l0 187 0 0z"/>
   <path class="fil21" d="M22534 19966l0 -187c0,-20 17,-37 37,-37l-167 0c-20,0 -37,17 -37,37l0 187c0,20 17,37 37,37l167 0c-20,0 -37,-17 -37,-37z"/>
   <path class="fil20" d="M25219 16513l-4205 0c-27,0 -49,22 -49,49l0 2775c0,27 22,49 49,49l2894 0 0 -146c0,-15 12,-27 27,-27l113 0c23,0 47,-17 55,-39l21 -51c10,-20 5,-49 -11,-66l-80 -79c-5,-5 -8,-12 -8,-19 0,-7 3,-14 8,-19l145 -144c5,-5 12,-8 19,-8 7,0 14,3 19,8l80 79c10,10 26,16 42,16 9,0 17,-2 24,-5l52 -21c21,-7 39,-31 39,-55l0 -112c0,-15 12,-27 27,-27l205 0c15,0 27,12 27,27l0 112c0,23 17,47 39,55l52 21c7,3 15,5 24,5 16,0 32,-6 42,-16l80 -79c5,-5 12,-8 19,-8 7,0 14,3 19,8l145 144c5,5 8,12 8,19 0,7 -3,14 -8,19l-80 79c-16,16 -21,45 -11,66l21 51c7,21 31,39 55,39l113 0c15,0 27,12 27,27l0 124c5,-8 8,-17 8,-27l0 -2775c0,-27 -22,-49 -49,-49z"/>
   <path class="fil22" d="M21179 18898c0,16 13,29 29,29l2838 0 133 -132c5,-5 12,-8 19,-8 7,0 14,3 19,8l80 79c10,10 26,16 42,16 9,0 17,-2 24,-5l52 -21c21,-7 39,-31 39,-55l0 -112c0,-15 12,-27 27,-27l205 0c15,0 27,12 27,27l0 112c0,23 17,47 39,55l52 21c7,3 15,5 24,5 16,0 32,-6 42,-16l80 -79c5,-5 12,-8 19,-8 7,0 14,3 19,8l65 64 0 -1868 -3874 0 0 1906z"/>
   <path class="fil23" d="M21346 18898l0 -1906 -167 0 0 1906c0,16 13,29 29,29l167 0c-16,0 -29,-13 -29,-29z"/>
   <path class="fil24" d="M23063 18283c-77,-77 -189,-97 -284,-60l-321 -321 -65 65c-2,2 -3,4 -2,7 2,19 -3,38 -15,53 -2,3 -2,7 0,10 18,28 16,63 -4,85l255 255c-37,95 -17,208 60,284 66,66 160,93 251,70 2,-1 5,-2 6,-4 2,-2 3,-4 3,-6 1,-5 0,-10 -3,-13l-164 -164 167 -167 164 164c3,3 8,5 13,3 2,-1 4,-2 6,-3 2,-2 3,-4 4,-6 22,-91 -4,-185 -70,-251z"/>
   <path class="fil24" d="M22217 17906c14,0 29,4 41,12 1,1 3,1 4,1 2,0 4,-1 5,-2 13,-10 28,-15 45,-15 3,0 5,0 8,0 0,0 1,0 1,0 2,0 4,-1 6,-2l65 -65 -321 -321c37,-95 17,-208 -60,-284 -66,-66 -160,-93 -251,-71 -2,1 -5,2 -6,4 -2,2 -3,4 -3,6 -1,5 0,10 3,13l164 164 -167 167 -164 -164c-3,-3 -8,-5 -13,-3 -2,1 -4,2 -6,3 -2,2 -3,4 -4,6 -22,91 4,185 70,251 77,77 189,97 284,60l255 255c12,-11 27,-17 44,-17z"/>
   <circle class="fil18" cx="23116" cy="19155" r="132"/>
   <path class="fil25" d="M25024 16761l-3816 0c-16,0 -29,13 -29,29l0 210 3874 0 0 -210c0,-16 -13,-29 -29,-29z"/>
   <path class="fil26" d="M21375 16761l-167 0c-16,0 -29,13 -29,29l0 210 167 0 0 -210c0,-16 13,-29 29,-29z"/>
   <path class="fil24" d="M24446 19984c0,19 16,35 35,35l205 0c19,0 35,-16 35,-35l0 -112c0,-19 15,-40 33,-47l53 -22c17,-9 43,-4 57,9l80 79c14,14 36,14 50,0l145 -144c14,-14 14,-36 0,-50l-80 -79c-14,-14 -18,-39 -9,-57l22 -52c6,-18 27,-33 47,-33l113 0c19,0 35,-16 35,-35l0 -203c0,-19 -16,-35 -35,-35l-113 0c-19,0 -41,-15 -47,-33l-22 -52c-9,-17 -4,-43 9,-57l80 -79c14,-14 14,-36 0,-50l-145 -144c-14,-14 -36,-14 -50,0l-80 79c-14,14 -39,18 -57,9l-53 -22c-18,-6 -33,-27 -33,-47l0 -112c0,-19 -16,-35 -35,-35l-205 0c-19,0 -35,16 -35,35l0 112c0,19 -15,40 -33,47l-53 22c-17,9 -43,4 -57,-9l-80 -79c-14,-14 -36,-14 -50,0l-145 144c-14,14 -14,36 0,50l80 79c14,14 18,39 9,57l-22 52c-6,18 -27,33 -47,33l-113 0c-19,0 -35,16 -35,35l0 203c0,19 16,35 35,35l113 0c19,0 41,15 47,33l22 52c9,17 4,43 -9,57l-80 79c-14,14 -14,36 0,50l145 144c14,14 36,14 50,0l80 -79c14,-14 39,-18 57,-9l53 22c18,6 33,27 33,47l0 112 0 0z"/>
   <path class="fil27" d="M24584 19668c-182,0 -329,-146 -329,-327 0,-180 147,-327 329,-327 182,0 329,146 329,327 0,180 -147,327 -329,327z"/>
   <path class="fil24" d="M24355 19341c0,-163 121,-299 279,-323 -16,-2 -33,-4 -50,-4 -182,0 -329,146 -329,327 0,180 147,327 329,327 17,0 34,-1 50,-4 -158,-24 -279,-159 -279,-323z"/>
   <path class="fil28" d="M24584 19721c-211,0 -382,-170 -382,-380 0,-209 171,-380 382,-380 211,0 382,170 382,380 0,209 -171,380 -382,380zm0 -653c-152,0 -276,123 -276,274 0,151 124,274 276,274 152,0 276,-123 276,-274 0,-151 -124,-274 -276,-274z"/>
   <path class="fil27" d="M24584 19479c-77,0 -139,-62 -139,-138 0,-76 62,-138 139,-138 77,0 139,62 139,138 0,76 -62,138 -139,138z"/>
   <path class="fil24" d="M24545 19341c0,-59 37,-109 89,-129 -16,-6 -32,-9 -50,-9 -77,0 -139,62 -139,138 0,76 62,138 139,138 18,0 35,-3 50,-9 -52,-20 -89,-70 -89,-129z"/>
   <path class="fil28" d="M24584 19532c-106,0 -192,-86 -192,-191 0,-105 86,-191 192,-191 106,0 192,86 192,191 0,105 -86,191 -192,191zm0 -276c-47,0 -86,38 -86,85 0,47 39,85 86,85 47,0 86,-38 86,-85 0,-47 -39,-85 -86,-85z"/>
   <path class="fil18" d="M22145 18057l91 91c8,8 13,16 17,26l39 -39c-9,-4 -18,-10 -25,-17l-91 -91c-8,-8 -13,-16 -17,-25l-39 39c10,4 18,9 26,17z"/>
   <path class="fil18" d="M23089 17251l-47 -47c-5,-5 -15,-7 -22,-4l-105 51c-7,3 -15,11 -18,18l-47 96 -529 529c-23,-2 -47,5 -65,22 6,4 12,8 17,13l91 91c5,5 9,11 13,17 17,-18 24,-42 22,-65l529 -529 96 -47c7,-3 15,-11 18,-18l51 -105c3,-7 2,-16 -4,-22z"/>
   <path class="fil20" d="M22375 18128c-30,30 -81,27 -113,-5l-91 -91c-33,-33 -35,-84 -5,-113 30,-30 81,-27 113,5l91 91c33,33 35,84 5,113z"/>
   <path class="fil29" d="M24582 17396l-1108 0c-35,0 -63,-28 -63,-63 0,-35 28,-63 63,-63l1108 0c35,0 63,28 63,63 0,35 -28,63 -63,63z"/>
   <path class="fil29" d="M24582 17602l-1108 0c-35,0 -63,-28 -63,-63 0,-35 28,-63 63,-63l1108 0c35,0 63,28 63,63 0,35 -28,63 -63,63z"/>
   <path class="fil29" d="M24582 17808l-1108 0c-35,0 -63,-28 -63,-63 0,-35 28,-63 63,-63l1108 0c35,0 63,28 63,63 0,35 -28,63 -63,63z"/>
   <path class="fil30" d="M24582 18152l-1108 0c-35,0 -63,-28 -63,-63 0,-35 28,-63 63,-63l1108 0c35,0 63,28 63,63 0,35 -28,63 -63,63z"/>
   <path class="fil30" d="M24582 18358l-1108 0c-35,0 -63,-28 -63,-63 0,-35 28,-63 63,-63l1108 0c35,0 63,28 63,63 0,35 -28,63 -63,63z"/>
   <path class="fil30" d="M24025 18564l-551 0c-35,0 -63,-28 -63,-63 0,-35 28,-63 63,-63l551 0c35,0 63,28 63,63 0,35 -28,63 -63,63z"/>
   <path class="fil20" d="M21852 18650c-33,33 -86,33 -119,0l-91 -91c-33,-33 -33,-86 0,-119l390 -390c33,-33 86,-33 119,0l91 91c33,33 33,86 0,119l-390 390z"/>
   <path class="fil21" d="M21784 18559c-33,-33 -33,-86 0,-119l378 -378 -11 -11c-33,-33 -86,-33 -119,0l-390 390c-33,33 -33,86 0,119l91 91c33,33 86,33 119,0l11 -11 -80 -80z"/>
   <path class="fil21" d="M22220 17973c30,-30 81,-27 113,5l-55 -55c-33,-33 -84,-35 -113,-5 -30,30 -27,81 5,113l55 55c-33,-33 -35,-84 -5,-113z"/>
   <path class="fil31" d="M3336 11066l-445 1144 -254 0 445 -1144 254 0zm0 0z"/>
   <path class="fil31" d="M3527 11066l254 0 0 1144 -254 0 0 -1144zm0 0z"/>
   <path class="fil31" d="M4226 11066l445 1144 -254 0 -445 -1144 254 0zm0 0z"/>
   <path class="fil31" d="M4226 10812l0 254 -1144 0 0 -254 1144 0zm0 0z"/>
   <path class="fil7" d="M4861 10558l0 254 -2415 0 0 -254 2415 0zm0 0z"/>
   <path class="fil7" d="M3972 8398l254 254 635 0 0 254 -2415 0 0 -254 635 0 254 -254 635 0zm0 0z"/>
   <path class="fil4" d="M4391 9135c24,-24 57,-38 93,-38 38,0 74,17 99,44l151 173 0 -408 -2160 0 0 1652 2160 0 0 -794 -36 -44 -317 -396c-18,-23 -29,-53 -29,-82l0 -14c0,-36 15,-69 38,-93l0 0zm0 0z"/>
   <path class="fil9" d="M4162 9669c175,0 318,142 318,318 0,175 -142,318 -318,318l0 -635zm0 0z"/>
   <path class="fil32" d="M4162 9986l0 318c-175,0 -318,-142 -318,-318l318 0zm0 0z"/>
   <path class="fil33" d="M4162 9669l0 318 -318 0c0,-175 142,-318 318,-318zm0 0z"/>
   <path class="fil34" d="M5624 10558l-381 0 0 1652 762 0 0 -1652 -381 0zm0 0z"/>
   <path class="fil4" d="M5684 9658c87,-30 130,-117 130,-117l281 40c94,13 164,94 164,189l0 407 -254 0 0 381 -762 0 0 -635 -320 0c-39,0 -75,-18 -99,-48l-89 -111 -36 -44 226 -188 64 74 445 -64c0,0 43,87 130,117l121 0zm0 0z"/>
   <path class="fil33" d="M5687 9669l64 508 -127 127 -127 -127 64 -508 3 -10c18,6 38,10 60,10 22,0 43,-4 60,-10l3 10zm0 0z"/>
   <path class="fil5" d="M6259 10177l0 572c0,70 -57,127 -127,127 -35,0 -67,-14 -90,-37 -23,-23 -37,-55 -37,-90l0 -572 254 0zm0 0z"/>
   <path class="fil5" d="M5814 9351l0 191c0,0 -43,87 -130,117 -18,6 -38,10 -60,10 -22,0 -43,-4 -60,-10 -87,-30 -130,-117 -130,-117l0 -191c53,40 119,64 191,64 72,0 138,-24 191,-64zm0 0z"/>
   <path class="fil5" d="M5941 8970l0 127c0,104 -50,196 -127,254 -53,40 -119,64 -191,64 -72,0 -138,-24 -191,-64 -77,-58 -127,-151 -127,-254l0 -127c0,-88 36,-167 93,-225 58,-57 137,-93 225,-93 175,0 318,142 318,318zm0 0z"/>
   <path class="fil5" d="M4924 9531l-226 188 -317 -396c-18,-23 -29,-53 -29,-82l0 -14c0,-36 15,-69 38,-93 24,-24 57,-38 93,-38 38,0 74,17 99,44l151 173 0 1 190 217zm0 0z"/>
   <path class="fil10" d="M3336 8588l635 0 0 127 -635 0 0 -127zm0 0z"/>
   <path class="fil10" d="M3527 9097l-127 0 0 699 -127 0 0 -508 -127 0 0 508 -127 0 0 -318 -127 0 0 318 -127 0 0 127 890 0 0 -127 -127 0 0 -699zm0 0z"/>
   <path class="fil10" d="M2764 10050l127 0 0 127 -127 0 0 -127zm0 0z"/>
   <path class="fil10" d="M3018 10050l635 0 0 127 -635 0 0 -127zm0 0z"/>
   <path class="fil10" d="M6132 10939c105,0 191,-86 191,-191l0 -978c0,-126 -94,-234 -218,-252l-227 -32 0 -106c78,-70 127,-171 127,-283l0 -127c0,-210 -171,-381 -381,-381 -210,0 -381,171 -381,381l0 127c0,113 49,213 127,283l0 106 -356 51 -219 -250 3 0 0 -318 127 0 0 -381 -673 0 -254 -254 -688 0 -254 254 -673 0 0 381 127 0 0 1525 -127 0 0 381 635 0 0 179 -425 1092 -211 0 0 127 3940 0 0 -127 -254 0 0 -1219c20,7 41,12 64,12l0 0zm-448 -785l-60 60 -60 -60 53 -422c2,0 5,0 7,0 3,0 5,0 7,0l53 422zm-314 -1184c0,-140 114,-254 254,-254 140,0 254,114 254,254l0 127c0,140 -114,254 -254,254 -140,0 -254,-114 -254,-254l0 -127zm254 508c45,0 87,-8 127,-22l0 68c-16,24 -60,81 -127,81 -68,0 -112,-57 -127,-81l0 -68c40,14 82,22 127,22zm-222 132c19,26 50,60 91,85l-63 505 194 194 194 -194 -63 -505c42,-25 72,-59 91,-85l241 34c62,9 109,63 109,126l0 978c0,35 -29,64 -64,64 -35,0 -64,-29 -64,-64l0 -890 -127 0 0 635 -635 0 0 -635 -384 0c-19,0 -37,-9 -50,-24l-441 -552c-10,-12 -15,-27 -15,-42l0 -13c0,-37 30,-68 68,-68 20,0 38,8 51,23l428 489 439 -63zm-1938 1520l0 1017 -479 0 395 -1017 84 0zm127 0l127 0 0 1017 -127 0 0 -1017zm254 0l84 0 395 1017 -479 0 0 -1017zm220 0l118 0 395 1017 -118 0 -395 -1017zm225 -75l0 -179 635 0 0 -381 -127 0 0 -556c34,30 78,47 125,47l257 0 0 2160 -465 0 -425 -1092zm1017 -433l254 0 0 1525 -254 0 0 -1525zm-2796 -1906l598 0 254 -254 583 0 254 254 598 0 0 127 -2287 0 0 -127zm127 254l2033 0 0 176 -40 -46c-37,-42 -90,-66 -147,-66 -107,0 -195,87 -195,195l0 13c0,44 15,87 43,122l339 423 0 708 -2033 0 0 -1525zm-127 1652l2287 0 0 127 -2287 0 0 -127zm1652 254l0 127 -1017 0 0 -127 1017 0zm-1037 254l118 0 -395 1017 -118 0 395 -1017zm2562 1017l0 -1525 254 0 0 1525 -254 0zm0 0z"/>
   <path class="fil10" d="M4162 9605c-210,0 -381,171 -381,381 0,210 171,381 381,381 210,0 381,-171 381,-381 0,-210 -171,-381 -381,-381zm-64 136l0 182 -182 0c23,-89 93,-158 182,-182l0 0zm-182 309l182 0 0 182c-89,-23 -158,-93 -182,-182l0 0zm309 182l0 -490c109,28 191,127 191,245 0,118 -81,217 -191,245zm0 0z"/>
   <path class="fil7" d="M18274 2905l0 -264c0,-42 -14,-83 -38,-116 -24,-33 -57,-59 -98,-72l-38 -38 7 -8 302 -90c0,0 45,90 136,90 90,0 136,-90 136,-90l323 97c76,23 129,94 129,174l0 363 -316 0 0 -45c0,-150 -122,-271 -271,-271 -75,0 -143,30 -192,80 -49,49 -80,117 -80,192l0 0zm0 0z"/>
   <path class="fil7" d="M17280 2751l0 153c0,-75 -30,-143 -80,-192 -49,-49 -117,-80 -192,-80 -150,0 -271,122 -271,271l0 45 -316 0 0 -363c0,-80 52,-151 129,-174l323 -97c0,0 45,90 136,90 90,0 136,-90 136,-90l286 86c-93,87 -151,211 -151,349l0 0zm0 0z"/>
   <path class="fil6" d="M18862 4035l-226 0c-50,0 -90,41 -90,90l0 -282c0,-126 -87,-236 -210,-264l-282 -65 -2 0c11,-6 23,-11 35,-15l323 -97c0,0 45,90 136,90 90,0 136,-90 136,-90l323 97c76,23 129,94 129,174l0 363 -271 0zm0 0z"/>
   <path class="fil6" d="M17501 3514l-283 65c-123,28 -210,138 -210,264l0 282c0,-50 -41,-90 -90,-90l-497 0 0 -363c0,-80 52,-151 129,-174l323 -97c0,0 45,90 136,90 90,0 136,-90 136,-90l323 97c12,4 24,9 35,15l-1 0zm0 0z"/>
   <path class="fil4" d="M17325 4261l-316 0 0 -417c0,-126 87,-236 210,-264l283 -65 95 -22 362 0 95 23 0 -1 282 65c123,28 210,138 210,264l0 417 -1221 0zm0 0z"/>
   <path class="fil7" d="M17868 3854l45 407 -271 0 45 -407 181 0zm0 0z"/>
   <path class="fil7" d="M17917 3712l-4 7 -45 136 -181 0 -45 -136 -4 -7 140 -84 140 84zm0 0z"/>
   <path class="fil3" d="M18052 3514l2 0 0 1 -50 248 -86 -52 -140 -84 181 -136 94 22zm0 0z"/>
   <path class="fil3" d="M17503 3514l94 -22 181 136 -140 84 -86 52 -50 -249 1 0zm0 0z"/>
   <path class="fil35" d="M18817 1819l0 45 -72 0c-41,0 -80,-16 -109,-45 -29,29 -68,45 -109,45l-253 0 0 -45c0,-75 30,-143 80,-192 49,-49 117,-80 192,-80 150,0 271,122 271,271l0 0zm0 0z"/>
   <path class="fil35" d="M17280 1865l-253 0c-41,0 -80,-16 -109,-45 -29,29 -68,45 -109,45l-72 0 0 -45c0,-150 122,-271 271,-271 75,0 143,30 192,80 49,49 80,117 80,192l0 45zm0 0z"/>
   <path class="fil5" d="M18410 2190c40,24 86,37 136,37 50,0 96,-13 136,-37l0 127c0,0 -45,90 -136,90 -90,0 -136,-90 -136,-90l0 -127zm0 0z"/>
   <path class="fil5" d="M18681 2190c-40,24 -86,37 -136,37 -49,0 -96,-13 -136,-37 -81,-47 -136,-134 -136,-235l0 -90 253 0c41,0 80,-16 109,-45 29,29 68,45 109,45l72 0 0 90c0,75 -30,143 -80,192 -17,17 -35,31 -56,43l0 0zm0 0z"/>
   <path class="fil5" d="M16873 2190l136 37c50,0 96,-13 136,-37l0 127c0,0 -45,90 -136,90 -90,0 -136,-90 -136,-90l0 -127zm0 0z"/>
   <path class="fil5" d="M17144 2190c-40,24 -86,37 -136,37l-136 -37c-21,-12 -39,-26 -56,-43 -49,-49 -80,-117 -80,-192l0 -90 72 0c41,0 80,-16 109,-45 29,29 68,45 109,45l253 0 0 90c0,100 -55,188 -136,235zm0 0z"/>
   <path class="fil35" d="M18455 2905c-29,29 -68,45 -109,45l-72 0 0 -45c0,-75 30,-143 80,-192 49,-49 117,-80 192,-80 150,0 271,122 271,271l0 45 -253 0c-41,0 -80,-16 -109,-45zm0 0z"/>
   <path class="fil35" d="M17208 2950c-41,0 -80,-16 -109,-45 -29,29 -68,45 -109,45l-253 0 0 -45c0,-150 122,-271 271,-271 75,0 143,30 192,80 49,49 80,117 80,192l0 45 -72 0zm0 0z"/>
   <path class="fil9" d="M17430 2403c86,-81 202,-131 329,-131 64,0 126,13 184,37 57,24 111,59 156,104l40 40c41,14 74,39 98,72 24,33 38,73 38,116l0 354c0,-6 0,-12 -1,-18 -9,-91 -89,-160 -180,-163 -3,0 -5,0 -8,0l-83 0 -45 -90c-89,59 -192,90 -299,90l-191 0c-3,0 -5,0 -8,0 -91,3 -171,71 -180,163 0,6 -1,12 -1,18l0 -244c0,-137 58,-261 151,-349l0 0zm0 0z"/>
   <path class="fil5" d="M18410 3275c40,24 86,37 136,37 50,0 96,-13 136,-37l0 127c0,0 -45,90 -136,90 -90,0 -136,-90 -136,-90l0 -127zm0 0z"/>
   <path class="fil5" d="M16873 3275l136 37c50,0 96,-13 136,-37l0 127c0,0 -45,90 -136,90 -90,0 -136,-90 -136,-90l0 -127zm0 0z"/>
   <path class="fil5" d="M17144 3275c-40,24 -86,37 -136,37l-136 -37c-21,-12 -39,-26 -56,-43 -49,-49 -80,-117 -80,-192l0 -90 253 0c41,0 80,-16 109,-45 29,29 68,45 109,45l72 0 0 90c0,100 -55,188 -136,235zm0 0z"/>
   <path class="fil5" d="M18410 3275c-81,-47 -136,-134 -136,-235l0 -90 72 0c41,0 80,-16 109,-45 29,29 68,45 109,45l253 0 0 90c0,75 -30,143 -80,192 -17,17 -35,31 -56,43 -40,24 -86,37 -136,37 -49,0 -96,-13 -136,-37l0 0zm0 0z"/>
   <path class="fil5" d="M17596 3492l0 -136 4 -9c133,52 155,54 177,54 66,0 127,-20 177,-54l4 9 0 136 -181 136 -181 -136zm0 0z"/>
   <path class="fil5" d="M18274 2995l0 0c0,99 -81,180 -181,180l-12 -3c8,-28 12,-57 12,-87l0 -271c91,3 171,71 180,163 0,6 1,12 1,18zm0 0z"/>
   <path class="fil5" d="M17461 3085c0,30 4,60 12,87l-12 3c-100,0 -181,-81 -181,-180l0 0c0,-6 0,-12 1,-18 9,-91 89,-160 180,-163l0 271zm0 0z"/>
   <path class="fil5" d="M18094 2815l0 271c0,30 -4,60 -12,87 -21,72 -66,134 -127,175 -50,34 -111,54 -177,54 -22,0 -43,-2 -177,-54 -17,-12 -33,-24 -47,-39 -38,-38 -66,-84 -80,-137 -8,-28 -12,-57 -12,-87l0 -271c3,0 5,0 8,0l191 0c107,0 210,-32 299,-90l45 90 83 0c3,0 5,0 8,0l0 0zm0 0z"/>
   <path class="fil10" d="M19179 2950l0 -363c0,-101 -65,-188 -161,-217l-291 -87 0 -69c82,-57 136,-152 136,-259l0 -136c0,-175 -142,-316 -316,-316 -175,0 -316,142 -316,316l0 136c0,107 54,202 136,259l0 69 -256 77c-96,-86 -219,-134 -349,-134 -130,0 -248,48 -340,126l-230 -69 0 -69c82,-57 136,-152 136,-259l0 -136c0,-175 -142,-316 -316,-316 -175,0 -316,142 -316,316l0 136c0,107 54,202 136,259l0 69 -291 87c-96,29 -161,116 -161,217l0 363 90 0 0 -363c0,-60 39,-113 97,-130l291 -87c26,34 77,83 155,83 78,0 128,-49 155,-83l185 56c-59,74 -98,164 -110,263 -58,-61 -139,-100 -230,-100 -175,0 -316,142 -316,316l0 136c0,107 54,202 136,259l0 69 -291 87c-96,29 -161,116 -161,217l0 408 543 0c25,0 45,20 45,45l0 181 1628 0 0 -181c0,-25 20,-45 45,-45l543 0 0 -408c0,-101 -65,-188 -161,-217l-291 -87 0 -69c82,-57 136,-152 136,-259l0 -136c0,-175 -142,-316 -316,-316 -89,0 -169,37 -226,95l0 -43c0,-89 -49,-170 -124,-212l196 -59c26,34 77,83 155,83 78,0 128,-49 155,-83l291 87c58,17 97,70 97,130l0 363 90 0zm-2170 -1356c125,0 226,101 226,226l-207 0c-29,0 -57,-12 -77,-32l-32 -32 -32 32c-20,20 -48,32 -77,32l-26 0c0,-125 101,-226 226,-226l0 0zm-226 362l0 -45 26 0c39,0 77,-11 109,-32 32,21 70,32 109,32l207 0 0 45c0,125 -101,226 -226,226 -125,0 -226,-101 -226,-226zm226 407c-48,0 -79,-40 -90,-58l0 -46c29,9 59,13 90,13 31,0 62,-5 90,-13l0 46c-11,17 -42,58 -90,58zm1243 794c23,58 63,108 114,144l0 69 -291 87c-10,3 -19,7 -28,11l-43 -10 0 -89c48,-39 86,-90 110,-148 52,-5 101,-27 138,-63l0 0zm-474 292c48,0 94,-10 136,-27l0 49 -136 102 -136 -102 0 -49c42,17 88,27 136,27zm-191 94l110 83 -113 68 -29 -143 32 -7zm141 358l100 0 35 316 -170 0 35 -316zm108 -90l-116 0 -26 -78 84 -50 84 50 -26 78zm23 -185l110 -83 32 7 -29 143 -113 -68zm336 -538c-16,17 -36,29 -57,37 1,-12 2,-25 2,-37l0 -216c49,18 85,61 90,112 4,39 -9,76 -35,105l0 0zm-146 -1c0,150 -122,271 -271,271 -150,0 -271,-122 -271,-271l0 -226 154 0c99,0 194,-25 280,-72l36 72 73 0 0 226zm-631 37c-22,-7 -41,-19 -57,-37 -26,-29 -38,-66 -35,-105 5,-51 41,-94 90,-112l0 216c0,13 1,25 2,37l0 0zm24 96c23,58 61,109 110,148l0 89 -43 10c-9,-4 -18,-8 -28,-11l-291 -87 0 -69c51,-36 91,-86 114,-144 37,37 86,59 138,63l0 0zm-433 -541c125,0 226,101 226,226l-26 0c-29,0 -57,-12 -77,-32l-32 -32 -32 32c-20,20 -48,32 -77,32l-207 0c0,-125 101,-226 226,-226zm-226 362l0 -45 207 0c39,0 77,-11 109,-32 32,21 70,32 109,32l26 0 0 45c0,125 -101,226 -226,226 -125,0 -226,-101 -226,-226l0 0zm226 316c31,0 62,-5 90,-13l0 46c-11,17 -42,58 -90,58 -48,0 -79,-40 -90,-58l0 -46c29,9 59,13 90,13zm-90 633l-181 0 0 -316 -90 0 0 316 -181 0 0 -318c0,-60 39,-113 97,-130l291 -87c26,34 77,83 155,83 78,0 128,-49 155,-83l171 51 -126 29c-144,33 -245,160 -245,308l0 55 90 0 0 -55c0,-106 72,-196 175,-220l237 -55 53 267 95 -57 27 80 -40 357 -231 0 0 -362 -90 0 0 362 -226 0 0 -90c0,-75 -61,-136 -136,-136l0 0zm2073 -447c58,17 97,70 97,130l0 318 -181 0 0 -316 -90 0 0 316 -181 0c-75,0 -136,61 -136,136l0 90 -226 0 0 -362 -90 0 0 362 -231 0 -40 -357 27 -80 95 57 53 -267 237 55c103,24 175,114 175,220l0 55 90 0 0 -55c0,-148 -101,-275 -245,-308l-126 -29 171 -51c26,34 77,83 155,83 78,0 128,-49 155,-83l291 87zm-355 -153c-11,17 -42,58 -90,58 -48,0 -79,-41 -90,-58l0 -46c29,9 59,13 90,13 31,0 62,-5 90,-13l0 46zm-90 -123c-125,0 -226,-101 -226,-226l0 -45 26 0c39,0 77,-11 109,-32 32,21 70,32 109,32l207 0 0 45c0,125 -101,226 -226,226l0 0zm0 -588c125,0 226,101 226,226l-207 0c-29,0 -57,-12 -77,-32l-32 -32 -32 32c-20,20 -48,32 -77,32l-26 0c0,-125 101,-226 226,-226zm-316 139c-40,-30 -90,-49 -143,-49l-55 0 -56 -111 -43 28c-81,54 -176,83 -274,83l-191 0c-54,0 -103,19 -143,49l0 -67c0,-239 195,-434 434,-434 116,0 225,45 307,127l48 48 10 3c63,21 105,79 105,145l0 177zm316 -1225c125,0 226,101 226,226l-26 0c-29,0 -57,-12 -77,-32l-32 -32 -32 32c-20,20 -48,32 -77,32l-207 0c0,-125 101,-226 226,-226l0 0zm-226 362l0 -45 207 0c39,0 77,-11 109,-32 32,21 70,32 109,32l27 0 0 45c0,125 -101,226 -226,226 -125,0 -226,-101 -226,-226zm226 407c-48,0 -79,-41 -90,-58l0 -46c29,9 59,13 90,13 31,0 62,-5 90,-13l0 46c-11,17 -42,58 -90,58zm0 0z"/>
   <path class="fil10" d="M17415 1503l90 0 0 90 -90 0 0 -90zm0 0z"/>
   <path class="fil10" d="M17415 1684l90 0 0 497 -90 0 0 -497zm0 0z"/>
   <path class="fil10" d="M18048 1503l90 0 0 90 -90 0 0 -90zm0 0z"/>
   <path class="fil10" d="M18048 1684l90 0 0 497 -90 0 0 -497zm0 0z"/>
   <path class="fil10" d="M17596 1684l90 0 0 316 -90 0 0 -316zm0 0z"/>
   <path class="fil10" d="M17596 2091l90 0 0 90 -90 0 0 -90zm0 0z"/>
   <path class="fil10" d="M17868 1684l90 0 0 316 -90 0 0 -316zm0 0z"/>
   <path class="fil10" d="M17868 2091l90 0 0 90 -90 0 0 -90zm0 0z"/>
   <polygon class="fil36" points="4054,7134 4054,6086 4600,6086 4600,7134 4863,7134 4353,7645 3842,7134 "/>
   <circle class="fil29" cx="23221" cy="10304" r="2336"/>
   <rect class="fil18" x="22446" y="11281" width="750" height="393"/>
   <rect class="fil19" x="22446" y="11281" width="189" height="393"/>
   <path class="fil20" d="M23696 11665l-1805 0c-27,0 -49,22 -49,49l0 244c0,27 22,49 49,49l1805 0 0 -341 0 0z"/>
   <path class="fil21" d="M22032 11957l0 -244c0,-27 22,-49 49,-49l-189 0c-27,0 -49,22 -49,49l0 244c0,27 22,49 49,49l189 0c-27,0 -49,-22 -49,-49z"/>
   <path class="fil20" d="M24919 8425l-4194 0c-27,0 -49,22 -49,49l0 2768c0,27 22,49 49,49l2972 0 0 -1456c0,-37 30,-67 67,-67l1204 0 0 -1294c0,-27 -22,-49 -49,-49z"/>
   <path class="fil22" d="M20889 10805c0,16 13,29 29,29l2778 0 0 -999c0,-37 30,-67 67,-67l991 0 0 -865 -3865 0 0 1902z"/>
   <path class="fil23" d="M21078 10805l0 -1902 -189 0 0 1902c0,16 13,29 29,29l189 0c-16,0 -29,-13 -29,-29z"/>
   <circle class="fil18" cx="22822" cy="11062" r="131"/>
   <path class="fil37" d="M23696 9991l-509 0c-16,0 -29,13 -29,29l0 569c0,16 13,29 29,29l509 0 0 -626z"/>
   <path class="fil38" d="M23348 10588l0 -569c0,-16 13,-29 29,-29l-189 0c-16,0 -29,13 -29,29l0 569c0,16 13,29 29,29l189 0c-16,0 -29,-13 -29,-29z"/>
   <path class="fil37" d="M23763 9768l444 0 0 -623c0,-26 -21,-48 -48,-48l-2677 0c-26,0 -48,21 -48,48l0 634c0,26 21,48 48,48l2214 0c4,-33 32,-59 66,-59z"/>
   <path class="fil38" d="M21624 9779l0 -634c0,-26 21,-48 48,-48l-189 0c-26,0 -48,21 -48,48l0 634c0,26 21,48 48,48l189 0c-26,0 -48,-21 -48,-48z"/>
   <path class="fil27" d="M24725 8674l-3806 0c-16,0 -29,13 -29,29l0 209 3865 0 0 -209c0,-16 -13,-29 -29,-29z"/>
   <path class="fil24" d="M21108 8674l-189 0c-16,0 -29,13 -29,29l0 209 189 0 0 -209c0,-16 13,-29 29,-29z"/>
   <path class="fil25" d="M22311 10142l-802 0c-39,0 -72,-32 -72,-72 0,-40 32,-72 72,-72l802 0c39,0 72,32 72,72 0,39 -32,72 -72,72z"/>
   <path class="fil25" d="M22311 10375l-802 0c-39,0 -72,-32 -72,-72 0,-40 32,-72 72,-72l802 0c39,0 72,32 72,72 0,39 -32,72 -72,72z"/>
   <path class="fil25" d="M22311 10609l-802 0c-39,0 -72,-32 -72,-72 0,-40 32,-72 72,-72l802 0c39,0 72,32 72,72 0,40 -32,72 -72,72z"/>
   <path class="fil25" d="M22940 10142l-413 0c-39,0 -72,-32 -72,-72 0,-40 32,-72 72,-72l413 0c39,0 72,32 72,72 0,39 -32,72 -72,72z"/>
   <path class="fil25" d="M22940 10375l-413 0c-39,0 -72,-32 -72,-72 0,-40 32,-72 72,-72l413 0c39,0 72,32 72,72 0,39 -32,72 -72,72z"/>
   <path class="fil25" d="M22940 10609l-413 0c-39,0 -72,-32 -72,-72 0,-40 32,-72 72,-72l413 0c39,0 72,32 72,72 0,40 -32,72 -72,72z"/>
   <path class="fil18" d="M25481 9758c42,0 76,34 76,76l0 2305c0,42 -34,76 -76,76l-1717 0c-42,0 -76,-34 -76,-76l0 -2305c0,-42 34,-76 76,-76l1717 0 0 0z"/>
   <path class="fil22" d="M23894 11916c-26,0 -48,-21 -48,-48l0 -1916c0,-26 21,-48 48,-48l1456 0c26,0 48,21 48,48l0 1916c0,26 -21,48 -48,48l-1456 0z"/>
   <path class="fil23" d="M24035 11869l0 -1916c0,-26 21,-48 48,-48l-189 0c-26,0 -48,21 -48,48l0 1916c0,26 21,48 48,48l189 0c-26,0 -48,-21 -48,-48z"/>
   <path class="fil18" d="M24533 12107c-26,0 -48,-21 -48,-48l0 -19c0,-26 21,-48 48,-48l179 0c26,0 48,21 48,48l0 19c0,26 -21,48 -48,48l-179 0z"/>
   <path class="fil27" d="M25398 10089l0 -136c0,-26 -21,-48 -48,-48l-1456 0c-26,0 -48,21 -48,48l0 136 1551 0 0 0z"/>
   <path class="fil24" d="M24083 9905l-189 0c-26,0 -48,21 -48,48l0 136 189 0 0 -136c0,-26 21,-48 48,-48z"/>
   <path class="fil25" d="M24947 10961l-650 0c-39,0 -72,-32 -72,-72 0,-40 32,-72 72,-72l650 0c39,0 72,32 72,72 0,39 -32,72 -72,72z"/>
   <path class="fil25" d="M24947 11182l-650 0c-39,0 -72,-32 -72,-72 0,-39 32,-72 72,-72l650 0c39,0 72,32 72,72 0,40 -32,72 -72,72z"/>
   <path class="fil25" d="M24947 11402l-650 0c-39,0 -72,-32 -72,-72 0,-39 32,-72 72,-72l650 0c39,0 72,32 72,72 0,40 -32,72 -72,72z"/>
   <path class="fil37" d="M25250 10650c0,26 -21,48 -48,48l-1160 0c-26,0 -48,-21 -48,-48l0 -393c0,-26 21,-48 48,-48l1160 0c26,0 48,21 48,48l0 393z"/>
   <path class="fil38" d="M24184 10650l0 -393c0,-26 21,-48 48,-48l-189 0c-26,0 -48,21 -48,48l0 393c0,26 21,48 48,48l189 0c-26,0 -48,-21 -48,-48z"/>
   <path class="fil37" d="M25078 11767c0,26 -21,48 -48,48l-817 0c-26,0 -48,-21 -48,-48l0 -161c0,-26 21,-48 48,-48l817 0c26,0 48,21 48,48l0 161 0 0z"/>
   <path class="fil38" d="M24355 11767l0 -161c0,-26 21,-48 48,-48l-189 0c-26,0 -48,21 -48,48l0 161c0,26 21,48 48,48l189 0c-26,0 -48,-21 -48,-48z"/>
   <circle class="fil39" cx="24622" cy="12069" r="69"/>
   <path class="fil40" d="M21781 10355c20,0 37,23 37,51l0 1552c0,28 -16,51 -37,51l-824 0c-20,0 -37,-23 -37,-51l0 -1552c0,-28 16,-51 37,-51l824 0 0 0z"/>
   <path class="fil22" d="M21021 11807c-13,0 -23,-14 -23,-32l0 -1290c0,-18 10,-32 23,-32l698 0c13,0 23,14 23,32l0 1290c0,18 -10,32 -23,32l-698 0z"/>
   <path class="fil23" d="M21088 11775l0 -1290c0,-18 10,-32 23,-32l-91 0c-13,0 -23,14 -23,32l0 1290c0,18 10,32 23,32l91 0c-13,0 -23,-14 -23,-32z"/>
   <path class="fil39" d="M21327 11936c-13,0 -23,-14 -23,-32l0 -12c0,-18 10,-32 23,-32l86 0c13,0 23,14 23,32l0 12c0,18 -10,32 -23,32l-86 0z"/>
   <path class="fil27" d="M21742 10577l0 -92c0,-18 -10,-32 -23,-32l-698 0c-13,0 -23,14 -23,32l0 92 744 0 0 0z"/>
   <path class="fil24" d="M21111 10453l-91 0c-13,0 -23,14 -23,32l0 92 91 0 0 -92c0,-18 10,-32 23,-32z"/>
   <path class="fil25" d="M21525 11164l-312 0c-19,0 -34,-22 -34,-48 0,-27 15,-48 34,-48l312 0c19,0 34,22 34,48 0,27 -15,48 -34,48z"/>
   <path class="fil25" d="M21525 11313l-312 0c-19,0 -34,-22 -34,-48 0,-27 15,-48 34,-48l312 0c19,0 34,22 34,48 0,27 -15,48 -34,48z"/>
   <path class="fil25" d="M21525 11461l-312 0c-19,0 -34,-22 -34,-48 0,-27 15,-48 34,-48l312 0c19,0 34,22 34,48 0,27 -15,48 -34,48z"/>
   <path class="fil37" d="M21671 10955c0,18 -10,32 -23,32l-556 0c-13,0 -23,-14 -23,-32l0 -265c0,-18 10,-32 23,-32l556 0c13,0 23,14 23,32l0 265z"/>
   <path class="fil38" d="M21159 10955l0 -265c0,-18 10,-32 23,-32l-91 0c-13,0 -23,14 -23,32l0 265c0,18 10,32 23,32l91 0c-13,0 -23,-14 -23,-32z"/>
   <path class="fil37" d="M21588 11707c0,18 -10,32 -23,32l-392 0c-13,0 -23,-14 -23,-32l0 -109c0,-18 10,-32 23,-32l392 0c13,0 23,14 23,32l0 109 0 0z"/>
   <path class="fil38" d="M21242 11707l0 -109c0,-18 10,-32 23,-32l-91 0c-13,0 -23,14 -23,32l0 109c0,18 10,32 23,32l91 0c-13,0 -23,-14 -23,-32z"/>
   <path class="fil41" d="M13916 9668c-83,8 -247,9 -325,35l180 260c59,84 522,746 544,807l34 -11c-4,-62 243,-514 274,-583 14,-32 13,-40 26,-71 41,-97 245,-452 240,-516 -91,28 -197,7 -288,35 -5,-48 40,-195 58,-242 66,-172 106,-278 211,-446 411,-660 1230,-1088 2010,-980 362,50 720,162 1013,387 51,39 89,69 141,112 564,476 850,1285 691,2010 -15,67 -28,116 -45,183 -95,358 -308,665 -564,925 -55,56 -43,62 -108,104 -568,376 -2819,236 -3628,277l0 692 3179 24c23,-8 45,-16 67,-24 2002,-735 2487,-3476 666,-4829 -1175,-873 -2892,-669 -3826,545 -125,162 -286,423 -358,607 -43,111 -85,222 -115,335l-77 363z"/>
   <polygon class="fil42" points="8008,10603 6960,10603 6960,10057 8008,10057 8008,9793 8519,10304 8008,10815 "/>
   <polygon class="fil43" points="22817,14071 22817,13022 23363,13022 23363,14071 23627,14071 23116,14581 22606,14071 "/>
   <polygon class="fil44" style="mask:url(#id0)" points="19404,12645 16712,12645 16712,11941 19404,11941 19404,11602 20062,12260 19404,12918 "/>
  </g>
 </g>
</svg>
